<svg width="254" height="473" viewBox="0 0 254 473" fill="none" xmlns="http://www.w3.org/2000/svg"><g clip-path="url(#a)" fill="#00467F"><path d="M253.734 133.73c0-.067 0-.134-.067-.268-.465-.668-.865-1.337-1.464-2.006-.266-.334-1.93-1.136-1.864-1.471.134-1.337-2.995-3.945-3.927-4.68-1.531-1.07-3.394-.803-4.659.401-1.598 1.471-1.664 3.343-1.132 5.349 2.197 5.215-5.325 5.416-8.32 6.486-2.396.802-5.059.735-7.521 1.137-.799.133-7.322 1.337-7.522.802-.066-.201 3.262-2.273 3.528-2.541a49.023 49.023 0 0 0 1.93-1.605c.466-.401.866-1.471 1.465-1.671-.466-.669-1.132-.87-1.864-.468-1.065.601-2.13 1.003-3.262 1.538-.599.267-6.19 3.075-6.456 2.674-.133-.267 7.122-5.817 7.721-6.686 1.265-1.739-1.398-1.204-2.596-1.204-1.731.067-3.062 1.805-4.46 2.742-1.464 1.003-2.396 2.072-3.594 3.276-.599.602-.865 1.27-1.398 1.939-.399.468-.599 1.204-1.198 1.471-.865.334-2.063.134-2.995.201-1.198.066-2.396.2-3.594.334-2.863.401-5.991 1.07-8.387 2.875-1.132.869.199-2.34.266-2.608.865-3.075 1.464-6.218 2.063-9.361.533-2.942.999-5.817 1.332-8.759.199-1.404.399-2.875.599-4.279.066-.669.199-1.338.266-2.006 0-.134-.067-.736.133-.736.333 0 .666.936.799 1.204.998 1.404 2.596 2.407 4.326 2.608 1.931.2 3.994.735 5.658-.669 1.132-1.003 1.731-2.541 1.864-4.079.133-2.206-.666-4.212-1.132-6.285-.199-.936-.333-1.872-.333-2.875 0-.335.6-2.541.6-2.608 1.996 3.076 2.329 7.689 5.524 9.963 1.398 1.003 2.463 2.474 3.728 3.611 1.464 1.27 3.594 2.006 5.524 2.273 2.663.334 7.389-.267 8.72-3.076.599-1.805 1.531-2.942.466-4.881-1.065-1.404-2.729-2.273-3.728-3.811 1.798-.736 4.327-.335 6.257-.669 2.796-.668 5.192-.735 7.788-2.206 1.864-1.07 3.727-2.541 4.393-4.68.732-2.207-.333-5.083-2.663-5.818-2.196-.669-4.992-.334-7.255-.134-1.264.134-2.662.401-3.927.401-.266 0-3.195-.2-2.795-.601.732-.67 2.129-.936 2.995-1.472 1.065-.668 2.063-1.337 2.995-2.206 1.731-1.672 3.461-3.878 4.393-6.085.799-1.939.732-4.88-1.597-5.817-2.064-.802-5.192.736-6.989 1.605a34.293 34.293 0 0 1-7.788 2.54c-.399.068-2.796.937-2.663.068.2-1.405.6-2.742.666-4.146.2-2.942.533-5.817.266-8.76-.266-2.54-1.73-3.744-3.727-5.148-4.26-2.875-10.65 1.337-14.244 3.678-.533.334-.999.668-1.465 1.07-.466.334-1.131 1.337-1.664 1.47-.599.134-1.198-2.674-1.331-3.142-.666-1.605-1.132-3.343-1.464-5.082-.2-1.203-.133-4.145-.999-4.948-2.063-1.872-6.057-.334-7.854 1.07-1.198.936-1.531 2.34-1.864 3.745-.399 1.604.4 3.209.599 4.814-.998-1.07-1.597-2.34-2.329-3.611l-.999-1.805c-.599-.468-1.065-.535-1.73-.87-.999-.468-1.997.067-2.863.602-.066.535-1.131.936-1.464 1.204-.532.468-.998.936-1.398 1.538-1.331 2.006-1.131 4.48-.133 6.552.599 1.338 1.531 2.541 2.197 3.812.199.4 2.928 2.808 2.795 3.009-.199.334-1.797-.803-2.063-.937-.999-.601-2.064-1.07-2.995-1.671-1.798-1.137-3.794-3.276-6.058-3.343-1.996 0-3.661 1.47-4.792 3.009-.599.869-.932 1.872-.732 2.875.266 1.337.333 1.07-.999 1.337-2.063.468-2.662 3.009-2.596 4.747.067 2.407.4 4.748 1.997 6.687 1.531 1.805 3.661 2.675 5.791 3.477 2.663 1.003 5.125 1.671 7.988 1.738 2.396.067 4.859-.067 7.255-.334 1.464-.2-.599.802-.799.936-1.131.602-2.263 1.204-3.461 1.739-.932.468-1.997.735-2.929 1.203-.599.401-1.464.335-2.13.669-1.464.668-1.997 2.273-2.396 3.677-.533 2.073 1.531 3.812 2.995 4.948 2.197 1.338 4.793 1.873 7.389 1.404 4.459-.802 8.253-3.811 11.848-6.352-2.796 2.809-3.595 8.292-4.393 12.972-.999 5.884-.999 11.902-2.596 17.652-.666 2.608-1.664 5.082-2.863 7.489-1.198 2.407-2.928 4.146-4.925 5.951-2.396 2.14-4.593 4.48-6.923 6.687-2.396 2.273-4.925 4.346-7.388 6.485-3.062 2.675-6.124 5.35-9.119 8.091-4.127 3.744-8.254 7.556-12.447 11.3-.932.869-1.93 1.672-2.729 2.675l-1.398 1.604s-.799.669-.665.134c.066-.2.332-.802.399-.936.399-.602.333-1.003.466-1.672.266-1.203.732-2.273.932-3.476.998-5.283 3.394-10.431 6.257-15.045 1.065-1.738 2.196-3.41 3.261-5.082.599-.936 2.13-3.61-.2-2.674-3.261 2.273-5.591 5.282-7.588 8.759.067-.535.133-1.07.267-1.672.066-.2.133-.401.199-.535.133-.668.267-1.337.466-1.939.799-2.607 1.997-5.081 3.661-7.288 0-.067.067-.067.067-.134 1.464-1.671 3.062-3.276 4.925-4.413 2.13-1.203 4.127-2.34 6.057-3.878 1.664-1.404 3.395-2.808 4.926-4.413 1.065-1.07 3.395-3.143 2.929-4.814-.267-1.003-3.927 2.14-4.327 2.474-.399.334-2.33 2.006-3.927 3.009.399-.736.732-1.404 1.198-2.14 1.731-1.738 3.195-3.677 4.327-5.817.466-.869 5.724-9.829 3.461-10.23-.999-.201-2.663 2.741-3.195 3.477-1.198 1.604-2.396 3.343-3.395 5.081-.732 1.204-1.464 2.474-2.063 3.745a5.774 5.774 0 0 0-.666 1.07c-.732 1.27-1.398 2.54-2.13 3.811-.066.134-.133.2-.199.334.399-1.27 1.53-4.346 1.597-4.747.732-2.207 1.93-4.413 2.529-6.62.133-.535.466-2.073-.532-2.006-1.065.067-1.598 1.672-1.997 2.407-.599 1.003-1.132 1.939-1.731 2.942-.931 1.605-1.331 3.344-1.53 5.149 0 .267-.067.535-.067.802v-.133c-.2 1.738-.399 3.543-1.132 5.081-.199.201-.466.401-.732.669-3.062 2.675-5.591 6.419-7.721 9.896-1.065 1.805-1.93 3.611-2.596 5.617-.266.668-.399 1.404-.532 2.139-.133.803-.333 1.471-.799 2.073-.466-5.684-2.197-11.166-4.992-16.114-.2-.335-.4-.602-.732-.736-1.931-1.07-1.465 2.407-1.398 3.276.133 2.474.932 4.882 1.73 7.222.4 1.137.733 2.273 1.132 3.41.399.869 1.065 1.805.932 2.741 0-.2-1.598-1.537-1.797-1.738l-2.463-2.474c-.4-.401-.799-.802-1.265-1.07-.466-.267-1.131-.334-1.597-.067-2.596 1.404 4.06 6.553 4.792 7.69.865 1.404 1.864 2.607 2.596 4.145.333.736.666 1.538 1.065 2.274.533 1.203-.067 2.006-.067 3.209.067 2.274-.266 4.547-.798 6.753-.466 2.207-1.132 4.414-2.064 6.486-.932 2.14-2.263 3.745-3.727 5.55-2.529 3.21-4.526 6.687-6.19 10.364-1.864 4.146-3.395 8.559-4.726 12.838a63.226 63.226 0 0 0-1.198 4.814c-.2 1.003-.533 2.14-.533 3.143 0 .468-.2 1.872-.399 2.273-.599-.334-.4-2.072-.599-2.674-.333-1.271-.533-2.608-.733-3.878-.465-2.407-.865-4.815-1.264-7.289a180.215 180.215 0 0 0-1.93-10.096c-.134-.602-.866-4.079-.999-4.547-.399-2.741-1.065-5.416-1.731-8.091l-.998-4.011c-.333-1.271-1.065-2.675-.865-4.012.199-1.137-.4-1.338-.599-2.407-.267-1.271-.333-2.608-.666-3.879-.333-1.27-.998-2.54-1.065-3.811-.133-1.605.266-3.209.333-4.814.266-11.701 1.398-23.336 3.794-34.77.932-4.613 3.727-8.826 7.987-10.965 2.13-1.07 4.194-2.341 6.324-3.544 2.529-1.338 5.192-2.274 7.721-3.544 3.461-1.805 6.59-4.48 10.25-5.684 3.595-1.203 7.123-2.674 10.717-4.078.732-.268 1.065-.402 1.265-1.271.066-.267.199-.735-.2-.802-1.531-.468-3.861.2-5.392.468-4.06.802-7.654 2.541-11.515 3.811.2-1.203 1.531-2.741 2.263-3.744.067-.602.732-1.471 1.065-2.073.533-1.204 1.198-2.407 1.864-3.544 1.331-2.273 2.729-4.413 3.794-6.887.932-2.14 1.997-4.346 2.662-6.62.799-2.474 1.265-5.014 2.33-7.355.266-.535.666-1.404.2-2.005-.666-.736-1.731 1.738-1.93 2.14a193.684 193.684 0 0 0-3.994 7.22c-1.198 2.34-2.53 4.614-3.861 6.888-.732 1.27-1.464 2.474-2.196 3.744-.533 1.137-.999 2.407-1.731 3.477-.266-.936-.333-2.34.133-3.276.2-1.07.067-2.407.067-3.477 0-3.21-.4-6.152-1.598-9.16-.133-.402-.466-.603-.865-.536-.732.134-.399 1.003-.399 1.605 0 1.672-.067 3.343-.2 5.015-.2 3.343-.333 6.686-.599 10.03-.2 2.674-.067 6.084-1.198 8.558-.999 2.274-3.461 4.413-5.591 5.617-2.596 1.471-5.525 2.741-8.254 4.012-1.398.601-2.663 1.27-3.994 2.006-.799.468-1.464 1.471-2.329 1.738.532-.669.399-1.672 1.065-2.206.732-.602 1.198-1.739 1.597-2.675 1.198-2.675 2.197-5.416 3.062-8.157 1.797-5.751 3.594-11.434 5.192-17.251.665-2.541 1.464-5.015 2.263-7.556.932-2.942 1.531-5.884 2.329-8.826 1.531-5.35 2.863-11.1 5.725-15.981.466-.802 1.398-1.404 1.997-2.14.332-.4.665-.802.998-1.136 2.796-2.474 2.263-2.14 4.193-1.739 1.598.335 2.863-.134 4.127-1.203 1.797-1.471 3.195-3.01 1.997-5.483-.466-1.003-1.464-1.605-1.797-2.675.2 0-.599-.802-.599-.735-.466-.335-.999-.335-1.531-.201-2.13.736-.732-1.003-2.463-1.404-.998-.2-1.331.2-2.063-.468-.599-.602-2.396.067-3.195.2-2.064.335-3.395 2.809-3.461 4.748a5.536 5.536 0 0 0 .732 3.076c.333.668 2.13 2.273 1.797 3.008-.999 2.274-3.128 4.213-4.327 6.486-1.397 2.541-2.329 5.283-3.594 7.89-.466 1.003-3.261 9.963-4.526 13.908 0-.133-.067-.2-.067-.334-.266-1.003-.532-1.94-.798-2.942-.2-2.073-.666-4.079-.999-6.085-.732-4.079-1.664-8.224-.998-12.37.333-2.006.599-3.945.665-5.95 0-.803.2-1.405.2-2.207 0-.803-.2-1.672-.2-2.474 0-.468-.532-.268-.732 0-.466.869-.665 1.671-.998 2.608-.533 1.604-.599 3.209-1.265 4.747-.799-1.137-.932-2.608-1.265-3.945-.399-1.538-1.331-3.143-1.996-4.614-1.265-3.076-2.996-5.55-4.993-8.157-.532-.736-1.797-2.474-1.93-.669-.133 1.805.666 3.477 1.265 5.082 1.131 3.343 1.93 6.82 3.261 10.096 1.065 2.608 2.33 5.149 3.395 7.757 1.398 3.343 1.797 6.753 2.529 10.23a70.092 70.092 0 0 1 1.598 10.498c.133 1.939.199 3.81.066 5.75-.066 1.471.067 3.41-.332 4.814.332-1.07-.533-1.805-.866-2.741-.532-1.538-.998-3.01-1.531-4.547-.998-2.942-2.13-5.884-3.461-8.692-1.065-2.207-1.93-4.48-3.062-6.62-.599-1.204-1.331-2.407-1.997-3.544-.532-.87-.998-2.54-1.797-3.142-.865-.67-1.73-.402-1.398.802.333 1.27.799 2.474 1.265 3.744 1.065 2.742 2.263 5.416 3.328 8.09.999 2.542 1.93 5.15 2.862 7.757.999 2.808 2.263 5.55 3.062 8.425.333 1.404.599 2.808.865 4.213.2 1.136.866 2.942.666 4.078-.599 3.009-1.997 6.018-2.929 8.893-1.863 5.483-3.661 10.899-5.524 16.382-1.797 5.483-2.862 10.899-3.794 16.583-.4 2.407-.599 4.747-.932 7.154-.466 3.076-.266 5.884-.333 8.96 0 .334.067 1.137 0 1.471-.133.535-.599-.134-.666-.334-.199-.402-1.131-4.681-1.397-5.483-.267-.869-4.86-18.187-5.791-21.263-.2-.669-.4-1.271-.666-1.872a153.21 153.21 0 0 1-2.063-5.884c-1.93-6.085-4.393-11.835-6.523-17.853-1.93-5.416-4.26-10.699-6.39-16.048-.799-2.006-1.398-4.212-2.596-6.018-.6-.936-.799-2.206-1.198-3.343-.466-1.404-1.132-2.808-1.73-4.145-.933-2.14-1.399-4.48-2.53-6.553-.133-.2-.799-1.003-.732-1.204.133-.468.066-1.003-.2-1.404-.6-1.137-1.465-1.872-1.797-3.142-.2-.736-1.132-2.408-.466-3.01.599-1.002.665-2.206.599-3.343-.133-2.875-1.065-5.616-1.93-8.358-.2-.601-.4-1.136-.333-1.738 1.664 1.203 2.995 3.009 4.792 4.012 1.73 1.003 3.728 1.604 5.724 1.604 1.864 0 3.794-.4 5.259-1.671 1.464-1.27 3.86-3.477 3.86-5.55 0-1.003-.399-1.805-.931-2.608-.466-.735-.6-1.538-.999-2.273-.665-1.404-2.063-2.006-3.395-2.608-.2-.067-1.397-.401-1.397-.602 0-.334 1.597-.601 1.864-.668.998-.268 1.93-.468 2.795-.936.732-.401 1.664-1.003 2.463-1.204 1.997-.468 4.06-2.14 5.79-3.276 1.731-1.137 3.196-2.541 4.46-4.213 2.197-2.875 4.327-7.355 1.864-10.832-2.33-3.343-7.455-.535-10.117.736-.932.468-11.449 5.081-11.516 4.613-.066-.334 1.731-1.538 1.997-1.805.666-.87 1.465-1.672 2.197-2.54 1.398-1.672 2.596-3.812 3.261-5.885.8-2.407 1.665-4.747.866-7.221-1.664-1.872-3.661-2.207-5.725-.87-3.727 2.474-6.456 6.152-9.85 8.96-1 .87-1.066.669-.933-.601.2-1.338.466-2.742.267-4.08-.267-2.005-1.198-5.215-3.062-6.218-1.664-.735-3.461-.601-4.593.937-1.53 2.072-1.265 5.081-1.997 7.488-.066.268-.665 2.608-1.065 2.34-.932-.668-1.398-2.206-1.864-3.142-.931-1.872-2.196-3.678-3.66-5.149C54.181 1.94 52.517.67 50.453-.066c-1.93-.67-4.26.936-5.658 2.14-1.464 1.27-3.128 2.874-3.927 4.613-.532 1.203-1.065 2.34-1.398 3.61-.2.736.067 3.01-.599 3.41-.798-1.404-1.93-2.74-2.795-4.212-.999-1.671-1.864-3.41-2.663-5.215-.399-.87-.798-2.006-1.664-2.541-.998-.535-2.795-.468-3.727.2-2.862 2.14-4.194 5.283-3.062 8.693.666 1.939 1.664 3.61 2.796 5.35.532.802 1.131 2.473 2.13 2.473.665.334 1.264.602 1.93.936 3.062 4.547-10.983-3.811-12.647-4.48-1.132-.468-2.596-1.337-3.794-1.27a9.713 9.713 0 0 0-3.395.802c-2.063.936-3.86 2.608-4.725 4.68-1.997 5.216 2.595 8.359 6.922 9.763 2.13.669 4.06 1.872 6.257 2.407.133.067 1.997.535.932.468-1.531-.134-3.129-.067-4.66-.134-1.33-.066-2.662-.133-3.993-.4-.866-.201-1.864-.201-2.663-.402-2.063-.535-5.125-1.07-7.189-.267C.4 31.56-.932 33.7-.333 36.442.2 38.982 2.53 40.32 4.793 41.39a19.903 19.903 0 0 0 7.055 1.738c1.265.067 2.53.067 3.728 0 .333 0 3.461-.067 3.128.2-2.196 3.01-9.718 3.21-9.385 8.158.266 4.012 5.192 5.684 8.586 5.416 2.197-.133 4.127-.802 6.057-1.805.2-.468 2.863-2.006 2.996-1.337.865 3.276 6.257 5.215 9.252 4.546 1.797-.4 3.261-1.738 4.526-3.008.6-.67 1.265-1.271 1.864-2.007.599-.735.865-1.671 1.53-2.34.134 4.547-2.262 10.765 2.73 13.64 4.792 2.809 8.453-.534 10.184-4.88.066-.201.532-2.274.732-1.806.466 1.07.599 2.274 1.131 3.41.999 2.274 2.73 3.477 5.326 3.344.732-.067 1.996-.535 2.662-.067.799.601 1.065 2.407 1.464 3.276a188.754 188.754 0 0 0 3.794 8.358c4.793 10.43 8.72 21.263 13.246 31.828.999 2.34 2.33 6.352 2.995 8.826.8 3.009 1.997 5.884 2.996 8.893 1.797 5.483 3.594 11.032 5.192 16.582 1.797 6.419 3.328 12.838 5.324 19.19 1.997 6.486 3.329 13.106 4.726 19.725 1.398 6.62 3.062 13.106 4.194 19.792l1.597 9.829c.266 1.404.732 2.809.732 4.28.466.334.733 2.808.4 3.209-3.794-6.486-7.655-12.972-11.515-19.457-1.931-3.21-3.661-6.486-5.924-9.562-2.33-3.143-3.794-6.553-4.86-10.364-.931-3.477-1.264-7.221-2.33-10.632-1.064-3.41-1.463-6.953-2.928-10.23-.665-1.404-1.464-.134-1.53.736-.134 2.206.199 4.546.266 6.753.066 2.006.266 3.945.732 5.884.2.669.266 1.404.4 2.14.132.936.665 1.939.598 2.875-3.394-4.213-6.79-8.358-10.25-12.571-3.329-4.078-6.99-7.89-10.65-11.701-.999-1.07-2.064-2.14-2.796-3.41-.998-1.738-1.331-3.811-1.331-5.817 0-2.809.599-5.617.732-8.425.133-2.675.333-5.349.666-8.024.665-5.416 1.398-10.832 3.195-16.047 1.73-5.015 3.927-9.83 5.857-14.778.799-2.14 1.864-4.279 2.197-6.552.066-.535-.067-2.207-.999-1.337-.865.802-1.597 1.738-2.33 2.674-1.464 1.94-2.529 4.079-3.66 6.219-.666 1.337-1.198 2.54-1.598 3.945-.133.334-1.131 3.142-1.131 3.075-.333-.735-.267-2.073-.466-2.875-.267-1.137-.6-2.206-.932-3.276-.267-1.003-1.065-5.617-2.862-4.48-1.065.735.066 4.547.2 5.683.332 2.474 1.53 4.815 1.797 7.289.532 4.613-1.132 9.695-1.864 14.175-.4 2.273-.6 4.547-.999 6.753-.2 1.07-.399 2.073-.599 3.143-.066 1.003.067 2.407-.4 3.276-.465-.535-.665-2.006-.798-2.808-.333-1.672-.865-3.41-1.331-5.082-.998-3.477-2.197-6.82-3.129-10.297-1.93-7.221-.399-14.51-1.663-21.731-.6-3.477-1.199-7.154-2.197-10.498-.2-.468-1.265-3.276-2.13-1.605-.666 1.204-.333 3.477-.333 4.815.133 7.69 1.664 15.245 2.13 22.867-2.53-2.072-4.326-5.549-6.323-8.157-.999-1.337-2.197-2.54-3.328-3.811-.8-.87-1.531-2.274-2.73-2.474-.665-.134-.532-.335-1.33-.268-.2.669.066 1.338.332 1.94.732 1.537 1.531 2.875 2.463 4.279 2.53 4.145 5.392 8.023 8.187 12.035 2.596 3.678 4.992 7.222 6.324 11.568 1.064 3.611 1.863 7.288 2.862 10.966.532 1.872.998 3.744 1.53 5.616.4 1.404 1.731 3.21 1.265 4.681.133-.401-3.66-3.678-4.127-4.146-1.397-1.471-2.729-3.009-3.927-4.614-2.463-3.209-5.258-6.151-7.788-9.294-.465-.535-.931-1.738-1.464-2.139-.466-.402-2.263-1.204-2.263-.134 0 .267.133.535.266.802 1.465 3.076 3.395 5.818 5.192 8.693.466.735 3.661 4.68 3.328 5.215-.2.268-4.46-.936-4.992-1.07-.466-.133-3.66-1.805-3.395-.067.2 1.338 2.93 2.742 3.994 3.411 1.73 1.136 3.794 1.738 5.724 2.607 1.198.535 2.73 1.404 3.728 2.274 1.398 1.337 3.328 2.006 4.726 3.477 1.53.936 3.128 1.805 4.593 2.808 1.597 1.137 2.596 2.474 3.86 3.878 2.796 3.21 5.325 6.687 7.788 10.163.666.87-2.796-.936-3.195-1.136-1.997-.936-4.127-1.672-6.19-2.474-.666-.201-3.728-1.672-3.994-.803-.266.937 3.927 2.876 4.792 3.411 1.731 1.069 3.462 2.273 5.192 3.41 1.531 1.069 4.06 2.206 4.992 3.811-1.065.401-2.396.134-3.46.067-1.399.468-2.73.936-4.128 1.404-1.198.401 0 1.471.6 1.738.998.535 2.728.468 3.926.468 4.926-.2 9.186 2.809 12.448 6.219 4.06 2.942 6.256 7.288 9.252 11.233 3.261 4.346 5.79 9.227 9.451 13.306 1.332 1.471 2.397 3.41 3.595 5.082.732 1.003 1.264 2.073 1.864 3.142.798.937 1.53 2.207 2.13 3.277 2.063 4.145 4.459 8.559 4.925 13.306.599 5.483 1.997 10.832 2.663 16.315a832.263 832.263 0 0 0 2.396 18.053c.799 5.951 1.464 11.835 1.73 17.853.333.802.267 1.939.267 2.808 0 1.271.266 2.474.266 3.678-.067 2.073-.133 4.146.066 6.218.4 3.945.4 7.957.533 11.902.133 3.143.532 6.219.532 9.361.067 6.152-.133 12.303-.133 18.522 0 2.541 0 5.148-.066 7.689 0 1.605 0 3.143-.2 4.748-.2 1.671.067 3.209-.066 4.814-.2 2.14-.134 4.413-.466 6.486-.134.668-1.065-1.806-1.132-1.939a129.861 129.861 0 0 1-1.864-4.547c-.998-2.407-2.196-4.748-3.195-7.222-.998-2.407-2.462-4.747-3.195-7.288-.732-2.474-1.863-4.68-3.061-7.021-.6-1.203-1.065-2.474-1.665-3.677-.599-1.271-1.464-2.474-1.863-3.878-1.265-2.274-2.729-4.413-3.728-6.754-.932-2.139-2.396-3.945-3.261-6.084-.732-1.739-1.332-3.544-2.197-5.216-.532-1.003-1.065-2.072-1.398-3.209-.465-1.404-3.195-9.361-3.261-10.297a45.861 45.861 0 0 1-.2-8.559c.333-4.614 1.398-8.826 2.796-13.039.998-2.875 2.13-7.689 2.662-10.698.333-1.805.666-3.611.932-5.483.067-.334-.2-2.607-.932-1.805-.4.401-.4 2.273-.532 2.808a26.37 26.37 0 0 1-1.265 3.878c-.133.402-.732 2.407-1.331 2.407-.333 0-.333-2.206-.6-2.54-.465-.602-1.397-.736-1.33.2.133 1.137-.067 2.407-.267 3.611-.532 2.808-1.597 5.483-2.13 8.291-2.529 12.905-2.263 13.64-2.529 15.379-.133-1.939-.4-3.21-.6-5.015-.265-2.808-.998-5.817-.998-8.692.067-5.283.6-11.234 2.73-16.115 1.93-4.48 6.256-8.358 7.255-13.239.066-.401 0-.802-.333-1.07-.6-.468-.932.067-1.398.468a30.323 30.323 0 0 0-2.662 2.341 45.84 45.84 0 0 0-2.33 2.741c-.466.602-.799 1.337-1.265 1.939-.066-.602-.2-1.203-.2-1.805a45.83 45.83 0 0 1 .6-4.213c.466-2.808 1.131-5.549 1.73-8.291 1.198-5.416 2.197-10.765 4.127-16.047-.133 0 .732-3.009.732-3.277-.066-2.006-1.93 1.137-2.063 1.471a71.682 71.682 0 0 0-3.395 9.161c-.998 3.343-2.063 6.686-2.795 10.096-.2.87-2.064 9.294-2.33 9.294l-.732-6.619c-.333-2.541-.333-5.149-.333-7.69 0-6.419 1.73-13.105 2.995-19.123.267-1.203.733-2.34 1.332-3.41.332-.669.332-1.605.798-2.273.333-.736 1.198-2.006.999-2.875-.133-.803-1.198-.602-1.598-.134-.732.869-1.331 2.073-1.864 3.142-.665 1.271-1.464 2.474-1.863 3.812-.333 1.136-.533 2.607-1.332 3.477-.599-3.477-1.597-7.355-3.128-10.565-.333-.468-1.73-2.942-1.597-1.003.133 1.805.332 3.611.798 5.349.6 1.538.6 3.21.733 4.815.2 1.939.798 3.811.998 5.75.266 2.073-.2 3.744-.466 5.75-.067.535-.266 1.003-.333 1.538-.066 1.003.266 2.006-.2 2.942-1.53-3.009-2.595-6.419-4.392-9.361-.866-1.404-1.398-2.808-2.596-4.012-.267-.2-1.598-.869-1.531 0 .066.201.2.335.399.468.4.335.532 1.07.732 1.538 1.598 3.811 2.996 7.623 4.526 11.434 1.398 3.544 3.462 7.623 3.861 11.501.799 7.89 1.73 15.847 2.063 23.804.2 4.212.6 8.424 1.199 12.57.266 1.872.532 3.744.865 5.617.333 1.738.865 3.61.865 5.349-1.065-.602-1.065-1.806-2.13-2.608-.532-.401-.865-1.003-.998-1.605-.466-1.604-1.664-2.674-2.596-4.012-.932-1.27-1.664-2.674-2.396-4.011-2.463-4.547-5.658-8.827-7.855-13.373-.466-.936-1.198-2.14-1.398-3.143a10.57 10.57 0 0 1-1.664-3.076c-.931-2.607-2.596-4.948-3.66-7.489-.999-2.34-1.997-4.546-2.863-6.887a97.305 97.305 0 0 1-2.795-8.491 88.128 88.128 0 0 1-1.797-8.091c-.533-2.942-.4-5.884-.666-8.826-.2-2.407 0-4.948 1.331-7.088.6-1.003 1.132-2.006 1.73-3.009.6-1.003 1.865-1.805 2.197-2.942 1.398-4.613 5.858-7.422 7.788-11.768.865-1.872.732-4.547-1.265-5.75-.599-.268-1.797-.067-2.462.067-1.465.401-1.332.735-2.13-.602-.733-1.271-2.463-2.14-3.86-1.805-1.399.334-2.53 2.607-3.263 3.811-1.064 1.805-1.863 3.744-2.33 5.817-.265 1.07-.465 2.073-.532 3.143-.066.802.2 2.072-.665 2.607 0-3.945-.932-7.823-1.797-11.634-.866-3.477-1.93-6.887-4.327-9.495-.998-1.07-2.729-1.471-4.06-.936-1.465.535-1.598 2.34-1.664 3.678-.2 3.945.998 7.154 2.53 10.631-1.066-.134-1.665-1.204-2.464-1.805-.998-.803-2.13-1.404-3.195-1.939-2.13-1.07-5.258-3.143-7.188-.535-1.332 1.805.266 3.61 1.464 4.881.799.869.666 1.27-.466.936-1.065-.334-3.395-.067-3.927.936-.732 1.404-.732 3.009.066 4.413.8 1.337 2.397 2.207 3.728 2.875 1.464.803 2.929 1.605 4.46 2.407.399.201 1.53.602.798 1.137-.332.201-1.131.201-1.53.201-2.663.735-5.126 2.073-7.389 3.61-.998.669-1.265 1.806-1.198 3.009.133 1.939 1.864 3.143 1.864 3.143s-.6 1.939-.6 4.079c.067 1.872 2.064 4.346 4.128 3.945 2.529-.468 3.794-3.277 4.925-5.349 1.132-2.14 2.463-4.414 4.593-5.751.998-.602 2.13-.869 3.261-.936.466-.067.932-.067 1.398-.067.333 0 .666.803 1.132.936.865.201 1.73-.267 2.662-.067 1.065.201 1.997.803 2.73 1.605.864.869.931 1.471.864 2.675-.133 1.27.2 2.541.267 3.744.133 2.14.133 4.28.333 6.352.399 2.541.798 5.015 1.33 7.489 1.199 5.751 3.196 11.367 4.926 16.984 2.264 7.355 5.924 14.242 9.718 20.928.999 1.739 1.997 3.812 3.328 5.283.6.601.8 1.538 1.199 2.273a90.674 90.674 0 0 1 1.863 3.544c2.13 3.945 5.192 7.355 7.256 11.367 2.263 4.279 4.792 8.425 7.122 12.637 1.131 2.073 2.263 4.146 3.394 6.152.4.735 3.528 4.747 2.93 5.55-.4.468-6.79-5.684-7.39-6.353-2.329-2.407-4.858-5.148-6.19-8.291-.665-1.605-1.33-3.209-1.996-4.881-.4-.936-1.065-4.012-1.997-4.413-2.463-1.137 0 5.951-.133 6.419-1.332-1.471-2.596-3.209-3.728-4.881-.4-.602-.865-1.939-1.53-2.273-1.066-.469-.533 1.337-.467 1.671.4 2.006 1.664 3.611 2.33 5.483.4.869.932 1.739 1.597 2.541.733.802 1.398 1.003 1.332 2.14-2.596-1.204-4.593-4.28-6.324-6.486a47.015 47.015 0 0 1-5.59-8.826c-1.532-3.143-3.196-6.219-4.327-9.562-1.132-3.276-2.596-6.553-3.395-9.963-.666-3.209-2.13-6.151-3.195-9.227-.2-.535-.732-3.477-1.464-3.076-1.065.535-.733 3.276-.6 4.213.666 3.61 1.332 7.154 2.397 10.631.532 1.738 1.065 3.41 1.597 5.149.267.534 2.263 3.878 1.531 4.145-1.73-1.939-3.528-3.878-5.192-5.817-1.863-2.207-3.261-4.547-4.925-6.887-.2-.334-.466-1.07-.999-.936-.332.067-.332.334-.332.602.2.802.465 1.604.931 2.273 1.731 2.675 3.129 5.617 4.993 8.157 3.328 4.48 6.789 8.693 9.784 13.44 1.531 2.407 2.995 4.881 4.726 7.155 1.664 2.139 3.86 3.945 5.392 6.151-.6 0-1.265-.334-1.798-.735-.998-.669-1.996-1.404-2.995-2.006-2.263-1.404-4.46-2.875-6.19-4.881-1.465-1.672-3.129-3.277-4.593-4.948-1.464-1.672-2.463-3.544-3.727-5.283a33.898 33.898 0 0 1-1.997-3.343c-.6-1.137-1.265-1.404-2.197-2.006-.932-.668-.932.201-.466 1.003.799 1.404 1.531 2.809 2.263 4.213 1.265 2.407 2.53 4.814 4.06 7.087 1.332 2.006 3.595 3.21 4.926 5.216-2.462-.936-4.526-1.806-7.188-2.073-1.265-.134-2.596-.201-3.928-.067a9.038 9.038 0 0 0-1.93.401c-.799.803.2 1.204.865 1.271 2.53.334 5.06 1.404 7.455 2.273a87.89 87.89 0 0 1 7.855 3.21c5.325 2.54 10.45 5.482 15.708 8.224 1.265.669 2.596 1.337 3.86 2.073.933.468 1.865.602 2.73 1.203 2.13 1.471 4.926 2.274 6.79 4.079 3.66 3.477 8.386 5.951 11.448 10.097 3.062 4.145 3.994 9.227 5.724 13.974.999 2.675 2.064 5.349 3.062 8.024 1.065 2.808 2.596 5.416 3.661 8.224 1.997 5.35 4.193 11.434 3.794 17.251-.2 2.809-.799 5.617-1.198 8.425-.466 3.143-.799 6.353-1.265 9.495-.799 5.483-1.531 11.1-2.729 16.382-.466 2.741-1.265 5.483-2.063 8.157-.333 1.271-.4 2.608-.733 3.879-.532 2.006-1.464 3.878-2.129 5.817-1.798 5.616-4.061 11.032-6.324 16.449-.932 2.139-1.797 4.346-2.729 6.485-1.131 2.474-3.128 5.015-3.195 7.824-.066 2.607 1.465 4.747 3.461 6.218 1.598 1.203 4.393 3.677 6.59 3.009 1.132-.335 1.597-1.538 2.13-2.474.666-1.204 1.398-2.34 2.13-3.544 1.464-2.474 2.662-5.149 3.861-7.756 2.396-5.283 3.594-11.167 5.258-16.716 1.597-5.416 2.929-10.899 3.727-16.516.866-5.951 1.531-11.969 2.796-17.92 1.198-5.616 1.398-11.367 3.195-16.85 1.864-5.482 4.393-10.698 6.656-15.98 2.197-5.082 4.194-10.364 5.858-15.646.865-2.608 1.53-5.216 2.396-7.824.865-2.741 1.264-5.616 2.13-8.358.266-.869.665-1.939.665-2.875 0-1.003-.998-.535-1.531-.936-.798-.602-.998-1.605-1.996-2.14-.866-.468-1.931-.334-2.397.602-1.198 2.274-1.331 5.216-2.462 7.623-1.199 2.541-1.598 5.416-2.397 8.157-1.664 5.684-3.993 11.1-6.19 16.583-.532 1.27-.998 2.54-1.531 3.744 0 .067-.732 2.34-1.131 1.605-.4-.869-.2-2.341-.267-3.277-.066-.802-.066-1.604-.066-2.407.133-6.686.199-13.239.865-19.859.266-2.808.932-5.549.999-8.424.133-2.943.066-5.885.266-8.827.399-5.817.665-11.634.932-17.451.133-2.742.199-5.483.466-8.225.133-1.404.066-2.875.332-4.279.4-1.872.267-3.677.799-5.683 1.132-4.413 1.93-8.893 2.197-13.44.266-4.48.865-8.759 1.73-13.172.133-.736.2-1.472.267-2.207.133-1.337.865-2.541 1.331-3.811.466-1.271.599-2.474.932-3.678.466-1.471 4.126-11.501 4.992-13.306 3.261-6.954 6.656-14.175 12.114-19.792 1.997-2.006 4.793-3.142 7.522-3.811 2.063-.468 4.193-.736 6.323-1.137 1.797-.334 3.528-.134 5.258.268 3.395.735 6.723 2.474 8.786 5.349 1.531 2.139 2.729 4.881 3.262 7.288.666 3.076-.333 7.221-.932 10.23-.333 1.605-.732 3.277-1.065 4.881-.133.602-.466 1.538.067 2.006.665.535 1.198-.267 1.464-.735 1.598-2.742 2.596-5.817 2.995-8.96-.066.736.2 1.672.333 2.407.133.869.333 1.672.266 2.541-.199 6.82 1.598 10.832 1.931 12.036.599 2.072 1.531 3.945 2.729 5.683.532.736 2.196 3.678 3.328 2.608.199-1.605-1.398-3.678-1.93-5.216-.666-1.872-1.065-3.744-1.465-5.683-.333-1.805-.732-4.48-.998-6.486 2.463 2.675 5.524 5.349 8.12 7.823 2.463 2.407 4.46 5.283 6.324 8.225.998 1.537 1.797 3.075 2.529 4.68.2.401.399 1.471 1.065 1.27.466-.133.067-1.537.067-1.872-.333-3.41-2.13-6.151-3.861-9.16-.732-1.271-1.664-2.407-2.596-3.544-.599-.735-1.198-1.538-1.93-2.207-.333-.334-1.398-1.069-1.531-1.537-1.398-1.806-3.195-3.544-4.992-5.216 1.73.736 3.527 1.204 5.192 1.872 4.592 1.806 9.318 3.344 13.512 5.818 1.464.869 2.396 2.607 3.927 3.41.798.401-.666-2.608-.732-2.742-1.065-1.003-2.197-2.006-3.329-2.875-1.996-1.538-4.126-2.808-6.389-3.945-1.332-.669-2.73-1.137-4.061-1.672-.333-.133-1.797-.401-1.664-1.003.133-.334 2.33-.401 2.796-.468 1.398-.334 2.795-1.003 3.927-1.939.466-.334 2.796-2.474 1.331-2.942-.998-.267-1.997.669-2.929 1.07a24.043 24.043 0 0 1-3.727 1.137c-2.729.535-5.525.468-8.32 0-.999-.134-2.596-.201-3.328-.869-.732-.669-.932-2.207-1.132-3.076a32.52 32.52 0 0 1-.998-4.948c-.267-1.739-.466-3.477-1.265-5.082-.532-1.003-3.461-4.948-4.393-5.951-1.065-1.137-2.33-2.073-3.594-2.942-3.129-2.006-6.79-3.142-10.517-3.209-3.861-.134-7.322.936-10.85 2.407-.399.2-.799.334-1.264.535-.599-.535 2.263-3.076 2.862-3.678 2.063-2.073 5.058-3.945 7.521-5.483 5.991-3.744 12.58-4.346 19.103-1.471 3.395 1.471 6.723 2.875 9.985 4.614 1.597.869 2.995 1.939 4.393 3.076 1.065.869 1.464 1.738 2.862 1.872.067-2.14-2.33-3.945-3.794-5.282-.466-.402-4.926-3.678-4.859-3.879.333-1.136 8.919 1.739 9.851 2.006 1.664.535 3.328.936 4.859 1.672.533.267 1.065.267 1.531-.201.799-.735-.998-1.538-1.398-1.738-2.862-1.538-5.658-2.875-8.919-3.611-1.531-.334-3.195-.869-4.726-.869-.599 0-1.464-.201-2.063-.334-.666-.201-2.263-.268-2.729-.803 1.797-.869 4.126-.468 6.057-1.003a74.163 74.163 0 0 1 7.654-1.604c2.596-.468 5.126-.87 7.722-1.405.998-.2 2.462-.535 3.261-1.203.932-.803-1.331-.669-1.531-1.07-5.125-.869-10.184.201-15.176 1.204-2.596.534-5.258.869-7.854 1.738-1.997.669-4.926 1.872-6.923.669 2.197-1.739 4.726-2.809 6.923-4.681 2.063-1.738 5.591-4.145 5.258-7.154-.732-.268-1.731.936-2.33 1.203-.998.535-1.863 1.204-2.729 1.939-1.73 1.404-3.727 2.341-5.657 3.41-4.127 2.274-7.588 5.149-12.181 6.553-2.197.669-4.327 1.471-6.523 2.407-.599.268-1.531 1.003-2.197 1.003-.665.067.932-1.404.999-1.471 3.195-4.079 6.989-7.021 10.849-10.297 1.398-1.204 3.062-2.207 4.46-3.41 1.797-1.739 3.661-3.477 5.391-5.215 3.462-3.411 7.788-5.55 12.381-7.088 2.263-.736 4.593-1.471 6.922-2.207a28.062 28.062 0 0 1 3.195-.802c.333-.401 1.997-.669 2.53-.669 2.462-.2 4.859-.334 7.321-.535.999-.066.666-.936-.133-1.069-.998-.134-1.797-.669-2.729-1.003.067 0 .067 0-.266-.067-.399-.067-.532-.067-.466-.067-2.396-.468-5.258-.669-7.588-.334-1.198.133-2.396.267-3.594.601-.4.134-2.33 1.271-2.53 1.137 0 0 7.988-9.628 8.853-10.631.799-.937 1.531-1.94 2.33-2.809.399-.468 2.329-1.671 1.664-2.407-.865-.936-4.793 2.675-5.325 3.143-1.93 1.671-3.861 3.276-5.525 5.215-.799.936-1.597 1.806-2.596 2.541-.199.134-2.063 1.538-2.063 1.672-1.132 1.27-2.13 2.474-3.062 3.878-.333.334-1.531 1.471-2.33 2.541l-.599.601c-.199.201-.399.402-.599.535-.066.067-.133.067-.199.134.732-1.605 1.331-4.079 1.397-4.747.2-3.745.267-7.489.267-11.234v-4.948c0-2.072-1.332-1.404-1.864.134-.599 3.343-.533 7.623-2.263 10.565-1.265-1.137 0-9.361-3.129-7.756-1.065.869-.732 4.145-.599 5.349.2 2.273.333 4.413.067 6.753-.333 2.875-.732 5.75-1.664 8.492-.799 2.273-2.396 4.212-3.927 5.951-.732.869-1.332 1.805-2.13 2.674-.4.468-.799.87-1.265 1.271-.133.133-1.398.869-1.398.936.067-.869.732-1.805.999-2.675.266-1.003.466-2.073.732-3.075.532-2.474 1.265-4.815 1.73-7.289.4-2.34.466-4.68.533-7.02.067-1.672.599-4.815-.732-6.085-1.731-1.672-1.664 1.538-1.864 2.741-.399 2.541-.532 5.015-.998 7.489-.4 2.14-.333 4.346-.799 6.553-.2 1.07-.533 2.139-.799 3.209-.266 1.003-.466 2.942-1.398 3.41-.399-2.072-.399-5.081-1.93-6.686-1.398-1.471-.998 3.811-.998 4.146.266 2.072-.067 4.078-.4 6.084a6.732 6.732 0 0 1-1.93 3.878c-1.797 1.873-3.661 3.611-5.258 5.617-2.863 3.544-5.725 7.088-8.254 10.899-1.93 3.009-3.661 6.151-5.591 9.16-.932 1.471-1.997 2.942-2.929 4.413-.266.468-.998 1.338-1.531 2.14l-.998 1.404c.266-1.538.932-2.808 1.597-4.212 1.065-2.474 2.13-4.948 3.262-7.422.932-2.073 1.73-4.213 2.995-6.085.599-.936 1.731-1.738 2.196-2.808.2-.535.2-1.204-.266-1.538-.266-.201-.599-.268-.932-.268-2.063.067-3.328 2.274-4.326 3.812-1.198 1.805-1.997 3.811-2.796 5.884-.732 1.872-1.331 3.811-2.13 5.683-.199.535-.532 1.739-.932 2.073-.466.401-.399-2.273-.399-2.407-.2-2.006-.532-4.079-1.065-6.018-.2-.602-1.132-5.55-1.464-5.616-2.13-.402-1.465 3.209-1.398 4.413.133 2.474 0 5.282.532 7.622.599 2.207.4 4.48.466 6.754.533 2.741-.732 5.482-1.597 8.09-.865 2.608-1.731 5.216-2.396 7.89-.733 2.808-1.198 5.884-2.13 8.626-1.931 5.416-3.528 11.166-4.793 16.783-.532 2.541-1.264 5.015-1.664 7.489 0 .133-.399 2.607-.666 2.072-.266-.535-.066-1.939-.199-2.607-.466-2.408-.533-5.015-1.065-7.489-.599-3.009-.999-6.018-1.465-9.027-.798-5.75-1.797-11.434-2.196-17.251-.2-2.875.333-5.483.333-8.425.066-2.942.333-5.884.865-8.826.998-5.55 1.93-11.1 4.06-16.382.4-1.003.932-1.939 1.198-2.942.134-.468.333-.936.666-1.337 0-.602.133-1.137.399-1.672.866-1.805 1.997-3.544 2.929-5.282.466-1.137 1.065-2.207 1.664-3.21.4-.668 1.065-2.072 1.598-2.54 1.664-1.405 2.729-3.812 4.326-5.416 3.262-3.344 5.991-7.422 9.385-10.565 4.194-3.811 7.988-8.158 12.115-12.103 4.26-4.078 8.586-8.09 13.046-11.835 4.26-3.543 8.453-7.355 13.246-10.163 1.93-1.137 4.725-2.474 6.989-2.675 2.795-.267 5.524-.334 8.32-.668 5.591-.736 11.182-.736 16.773-1.739 5.126-.869 10.251-1.404 15.043-3.744 1.931-.936 3.528-1.872 5.525-.936 1.597.735 2.796 2.073 4.526 2.407 1.931.401 3.861.401 5.192-1.204 1.198-1.471 1.664-3.276 1.065-5.081Zm-45.595-20.06a.506.506 0 0 1 .067.268c0-.067-.067-.134-.067-.268.865 3.21-2.862 3.678-5.059 3.544-2.795-.134-4.659-2.073-5.324-4.747-.4-1.538-.067-3.143.133-4.681.266-1.671.133-3.477.798-5.082 0-1.136.4-3.142 1.332-3.878.466-1.604.998-3.142 1.863-4.546.2-.268.4-.736.666-1.004.266-.334.998-.2.865.335-.133.401-.199 1.538 0 1.939.466 1.137 1.265-.067 1.332-.602.332-1.605 1.198-.602 2.196-.668 1.531-.067.466 2.407.333 3.142-.466 1.872-.732 3.745-.732 5.684-.067 3.61.665 7.154 1.597 10.564Zm21.3-4.68c.067.067.067.067 0 0 .932.869 2.13 1.738 2.263 3.009.133 1.003-.865 2.54-1.731 2.942-2.263 1.136-4.859 1.671-7.321 1.136-2.729-.535-4.46-2.607-6.457-4.413-2.33-2.139-3.394-4.212-4.792-7.02-1.398-2.876-1.797-5.684-2.197-8.827-.133-1.136.466-1.07 1.398-1.136 1.464-.134 1.398 1.27 1.731 2.407.399 1.404.865 2.942 1.53 4.279.333.736.799 1.204 1.465 1.672.665.401.732 1.136 1.131 1.738.999 1.338 2.064 2.675 3.262 3.812.932.869 2.396 2.54 3.794 2.607.333-.802-2.729-3.009-3.328-3.544a78.684 78.684 0 0 1-4.393-5.014c-1.198-1.405-1.664-3.21-2.197-4.948-.333-1.07-1.664-3.01-.199-3.611 1.664-.669 1.996.87 2.928 1.939 1.332 1.471 2.463 3.143 3.861 4.614 2.995 3.075 6.323 5.483 9.252 8.358Zm4.26-14.71c1.797-.067 3.661-.201 5.458-.469 1.464-.2 3.927-.468 5.325.268 3.128 1.605.998 5.35-.865 6.887-2.729 2.206-6.324 2.741-9.718 3.009-2.796.2-5.525 1.003-7.921-.669-2.862-1.404-5.126-4.547-7.122-6.954-.2-.2-1.265-1.203-.999-1.604.067-.067 1.198.066 1.265.066.266 0 1.464.67 1.664.402.466-.669-1.265-1.07-1.531-1.137-.532-.2-1.997-.401-2.33-.936-.332-.468.067-.669.466-.669 1.664.134 3.461 1.003 5.126 1.471 1.93.535 3.261.669 5.258.401 1.93 0 3.927 0 5.924-.067Zm-10.251-11.568c.267 0 .466-.067.666-.067-.2 0-.466.067-.666.067 5.192-.535 9.652-4.079 14.777-4.614 1.065-.133 1.797.936 1.997 1.873.2 1.136-.533 2.14-1.065 3.075-.599 1.07-1.265 2.073-2.063 3.01-.799.868-1.798 2.206-2.929 2.674-.932.4-1.598 1.203-2.596 1.671-.799.401-1.797.335-2.396 1.003-1.531 1.806-4.793 1.07-6.723.535-1.265-.334-2.463-.735-3.594-1.27-.733-.268-.133-1.204.133-1.672.732-1.404 4.459.335 4.393-1.404-.999 0-2.263.2-3.262-.067-.532-.134.267-1.671.466-1.939.799-1.47.666-2.675 2.862-2.875ZM202.282 70.81a19.148 19.148 0 0 1 4.592-3.744c1.332-.803 3.329-2.34 4.926-2.407 0 .869-.266 2.14.399 2.808.2.2.267.535.533.602.266.066.732-.201.532-.535-.399-.736-.599-1.07-.266-1.873.333-.869-.399-.936-1.065-1.002 1.331-.602 3.861-2.006 5.325-.87.266.2.333.535.333.87 0 .735.333 1.002.799 1.604.732.803 1.065 0 .665-.735-.599-1.204.599-.87 1.132-.134.333.401 1.664 1.471 1.131 2.14 0 0-2.063-.669-1.597.133.399.602 1.398.602 1.797 1.27.266.402.333 1.74-.399 1.74-.466 0-1.265-.87-1.531-.335-.533.936 3.528 1.471 1.464 3.076-.599.468-2.329-.134-2.929-.401-.332-.134-2.263-1.405-1.464-.134.533.87 1.464 1.27 2.396 1.47.333.068 2.197.135 2.263.536.533 2.206-2.263 1.872-3.594 1.538-1.065-.268-1.997-1.137-2.995-1.605-.133-.067-.999-.602-1.198-.267-.267.467.599.668.798.869 1.864 1.671 3.928 1.604 6.124 2.407.865.334.399 1.27.333 1.939-.067 1.27-.732 1.137-1.864 1.27-1.331.2-1.464-.602-2.463-1.003-.133-.067-2.462-.668-1.863.2.332.402 1.397.469.932 1.138-.6.869 2.329 1.404 2.729 1.404.931.067 1.797-.602 1.531.668-.134.736-.533.936-1.199.936-2.729 0-5.458-.534-7.854-1.805-.399-.2-.399.334-.466.535-.066.802.865 1.204 1.465 1.404 1.264.535 2.795.803 4.126.936.333.067 3.062.201 2.796.803-.133.267-.266.936-.732.668-.533-.267-.666.268-1.065.268-2.463.802-5.991-.134-8.32-1.137-.267-.134-3.062-1.47-2.663-.802.599 1.136 2.197 1.805 3.328 2.206 2.729 1.003 5.059 1.538 7.988 1.471.332 0 .133.335.066.468-.333.602-.932.602-1.464.736-1.664.334-3.661.334-5.259.067-1.464-.268-2.795-.803-4.126-1.404-.267-.134-1.531-1.07-1.798-.736-.266.401 1.065 1.27 1.265 1.404 1.132.87 2.396 1.404 3.728 1.806 1.53.468 3.394 0 4.725.735-2.995 1.404-6.39 1.003-9.385.067-1.264-.401-2.662-1.337-3.528-2.34-.465-.535-2.462-2.14-1.397-2.541-.799-1.204-1.265-2.608-1.598-4.012-.399-1.471-1.198-3.21-.865-4.68.266-2.675 2.529-5.951 4.726-7.69Zm-12.115-10.631c.6-1.806 2.397-3.076 4.194-3.41.665-.134 2.13-.268 2.596.4.599.87.399 2.742.599 3.745.466 2.474 1.265 4.814 2.063 7.221.533 1.739-.266 5.149-2.396 3.01-.333-.335-.799-1.74-1.331-1.338-.866.535.199 1.672.665 2.073.999.936 1.598 1.137.599 2.34-.665.802-.998.802-1.73.067-1.797-1.739-2.729-3.744-3.661-6.085-1.065-2.674-2.862-5.148-1.598-8.023Zm-10.383 9.895c-1.731-2.474-1.731-5.817.665-7.823.799-.668 2.264-1.872 3.329-1.337 1.397.669 2.196 3.143 2.995 4.413 1.864 3.076 3.994 5.884 6.323 8.626 1.132 1.337 2.53 2.34 2.064 4.145-.134.602-.267 1.003-.799.468-.666-.668-1.398-1.136-2.197-1.604-1.264-.736-2.529-1.405-3.527-2.541-.4-.468-.799 0-.466.468.399.535.732 1.136 1.331 1.47 1.331.803 2.729 1.606 3.794 2.742.266.134 1.464.468 1.464.803.067.936-.665.802-1.264.601-6.124-1.604-10.051-5.282-13.712-10.43Zm-10.65 2.876c.2-.134.333-.2.399-.268-.133.067-.266.2-.399.268 2.729-1.873 4.06-.936 6.59.735 2.462 1.672 5.191 3.477 7.854 4.748 2.596 1.136 5.325 1.805 7.921 2.875.532.2 1.065.468 1.597.602.666.2.133.267.2.735.066.334.932.401 1.131.535.466.334.599.936.533 1.471-.067.468-6.656-.535-7.522-.669-3.394-.4-6.523-1.136-9.718-2.206-2.795-.936-6.19-1.471-8.719-3.143-1.997-1.337-1.997-4.212.133-5.683Zm16.64 19.39h.134-.134c-6.323.736-12.38.535-18.038-2.875-2.196-1.337-3.461-3.343-3.528-5.95 0-1.07-.133-2.876.466-3.745.732-1.204 2.397-.802 3.395-.268 1.398.67 2.396 1.471 3.927 1.873a82.08 82.08 0 0 1 4.327 1.337c2.995.936 6.256 2.14 9.385 2.206 1.464.067 2.929.468 4.393.67 1.265.133 2.529.534 3.661.467.066 0 3.394.268 2.329.936-1.264.803-3.328 1.07-4.725 1.605.399.87.998 0 1.53.401.6.401-.532 1.404-.865 1.471-.932.2-1.664 1.204-2.596 1.471-1.131.335-2.396.268-3.661.401Zm9.319 8.693c-2.662 2.741-7.255 5.215-10.983 6.018-1.531.334-2.529.067-3.86-.402-1.198-.267-2.862-.936-3.595-1.939-1.131-1.604-1.065-2.674-.066-4.346.466-.735 1.265-.802 1.997-1.136 1.065-.402 2.13-.87 3.195-1.338 2.063-.936 4.127-2.006 6.123-3.076 2.064-1.07 3.661-2.407 5.525-3.677.799-.602 1.597-1.003 2.263-1.739.399-.4 1.198-1.404 1.864-1.203.599.2 1.331 1.07 1.597 1.671.4.87-.532 1.538-1.065 2.073-1.597 1.538-3.062 3.143-4.592 4.748-.599.601-1.065 1.136-1.731 1.538-.865.534.333.735.865.468 1.731-.87 2.796-2.408 3.994-3.879.799-.936 3.128-4.011 4.393-3.142.732.535-.532 1.605-.865 2.006-.666.802-.932 1.738-1.531 2.607-1.265 1.739-1.664 3.477-3.528 4.748Zm-48.191-58.039c.4.335 2.796 2.876 1.797 2.942-.665.067-1.331.402-1.53-.468-.134-.535-.333-1.939-.267-2.474Zm-.266 5.283c-.067.133-.067.2 0 0 0-.067.067-.067.067-.134 0 .067 0 .134-.067.134.399-.736 1.664-1.204 2.396-.87.799.402-1.331 2.073-1.73 2.34-.267.201-2.33 1.405-2.53.937-.199-.468.466-.669.732-.803.6-.267.932-1.07 1.132-1.604Zm-1.132-4.748c.067-.067.134-.067.2-.133.133 1.136.4 2.741-.333 3.744-.199.2-2.995 3.878-3.261 2.54 0 .068.865-1.069.932-1.203.332-.601.532-1.203.732-1.805.2-.602.066-1.337.466-1.872.333-.468.865-.803 1.264-1.27Zm-3.194-1.27c.465-.669 1.264-1.204 1.797-.2.399.802-.466 1.203-.666 1.805-.2.869-1.131.468-1.597.067-.866-.803 0-1.07.466-1.672Zm.133 4.28c.199.935-.799 1.738-1.465 2.139-1.664 1.805-1.93-3.21-.532-3.544.665-.134 1.864.736 1.997 1.404Zm-3.462-5.15c.267-.133.134-.066 0 0 1.199-.534 2.463-.601 1.199.67-.267.267-1.265.267-1.731.4-.932.402.066-.869.532-1.07Zm-1.131 6.152c-1.132.268-.932-3.343-.732-3.878.133-.401 1.531 1.003 1.198 1.739-.067.334-.2 2.072-.466 2.14Zm-54.58-8.157c1.464 0 3.194 1.671 3.793 2.875.533 1.07 1.531 3.61.4 4.614-1.265 1.07-2.197 3.008-3.728 3.81-1.53.803-4.06.469-5.658.201-1.797-.334-3.328-1.47-4.592-2.808-1.199-1.27-2.463-2.407-3.661-3.744-1.398-1.605-2.53-3.745-3.328-5.75-.466-1.204-2.53-4.681-.466-5.55.332-.134 1.597 3.142 2.928 2.54-.332-.535-1.33-1.203-1.397-1.872.998-.067 2.396 1.07 3.261 1.538 1.265.602 2.13 1.404 3.528 1.805 1.331.335 2.729 1.07 4.06 1.27 1.73.201 3.395.268 4.86 1.07Zm3.327-18.254c2.53-.936 4.793-2.407 7.322-3.41 1.797-.736 4.526-2.608 6.457-.936 1.397 1.27 1.198 4.546.599 6.084-.932 2.274-3.062 4.814-4.926 6.285-4.46 3.544-10.05 6.486-15.775 6.888-3.129.2-5.458-.67-8.12-2.14-1.199-.669-2.463-1.204-3.595-2.006-.466-.334-.932-.736-1.398-1.137-.466-.401.2-.87-.066-1.337.665-.401 1.797.735 2.596.602.665-.067 2.063-.268 2.396-.803-.932-.4-1.73.2-2.663.067-.665-.134-2.53-.87-2.196-1.738.133-.401.665-.736.333-1.27-.267-.402-.8-.402-.8-1.07 0-1.405 1.665-.736 2.53-.67 5.924.402 11.782-1.27 17.306-3.41Zm-12.913-7.49c1.332-1.47 3.129-2.54 4.46-4.078 1.597-1.738 3.195-3.343 5.059-4.747.665-.468 1.664-1.404 2.529-1.07.466.2 1.53.87 1.73 1.337.6 1.605-.732 4.748-1.33 6.219-1.598 3.945-4.46 7.154-7.788 9.695-1.798 1.337-2.663 1.939-4.86 1.738-.465 0-5.923.468-5.857.201.133-.602 2.596-1.538 3.195-1.805.266-.134 3.262-2.34 2.197-2.407-.533 0-1.93 1.47-2.53 1.738-1.264.602-2.596.936-3.727 1.739-.999.668-.999.133-1.465-.602-.865-1.471.2-1.739 1.398-2.474 2.73-1.538 4.793-3.143 6.99-5.483Zm-10.716-.4c.066-.067.066-.134.066-.201 0 .067 0 .134-.066.2 1.131-2.473 1.331-4.947 1.997-7.488.399-1.672 1.597-4.68 3.794-3.01 1.73 1.271 2.33 4.548 2.263 6.554-.133 2.273-.466 5.081-2.263 6.552-.866.669-1.797 1.204-2.796 1.739-.2.134-1.997.669-1.198.134.865-.535 1.132-1.538 1.73-2.274 0-.134.866-2.407.134-1.872-.533.334-1.997 3.878-2.796 3.276-.666-.535-1.198-2.875-.865-3.61ZM31.684 18.32c-1.198-.535-2.064-2.34-2.796-3.41-.998-1.538-2.063-3.276-2.33-5.148-.266-1.605.2-3.277 1.199-4.614.798-1.07 2.462-2.675 3.86-1.805 1.265.735 1.797 2.875 2.396 4.145.866 1.739 1.798 3.544 2.796 5.216.799 1.337 2.796 3.009 2.596 4.68-.067.335.066 1.337-.533 1.204-.665-.2-1.464-1.003-1.996-1.471-1.132-.936-2.197-2.006-2.93-3.277-.398-.668-.598-1.404-.864-2.14 0-.066-1.199-2.206-1.265-1.203-.067 1.137.998 3.01 1.597 3.945.932 1.338 2.13 2.407 3.262 3.477.466.401 2.862 1.538 2.729 2.073-.133.602.2 3.343-.666 3.009-1.198-.468-2.462-1.204-3.46-1.94-.933-.802-2.996-1.738-3.595-2.74ZM18.837 29.354c-1.93-.468-3.727-1.337-5.657-1.672-1.598-.267-2.863-1.671-3.595-3.008-1.597-3.076-.133-6.553 2.73-8.292 3.394-2.006 6.922.134 9.984 1.872a69.366 69.366 0 0 0 4.925 2.608c1.864.87 3.328 2.675 5.259 3.143 1.664.067 3.46.669 5.191.936.6.067 1.797-.2 1.864.669 0 .535.266 1.203.2 1.738-.133.936-3.062.535-3.728.468-.732-.067-.266.669.267.736.865.133 1.93.2 2.862.067.466-.067.998 0 .798.668-.2.602-1.198.535-1.664.602-2.263.334-4.46.87-6.656 1.204-4.326.534-8.853-.134-12.78-1.739Zm8.187 20.193s-.066.067-.133.2c-.066.268-.066.335-.066.268-.067.602 0 1.204-.267 1.739-.399.735-1.597.869-2.263 1.337-.466.802-2.13 1.27-2.928 1.605a9.599 9.599 0 0 1-4.327.602c-1.997-.134-4.859-.803-5.658-2.876-1.131-2.808 1.199-3.878 3.462-4.814 2.33-.936 4.46-2.34 6.656-3.61 2.263-1.405 5.125-1.605 7.654-2.475 2.663-.869 4.926-2.072 7.322-3.544.133-.066 2.33-1.47 1.198-1.671-.998-.2-2.729 1.07-3.527 1.538-2.264 1.27-4.593 2.206-7.056 2.942-.865.267-1.73.669-2.596.87-1.464.333-3.128.2-4.593.333-5.524.468-11.315.134-16.108-2.875-1.53-1.47-2.529-2.34-2.063-4.613.333-1.806 1.93-2.474 3.594-2.541 2.862-.134 5.658.535 8.454.936 2.862.468 5.724.2 8.653.401 3.062.2 6.523.2 9.451-.602 1.465-.401 3.062-.134 4.527-.401.332-.067 3.927-1.003 3.927-1.07.266.803-6.39 2.942-7.056 3.21-.665.2-7.787 2.273-7.787 2.273.066 1.805 9.518-1.872 10.516-2.273 1.531-.602 2.995-1.338 4.46-2.006.466-.2.932 2.073.998 2.34.133 1.07-2.13 3.276-2.795 4.079-1.198 1.404-2.463 2.875-3.794 4.145-1.265 1.204-2.796 2.14-4.127 3.277-1.331 1.003-2.862 1.872-3.728 3.276Zm17.04-2.34c-.066.2-.133.401-.133.468 0-.067.067-.268.133-.468-.732 2.608-2.13 5.015-4.127 6.887-.798 1.003-1.863 2.006-2.995 2.608-1.398.735-2.862.067-4.26-.201-2.13-.401-4.393-2.474-4.46-4.68-.066-2.675 3.595-4.347 5.392-5.818 2.33-1.939 4.193-4.28 6.39-6.285.865-.802 2.53-1.672 2.995-2.808.6-1.471 1.132.735 1.531.735.333-.067.6-.334.932-.2.4.133.6.668 1.065.668.865 0 1.331.401.865 1.204-1.597 2.608-2.529 5.015-3.328 7.89Zm12.78-7.756c-.4 4.078-.266 8.09-.2 12.169.067 3.678-.266 8.224-2.729 11.166-1.797 2.073-5.258 1.538-7.122-.2-1.464-1.338-1.597-3.21-1.53-5.082 0-1.805-.067-3.61.332-5.416.865-3.544 1.598-7.155 2.596-10.698.666-2.34 1.331-3.812 4.127-2.876.865.335.133 3.678.067 4.413 0 .134-.333 1.27 0 1.338.665.2.732-1.538.798-1.872.2-1.338 0-3.544 1.465-4.08 1.33-.534 2.396-.467 2.196 1.138.067-.201.067-.268 0 0Zm.666-3.879c-.067.067-.2.067-.4.201-1.996 1.471-4.592 1.003-6.855.535-1.132-.267-2.33-.669-3.262-1.404-.6-.468-2.064-.669-2.33-1.404-.865-.736-1.664-1.338-2.13-2.407-.066-.201-.865-1.605-.599-1.806.533-.401 1.065 1.003 1.664.468.799-.602-1.398-1.404-1.664-1.671-1.331-1.27-1.131-3.812-1.131-5.416 0-1.338-.133-2.474-.333-3.812-.2-1.404.2-2.741.266-4.079 0-.267.133-1.07.4-1.203 0-.535-.067-1.07.2-1.605.066-1.136.132-2.34.798-3.276.133-2.14 2.53-3.811 3.86-5.282.333-.335 1.531-1.471 1.398-.134-.066.87.466 1.07 1.198 1.27 2.33.803-.931-2.14 0-2.808 1.198-.87 5.458.067 4.26 2.073-.665 1.07 1.398 0 1.465.067.932.133 1.464 1.337.799 2.006-.2.2-1.531 1.337-1.265 1.671.599.602 1.797-.602 2.196-1.003.733-.802.932.468 1.265.936 1.065.87-.599 1.27-.266 2.207.2.535.998-1.003 1.53 0 .334.668.866 1.538.4 2.273-.599.936-1.73 1.605-2.596 2.207-.2.133-2.662 1.671-1.93 1.805 2.13.334 3.727-2.206 5.325-3.076.932-.535 1.73 2.541.998 3.344-.732.802-1.53 1.47-2.263 2.206-.333.401-1.864 1.204-1.997 1.672-.266 1.404 1.997.067 2.263-.067 1.065-.602 2.064-1.27 2.796-2.34.666-1.003 1.132.066 1.398.869.133.468.2 1.003 0 1.404-.333.602.333.401.532.802.267.535-.865 2.073-1.131 2.608-.466.936-.932 1.872-1.598 2.675-.599.668-1.597 1.404-2.33 1.939-.2.133-.732.334-.599.735.134.468.666.134.932.2.6-.267 5.858-3.877 5.525-4.212.532.468.466 2.073.333 2.675-.333 1.27-1.531 2.14-2.596 2.808-.865.468-2.596 1.07-2.73 2.073 1 .602-1.13.87-.997 1.538 2.795-.067 4.393-1.672 6.323-3.477.532.87-2.064 2.608-2.663 3.009-1.397.87-2.928 1.538-4.46 2.206Zm7.787 27.281c-3.394.87-5.125-1.538-5.857-4.614-.932-3.81-1.331-7.756-1.265-11.634.067-1.805.267-3.677.267-5.483 0-.735-.2-3.41.599-3.878 1.198-.669 1.464 1.337 1.73 2.006.133.401.333 1.27.799 1.538 1.132.602-.067-1.805-.133-2.006-.2-.535-.533-1.404-.533-2.006 0-.602 1.731-.802 2.13-.87.267-.066 1.132 3.41 1.265 3.812 2.13 3.076 3.594 6.151 4.593 9.695.865 3.01 2.53 6.62 1.797 9.83-.666 2.473-3.062 3.476-5.392 3.61ZM62.768 191.1c1.398-1.471 4.194-2.741 4.86.134.532 2.274-1.865 4.413-3.063 6.085-1.464 2.006-3.527 3.878-4.726 6.018-.266.668.2 1.671-.798 1.939-.267.067-2.93.869-2.862.869-.733-.468 1.53-6.887 1.93-7.756a21.992 21.992 0 0 1 4.66-7.289Zm-9.052 10.431v-.133.133c.133-1.003 1.33-6.887 1.464-7.221.532-1.538.998-3.276 1.797-4.747.333-.669 1.265-1.472 1.797-2.006.932-.87 2.463.668 2.93 1.337.864 1.137-.8 2.14-1.532 3.009-2.862 3.41-4.46 7.622-6.523 11.5 0-.601 0-1.27.067-1.872Zm-12.314-16.382c-.067-1.27-.4-4.747 1.53-4.881 3.861-.334 5.592 8.225 6.124 10.766.533 2.474.932 4.948 1.332 7.355.133 1.003.332 2.006.465 3.009.134.936.8 1.537.533 2.607-.666-.2-.932-.802-1.265-1.337-.066-.067 0-.067 0 0-2.196-3.744-4.792-7.288-6.855-11.166a14.694 14.694 0 0 1-1.864-6.353Zm-13.313 30.758c-1.198-.468-.998-2.608-.599-3.544.6-1.404 2.33-2.206 3.661-2.808 2.463-1.137 6.856-2.608 9.186-.602a18.13 18.13 0 0 0-6.723 2.207c-1.131.602-2.13 1.404-3.062 2.34-.466.401-1.797 2.675-2.463 2.407Zm20.435-5.416c-2.263.736-4.726.669-7.122 1.204-1.997.468-3.528 2.072-4.793 3.61-1.33 1.672-2.263 3.544-3.261 5.416-.533.937-1.198 2.14-2.396 2.274-.866.134-2.13-.468-2.33-1.404-.333-1.605.732-3.878 1.464-5.216 1.065-1.805 2.862-2.942 4.526-4.079 1.997-1.337 4.06-1.805 6.39-2.072 1.265-.134 2.596-.268 3.861.067.532.2 1.997.601 1.198-.669-.466-.736-1.53-.669-2.263-.869-1.132-.402-2.197-1.003-3.328-1.405-.932-.334-1.73-.936-2.53-1.537-.665-.468-1.33-.402-1.93-1.07-1.863-2.006-10.45-3.277-8.32-7.69 1.73-3.61 10.05 3.009 11.781 4.28 1.864 1.337 3.728 2.741 5.459 4.346a25.858 25.858 0 0 1 2.595 2.808c.466.401 1.798 1.739.999 2.006Zm3.195.134c-.866.134-2.596-2.474-2.995-2.942-1.332-1.739-2.663-3.009-4.26-4.48-1.93-1.739-3.861-3.143-6.057-4.547-1.798-1.203-9.652-6.553-7.322-9.227 1.264-1.471 4.925 1.337 6.123 2.139a28.102 28.102 0 0 1 5.858 5.015c1.597 1.806 3.128 3.745 4.66 5.617a30.827 30.827 0 0 1 3.86 6.151c.2.469.998 1.94.266 2.341-.067-.067-.067-.067-.133-.067Zm183.178-72.08c-1.731.602-3.528 1.07-5.325 1.471-1.864.334-3.861.2-5.724.735-3.661 1.137-7.921 1.338-11.782 1.739-4.06.401-8.054.669-12.114.936-1.864.134-3.794.334-5.591 1.07-2.263.869-4.194.869-6.523.602-.732-.067-1.198-.402-1.198.601v.067c.066.134.133.134.133.201.532.602 1.331.535 1.93 1.07.067.067-1.331 1.003-1.398 1.069-.665.469-1.73 1.538-2.596 1.405-.532-.067-1.531-1.471-2.063-.87-.799.937.532 1.271 1.065 1.338.932.133-.799 1.27-.865 1.27-.733.602-1.531 1.605-2.397 2.006-.665.334-1.331-1.204-1.73-.602-.466.736.799 1.204.466 1.605-.533.669-1.465 1.07-2.064 1.605-.399.334-.798.869-1.331.869-.932.067-.732-1.672-1.664-1.137-.732.401.466 1.271.533 1.672.199.802-.866 1.337-1.398 1.738-.266.268-.799.736-1.198.468-.133-.066-.2-.267-.267-.401-.199-.334-.199-.869-.599-.869-.266 0-.466.401-.665.602.133.267 1.131 1.872.798 2.139-.665.535-1.597 2.006-2.462 2.14-.866.134-.799-1.337-1.465-1.337-.932 0-.266 1.27.067 1.538.865.735-.266 1.604-1.065 1.805-.865.268-1.598-.735-2.13-.535-1.331.401.599 1.404.865 1.471.599.268-.998 1.538-1.264 1.672-.999.468-1.931.134-2.863-.201-.732-.267-.466 1.337.4 1.404.665 0 1.331.201.599.736-.666.535-1.265 1.337-2.064 1.738-1.464.803-1.597-1.136-2.596-1.27-1.264-.067.067 1.337.267 1.605.532.535 1.464.401.932 1.203-.599.936-1.465 1.204-2.53 1.204-.266 0-2.928-1.404-2.463-.134.333.936 1.997.535 2.596.869.267.201-1.863 2.207-2.13 2.474-1.065 1.07-1.464 1.404-2.795.669-.4-.201-.799-.535-1.198-.802-.599-.402-.932.267-.599.735.665.869 1.464.802 2.196 1.404.4.335-.865 1.271-.998 1.404-.466.602-1.198 1.605-2.13 1.538-1.065-.067-1.398-1.136-2.197-1.538-.333-.2-.732.268-.732.602 0 .401.466.602.666.869.466.669 1.264.535 1.863.937.134.133-2.729 4.814-4.526 1.738-.599-1.003-1.464-.401-.865.602.599 1.07 1.065.936 2.13 1.203.599.134-2.197 3.009-3.129 3.076-1.464.067-1.863-1.605-3.061-1.27.066.601.399 1.203.798 1.671.799.87.799.401 1.798.401.931 0-.267 1.07-.333 1.271-.533.669-.999 1.538-1.731 2.006-1.198.802-3.128-1.337-3.594-.869-1.531 1.537 2.862 1.738 2.928 1.872.2.334-1.198 1.605-1.464 1.738-.799.401-1.73.468-2.596.468-.532 0-1.597.602-.599 1.003.666.268 2.529-.869 2.596-.668.266.334-3.128 5.416-3.461 6.084-1.331 2.541-2.529 5.082-3.461 7.757-.333 1.003-.733 2.273-1.198 3.209-.666 1.204-.799 2.541-1.332 3.811-.399.937-1.264-.066-1.863.067-.466.067-.466.535-.2.803.732.535 1.065.401 1.73-.067-.133 1.136-.465 2.273-.665 3.41-.133.602-1.93-.802-1.398.669.2.601.998.133 1.065.468.133.401-.399 1.404-.466 1.805-.066.334-.133 1.872-.666 1.738-.399-.066-1.397-.2-1.131.602.266.803 1.797 0 1.331 1.337-.466 1.338-.599 2.742-.865 4.146-.799 3.945-.399 8.024-.666 12.036-.133 1.872-.066 3.811.133 5.683.067.535.932 4.28.267 4.28-.333 0-1.465-.402-1.332.401.2 1.003.932.2 1.398.267.666.134.999 4.948 1.065 5.617.067.535.333 1.27-.333 1.471-.466.134-.865 1.07-.332 1.404.266.201.998-.535.998 0 .067 1.003.266 2.006.466 3.009.2 1.538.666 3.209.666 4.747 0 .669-.6.602-.932 1.07-.133.201-.067.401.066.535.466.535.599.267.932 0 .2-.134.799 3.343.865 3.678.067.735 0 1.337.2 2.005.067.335.466 1.271.067 1.538-.466.335-.866.201-1.065.87-.133.401-.2 1.069.532.735 1.465-.735 1.198 2.006 1.331 2.808-.599 0-1.198-.267-1.065.669.134 1.337 1.065-.869 1.199.869.266 2.541.332 5.149.199 7.69-.133 2.139.333 4.547-.066 6.686-.333 1.806-2.263.803-3.462 1.07.466.602 2.13 1.137 2.929.936.799-.2.799.669 1.398.936.266.134.666.067.799-.2.066-.067.066-.201.066-.268 0-.134.133-1.07.2-1.07.266-.066.532.535.799.067.199-.334.199-1.003-.4-.869-1.198.267-.798-2.006-.865-2.741-.067-.736-.399-2.14 0-2.876.133-.2 1.93-1.136.533-1.337-.999-.201-.333-3.544-.267-4.279.067-.335-.066-.736.2-1.003.399-.535 1.198.602 1.464-.268.466-1.671-1.464-.2-1.264-1.337.266-1.939.399-3.945.665-5.884.266-1.872.533-3.678.932-5.55.133-.735.266-1.738.599-2.407.133-.267 1.93-.267 1.331-1.003-.266-.334-.998 0-.998-.535 0-.802.532-1.872.599-2.608.067-.668.133-1.337.399-1.939.866-2.006.4-.936.533-1.203.133-1.07.466-2.34.865-3.343.533-1.405.799-2.809 1.198-4.28.133-.535.267-.936.466-1.27.133-.535 2.263-8.425 2.396-9.227.333-1.538.799-3.009 1.332-4.48.532-1.538.732-3.009 1.464-4.413 1.531-2.876 1.331-6.687 1.198-9.83-.2-3.343-1.531-6.953-.932-10.297.799.201 1.065 4.413 1.132 5.149.133 1.137.333 2.273.466 3.41.199 1.471 0 2.942.199 4.346.067.401.2 1.939.666 2.14.466.2.466-.602.533-.869.133-1.003-.134-2.073 0-3.076.266-2.14 1.863-4.012 2.662-5.951.865-2.073 1.664-4.146 2.596-6.152 1.132-2.407 2.263-5.616 4.992-6.82.2.334-1.531 2.675-2.063 3.477-.666 1.003-1.265 2.073-1.864 3.21-1.132 2.139-2.063 4.413-3.062 6.619-.865 2.006-1.864 3.945-2.396 6.018a11.823 11.823 0 0 0-.399 3.076c.199.401.465.535.599.267.266-.067.532-.2.732-.468.066-.067.066-.134.133-.2.133-.268.266-.468.466-.736.066-.134.2-.267.266-.334.067-.134.133-.268.266-.468.799-1.003 1.531-2.073 2.33-3.076 1.597-2.073 3.262-4.146 4.526-6.486 1.265-2.14 2.396-4.48 3.794-6.486 1.465-2.073 3.129-3.945 4.593-6.018 1.464-2.072 2.995-4.212 4.792-6.017 1.664-1.672 3.595-3.143 4.993-5.015.532-.736.066-1.739.466-2.608.599-1.204.665-3.076 1.464-4.012.333.869-.133 1.872.2 2.808.399 1.07 1.331-.066 1.53-.601.799-1.538 1.199-3.277 1.598-4.948.466-1.672 1.731-8.693 1.93-10.431.267-2.675.333-5.349 1.065-7.957.599 1.672.133 4.279.067 6.018-.067 2.34-.599 4.547-1.065 6.887-.4 2.006-.799 3.945-1.265 5.884-.399 1.538-1.93 4.212-1.331 5.75.266.602-.666.736-.266 1.338.133.267 1.597-1.271 1.797-1.471 2.196-2.14 4.593-4.213 6.456-6.62a17.761 17.761 0 0 0 2.53-4.012c.732-1.538.998-3.209 1.464-4.814.533-1.739.266-3.477.533-5.216.332-2.407.066-4.48-.134-6.887-.066-.601-.133-1.404-.066-2.072.2-.937.665 1.471.599 1.337.466 2.273.799 4.613.932 6.954 0 .869 0 1.805-.067 2.674-.066.669-.665 2.073-.532 2.608.333 1.939 1.065-.267 1.531-1.137.998-1.872.998-4.145 1.464-6.151.266-1.137.532-2.274.865-3.343.133-.602.2-2.006.666-2.408-.133 4.28.466 8.626-.799 12.772-.066.668-.399 3.008-.932 3.543l-.066.067c.133.067.266 0 .399-.067a.508.508 0 0 0 .333-.133c2.33-.803 7.122-6.887 10.317-9.696.732-.668 7.854-8.224 8.32-7.756 0 0-6.19 7.556-6.856 8.358-.665.736-7.255 7.221-6.856 7.689.333.402 2.929-1.537 3.329-1.805 1.664-1.003 3.328-2.006 5.191-2.541 1.731-.468 3.528-.601 5.259-.468 1.864.134 3.794.134 5.591.669-.932.334-2.13.134-3.128.267a29.116 29.116 0 0 0-3.328.602c-2.397.602-4.726 1.404-7.056 2.207-1.997.668-4.06 1.136-6.124 1.872-2.063.735-3.794 2.073-5.791 2.875-1.863.802-3.128 1.939-4.459 3.477-1.398 1.672-3.062 3.009-4.66 4.547-1.664 1.605-3.661 2.808-5.391 4.346-1.731 1.538-3.461 3.209-5.392 4.547-3.461 2.474-5.724 6.084-8.52 9.227-.599.669.799.669 1.065.602.866-.201 1.731-.869 2.53-1.204 1.997-.802 3.86-1.805 5.857-2.407 2.064-.602 4.127-1.203 6.124-2.006 2.13-.936 3.927-2.674 5.924-3.811 2.063-1.204 4.127-2.407 6.323-3.477.533-.267 4.061-3.276 4.393-2.875.333.468-6.722 5.817-7.455 6.218-.665.335-1.464.535-2.063.936-.666.468-1.065 1.137-1.731 1.605-.332.201-1.797.802-.798 1.337.798.402 2.13.335 2.995.402 3.861.133 7.854-1.405 11.582-2.207 1.997-.401 3.927-.936 5.924-1.27 2.263-.402 4.459-.402 6.789-.669.932-.067 1.864-.201 2.729-.201.599 0 .999.402.133.535-2.063.335-4.06.736-6.123 1.137l-12.181 2.407c-1.598.334-4.127.535-5.458 1.471-1.065.736 1.264 1.137 1.597 1.204.666.133 1.265.267 1.93.334 1.598 0 3.129 0 4.66.401 1.997.468 7.654 2.34 8.253 2.675.134.067.267.2.4.267-.732.134-6.257-1.605-8.187-2.006-2.064-.468-4.194-.468-6.324-.468-.133 0-.199.067-.333.067.2.669.866 1.003 1.465 1.337.066 0 .133 0 .2.067.133.067.332.201.465.268.733.401 1.598.869 2.264 1.404 2.396 1.404 7.055 5.148 6.589 5.416-.266.134-4.526-3.41-9.385-6.218-.932-.402-1.797-.87-2.729-1.137-2.596-.803-4.859-2.207-7.588-2.675-2.463-.468-5.858-1.003-8.254-.334-2.529.735-4.659 1.605-6.922 3.009-1.997 1.27-3.927 2.541-5.858 4.012-2.063 1.604-3.661 3.343-5.391 5.282-.799.869-1.797 1.471-2.53 2.34-.399.468-1.73 1.872-1.73 2.407 0 .335 1.198 0 1.597 0 1.065 0 1.531-1.136 2.397-1.604 4.26-2.541 9.252-4.146 14.244-3.745 4.593.335 9.119 2.942 12.447 6.018 1.464 1.337 2.995 3.21 3.86 4.948 1.132 2.273 1.332 4.948 1.931 7.355.333 1.271.665 2.608.998 3.878.2.803.466 2.742 1.265 3.143.399.2 1.065.067 1.464.134 1.331.267 2.596.668 3.927.802 1.332.067 2.596-.067 3.928-.134 2.795-.267 6.19-.802 8.519-2.474.4-.334.799.401.4.669-1.664 1.203-3.728 1.805-5.724 2.073-1.199 0-2.463.334-3.661.468-.799.134-1.531.134-2.33.2-.466.067-1.664 0-1.132.602.4.468 1.598.535 2.13.669.799.2 1.598.468 2.397.735 3.195 1.07 10.383 3.678 14.71 7.69-3.328-2.006-8.786-4.413-9.452-4.681-2.063-.802-4.127-1.538-6.19-2.273-1.332-.468-3.129-.736-4.393-1.404-.932-.535-2.263-1.739-3.328-1.806-.666-.067-.333.468.066.87.533.735 1.398 1.404 1.997 1.872.599.468 6.456 6.82 7.056 7.489 2.196 2.407 4.06 5.148 5.724 7.89.2.2.2.468.066.668-2.13-2.407-3.594-5.282-5.857-7.555-1.93-1.94-3.994-3.678-5.924-5.617-.865-.669-1.797-1.204-2.529-1.939-.533-.535-1.198-1.137-1.664-1.805 0 .133-.067.334 0 .534l.599 5.617c.199 1.605.399 3.143.732 4.747.199.803.333 1.605.599 2.341.133.535.799 1.604.599 2.139-2.13-2.474-2.596-6.017-3.594-8.959-.533-1.605-.4-3.277-.4-4.948 0-.803-.066-1.672-.133-2.474-.2-2.341-.2-4.882-1.065-7.155-.066-.201-.333-1.27-.599-1.471-.666-.401-.932.736-.932 1.137 0 .936-.932 9.762-2.263 9.361.067 0 2.13-13.574 1.864-15.045-.732-4.279-4.06-8.425-7.588-10.765-2.663-1.738-5.725-2.14-8.853-2.14-4.06 0-8.52.335-12.181 2.14-3.727 1.805-6.789 4.747-9.252 8.024-.799 1.003-1.464 2.139-2.13 3.209-.532 1.003-1.131 1.404-2.13 1.872-.665.268-1.065 0-1.73 0-.932 0 .665.937.599.87.399.2 1.464-.134 1.73.067.266.267-.333 1.27-.466 1.537-.333.669-.732 1.271-1.264 1.739-.666.535-1.931.067-2.264.802-.199.468.733.669 1.199.669.133 0 .266 0 .399.067.2.134.266.401.2.668-.267 1.204-1.332 1.538-2.397 1.672-.266 0-1.664-.334-1.863-.067-.333.602 2.396 1.07 2.596 1.204.399.401-.866 2.741-1.132 3.076-.466.534-2.13.2-2.263.534-.2.669 1.597.602 1.464 1.739-.133.869-.332 1.805-1.331 1.872-.998 0-1.864-.2-.865.736.732.735 1.664-.201 1.065 1.538-.533 1.404-2.197 1.537-2.263 1.537-.133.268-.133.602.066.803 0 0 .599.067.732.267.267.335-.066 1.204-.266 1.404-.333.402-1.997.402-1.997.87-.066.802 1.664 0 1.265 1.136-.266.803-.2 1.806-1.331 1.672-1.065-.067-1.598.736-.267.736 1.398 0 .4 1.537.267 2.206l-.999 5.015c-.599 3.343-.732 6.686-1.131 10.03-.2 1.537-.533 3.008-.732 4.479-.134.87-1.664-.401-1.332 1.137.133.602.533.268.932.401.4.067 0 1.137 0 1.271a6320.15 6320.15 0 0 1-.799 4.613c-.532-.668-2.063-.534-1.397.402.665 1.003.732.267 1.397-.067-.066.735.067 3.878-.665 4.346-.533.334-1.198-.201-1.331.735-.2 1.271 1.397.268 1.397.335.134.869-.266 2.073-.399 2.942-.133.936 0 2.474-.466 3.276-.133.201-.399.268-.599.201-.133-.067-.266-.134-.399-.134s-.267 0-.4.067c-.732.134-1.397.267-2.063.468-.533.201-1.731.602-.732 1.137.665.334 1.664.468 2.396.267.399-.067 1.597-1.27 1.797-1.203.333.2.067 1.805 0 2.072a2.975 2.975 0 0 1-1.131 2.14c-.666.602-1.332.669-2.064.067-.665-.535-1.265.334-.799.936.599.736 1.332.736 2.13.401.2-.067 1.465-.735 1.465-.267.066 1.404-1.198 2.808-2.263 3.544-.666.468-1.332.468-1.997.802-.333.201.066.936.133 1.204.333 1.203 2.929-.335 3.661-.669-.067 1.137.266 3.677-1.065 4.145-.466.134-1.132.268-1.598.201-1.065-.134-.133.602.466.602.466 0 1.132-.134 1.598.134.665.468.066 2.206-.067 2.741-.333 1.137-4.06 1.471-3.994 2.073 0 .869 3.262-.401 3.661-.335 1.065.067 0 2.608-.199 3.076-.666 1.538-1.598 1.471-2.796 2.274-.466.334.666.334.799.401.466 0 1.664-.669 1.997-.535.133.067-.133 2.206-.2 2.407-.333 1.137-1.597 1.538-2.662 1.337-1.199-.2-1.398.201-.2.669.532.201 2.662-.134 2.729.602.066 1.337-.399 2.607-1.731 2.808-.399.067-1.797.134-.932.736.533.401 2.663 0 2.33 1.069-.2.669 0 1.471-.399 2.073-.599.736-1.997.803-2.862.869-1.065.134-.999.402 0 .535.465.067 2.995 0 3.061.335.134.936.134 3.343-.998 3.677-.599.201-1.398-.067-1.93.134-.666.267 1.797.735 1.997.802 1.664.669.199 3.678-.932 4.213-.533.267-.999.334-1.265.267 0 .201 0 .401.067.535.599-.067 1.397.067 1.797.067 1.131.067.732 1.404.599 2.207-.2 1.27-.932 2.34-2.33 2.474h-.066v.601c.465.067 1.065.268 1.53.201 1.731-.334-.066 1.538-.532 2.073-.133.133-1.065.535-.266.802.466.134.932-.535 1.264-.267.599.401.267 2.541 0 3.075-.199.402-2.063 1.471-1.996 1.471.532.87 2.13-.267 2.196.669.133 1.404-.2 2.006-1.464 2.608-.133.067-.999.535-1.065.668-.466.602.932.469 1.065.469.399.066.798-.535 1.131-.268.466.334.466 1.471.466 2.006-.066 1.003-1.797 1.738-1.73 2.207.199.802 1.863-.468 1.797 1.069 0 .535 0 1.137-.2 1.672-.133.401-1.065.936-1.131 1.204 0 .334 1.597.133 1.198 1.404-.333 1.136 1.664.601 1.597.133 0 .134 0 .201 0 0-.066-1.604.666-2.875 1.997-3.744-.2-.134.732.201 1.065-.201.799-.936-.399-.735-.666-1.404-.399-1.003 1.132-3.677 1.531-4.68a90.108 90.108 0 0 1 2.397-5.884c.465-1.137.732-2.809 1.397-3.812-.066.335.999 1.338 1.198 1.538.134.201.466-.334.466-.468 0-.602-.399-.936-.932-1.07-.399-.133-.599-.133-.665-.066l.066-.067-.066.067.066-.067c.799-2.608 1.864-5.149 2.729-7.757.866-2.674 1.332-5.349 2.264-7.957.466-1.27 1.131-2.54 1.331-3.878.133-1.003-.067-2.674.932-3.343.599-.401 3.394 2.541 3.328 3.076-.133.735-.466 1.404-.799 2.006-.266.468-.865.936-1.065 1.337-.133.268.333 1.003.333 1.271.066.468 0 .936-.2 1.337-.266.602-1.531 1.003-.998 1.671a1.82 1.82 0 0 1 0 2.274c-.4.468-1.731.468-1.731 1.203 0 .402 1.398.402 1.198.602-.532.669-.266 1.672-.732 2.34-.466.669-1.664.937-.732 1.94.333.401-.666 2.54-.865 3.075-.2.535-.333 1.739-1.132 1.806-.266 0-.865-.268-.932.267 0 .401.266.535.599.602.999.267-.998 3.076-1.331 3.41-.466.535-1.065.134-1.464.468-.932.802 1.264.936 1.331 1.137.2.401-.865 2.273-.999 2.741-.266.869-.798 1.337-1.73 1.003-.466-.134-.999.401-.599.803.266.334.865.133 1.065.534.266.535-.599 2.073-.799 2.541-.266.535-1.265.134-1.797.201-1.531.067.2 1.07.532 1.27.999.468-1.065 3.611-1.531 4.213 0 0 .134-.201.067-.067-.2 1.07-.533 2.14-1.531 2.675-.732.401-.732 2.607-1.065 3.41-.266.601-.532 1.27-.932 1.805-.532.802-.266.802-.399 1.672-.266 1.604-.932 3.142-1.198 4.747a129.387 129.387 0 0 0-.866 4.948c-.332 1.605-1.331 3.276-1.065 4.881.267 1.605-.199 2.14-1.464 3.076-.399.334-2.263.802-2.196 1.538 1.397.2 2.329-.268 3.527-.936.067 2.139-.466 5.349-2.13 6.82-.332.267-1.397.668-1.531.936-.599.869 2.13 0 2.13 0 .999.134-.865 4.948-1.464 5.416-.666.468-1.93 1.07-2.796 1.003-.266 0-.732-.134-.665.334 0 .468.799.334 1.131.334.333 0 2.729-.401 2.729-.334.2.468-.066 1.605-.199 2.073-.133.535-.333.869-.799 1.137-.333.2-2.463.735-2.13 1.136.599.736 1.597.268 2.263.669.533.267.067 1.605-.066 2.006-.533 1.939-2.13 2.073-3.928 2.14-1.264.066-2.396-.134-3.661-.335-.665-.133.134.602.134.602.466.401.931.736 1.531.936 1.065.468 2.196.602 3.328.535 1.131-.067 1.93-.669 1.73.802-.333 2.207-2.396 2.943-4.326 3.277-1.132.2-2.33.067-3.395-.535-1.265-.736-1.531-.334-.399.535 1.863 1.471 3.993 1.404 6.256 1.27 1.398-.067.267 2.675-.199 3.343-.932 1.271-3.062 1.538-4.46 1.605a33.366 33.366 0 0 1-3.661 0c-.532 0-.998-.133-1.531-.334-.332-.134-.932-.802-1.331-.802-.865.066 1.198 1.404 1.198 1.404 1.065.601 2.263 1.07 3.461 1.404 1.332.334 2.663.401 3.994.134 1.664-.335 1.331.066.932 1.537-.666 2.408-2.263 2.408-4.526 2.073-1.065-.133-2.596-.2-3.328-1.003-.2-.2-.533-.735-.799-.869-.732-.401-.2.869-.067 1.07 1.531 1.872 3.462 2.608 5.858 2.674 1.997.067 1.131 1.471.266 2.742-.998 1.471-3.994 1.137-5.458.802-1.065-.267-2.063-.802-2.796-1.671-.133-.134-.266-.402-.466-.134-.332.468.733 1.27.999 1.471 1.664 1.605 3.661 2.34 5.924 2.407 1.93.134 0 2.407-1.132 2.541-2.396.334-4.726-.602-6.656-1.872-.333-.201-2.396-1.338-2.196-.067.133.869 1.996 1.939 2.662 2.34 1.864 1.137 3.728 1.471 5.724 1.872.599.134-.133 1.672-.466 1.873-.865.534-3.261.2-4.193-.067-.998-.335-1.864-1.003-2.662-1.672-.4-.334-1.465-1.738-2.064-1.738-1.198 0-.133 2.006.133 2.273.733.936 1.664 1.805 2.729 2.34.799.401 1.598.736 2.463.87.333.066 1.664.133 1.797.534.133.335-1.065 2.207-1.264 2.541-.466.803-.999 1.806-2.064 1.739.2-.067-1.264-.736-1.331-.736-.865-.468-1.664-1.003-2.463-1.538-1.797-1.337-3.128-3.009-3.727-5.215-.333-1.137-.466-1.672.133-2.742.665-1.136 1.198-2.34 1.797-3.543 1.065-2.14 1.997-4.347 2.929-6.553.932-2.34 2.063-4.547 2.995-6.887.932-2.34 1.598-4.747 2.463-7.088 1.73-4.613 3.927-9.026 4.792-13.908.866-5.014 2.596-9.695 3.262-14.71.665-5.215 1.398-10.431 2.063-15.646.333-2.407 1.132-4.814 1.265-7.221.133-2.408 0-4.948.666-7.222.266-1.003-.134-1.605-.333-2.541-.267-1.27-.466-2.541-.799-3.811-.732-2.675-1.664-5.282-2.529-7.89-.799-2.34-1.798-4.681-2.863-6.954-1.397-3.009-2.462-6.151-3.66-9.294-.932-2.474-1.864-4.881-2.663-7.355-.399-1.271-.732-2.608-1.265-3.878-.532-1.204-1.331-2.341-2.13-3.477a25.514 25.514 0 0 0-2.729-3.21c-.931-1.003-1.93-1.738-2.995-2.608-2.196-2.005-4.593-3.811-6.922-5.616-2.263-1.739-4.86-2.34-7.189-3.745-5.325-3.209-10.85-6.151-16.374-9.093-2.929-1.538-5.924-3.076-8.986-4.413-.865-.401-7.788-2.207-7.588-2.942 2.263 0 4.526.401 6.456 1.538.8.468 1.731.735 2.663 1.003.333.133 2.396.401 1.198-.402-.799-.535-.932-.334-1.597-1.203-.666-1.003-1.531-1.939-2.33-2.808-.799-.87-3.528-3.009-3.395-4.347.732.067 1.797 1.605 2.263 2.14l2.996 3.209c.665.736 1.064 1.739 1.797 2.408.932.802 2.196 1.404 3.195 2.072 2.063 1.338 4.127 2.675 6.257 3.945 1.597.937 4.393 2.341 6.19 2.207-.466-.736-1.531-.936-2.197-1.404-.865-.602-1.664-1.337-2.396-2.14-1.53-1.671-2.862-3.544-4.327-5.282-3.194-3.745-5.324-8.358-8.253-12.37-.732-1.07-1.531-2.073-2.33-3.143-1.198-1.738-.2-1.27 1.132-.668 1.664-.535-1.265-5.55-1.664-6.62-1.065-2.875-2.064-5.817-2.796-8.759-.666-2.675-1.597-5.817-1.398-8.626.666 3.745 1.997 7.489 3.062 11.167 1.198 4.012 2.796 7.89 4.26 11.768 1.331 3.61 3.262 7.288 5.258 10.631.999 1.739 2.33 3.21 3.395 4.948.4.669.865 1.271 1.465 1.739.465.401.798 1.003 1.131 1.471 2.463 3.142 6.057 5.75 9.119 8.224 2.995 2.474 5.857 5.282 9.319 7.088.466.267.732-.201.332-.535-.599-.602-.998-1.271-1.597-1.806-1.132-1.003-2.53-1.872-3.794-2.808-1.531-1.203-2.862-2.541-4.194-3.945-.332-.401-.665-.669-.931-1.07-2.596-2.875-5.325-6.352-7.389-11.701-.133-.401 5.99 8.358 7.322 9.16-.599-1.27-1.331-2.474-1.664-3.811-.599-2.474-.998-5.817-.865-5.55.4.87 2.463 6.754 3.062 8.091.599 1.337 1.53 2.608 2.13 3.945.332.401.665.869.998 1.27a66.69 66.69 0 0 0 5.924 6.353c1.864 1.738 3.86 3.343 5.99 4.68.4.268 1.798 1.538 1.93.268.067-.468-.598-.937-.798-1.338l-.2-.401c-.732-1.672-1.464-3.276-2.33-4.881-2.13-3.744-4.26-7.422-6.39-11.166-2.861-5.082-5.524-10.231-8.985-14.911-3.261-4.413-5.325-9.495-8.254-14.175-1.464-2.341-2.795-4.681-3.927-7.155-1.264-2.675-2.995-5.082-4.193-7.756-2.33-4.948-3.994-10.231-5.525-15.379-1.664-5.617-3.261-11.233-3.927-17.117a93.922 93.922 0 0 1-.6-8.626c-.066-2.407.4-4.279-1.596-5.884-.2-.134.599-1.003.998-.535.599.602 1.198-1.605 1.331-1.939.4-1.003.932-1.939 1.73-2.675.2-.2.6-.668.933-.869.466-.267.332.468.266.602-1.331 1.939-2.663 4.212-3.129 6.553-.532 2.607.134 5.817.466 8.491.6 5.684 1.598 10.966 3.328 16.449 3.262 10.23 8.254 20.126 13.58 29.487 2.728 4.815 5.59 9.562 8.386 14.309 1.264 2.14 2.596 4.28 4.193 6.152.799.869 1.864 1.672 2.53 2.608.665.936-1.332.869-1.598 1.404.999.334 1.864 0 2.796.134-.266-3.076-1.265-5.751-1.531-8.827-.2-1.939-.533-3.945-.865-5.683-.333-1.805-.4-3.611-.533-5.416 0-1.605-.266-3.276-.466-4.881-.133-1.471-.2-3.009-.266-4.48-.133-3.678-.4-7.355-.865-10.966-.4-2.875-.333-5.817-.733-8.759-.266-1.672-.599-3.343-1.065-4.948-.332-1.137-.599-2.34-.998-3.477-.4-1.204-.999-2.274-1.464-3.41a143.984 143.984 0 0 1-2.263-5.684c-.267-.735-.6-1.538-.866-2.273-.133-.334-.333-.736-.4-1.137 0 0 0-.067 0 0 .733 1.07 3.928 7.957 4.394 9.161.333.802.599 1.671.932 2.474.066.067.133.133.2.133.066 0 .133-.133.2-.2.265-.803.132-1.605.199-2.407.266-2.541.133-4.948.932-7.422.399-1.338-1.93-12.638-1.265-12.771.133-.067 1.265 4.747 1.331 5.215.133 1.003.2 2.006.4 3.009.066.267.066 1.538.266 1.738.865.87.932-1.604.998-2.006.2-1.136.4-2.34.6-3.477.465-2.005 1.197-4.814 2.529-6.419-.4 1.806-1.132 3.544-1.598 5.283-.532 1.805-.732 3.61-1.131 5.349-.866 3.611-1.398 7.422-1.731 11.099-.266 3.544-.067 7.356.532 10.833.134 1.069.4 2.072.533 3.142.133.803.133 1.605.333 2.34.666 2.474 1.53.937 1.664.535.266-.802.4-1.604.532-2.407.466-2.006 1.065-4.012 1.598-6.084.532-2.14 1.065-4.28 1.664-6.419.266-.87 1.131-5.617 1.93-5.617-.799 3.544-1.664 7.088-2.263 10.698-.665 3.878-1.664 7.556-1.797 11.635 0 1.07-.2 2.072-.4 3.075-.532 2.474 1.531 0 1.864-.468.466-.601 5.725-7.422 5.99-7.02.533.802-2.262 4.413-2.728 5.215-1.198 1.872-2.463 3.744-3.461 5.75-2.796 5.818-3.661 12.571-2.996 18.923.267 2.608.866 5.149.932 7.756.133 3.143 1.531 6.219 1.73 9.361.267.134.467.268.733.535.599-1.003.2-2.072.133-3.142-.066-1.404-.133-2.809 0-4.213.2-3.076.932-6.018 1.664-9.026.799-3.21 1.598-6.419 2.13-9.696.133-.802.266-1.671.4-2.474.066-.401.066-.802.133-1.203 0-.335 0-.937.133-1.204.599-.802.732.936.799 1.27.133.803.332 1.538.266 2.474 0 .201.532-1.003.799-1.537.732-1.538 1.064-3.21 1.663-4.815.134-.401.8-.267.666.201-.998 3.143-1.597 6.352-2.729 9.495-.998 2.741-1.864 5.616-2.796 8.425-.465 2.674-.931 5.282-1.131 8.023-.2 2.541.4 5.55-1.265 7.69-.599.802.932 0 1.065.134.4.468.266 1.805.2 2.34-.067.535-.266 1.003-.799 1.27-.2.134-2.13.736-1.73 1.07.399.401 1.93 0 2.396-.201.932-.401 1.131-.668 1.398.669.2.936-.133 1.872-.866 2.541-.133.134-2.263 1.07-1.73 1.203.865.201 1.997-.2 2.662-.668.932-.602.999.468 1.265 1.203.133.468.2.87-.266 1.204-.134.067-2.197.735-1.465 1.07.666.267 1.598-.134 2.197-.335.998-.267 1.331.803 1.664 1.471.799 1.94.133 2.809-1.664 3.611-.2.067-.466-.067-.466.268 0 .869 3.461-.736 3.395-.803.732.736 1.33 2.608.599 3.477-.4.468-.999.669-1.531.736.133 1.07 1.33.401 1.93.133 1.065-.534 2.263 1.471 2.263 2.408 0 .535-.532.869-.998 1.003-.533.2-1.398 1.27-.267.802 1.132-.468 2.13-1.003 2.596.468.133.401.599.936.599 1.337 0 .335-.998 1.204-1.131 1.672-.799 2.474 1.065.602 1.597-.535.466 1.07 1.731 2.741 1.531 3.878-.133.669-2.196 2.474-.665 2.541.599 0 1.131-.869 1.597-.869.466 0 .998 2.006 1.065 2.407.133.802.067 1.605-.333 2.34-.066.401-.532.802.466.802.533 0 .999-.668 1.465-.066.399.535.931 1.538.532 2.206-.133.268-1.065.736-.932 1.07.133.869.999-.201 1.531-.201.799.067 1.398 2.742 1.664 3.344.333.802-.266 1.604-.865 2.072 0 .268.133.468.333.602.532.268 1.264-.602 1.597 0 .466.736.799 1.739 1.132 2.541.399 1.003.998 1.805.532 2.942-.133.201-1.997 2.34-.732 2.006.399-.067 1.597-1.07 1.731-1.07.865.134.865 2.274.798 2.809-.133 1.337-.732.735-1.464 1.471-.599.601 1.664.334 1.864.334 1.131-.334 1.464.936 1.664 1.805.199 1.337-.599 2.073-1.265 3.076.999.134 1.198-.334 1.997-.736.732-.401 1.198 1.405 1.265 1.806.066.735-.067 1.738-.733 2.139-.798.469.533.669.866.736 1.131-.936 1.93 1.738 1.464 2.541-.333.468-1.065.535-1.664.535.133.267.2.468.333.735.799.201 1.198-.267 1.93-.468 1.065-.334 1.065 1.471 1.198 2.073.333 1.471 1.465-.602 1.398-1.27-.066-1.739.466-3.344.599-5.082.133-1.872 0-3.878 0-5.75.067-4.414 0-8.76.2-13.173.133-3.076.199-6.084.133-9.16-.133-5.884-.067-11.768-.333-17.652-.266-6.085-.599-12.237-.932-18.321-.266-5.884-.399-11.702-.865-17.586 0-.401-.599-2.34-.133-2.474.599-.2 1.198.335 1.065-.602-.133-.735-1.398.201-1.331-.668.066-.869-.134-2.006-.267-2.875-.532-2.675-.732-5.483-1.131-8.158-.2-1.337-.533-2.674-.732-4.012-.2-1.471-.067-2.942-.333-4.413-.866-5.884-1.731-11.701-2.862-17.518-.533-2.742-.799-5.483-1.332-8.225-.665-3.209-1.93-6.151-3.394-9.093a85.303 85.303 0 0 0-8.387-13.239c-3.328-4.347-6.323-8.827-9.385-13.306-2.996-4.347-5.658-8.492-9.519-12.103-2.196-2.073-4.46-4.079-7.321-5.282-1.465-.602-2.996-.869-4.593-1.07-1.398-.134-3.794.201-4.992-.602.732-1.137 3.594-1.27 4.792-1.203.666 0 4.127 1.069 4.327.802 1.198-1.605-6.19-5.884-7.322-6.686-.932-.669-3.395-1.672-3.927-2.675-.333-.535 1.464.267 1.33.201a25.06 25.06 0 0 1 2.33 1.136c1.531.803 3.062 1.605 4.46 2.608.865.602 2.796 3.009 3.528 1.404l-1.597-2.006-.8-1.003c-.332-.468-.731-.468-1.064-.869-1.198-1.605-2.263-3.276-3.461-4.881-2.596-3.544-4.993-7.155-8.52-9.829-1.664-1.271-3.528-2.207-5.126-3.477-.665-.535-1.264-1.137-2.13-1.404-.865-.335-1.33-1.07-2.063-1.605-1.797-1.204-3.594-2.273-5.591-3.076-1.997-.802-3.994-1.471-5.458-3.143 2.196-.133 4.925 1.07 6.722 2.274.866.602 1.664 1.471 2.53 1.939.333.134.932.134.932-.401 0-.401-.533-.602-.733-.803-3.594-4.279-6.722-8.692-9.784-13.373-.799-1.203.466-.267.799.067.865.936 1.73 1.873 2.462 2.876 1.798 2.34 3.595 4.68 5.592 6.887 1.863 2.139 3.86 4.145 5.79 6.218.866.936 1.731 1.805 2.596 2.741.333 0 .466-.267.6-.534-1.531-7.289-3.861-14.376-5.658-21.598-.865-3.61-1.93-7.154-3.994-10.297-4.26-6.486-9.452-12.57-13.18-19.324.334.602 1.199.87 1.798 1.404.799.803 1.464 1.605 2.197 2.474 1.397 1.739 2.662 3.544 3.927 5.35 1.33 1.872 2.995 3.477 4.193 5.416.2.267.333.601.532.869 0-1.337.134-2.675.267-4.012v-.067c-.266-1.805-.2-4.48-.2-5.148 0-2.475-.732-5.15-.998-7.623-.333-3.343-.733-6.686-.533-10.03.067-1.671.466-.133.533.669.2 1.538.599 3.009.931 4.48.733 3.142.999 6.419 1.066 9.695.066 2.608.332 5.483.133 8.158.066.067.066.133.066.2 0 .468-.066 1.003-.066 1.471.066 2.274.865 4.346 1.597 6.419.2.268.466 1.137.4.936.399 1.137.798 2.274 1.131 3.41.732 2.274 1.265 4.681 1.864 6.954.2.736 1.53 5.818 2.196 9.295.466.534 1.332.735 1.465-.201 0-.134.066-.201.133-.201.066-1.537.133-3.009.266-4.546.333-4.012.998-8.024 1.598-11.969.266-1.806.465-3.678.798-5.55.333-1.805.932-3.544.999-5.416.066-1.872.066-3.41-.333-5.215-.133-.669-1.531-4.748-.799-5.082.999 2.675 1.331 5.483 1.73 8.291.134.736 1.199.803 1.332.067.266-1.337.666-2.608.998-3.945.6-2.407 1.465-4.814 2.596-7.02.533-1.138 1.198-2.207 1.864-3.21.4-.602 1.265-2.541 1.93-2.742.267 1.003-.732 2.608-1.065 3.477-.466 1.338-.998 2.608-1.53 3.945-1.132 2.808-2.33 5.617-3.462 8.425-2.196 5.216-3.794 10.565-4.46 16.248-.465 4.079-.931 8.225-1.264 12.303-.333 4.012-.6 8.024.133 11.969.2.936.4 1.939.865 2.808.6 1.137 1.598 1.538 2.33 2.474.865 1.07 1.531 2.274 2.53 3.21 1.198 1.203 2.462 2.407 3.594 3.677 2.596 3.009 5.191 6.018 7.72 9.094.666.869 1.332 2.34 2.197 2.875 1.065.669 1.664 1.806 2.463 2.809 1.664 2.005 3.395 3.878 4.793 6.084.2.335 1.065 2.474 1.597 2.14.932-.602-.4-3.076-.599-3.811-.799-2.608-1.53-5.283-1.997-8.024-.2-1.337-.4-2.675-.466-4.079-.066-1.003-.665-3.343-.066-4.212 1.997 6.419 2.795 13.172 4.726 19.591 1.93 6.419 6.656 11.033 9.784 16.917 3.129 5.817 6.923 11.3 10.118 17.117 1.597 2.875 3.461 5.817 4.592 8.96.067 0 .067.067.134.134.199 0 .399.066.599.066.066-.133.066-.334.066-.468v-.401c-.066-.2-.133-.401-.133-.602-.2-.869-.399-1.671-.532-2.54-.533-3.611-1.531-7.088-1.931-10.699-.133-1.404-.266-2.808-.466-4.212-.932-2.608-1.131-5.684-1.531-8.358-.266-1.672-.599-3.277-.931-4.948-.4-1.806-1.132-3.611-1.465-5.416-.399-2.073-.665-4.079-1.131-6.152-.999-4.212-1.864-8.425-2.729-12.704-.999-5.015-3.062-9.896-4.394-14.844-1.064-3.811-1.996-7.689-2.995-11.501-.998-3.811-2.196-7.489-3.461-11.233-1.331-4.079-2.662-8.157-4.06-12.236l-1.398-4.213c-.6-1.805-1.664-4.68-2.396-6.419-2.263-5.416-4.327-10.899-6.523-16.381-.866-2.14-1.731-4.213-2.596-6.353-.799-1.939-2.13-4.948-3.062-6.82a173.054 173.054 0 0 1-3.195-7.288c-.732-1.739-1.465-3.477-2.13-5.215-.533-1.338.133-1.672 1.331-2.34 1.398-.736.333 3.209.266 3.476-.266.87.733.468.999.067.133-.2.2-1.07.532-1.003 1.198.401 1.465 2.675.533 3.343-.266.2-1.132.268-.999.736.133.468 1.065.401 1.332.134 1.264-1.27 1.397.267 1.93 1.203.266.468.466 1.07.067 1.538-.466.468-.999 0-1.531.2-.866.335.332 1.137.665 1.204.533.067.999-.334 1.531-.067.533.268 1.664 2.006 1.065 2.474-.133.134-3.128.067-1.53 1.07.998.602 1.796-.468 2.529.936.266.602 1.131 1.94.732 2.608-.267.401-.932.735-1.531.735.066.067.066.201.133.268.133.2.2.401.333.602.732-.335 1.398-1.003 1.93-.067.4.669 1.464 2.407.4 2.608-.533.133-1.731.133-1 1.002.8.937 1.865-.936 2.13.201.267 1.204 1.066 2.207 1.399 3.343.266.87-.732.87-1.465 1.07.133.268.2.602.333.87.2.066.4.066.533 0 .998-.67 1.397-.134 1.797.802.2.602 1.398 2.674.066 2.674-.266 0-.665-.2-.865 0-.4.468.2 1.07.6 1.137.865.267 1.397-.802 1.796.468.2.602.866 1.404.733 2.14-.134.468-1.066.468-1.531.668l.399 1.003c.732.067 1.597-.869 1.93 0 .267.669 1.73 2.608.999 3.277-.533.535-2.53-.201-1.664 1.07.931.267.931.334 1.797-.067.599-.268.732.535.865.936.333.735 1.331 2.34.732 3.142-.266.402-1.131.335-1.33.803-.467 1.27 1.264.334 1.53.2.799-.601 1.398 1.806 1.464 2.274.267.802-.599 1.337-1.33 1.337.132.334.199.669.332 1.003.599 0 1.265-.802 1.73-.334.4.401.6 1.337.8 1.872.332.802 1.064 2.207.332 2.942-.466.468-.932.267-1.331.468.066.268.133.535.266.802.2 0 .333.067.533.067.465-.067 1.131-.936 1.464-.869.466.067 2.063 4.747-.067 3.945-.599-.201-1.131.334-.532.869.333.268.732.535 1.198.468.4-.067.466-.735.865-.735.533 0 1.531 3.878 1.531 4.346 0 .869-.732 1.07-1.464 1.137-1.265.067-.533 1.003.333 1.07.532.066 1.264-.937 1.73-.602.533.401 1.065 2.206 1.065 2.808 0 .736-.532 1.271-1.198 1.605-.666.334-1.198 1.137.133 1.137.6 0 .999-.669 1.531-.669.533 0 .799 2.006.865 2.34.2.803.999 2.14-.2 2.541a5.51 5.51 0 0 1-1.463.201c.066.267.2.535.266.802.066.134 1.264.134 1.464.067.2-.067.732-.535.865-.201.2.535.333 1.137.466 1.672.2.669 1.198 2.541.466 3.143-.466.334-1.53.2-1.797.601-.532.736 1.065 1.137 1.464.803 1.531-1.471 1.664 1.203 1.798 2.407.133 1.136-.866 1.003-1.332.334-.399-.602-1.664.802-.199 1.605.599.334 1.863-.602 1.997-.067.266 1.137.399 2.34.732 3.41.199.602-.2 1.07-.799 1.003-.333-.067-.666 0-.666.401-.066.669.599.335.932.602.333.267.732-.067 1.065 0 .4.067.466 1.204.466 1.471.133.669.666 2.942-.732 2.207-.399-.201-.932.2-.732.668.133.335.532.201.665.401.267.335.666.134.932.067.666-.133.732 1.137.799 1.538.067.468.932 2.742-.2 2.407-1.131-.401-.998 1.003-.133 1.003.133 0 .266 0 .4.067.399.134.798-.067.798-.468.067-.936.133-1.939.2-2.875.133-1.337.466-10.698.998-14.242.599-4.146 1.132-8.291 1.798-12.437 1.264-8.024 4.393-15.847 6.922-23.536 1.198-3.611 2.396-7.222 3.594-10.899.599-1.806 1.065-2.942.666-4.881-.399-2.006-.466-4.213-1.132-6.152-1.264-3.811-2.595-7.622-4.06-11.434-.665-1.738-1.398-3.544-2.063-5.282-.4-.936-2.53-4.881-1.931-5.55 1.598 3.009 3.062 6.085 4.327 9.294 1.265 3.076 1.93 6.352 3.195 9.361 1.131 2.675 1.997 5.617 2.063 8.559 0 .334.333.401.533.134.333-.535.399-1.605.532-2.207 1.465-6.018 1.332-11.835.267-17.853-.466-2.875-1.132-5.683-1.798-8.558-.732-3.277-2.396-8.492-3.66-11.635-.733-1.738-1.398-3.544-2.13-5.282-.799-2.006-1.531-4.079-2.064-6.152-.399-1.47-1.131-3.142-1.331-4.613-.133-.803 1.065.802 1.065.735a37.94 37.94 0 0 1 1.73 2.742c.999 1.738 1.798 3.61 2.53 5.483.799 2.072 2.662 8.29 2.729 8.29.998.268 1.664-4.345 2.33-7.087.133-.401.798-2.741.798-1.337 0 .735-1.398 7.823-1.597 10.163-.2 2.14.066 4.012.399 6.219.599 3.276.999 6.552 1.465 9.829.465 3.142 1.198 6.285 1.264 9.495 0 1.07-.066 2.14-.066 3.21.066.066.066.133.066.2v.468c.599-1.739 1.065-3.477 1.531-5.283.865-3.477 1.93-6.82 3.129-10.23.732-2.14 1.331-4.28 2.063-6.419.932-2.808 1.93-5.95 3.461-8.492.932-1.538 2.13-2.942 3.262-4.413l.798-1.003c.2-.334.267-.668.466-.936.4-.602.733-.267 1.265.067 1.065.669-1.198 1.94-1.731 2.474-2.13 2.207-3.794 5.416-4.859 8.291-2.928 8.358-5.125 16.984-7.721 25.409-.865 2.674-1.331 5.483-2.13 8.157-.865 2.876-1.93 5.617-2.795 8.492-.799 2.608-1.598 5.216-2.596 7.756-1.065 2.742-2.596 5.483-3.528 8.225-.067.133-1.731 2.541-.333 2.273.732-.134 1.864-1.605 2.53-2.073a41.526 41.526 0 0 1 7.055-4.145c2.197-1.07 4.593-1.739 6.656-3.009 2.064-1.271 3.728-3.21 5.126-5.216 1.198-1.671 1.597-3.61 1.863-5.483.4-3.008.799-6.017.932-9.093.067-1.337-.066-2.675.2-4.012.466-2.474.532-.267.532.936-.066 3.143-.266 6.285-.532 9.428-.133 1.739-.266 3.41-.2 5.149.865.066 1.331-2.14 1.531-2.742.865-2.407 1.93-4.547 3.062-6.954 1.398-2.808 2.929-5.483 4.46-8.224.798-1.404 1.53-2.808 2.329-4.213 0-.066.599-1.337.799-1.27.466.2-.2 1.27-.266 1.404-1.598 3.811-2.729 7.823-5.126 11.3-1.065 1.471-1.93 3.076-2.729 4.748a51.47 51.47 0 0 1-4.193 7.154c-.466.468-1.864 2.675-.998 2.875 1.198.268 2.928-1.471 3.993-2.006a14.658 14.658 0 0 1 4.726-1.604c.999-1.07 2.729-1.204 4.06-1.538 1.465-.335 3.329-1.07 4.793-.869-3.195 2.072-7.255 2.808-10.717 4.212-3.527 1.471-6.922 3.678-10.184 5.55-6.456 3.744-14.976 5.683-19.569 12.102-2.13 2.942-2.928 6.419-3.527 9.963-.733 4.279-1.332 8.626-1.997 12.972-.666 4.279-.799 8.692-1.132 13.038-.066.936-.133 1.939-.133 2.876 0-.067-.067.735-.2 1.203.067 1.337.2 3.009-.466 3.945-.066.334-.199.602-.599.602-.399 0-1.464-.134-1.065.602.333.668.999.2 1.598.267.865.134.799 2.006.932 2.675.066.668-.799.2-1.065.267-.799.201-.133 1.003.466.936.466-.067 1.198-.267 1.397.268.4 1.203 0 1.738-.399 2.674-.333.736 1.132.535 1.132 1.271.066.936.466 1.805.532 2.808.067 1.137-.466.802-1.198 1.27-.333.201-.266.803 0 1.003.333.268.799-.066 1.132-.133.798-.134 1.198 1.805 1.131 2.34-.066.736-2.13 1.003-1.464 1.738.399.469 1.198-.267 1.73-.133.666.133.599 1.671.666 2.206.067.669.732 1.872-.133 2.274-.333.133-.865.067-1.065.468-.266.601.599 1.203 1.131.802 1.332-1.07 1.864 2.875 1.265 3.21-.532.267-1.531-.335-1.93.133-.799.936 1.597 1.07 1.863 1.137 1.132.134 1.731 3.611.733 3.878-.333.134-1.864 0-1.198.869.599.736 1.73-.468 2.13.468.332.669.465 1.94.532 2.675.067 1.27-.932 1.27-1.864 1.27-1.131 0 .133.937.466 1.07.666.268 1.465-.668 1.731.401.133.669.932 2.608.333 3.076-.466.335-1.332.268-1.864.268-.333 0-.865.334-.466.668.399.402 1.132.268 1.664.402.333.133.865-.402 1.132.066.199.468.332 1.003.332 1.471 0 1.405-.732.87-1.664.937-.798 0-.066 1.604.799 1.337.932-.268 1.331 0 1.198.936-.066.535.333 1.805.067 2.14-.2.334-2.064.601-1.132 1.337.533.401 1.731-.201 1.864.267.399 1.404.266 2.474-1.198 3.076-.133.067-.266.067-.4.067v.267c.067.268.134.468.2.736.133-.067.333-.134.533-.134.798 0 .865-.535 1.464-.735.067 0 .865 5.215.998 5.75.466 2.675.799 5.349 1.598 7.89.2.736.333.736.333 0 0-1.471-.2-2.942-.333-4.413-.133-1.27-.266-2.608-.133-3.878.133-1.204.599-2.34.665-3.544.067-2.541.333-4.881.999-7.288a93.917 93.917 0 0 1 1.131-4.079c.2-.735 1.265-.067 1.531-.735.267-.602-.532-.535-.798-.803-.4-.401.599-2.474.798-2.942.866-2.608 1.931-5.148 3.129-7.622 1.997-4.079 4.26-7.757 7.122-11.234 0-.133.066-.2.2-.267.066 0 .066-.067.133-.067.266-.334.532-.602.798-.936.2-.268.466-.468.666-.736v-.2l.2-.602c-.067-.067-.067-.134 0-.267 1.397-3.411 2.13-7.088 2.662-10.699.4-2.541.666-5.015.999-7.555v-.469c-.2-.601-.799-1.203-1.132-1.738l.067.067s0-.067-.067-.067c-1.132-1.805-1.93-3.744-3.395-5.416-.466-.535-4.26-3.945-3.86-4.48.333-.468 4.593 4.413 4.992 4.881a33.888 33.888 0 0 1 2.396 3.611c.333.535.133 1.671.999 1.939.532-3.41-1.265-7.489-2.53-10.565-1.464-3.544-2.662-7.221-2.662-11.166 1.198 1.07 1.863 3.544 2.463 5.015.732 1.805 1.331 3.61 1.597 5.55.333 1.939.799 3.811 1.265 5.75.266 1.07.466 2.14.466 3.209.066.936-.267 1.873.133 2.809 0 .067 0 .067.066.067.466-4.681 1.065-9.094 2.796-13.574.865-2.273 2.263-4.212 3.727-6.085 1.465-1.872 2.729-3.744 4.66-5.148 2.196-1.605 2.529-3.477 2.662-6.085.133-1.939.599-3.677 1.265-5.483a.521.521 0 0 1 .266-.267 19.305 19.305 0 0 1 1.132-2.34.52.52 0 0 1 .266-.268c.266.134-.666 2.608-1.265 4.279-.599 2.073-.732 4.012-.998 6.152-.067.401-.133.735-.2 1.07 1.464-2.675 3.195-5.149 4.926-7.623.199-.468.532-.936.798-1.404-.066.134-.066.134 0 0 1.199-2.14 2.596-4.212 3.928-6.218.199-.268 1.198-2.14 1.531-1.939.399.267-1.132 2.741-1.332 3.075-1.264 2.474-2.329 4.815-4.127 6.954a32.873 32.873 0 0 0-2.928 3.878c-.466.669-.866 1.405-1.265 2.073-.333.602-.532 1.204-.932 1.806 1.598-.937 3.262-1.806 4.793-2.876.732-.468 1.996-1.872 2.862-1.805-1.93 2.073-4.06 4.079-6.39 5.75-1.797 1.271-4.526 2.14-6.19 3.678-1.065 1.538-2.264 2.875-3.328 4.346-1.531 1.605-2.596 3.611-3.129 5.75-.333 1.405-.865 2.809-1.198 4.28-.266 1.137-.333 2.34-.266 3.477 0 .401.532.602.798.267.932-1.136 2.064-3.544 3.062-4.814.267-.334 3.062-4.012 3.262-3.811.399.401-4.526 7.489-5.059 8.358-1.797 3.209-2.795 6.753-3.86 10.23a60.18 60.18 0 0 0-2.397 11.835c.067-.602 1.398-1.805 1.798-2.206 1.73-2.006 3.594-3.812 5.458-5.55 3.794-3.477 7.588-7.021 11.382-10.498 1.997-1.805 4.06-3.477 6.123-5.282a208.881 208.881 0 0 0 5.725-5.149c1.797-1.605 3.661-3.209 5.325-4.881 1.93-1.872 3.993-3.677 5.924-5.483 1.73-1.605 3.195-3.142 4.592-4.948.599-.869 1.132.067.999-1.07-.133-1.136.732-2.072 1.264-3.009 2.73-4.68 3.329-11.099 3.861-16.314.333-2.809.533-5.684.998-8.492.134-.87 1.265-7.422 2.13-7.289.333.067.267 4.414.2 4.882-.066 2.139-.333 4.212-.665 6.352-.267 2.006-.666 4.078-.733 6.084-.066 1.204-.133 2.474-1.331 2.876-1.398.468.599.735.599 1.203.067.535-.665.602-.998.602-.533 0-.866.936-.333.936.266 0 .732-.134.932.067.266.2-.067 1.538-.266 1.805-.267.401-.733.401-1.065.736-.2.267.998.668.732 1.337-.533 1.404-1.331.201-1.931 1.003-.332.468.2.802.6.802.865-.066.798 0 .665.736-.133.669.067 1.872-.998 1.337-.333-.2-1.398-.535-1.065.401.199.535 1.331.402 1.331.803-.067.936-.533 4.012-1.664 2.139-.2-.401-1.065-.2-1.065.268.133 2.875 3.195 2.875 4.06 2.541 1.398-.535 2.396-1.404 3.861-1.806 2.795-.802 5.724-1.003 8.653-1.404.599-.067 1.664.268 2.196 0 .267-.134.466-.401.666-.668.865-1.137 1.731-2.341 2.662-3.411.4-.468 2.929-2.34 2.929-2.808.533-.401 4.66-4.012 5.259-2.808-2.264 1.671-4.127 3.878-6.457 5.55-.066 0-.066.066-.133.066-.266.201-.466.469-.732.736-.533.735-.932 1.538-1.465 2.273-.066.134-.133.268-.133.402a15.806 15.806 0 0 0 2.397-.602c2.595-.936 4.992-2.742 7.654-3.21.067 1.271-3.528 2.809-4.526 3.21-1.864.802-3.927 1.07-5.724 2.006 1.93.802 4.526.2 6.523 0 2.263-.201 4.526-.669 6.789-.87 4.526-.401 8.853-1.671 13.246-2.407.266 1.405-.266 1.605-.799 1.739Zm13.778-9.094c.333.669-2.196.268-2.596.401-.266.067-2.263 1.271-2.063.669.333-.936.799-2.073 1.93-2.273.932-.067 2.197.334 2.729 1.203Zm-6.523 1.404c-.732-1.939-.333-4.078 1.797-4.747.466-.134 1.265-.134 1.664.201.666.535-.798.869-.998 1.003-.732.401-1.265 1.136-1.664 1.872-.2.401-.466 1.471-.799 1.671Zm1.731 5.35c-.599-.134-.333-.067 0 0-.599-.134-1.065-.402-.666-1.003.533-.803.732-1.605 1.265-2.407.732-1.204 3.128-2.274 4.46-1.605 1.065.535-.799 2.073-1.132 2.34-.799.535-2.063.468-2.729 1.07-.865.735 1.864.735 1.997.668 1.131-.267 1.997-.936 2.929-1.604.133 3.878-3.462 3.142-6.058 2.541.067 0 .134 0 .2.066-.066 0-.133 0-.266-.066Zm8.32.601c-.532 1.204-1.731 2.14-3.062 2.073-.066 0 2.197.134 0 0-.665-.067-1.531-.067-2.063-.535.532-.401 1.398-.2 1.997-.468a3.598 3.598 0 0 0 1.464-1.003c.466-.535.932-3.142 1.331-3.209.932-.134.466 2.808.333 3.142Z"/><path d="M125.269 389.419c-.133 0-.266-.066 0 0Z"/><path d="M125.27 389.419c-.266-.067-.599.067-.932 0-.399-.133-.2-.668-.599-.802-1.398-.468-.466.802-.067 1.137.666.601 1.332.869 2.263.601.333-.133.466-.601.267-.869-.133-.267-.666-.067-.932-.067.133 0 .2 0 0 0ZM118.214 427.198c-.532.133-1.331-.468-1.864-.201-.798.401.599 1.003.799 1.07.533.267 1.464.468 1.93-.067.599-.602-.399-.869-.865-.802ZM119.612 408.81c.067-.067.067 0 0 0Z"/><path d="M119.545 408.944c-.332.601 2.33 2.073 2.397.067-.466 0-2.13-.535-2.397-.067ZM125.736 397.242c-.133.067-.266.067 0 0Z"/><path d="M125.802 397.242c-.599.201-2.662 1.003-.932 1.204.4.067 1.065.134 1.331-.267.2-.335.134-1.204-.399-.937ZM124.138 403.661c.266-.066-.666.067 0 0ZM124.138 403.661c-.399.067-1.93 1.204-1.065 1.471 1.198.402 1.93-1.604 1.065-1.471ZM120.344 415.363c.067 0 .2-.067 0 0-.333.133-.732-.134-.998.067-.599.401.266.802.532.802 1.398.134 1.331-1.204.466-.869ZM117.748 422.183h.133c.466-.134 1.265-.468.133-.869-.998-.402-1.397.735-.266.869ZM121.276 404.932h-.067.067c.066 0 .066 0 0 0 .665.067.599-1.003 0-1.07-.666-.134-.466 1.07 0 1.07ZM123.007 397.376c.066-.468-.799-.735-.799-.334 0 .535.799 1.003.799.334ZM46.128 8.425c1.331.267-.799-2.14-1.331-2.34-2.064-.067.532 2.206 1.33 2.34ZM48.724 12.37s-.067 0-.134.067c.067-.067.133-.067.133-.067Z"/><path d="M48.59 12.37c-.133.067-.066.067 0 0-.599.134-1.53 0-2.063.2-.865.335 1.065.736 1.065.736.333.2 1.331.067 1.73 0 .733 0 .134-1.137-.732-.936ZM52.584 11.3c-.466.268-.998.401-1.464.602-.4.2-.666 1.003.066.936.533-.067 1.265-.401 1.798-.535.865-.334.332-1.404-.4-1.003Zm-.2.134s.067-.067.134-.067c-.067 0-.133.067-.133.067ZM52.65 11.3c.068-.067.068-.067 0 0ZM48.59 16.984c-.133-1.07-2.662-.134-2.596.334.067.401 2.73.535 2.596-.334ZM55.846 32.697c.133.067.266.067 0 0-1.465-.335-2.397.802-.333.802.4 0 1.131 0 1.464-.267.732-.669-1.065-.535-1.131-.535ZM60.638 23.47h.133c.666-.134 1.598-1.204.932-1.739-.799-.602-1.73 1.203-1.131 1.672 0 0 0 .067.066.067ZM51.519 21.53c-.466.335-.865.2-1.265.335-.732.267.733.668.799.668.333-.067.998-.067 1.331-.334.533-.401-.266-1.07-.865-.669ZM50.72 27.816c.333-.134.8.133.999-.201.466-.802-.333-.802-.799-.735-1.264.2-1.597.735-.2.936ZM50.388 17.184c.465-.134.931-.267 1.397-.468.6-.2.4-.802-.133-.87-.599-.066-1.131.536-1.664.736-.532.268 0 .736.4.602ZM48.058 9.294c.4 0 1.398.2 1.331-.535-.066-.735-.666-.468-1.131-.334-.267.067-.932.2-1.065.334-.666.535.798.468.865.535ZM54.115 26.478c-.2.535 1.531.134 1.73-.601.334-1.338-1.464 0-1.73.601ZM51.186 8.157c-.2.535 1.398 0 1.531-.066.932-.602-.865-1.739-1.53.066ZM45.13 12.37c.865.134-.267-1.538-.866-1.605-1.265-.067.266 1.471.865 1.605ZM50.853 5.149c.267 0 .733.066.999-.201.333-.468-.133-.936-.6-.936-.465.067-1.197.2-1.264.802-.133.535.6.2.865.335ZM50.987 33.031c-.134.067-.067.067 0 0Z"/><path d="M51.053 33.031c-.798.2-2.13 1.137-.466 1.003.333-.2.799.2 1.065-.134.4-.468-.066-1.003-.599-.869Z"/><path d="M50.987 33.031h.133c.2-.067 0 0-.133 0ZM48.124 29.955h.067c0-.067 0-.067-.067 0-.266.134-2.263.936-.799 1.07.333 0 .932.067 1.199-.2.332-.335.133-1.07-.4-.87ZM46.127 25.743c-.798.134-1.597 1.203-.399 1.003.266-.067.865.267.999.067.399-.468-.067-1.137-.6-1.07ZM48.191 21.53c.333 0-.533.067 0 0Z"/><path d="M48.191 21.53c-.932.067-1.797.936-.4 1.003 1.066.067 1.532-1.07.4-1.003ZM42.733 24.405H42.6c-.267.067-.999.134-.932.535.066.535.799.335 1.131.468.999.335.6-.936-.066-1.003ZM58.175 24.339c-.532-.736-.932-.803-1.264.067-.4 1.07.665.601 1.131.067l.133-.134ZM42.6 15.713h-.2.267-.067c1.398.067.133-2.14-.799-1.203-.266.267.466 1.203.799 1.203ZM45.529 22.065v.134-.134c-.067-.869-1.864-.735-1.798 0 .067.468 1.864.669 1.797 0ZM44.596 16.85c.333.267.467-1.471-.798-1.003-1.531.535.466.802.798 1.003.067.067 0 0 0 0ZM55.313 28.819c-1.132-.268-1.93 1.538-.865 1.07.2-.134 2.13-.736.865-1.07ZM47.326 33.232c-.333.936.066.802.998 1.27.6-.936-.066-1.07-.998-1.27ZM54.514 21.597c.466-.267 1.398-1.203.267-1.07-.799.067-1.465 1.003-.4 1.137.067-.067.067-.067.133-.067ZM51.386 29.554c-.666-.134-1.132.87-.6.87.533-.067 1.865-.67.6-.87Z"/><path d="M51.32 29.554c-.067 0-.134-.067 0 0ZM42.267 19.992c.2.736.932.87.999 0-.067-.668-1.198-.601-.999 0ZM55.18 11.033c-.067 0-.067 0 0 0h.066c.533-.134.733-.803.067-.803-.599 0-.799.803-.133.803ZM121.809 241.983c.599-.067.998-.334 1.264-.869-.199-.201-1.531-.535-1.797-.402-.799.268-.133 1.338.533 1.271ZM121.809 241.983c-.533.067.532 0 0 0ZM121.476 247.599s.066 0 .066-.133c-.266-.602-1.664-1.338-1.597-.201 0 .736 1.264 1.003 1.531.334ZM128.531 208.484s-.066 0-.2-.067c-.599.334-.532 1.471.333 1.27.932-.133.599-1.003-.133-1.203ZM123.206 270.735h-.066.066c.067 0 .067 0 0 0 .067 0 .067 0 0 0 .666.066.865-1.271.067-1.204-.999.067-1.132 1.07-.067 1.204ZM125.003 270.868h-.066.066c.466-.066.932-.936.333-1.203-.865-.401-1.464 1.404-.333 1.203ZM122.474 234.828c.532-.067.998-.735.266-1.003-.932-.468-1.198 1.137-.266 1.003ZM126.934 213.365c-.666.334.133 1.203.665 1.07.266-.669.333-1.605-.665-1.07ZM129.463 202.533c-.666.067-.599.869 0 1.003.932.2.932-1.07 0-1.003Z"/><path d="M129.463 202.533c.399 0-.266.066 0 0ZM121.675 258.699h-.133c-.599.201-.865 1.07 0 1.137.599.133.733-1.003.133-1.137ZM122.74 250.608h-.133c-.399.067-.798.402-.399.87.466.535 1.73-.87.532-.87ZM133.124 201.73h-.133c-.466.134-.732.803 0 .803.732.067.532-.602.133-.803ZM123.605 383.201c-.332-.067-1.065-.067-.798.468.266.602.932.669 1.464.869.333.134 1.132 0 .865-.535-.333-.535-.932-.668-1.531-.802ZM123.14 378.788c-.333-.267.133.133 0 0Z"/><path d="M124.005 377.985c-1.131-.601-1.997-.133-.865.803.865.802 1.997-.201.865-.803ZM123.206 375.311c.333.067.599.401.999.468.665 0 .865-.869.199-1.07-.399-.134-1.198-.334-1.597-.067-.599.268.2.602.399.669ZM127.666 385.608c2.063.401.998-1.471.532-1.07 0 0 .067-.067 0 0-.399.401-2.263.803-.532 1.07ZM144.373 345.355c.665.067.532-1.203-.133-1.27-.799-.134-.4 1.204.133 1.27Z"/><path d="M144.373 345.355c-.466-.066.399 0 0 0ZM132.725 381.663c.732.067 1.331-1.07.399-1.07-.666 0-1.331 1.003-.399 1.07ZM122.74 382.666c0-.669-1.264-.669-.998.134.266.802.998.936.998-.134ZM133.989 372.904l.133.067c.067 0 .133 0 .067-.067.532-.201.599-1.07-.067-1.003-.665.067-.665.869-.133 1.003ZM136.119 367.554c-.066 0-.133 0 0 0 .133-.066.067-.066 0 0 .533-.133.732-1.002 0-1.002-.133.133-1.065 1.27 0 1.002ZM140.779 358.06c.732.067.599-.869.066-.869-.665.066-.865.735-.066.869ZM123.406 370.831c.066 0 .066.067 0 0 .066.067.066 0 0 0 .532.067.532-.803 0-.936-.599-.067-.466.869 0 .936ZM141.777 353.045c.666-.067.533-.936-.066-.936-.466-.067-.333 1.003.066.936ZM143.108 348.431c-.266.067.2-.066 0 0Z"/><path d="M143.108 348.431c.466-.133.666-.735.067-.802-.666-.067-.466.936-.067.802ZM125.869 292.331c.133-.6-.134.334 0 0Z"/><path d="M125.869 292.332c-.267 1.003 1.531.134 1.73-.468-.399-1.137-1.531-.401-1.73.468ZM125.536 295.073s.067 0 0 0c.067 0 .067 0 0 0h-.067c.067.067.067 0 .067 0-.666.134-.998 1.404-.067 1.338.733-.067.932-1.471.067-1.338ZM124.471 282.971h.067c.066 0 .133 0 .133-.067.998-.334.532-1.805-.333-1.27-.399.401-.399 1.203.133 1.337ZM126.002 278.29c-.067 0-.133 0-.133.067 0 0 .066-.067.133-.067.133 0 .067 0 0 0 .732-.133.732-1.404-.067-1.337-.931.134-.465 1.471.067 1.337ZM125.603 291.663c0-.668-.799-.602-.866 0 0 .669.866.669.866 0ZM126.002 287.317c0 .669.732.736.865 0 .133-.669-.865-.669-.865 0ZM52.517 50.082c0 .066 0 .066 0 0v-.335.335c.067-1.003-.2-2.073.134-3.076-.067-.401-.533-1.337-.733-.468-.266 1.003-.332 1.939-.332 2.942 0 .267-.067 1.203.466 1.203.399.067.465-.267.465-.601ZM52.45 54.495c-.199.067-.864.468-.332.601.6.201.932-.668.333-.601ZM205.476 77.697c.333.534.733 1.07 1.199 1.47.465.402 1.198-.267.798-.668-.466-.468-.066-.067 0 0-.399-.401-1.531-1.94-2.13-1.94-.599-.066.067 1.004.133 1.138ZM210.735 77.697c.2.601.732 1.07 1.265 1.404.266.133 1.331.401 1.065-.401-.266-.736-2.53-1.605-2.33-1.003ZM198.687 79.636c-.067-.067-.067-.067 0 0ZM198.688 79.77c0-.067-.067-.067-.067-.134.067.067.067.067.067.134ZM199.619 79.502c.2-.535-.266-1.003-.266-1.605 0-.401-.932-.602-.998-.2-.133.468.266 1.671.466 2.072.199.602.599.201.798-.267ZM204.878 74.22c.133.067.199.133.266.133.732.201.532-1.872.399-2.273-.333-.87-.932-.334-.932.334.333.535.2 1.204.267 1.806ZM202.348 75.223c.799-.669.932-1.806-.066-2.474-.799-.602-.4 1.47-.067 2.273-.066-.067-.066 0 .133.2ZM207.207 80.17c-.333.67.599 2.34 1.398 2.274 1.331-.067-1.198-2.54-1.398-2.273ZM202.814 81.04c0-.067 0-.067 0 0 0-.067 0-.067 0 0-.066.468 1.065 1.939 1.531 1.47.999-.868-1.464-2.206-1.531-1.47ZM202.282 77.295c-.133.067-.2.134-.133.134-.333.468.133 1.471.466 1.805.266.268.732-.133.732-.4.066-.469-.732-1.204-1.065-1.539ZM201.883 86.59h.133c.133-.268.133-.335.066-.335 0-.535-.665-.869-1.131-1.136-.599-.335-.333.468-.2.668.466.268.599.803 1.132.803ZM199.22 81.91c-.666.066-.266 1.002.066 1.336.4.335.932-.2.666-.601-.133-.335-.666-.335-.732-.736ZM64.365 51.218v-.602c-.133-1.404-.732-2.741-.865-4.212-.2-1.471-.932-1.137-.932.267 0 1.538.866 3.143 1.132 4.68 0 .135-.067 1.405.266 1.338.666-.133.266-1.003.4-1.47ZM65.364 55.096c-.067-.4-.266-1.47-.865-1.337-.733.134-.134.936-.067 1.404.067.268 0 1.471.333 1.605.865.468.665-1.337.599-1.672-.133-.4-.067-.133 0 0ZM172.196 86.255c-.067 0-.067 0 0 0-.067 0-.067 0 0 0-1.398-.535-2.729-1.07-4.127-1.538-.399-.133-.599.402-.399.669.199.334 1.131.535 1.397.602 1.065.334 2.53.735 3.395 1.404.666.535.466-.87-.266-1.137Z"/><path d="M171.796 86.122c.134.066.267.133.333.133-.133-.067-.266-.133-.333-.133ZM171.664 86.055c-.067-.067-.067 0 0 0ZM178.719 88.06l.399.2c.2.067-.333-.2-.399-.2Z"/><path d="M179.118 88.261c-1.065-.468-2.263-.869-3.394-.401-.133.067-1.797.401-.599.802.932.268 2.063-.133 3.062.067.465.067.998.468 1.397.468.733-.067-.399-.936-.466-.936ZM188.104 88.863c-.999-.267-1.997 0-2.995.267-.533.134-1.132.67-.134.803.932.133 2.064-.268 2.996-.268.599-.067.998-.601.133-.802ZM31.684 27.816c.998 0 2.063-.067 3.062-.067-.067-.936-2.996-.736-3.728-.87-1.997-.468-3.927-1.337-5.724-2.407 0 0-2.13-1.136-1.598-.133.333.601 1.331 1.27 1.93 1.538 1.598.869 3.662 1.47 5.525 1.805.067.067.2.134.533.134ZM17.04 21.062c-.932-.133-.266.87.466.803.998-.268.333-.736-.466-.803ZM230.57 99.227c1.864 0 2.663 1.538 4.66.736.665-.268 1.464-.535 2.063-.937.865-.534-.066-.601-.532-.4-.799.334-1.598.668-2.463.735-1.132.067-1.797-.602-2.796-.87-.399-.066-1.531-.267-1.93-.133-.865.334.799.869.998.869ZM225.778 97.087c-.533-.535-1.198-.668-1.93-.468.266.669 1.264 1.137 1.863 1.404.267.067.666.201.932.067.932-.535-.732-.802-.865-1.003ZM73.817 40.72c-.2-.267-1.264-1.404-1.597-1.002-.4.468.932 1.47 1.265 1.805.599.669 1.33 1.337 2.33 1.47 1.264.135 2.13.87 3.26 1.204.467.134 1.798.402 2.064-.2.466-1.07-1.53-.134-1.93-.401-1.73-1.07-4.06-1.137-5.392-2.875ZM189.369 99.561c-.666.602-1.465 1.07-2.263 1.471a1.032 1.032 0 0 0-.732.535c0 .201.332.468.532.401.732-.267 4.393-1.671 2.463-2.407ZM182.646 102.503h-.133c-.666.067-.599.736.133.803.799.134.732-.669 0-.803ZM87.13 25.81c1.53-.602 2.929-1.338 4.393-2.073.6-.334 1.198-.535 1.797-.802.466-.201-.2-1.003-.599-.803-.4.2-.666.669-1.131.936-.666.335-1.398.602-2.064.936-.532.134-3.727 1.204-2.396 1.806ZM77.145 29.086c.932-.067 5.525-.468 5.325-1.805-1.53.468-3.128.735-4.726 1.003-.2.067-.998.067-1.264.267-.533.535.466.535.665.535ZM22.898 37.243c-1.199.268-2.463.602-3.661.736-.133 0-2.397.134-1.465.87.466.334 1.997-.134 2.463-.201 1.265-.268 2.463-.736 3.727-1.07-.133-.669-.599-.401-1.064-.335Z"/><path d="M22.432 37.377c-.067 0-.134.067 0 0ZM22.698 37.31c.066 0 .133 0 .2-.067-.067.067-.134.067-.2.067ZM22.698 37.31a.67.67 0 0 0-.2.067s.133-.067.2-.067ZM9.851 36.575c-1.198-.134.266 1.003.466 1.07.799.468 1.531 1.003 2.463.869-.466-1.137-1.864-1.471-2.929-1.94ZM38.34 46.672ZM38.34 46.672c0-.067 0-.067 0 0 .067-.067.067-.067 0 0 0-.067 0-.067 0 0Z"/><path d="M38.406 46.605s0-.067 0 0c-.798.869-1.53 1.872-2.462 2.54-.8.535 0 1.405.599.736.665-.736 1.33-1.404 1.996-2.207.267-.334.8-.668.6-1.136-.134-.335-.6-.134-.733.067ZM43.132 39.718c-.732-.134-1.597 1.805-1.93 2.34-.2.267-1.265 2.407 0 1.47.4-.334 2.796-3.677 1.93-3.81Z"/><path d="M43.133 39.718c.2 0-.134-.067 0 0ZM23.83 48.21c-.2.066-1.864.735-.8 1.002 1 .2 1.732-1.404.8-1.003ZM202.415 103.64c0-.602-.666-.936-.866-.267-.199.869-.465 1.805-.399 2.741.067.669.599.736.865.134.333-.803.333-1.739.4-2.608ZM202.348 99.16v.134c0 .134 0 .267-.066.401.798.736 1.797-1.738 1.797-2.273-1.198-.067-1.598.735-1.731 1.738ZM202.614 110.26c-1.198.267-.266 2.741.799 2.607.2-.066 0-2.808-.799-2.607Z"/><path d="M202.615 110.26c.134-.067.067-.067 0 0ZM185.508 72.414c-.066-.067-.133-.133-.199-.133.066 0 .133.066.199.133Z"/><path d="M185.907 72.749c1.398 1.136-.199-1.204-.399-1.471-.732-1.07-1.132-2.809-1.997-3.745-.266-.267-.799-.401-.865.134-.067.602.599 1.471.865 2.006.666 1.137 1.398 2.206 2.396 3.076Z"/><path d="M185.908 72.681c-.067-.067-.267-.2-.4-.334.067.134.2.2.4.334ZM226.843 87.86h.333c.998 0 1.864-.2 2.796-.535.399-.134.199-.669-.134-.735-.532-.134-1.597.4-2.196.468-.466.066-1.864-.268-2.13.2-.732 1.137 1.131.468 1.331.602ZM233.433 84.517c1.73-.401 1.73-1.003-.067-1.137-.466.268-1.264.535-.932 1.204.267.668.599.067.999-.067ZM75.215 18.053c.6-.802 1.398-1.47 2.063-2.206.533-.535.733-1.739-.133-.936-.732.668-1.53 1.27-2.13 2.006-.2.267-.466.601-.732.869.266.334.666.735.932.267ZM79.875 12.838c.466 0 .532-1.07-.067-1.07-.732.067-.666 1.07.067 1.07ZM133.457 284.709c-.133 0-.333.067 0 0 .199-.067.133 0 0 0 .732-.133.998-1.805-.067-1.738-.2.401-.665.334-.466.869.2.334 0 1.003.533.869ZM135.587 267.993s.067 0 0 0c.067 0 0 0 0 0 .865-.2.466-1.337-.333-1.003-.799.335-.399 1.204.333 1.003ZM133.789 280.096c-.066 0-.133 0 0 0 .134 0 .067 0 0 0 .666-.067.466-1.07-.199-1.003-.666.067-.4 1.07.199 1.003ZM216.127 66.998c.732-.2.532-.936.333-1.337-.267-.535.199-1.471-.466-1.805-1.664-.803-.799 3.343.133 3.142ZM216.459 68.202c.134.735.733 1.07 1.265 1.47.4.335 1.598.202 1.132-.4-.2-.268-2.463-1.605-2.397-1.07ZM211.068 70.609c.133-.602-1.331-2.14-1.531-1.203v.2c.133.334 1.132 2.608 1.531 1.003ZM211.068 72.147c0-.067-.067-.067 0 0 .133.2.932 2.34 1.398 1.07.133-.401-.134-.803-.4-1.003-.133-.134-1.464-.87-.998-.067ZM206.875 71.946c.066 0 .066 0 0 0 0 0 0 .067 0 0ZM207.008 71.88c.134-.201.067-.067 0 0Z"/><path d="M206.874 71.946c-.266.268.932 2.675 1.531 1.94.533-.535-1.065-2.34-1.531-1.94ZM214.928 71.144h-.066.066c.2.067.732-.067.666-.401-.067-.535-.666-.535-1.065-.736-1.265-.468-.333 1.003.399 1.137ZM206.542 70.275c.066 0 .133-.067.199-.067-.066.067-.199.067-.199.067Z"/><path d="M206.542 70.275c.466-.134 1.198-1.204.732-1.605-.932-1.003-1.265 1.738-.732 1.605ZM210.269 68.135l.067-.067c-.266-1.136-.932-.535-.732.468.266-.067.466-.2.665-.401ZM67.627 10.565c0-.067.067-.067 0 0Z"/><path d="M67.56 10.765c-.066.067-.066.067 0 0 .333-.668.6-1.404.866-2.14 0-.4-.732-.735-.799-.2-.066.669-.466 1.27-.732 1.872-.2.468.4 1.003.666.468ZM195.093 67.199c.399-.134-.067-1.672 0-2.073 0-.2.865-2.674-.466-1.872-1.065.602-.333 4.28.466 3.945ZM209.604 75.356c.066-.066.133-.133 0 0Z"/><path d="M209.537 75.423c.2-.2.333-.802-.067-.936-.865.2-.266 1.204.067.936ZM198.887 77.229h.133c1.132-1.538-1.464-.268-.133 0Z"/></g><defs><clipPath id="a"><path fill="#fff" d="M0 0h254v473H0z"/></clipPath></defs></svg>