<svg width="212" height="463" viewBox="0 0 212 463" fill="none" xmlns="http://www.w3.org/2000/svg"><g clip-path="url(#a)" fill="#00467F"><path d="M168.861 31.07c1.848 2.437 4.313 2.437 6.162 3.046 10.477 1.218 19.105 6.092 26.5 14.012 3.082 3.046 4.314 6.092 4.314 9.747v4.874c0 6.092 0 12.184.617 18.276.616 4.874-1.233 8.529-5.547 10.356-5.546 2.437-9.244 6.702-13.558 9.748-2.465 1.828-3.698 4.264-3.081 7.31 0 1.828.616 4.265.616 6.093 0 2.436 1.849 4.264 3.697 5.482 9.245 4.874 14.791 12.185 18.489 21.323 1.849 4.873 3.081 9.747 3.081 15.23 0 21.932.617 44.472.617 66.404v118.796c0 12.184-.617 24.978-.617 37.162 0 4.874 0 9.747.617 14.621.616 6.092.616 12.184 1.232 18.276 1.849 14.012-4.314 23.15-15.407 29.852-5.546 3.046-11.709 6.092-17.872 7.919-9.244 3.046-18.488 5.483-27.733 6.702-2.465.609-4.93.609-7.395 1.827-9.244 3.046-19.105 3.046-28.965 4.874-7.395 1.218-14.79.609-21.57-.609-12.942-1.828-25.267-3.046-38.21-6.702-10.476-2.436-20.953-6.701-30.813-10.965-4.93-1.828-9.244-4.874-14.79-6.092-1.233 0-1.85-1.219-2.466-2.437-1.232-3.046-3.081-6.092-4.314-9.138-1.232-2.437-1.849-5.483-1.849-8.529-.616-7.92 0-15.231.617-23.15.616-12.185 1.232-24.369 0-35.944v-4.873c1.848-17.058.616-34.725 1.232-51.783 0-29.852 0-59.703.616-89.554 0-11.575.617-23.76 0-35.335-.616-9.747.617-19.494-.616-29.242-1.232-11.575 3.698-19.494 12.942-24.977 4.314-3.046 9.244-5.483 13.558-7.92 6.163-3.655 6.78-3.655 6.78-11.575 0-1.828-.617-4.264-.617-6.092 0-4.265-1.233-6.701-5.547-8.53-3.697-1.218-6.779-4.264-9.86-6.7-.616-4.265-1.849-8.53-1.849-12.794.616-7.31.616-14.62-.616-21.322 0-2.437.616-3.656 1.849-5.483 7.395-8.529 16.64-13.403 27.732-15.23h2.465c3.082-.61 4.314-1.219 3.698-4.265 0-1.218-.616-3.046-.616-4.264 0-7.31 1.849-10.357 8.011-12.794C73.954 1.828 87.512-.609 101.686 0c19.105.61 37.593 3.046 56.082 9.138 5.546 1.828 9.244 6.092 13.558 9.748.616.609.616 1.827 0 3.046-1.233 3.655-1.849 6.7-2.465 9.138Zm-76.42 411.826c.617 0 0 0 0 0ZM106 415.482c1.233 0 1.849-.61 1.849-1.828 1.232 0 1.232-1.219 1.849-1.828l-1.849 1.828c-1.233.609-1.849 1.218-1.849 1.828 0 .609 0 .609 0 0-.616 0-.616.609-.616.609.616.609.616.609.616-.609Zm-8.012.609c.617-.609 1.233-1.828 1.233-2.437h.616v.609l-1.849 1.828Zm100.454-4.265c.616-1.218 1.232-1.218 2.465-1.218v-.609.609c-1.233.609-1.849 1.218-2.465 1.218ZM175.023 44.472v-1.827c-1.232-1.219-2.465-1.828-3.081 0-1.233 0-1.849.609-1.849 1.827l-.616.61c0 .609 0 .609.616 1.218v1.828h3.081-.616V46.3c1.233-.61 1.849-1.218 2.465-1.828Zm-1.849 336.894c.617 0 0 0 0 0Zm-73.953-5.483c.616 0 .616 0 0 0-.616.609-1.233 1.827-1.849 2.437-2.465 0-4.314 1.218-6.163 2.437-1.849 1.218-3.697 2.436-6.162 2.436.616-1.827 1.848-3.046 3.081-4.264 1.233-1.218 3.081-2.437 3.081-4.265 1.233 0 1.233-1.218 1.85-1.827 1.848 0 3.08.609 4.93 0 .616-.609 1.232-1.219.616-1.828 0-.609-1.233-.609-1.233-.609-1.232.609-2.465 1.828-4.314 2.437l-1.849 1.827c-3.081 0-4.93 1.828-7.395 3.047-1.849 1.218-3.698 2.436-6.163 1.218 2.465-3.046 2.465-7.92 6.163-10.357v-1.218c-.616 0-1.232-.609-1.232 0-2.466 2.437-4.93 4.874-8.012 7.31-1.849 1.828-3.698 3.656-6.78 4.265 4.315-2.437 6.164-6.701 8.629-9.747 1.232-1.219.616-3.047-1.233-3.047-7.395-1.218-15.407-2.436-22.802-3.655-1.233 0-2.465.609-3.698 1.219-1.232.609-1.849 2.436-3.698 2.436.617-.609.617-1.827 1.233-2.436.616-1.828.616-3.046-1.849-3.046h-3.081c-1.85-1.828-3.698 0-4.93 0v-4.265c1.232-2.437-.617-3.046-2.466-3.046 0-1.828 1.85-3.655 2.465-5.483 1.233-1.827.617-3.655-1.232-5.483 3.698-5.483 4.314-12.184 1.849-19.494-1.849 0-2.465 1.827-3.698 3.046-1.849 2.436-3.081 5.482-5.546 7.31H24.035c3.081-6.092 8.012-11.575 12.326-17.058 1.232-1.827 2.465-3.046 3.697-4.873.617-.61 0-1.828-1.232-1.828-1.233 0-1.85 0-3.082.609.617-3.655 0-4.264-3.081-4.874.616-1.218.616-2.436 1.232-3.046 1.233-2.436.617-4.264-1.232-6.092.616-.609 1.232-1.218 1.232-1.827 2.465-3.656 2.465-4.265-1.848-6.702.616-1.218 1.232-1.827 1.232-3.046 1.233-3.655.616-4.264-3.081-6.092v-3.046c1.232 0 1.849 0 1.849-1.218.616-1.219-1.233-1.828-1.85-2.437 0-3.046 3.082-5.483 3.082-8.529 0-1.218 0-2.437-.616-3.046-1.233-.609-1.849.609-2.465 1.218-1.85 3.046-3.698 6.092-6.78 8.529l-1.848-3.655c1.849-3.655 4.93-6.701 7.395-9.747 2.465-2.437 3.082-5.483 3.082-8.529v-4.874c0-2.437-1.85-1.828-3.698-2.437 0-1.827 1.232-3.046 2.465-4.264 1.849-2.437 1.849-5.483-.616-7.92.616 0 .616-1.828 0-2.437-1.233-1.218-2.465.609-3.082 1.218-.616 0-.616.61-1.232.61 0-2.437 1.849-4.265 3.697-5.483 1.233-1.219 1.233-3.655 0-5.483-1.232.609-1.848 1.828-3.08 3.046-1.85 2.437-4.315 5.483-6.164 7.92-1.232 1.827-3.081 2.437-4.93 1.218 4.314-5.483 8.012-10.966 12.326-16.449.616-1.218 1.848-2.436 2.465-3.655 0-.609 0-1.218-.617-1.218H28.35c-3.082 1.827-4.314 6.092-8.012 7.31-.616-2.437 1.85-4.264 1.233-7.31l1.849-1.828h.616v.609l-1.849 1.828c-1.232 0-3.081.609-3.081-1.218 0-.61.616-1.828.616-2.437 0-3.046.616-6.092-3.081-7.311-.617-.609-.617-2.437-1.233-3.046-.616-.609-1.849-.609-3.081-1.218.616-2.437 0-4.874 1.848-6.702l1.85-1.827c1.232 0 1.232-.609 1.848-1.828.616 0 1.233-.609 1.849-1.827 1.233 0 1.233-.61 1.849-1.828 1.232.609 2.465-.609 3.697-1.828 1.233-1.218 2.466-1.827 3.698-3.046v-.609.609c-3.081 0-5.546 1.828-6.779 4.874l-1.849 1.828c-1.849.609-2.465 1.218-3.081 1.827l-1.849 1.828-1.849 1.827c-3.081-1.218-3.081-1.218-3.081-5.482 2.465-1.828 4.93-3.656 7.395-6.093 2.465-3.046 5.547-5.483 6.163-9.747l1.232-1.218c0-.61.617-.61.617 0 0 1.218.616 0-.617 0 0 .609-.616 1.218-1.232 1.827-5.547 1.828-8.628 7.311-12.942 10.966-1.232 1.218-1.232 3.046-.616 4.874-.616.609-.616 1.827-1.233 2.437-1.232 13.402 0 26.196 0 39.598 0 1.828 1.233 2.437 2.465 3.046-3.697 4.874-3.081 10.966-2.465 17.058 0 1.219 1.85 1.219 2.465 1.219-.616 1.827-1.848 3.655-2.465 6.092-.616 1.827 0 3.046 2.465 2.437-.616 1.827-1.232 3.046-1.848 4.873-.617 2.437-.617 2.437 2.465 3.656-2.465 3.655-3.082 7.31-3.082 11.574v79.807c0 15.84-.616 31.679-.616 47.519 0 4.873 0 9.747 3.698 13.402 1.232 1.219 1.848 3.655 2.465 5.483 3.081 5.483 5.546 10.966 11.093 14.012 11.093 6.092 22.802 11.575 36.36 12.793 1.233 0 3.082.609 4.314.609 5.547 1.828 11.71 1.219 17.872.61-4.314-.61-3.697-2.437-3.081-5.483 0-1.219-1.849-1.828-3.082-2.437 3.698.609 6.78-.609 9.245-4.265 1.849-2.436 3.697-4.873 6.779-6.092 1.232-.609 1.849-1.827 1.849-3.046-.617 0-.617-.609-1.233-.609h-4.314c.616-.609.616-1.218 1.233-2.437.616-1.218 3.081-1.827 1.849-3.655-.617-.609-2.466.609-3.698.609h-.617c0-1.218 0-2.437.617-3.046 1.232-1.218 3.081-2.437 4.93-3.655 1.233-.609 2.465-1.828 1.233-3.655-1.233-1.219-2.466-.61-3.698 0-1.233.609-1.849 1.827-3.698.609 0-1.828 1.233-2.437 2.465-3.046 1.233-1.219 3.082-1.828 2.465-3.655-.616-1.219-2.465-.61-3.08-2.437 1.232 0 1.848-.61 1.848-1.828 5.546-2.437 15.407-10.966 20.337-17.058l.616-.609v.609c-1.232 0-2.465.609-3.697 1.828l-14.791 12.793c-.616.609-1.233 1.828-1.849 3.046-1.232 0-1.849.609-1.849 1.828-1.849.609-3.697 1.218-4.93 1.218 0-3.046 1.849-4.873 3.698-6.701 4.93-4.874 9.86-9.138 14.791-14.012 1.232-1.218 2.465-1.827 3.081-4.264 2.465 0 3.698-1.828 4.93-3.046.616-.61 1.233-1.219 1.849-2.437-.616.609-1.233 1.218-1.849 2.437-2.465 0-4.314.609-4.93 3.046-2.465 0-4.314 1.827-6.779 3.046-4.314 3.046-9.244 6.092-13.558 8.529 0-3.046 2.465-4.874 4.314-6.702 2.465-2.436 4.93-4.873 7.395-6.701-.616.609-.616 0 0-.609Zm101.07-17.058c-.617 0-1.233.609-1.849 1.828-.616.609-1.849 0-.616 1.218v-1.218c1.848 0 2.465-.61 2.465-1.828Zm-3.698-15.839c.616 0 0 0 0 0ZM48.686 35.334s0 .61 0 0v2.437c-.616 1.828-.616 2.437-1.232 3.655-1.233 0-2.466-.609-3.698-1.827l.616-.61-.616.61c-2.465-1.219-4.314 1.827-6.163.609-3.081-2.437-5.546-.61-8.012 1.218-1.232 1.219-1.232 3.046 0 4.265 2.466 3.046 6.163 3.655 9.245 5.483 11.709 4.873 23.418 6.701 35.744 8.529 12.325 1.827 25.267 1.827 37.593 2.436 9.244.61 18.488-.609 27.116-4.873 3.082-1.828 5.547-1.828 9.244-1.219 0 .61.617 1.828.617 2.437-.617 0-1.233-.609-1.233.61.616 0 1.233 0 1.233-.61 1.232-.609 1.848-1.218 3.081-2.437 3.081 0 5.547-3.046 8.628-3.655-.616 1.218-1.233 3.046-1.233 4.264H159c.616-.609 1.233-.609 1.849-1.218 1.232-.61.616-1.218-.616-1.828 0-.609 1.232-3.046 0-2.436-14.791 3.655-30.198 3.655-44.989 4.264-11.093.61-22.186 0-33.279-1.828-9.244-1.827-19.105-2.436-27.732-7.31-.617 0-1.233-.61-1.85-1.218 0-1.219 0-3.047-1.848-3.047 0-1.827.616-3.655-1.849-3.655v-3.046ZM198.442 332.63c.616-.609 1.232-.609 1.849-1.219l.616-.609v.609c-.616.61-1.849 1.219-2.465 1.219l-1.849 1.828s0 .609-.616.609v.609-1.218c1.232-.61 1.849-1.219 2.465-1.828Zm-6.779 0c.616 0 1.232-.609 1.849-1.828l1.849-1.827c1.232-.61 2.465-1.828 3.697-2.437 0-1.219.616-3.046.616-4.265l1.849-1.827-1.849 1.827c-.616 1.219-1.232 3.046-.616 4.265-3.081-.609-3.081-.609-3.697 2.437-.617 0-1.233.609-1.849 1.827-.617 1.219-1.233 1.828-1.849 1.828Zm0-18.886 1.849-1.827c.616 0 1.232-.609 1.849-1.828 4.313-1.828 6.779-5.483 9.244-9.138 0 0 0-1.218-.617-1.218-.616-.61-1.232-.61-1.232-.61-1.849 1.219-3.698 3.046-5.547 4.265-2.465 1.827-2.465 4.264-1.848 6.701-.617 0-1.233.609-1.849 1.828-.617 1.218-1.233 1.218-1.849 1.827Zm-3.082-4.873 1.849-1.828 1.849-1.828c4.314-3.046 7.395-6.701 11.093-10.356.616-1.219 1.849-2.437 1.849-3.655 0-.61 0-1.219-.616-1.219-.617 0-1.233-.609-1.233 0-4.93 3.655-9.86 6.701-12.325 12.184l-1.849 1.828-1.849 1.828c-1.233 0-1.849.609-1.849 1.827l-1.849 1.828v1.218c.617 0 1.233-.609 1.233-.609.616-.609.616-1.828.616-2.437 1.233 0 1.849-.609 1.849-1.827l1.849-1.828 1.849-1.828c1.848.61 1.232 2.437 1.848 3.656-.616 0-1.232.609-1.848 1.827-1.233 0-1.849.609-2.466 1.219Zm-5.546-7.311c1.233 0 1.849-.609 1.849-1.827 4.93-4.265 10.477-8.529 15.407-12.794 1.232-1.218 2.465-3.046 3.697-4.874 0-.609.617-1.218 0-1.827-.616-1.219-1.232-.609-1.848 0-5.547 4.264-11.093 9.747-15.407 15.23l-1.849 3.655c-.616 1.219-1.233 1.828-1.849 2.437-.616.609-.616.609 0 .609v-.609Zm-6.163-4.264c0-.61 0-.61 0 0Zm4.93-31.679c-.616 0-1.232.609-1.848 1.827-3.082 1.219-4.314 4.265-6.163 6.092 0 0 0 1.219.616 1.219 0 0 1.233.609 1.233 0 1.848-2.437 4.314-4.265 4.314-7.92 1.232.609 1.848 0 1.848-1.218Zm-6.779-44.473c0-.609 0 0 0 0Zm22.186-19.494 1.849-1.828 1.849-1.828c1.233 0 2.465-1.218 3.081-2.436v-1.219c-.616 0-1.232 0-1.232.609-1.233 1.219-1.849 1.828-1.849 3.656-1.233 0-1.849.609-1.849 1.827-1.232 0-1.849.609-1.849 1.219Zm-10.476 0s-.617 0 0 0Zm-6.779 0c.616 0 .616 0 0 0 0 .609 0 0 0 0 0 .609 0 .609 0 0-.617-.61-.617.609 0 0Zm-57.314-3.656 1.848-1.827h.617v.609c-.617.609-1.849 1.218-2.465 1.218Zm55.465-1.218 1.849-1.828c1.232 0 1.232-1.218 1.848-1.827l-1.848 1.827-1.849 1.828c.616 0 0 .609 0 0-.617-1.218-.617.609 0 0Zm-150.989 0 1.85-1.828 1.848-1.827 1.849-1.828h.616v.609l-1.849 1.828-1.849 1.828c-.616.609-1.232.609-2.465 1.218 0 .609-.616.609 0 0 0-1.218-1.232 0 0 0Zm-9.86-6.701c.616-.61 1.232-1.219 1.232-1.828 1.233 0 1.85-.609 1.85-1.828 1.232 0 1.848-.609 1.848-1.827 5.547-1.828 8.012-6.092 11.71-10.357l1.848-1.827a2883.543 2883.543 0 0 1 3.698-3.656c0 1.219-.616 1.828-1.233 1.828l-1.849 1.828-1.848 1.827c-4.93 1.828-9.245 5.483-11.71 10.357-1.232 0-1.848.609-1.848 1.827-1.233 0-1.85.61-1.85 1.828-1.232 0-1.848.609-1.848 1.828Zm104.151-5.483c.616 0 .616 0 0 0l-1.849 1.827c-5.546 1.828-9.244 5.483-11.093 11.575v.61H106c-.616 0-1.232.609-1.232 1.827.616 0 .616-.609 1.232-.609.616-.609 1.233-.609 1.849-1.218 3.698-4.265 7.395-7.92 11.093-12.185 1.232-.609 1.849-1.218 2.465-1.827Zm-78.884-3.655-1.849 1.827c-2.465 1.219-3.08 1.219-1.848 3.655v1.828c-.617 4.264 0 4.874 3.081 5.483 6.163 1.218 11.71 2.437 17.872 3.655 3.081.609 5.547 0 8.012-.609.616 1.218 1.232 3.655 3.697 1.218 1.85-1.827 3.698-4.264 6.78-4.873-.617 1.218-1.85 2.437-2.466 3.655-.616.609-.616 1.828 0 2.437.617.609 1.233.609 1.85 0 3.08-2.437 4.93-6.092 8.627-7.311-.616 3.046-3.697 4.874-4.314 7.92 1.233.609 1.849.609 3.082 0 1.848-1.218 2.465-3.046 4.93-3.046.616 1.218-.617 3.046 1.232 3.655 1.233.609 2.465 0 3.698-1.218 1.233-1.219 2.465-2.437 3.698-3.046v.609c0 1.218-1.233 3.046.616 3.655 1.233.609 1.849-.609 2.465-1.218 1.849-1.828 3.082-3.655 4.93-5.483 1.233-1.219 1.849-2.437 1.849-4.265.616 0 1.849 0 2.465-.609.617 0 .617-.609 0-1.218h-.616l-1.849 1.827c-1.849.61-3.081 1.219-4.93 1.828v-1.828c0-.609 0-1.827-.616-2.436-.617-.61-1.849 0-2.465 0-2.466 1.827-4.314 4.264-7.396 5.482 0-4.264 0-4.264-4.314-3.655h-.616c1.849-1.827 3.081-3.655 4.93-5.483 1.233-1.827 3.082-3.046 4.314-4.873 1.233-1.828 3.698-3.046 4.314-6.092-1.232.609-1.849.609-1.849.609-4.314 3.655-8.011 7.919-11.709 11.575-1.233 1.218-2.465 3.046-4.93 2.437 0-1.828 1.232-3.046 2.465-4.265 3.081-3.046 6.163-5.483 9.244-8.529 1.233-1.218 2.465-1.827 2.465-3.655-.616-.609-1.849-.609-2.465 0-3.081 2.437-5.546 5.483-8.628 7.92-3.081 3.046-5.546 6.701-9.86 8.529.616-3.656 3.081-4.874 4.93-7.311 1.233-1.218 3.081-2.437 3.081-4.874 1.233 0 1.85-.609 1.85-1.827 1.232 0 1.848-.609 1.848-1.828h.616v-.609l-.616.609c-1.233 0-1.849.609-1.849 1.828-1.232 0-1.849.609-1.849 1.827-1.232 0-2.465 0-3.697-.609.616-1.218 1.849-1.827 2.465-3.046v-1.218c-.616-.61-1.85-1.219-1.85-.61-1.232.61-2.464 1.828-3.697 3.047-2.465 1.218-3.697 4.264-6.779 3.655 1.849-1.828 3.698-3.046 4.93-4.874 1.233-1.828 0-3.046-1.232-3.655v-1.828.609h-4.93c-2.466-1.827-3.698 0-4.93 1.828-2.466.609-4.315 1.218-6.163 3.046-2.465 1.828-2.465.609-3.082-.609 1.233-.609 1.233-1.218 1.849-1.828l1.849-1.827 1.849-1.828 1.849-1.828c.616-.609 1.232-1.218 1.232-1.827 1.233 0 1.849-.609 1.849-1.828 2.465-.609 3.698-2.437 4.93-4.264 1.233-.61 2.465-1.828 3.698-1.219 3.081 1.219 6.163.609 9.244 0 1.849-.609 2.465.609 3.698 1.828v-.609h5.546v1.827-.609c2.465 0 4.93 0 6.78-1.828 2.464 3.046 2.464 3.046 5.546 1.219l1.849-1.828c1.232-.609 1.848.609 3.081.609h-.616 3.081c.616 3.046-3.698 3.656-3.081 6.702 2.465 0 3.697-1.219 5.546-1.828 1.849-1.218 3.698-2.437 5.547-4.264 1.849-1.219 3.081-3.046 4.93-4.265 1.233-.609 1.849 0 3.081.609l-1.848 1.828v.609l1.848-1.827c3.082 1.827 5.547 1.827 8.628.609 1.233-.609 3.082-1.219 4.931.609 1.232 1.828 3.081 1.218 4.313.609l5.547-3.655c1.233-.609 2.465-.609 3.081 1.828 0 1.218 1.233.609 1.849.609.617-.609 1.233-1.828 1.849-2.437.616-1.218 1.849-.609 3.081-.609 1.233.609 1.233 1.827.617 3.046 0 .609-.617 1.218-.617 1.827-.616 0-1.232 0-1.232.61h.616c0-.61.616-.61.616-1.219l3.698-1.827c1.849-.61 3.698-3.656 4.93-1.828 1.849 2.437-1.848 2.437-3.081 3.655l-.616.609c-.617.61-1.233 1.219 0 1.828h1.232c2.465-1.218 4.93-3.046 6.779-4.874.617 0 1.233-.609 1.233 0 .616.61 0 1.219-.616 1.828-.617.609-1.233 1.828-1.233 1.828.616 1.218 1.849.609 2.465 0 6.779-4.265 12.326-10.357 18.489-16.449v-1.218c0-.61-1.233-.61-1.233-.61-1.849 0-3.081 2.437-4.93 1.828.616-.609.616-1.218 1.232-1.218l1.849-1.828c1.849-1.828 1.233-2.437-1.849-3.655-1.232-2.437-3.697-1.219-5.546-1.828-.616-1.828-1.849-1.828-3.082-1.218-5.546 2.436-11.093 3.655-16.639 1.827-1.233 0-2.465 0-3.082.609-1.232.61-2.465 1.828-3.081 2.437-1.849 1.828-3.081 0-3.698-1.827l.617-.61c0-.609 0-.609-.617-1.218v-1.828c3.082 1.219 4.931-1.218 6.779-3.655h1.849c3.698.609 3.698.609 5.547-2.437.616-1.218 1.232-1.827 1.232-3.046 1.233-.609 1.849-1.218 1.233-2.437h2.465c.616 0 1.233-.609 1.233-1.827-.617 0-1.233 0-1.233.609l-1.849 1.828c-.616.609-1.232 1.218-1.232 2.436-2.465-.609-4.314 1.219-6.779 1.828 1.232-2.437 3.081-4.264 3.081-6.701v-.609c-1.849.609-3.081 1.218-4.93 1.827 0-1.218-.617-2.437-.617-3.655h.617v.609c-1.849-.609-3.698.609-5.547-1.218-.616-.61-1.849-.61-3.081-.61-1.233-1.218-2.465-1.827-3.698-3.046.616-3.046 4.314-3.046 4.93-6.092 1.233-.609 2.466-.609 3.698-1.218.616-.609 1.233-1.219 1.849-2.437 0-.61.616-.61.616 0 0 1.219.616 0-.616 0-.616.61-1.233 1.828-1.849 2.437-1.232.609-2.465.609-3.698 1.218l-9.244 3.656c0-3.046 3.082-3.656 4.93-4.874v-.609.609c-3.697-.609-6.162 1.218-9.244 2.437-1.849 1.218-3.697 2.437-6.163 1.827-2.465-.609-6.162-1.827-9.244-1.827-6.779-.609-13.558-1.828-20.337 1.827l-1.232-1.218c-1.849-.609-3.082.609-3.698 2.437-.616 1.218.616 1.827 1.849 2.437-1.849 3.046-3.698 5.483-6.163 7.31-2.465-3.655-2.465-3.655-4.93-2.437-1.233.61-3.082 1.219-4.314 1.828 1.232-2.437 3.697-4.265 4.314-7.311 0-1.218 1.849-2.436 2.465-3.046-2.465 0-4.314.61-6.163 1.828-3.698 1.828-6.78 3.046-10.477 4.874v-1.828l.617-.609v.609c-1.233 0-2.466-.609-3.698-.609 1.849-1.828 4.314-3.655 4.93-6.701-2.465 0-4.314 1.827-6.163 3.655-1.849 1.218-3.081 3.046-5.546 3.655v-1.828c1.232 0 1.849-.609 1.849-1.827 0-1.219-1.233-1.219-1.85-1.219-.616-.609-1.232-.609-1.848 0-1.233 0-2.465 0-3.081-.609h-.617.617c-.617 1.828-1.85 3.046-3.698 3.655l-3.698-1.827v-1.828l-1.849 1.828v1.827c1.85.61 2.465 1.219 3.698 1.828v1.828l-.616.609c0 .609 0 .609.616 1.218.616 1.828 1.849 3.046 3.081 3.656v4.873c0 3.046-3.081 4.265-5.546 3.656-1.233-.61-1.849-.61-3.081-1.219v-.609c-1.233 1.828-3.082 1.218-4.314 0-4.93-5.483-9.86-5.483-15.407-2.437-1.233.609-2.465.609-3.698 1.219-3.082 1.218-6.163 2.436-8.012 6.092-1.849 0-3.081 1.218-3.697 3.046-.617 1.218 0 1.827 1.232 2.436h2.465c0 1.219-1.232 1.828-2.465 2.437-.616.61-1.849 1.219-2.465 2.437v1.219h1.233c1.848-.61 3.081-1.828 3.697-2.437 3.698-2.437 6.78-5.483 11.71-4.874l1.848 3.655v2.437c3.082 1.219 3.698 4.265 5.547 6.092-1.233 4.265 4.93 3.656 4.314 7.311-1.233 0-1.849.609-1.849 1.827-1.232.61-1.232 1.219-1.232 1.828.616-.609 1.232-1.218 1.232-1.828 1.233 0 1.849-.609 1.849-1.827 1.232 0 2.465 0 3.081-.609 2.465-1.828 2.465-1.828 2.465 1.218v.609c1.85 0 4.314 0 5.547-.609 2.465-1.218 2.465 2.437 4.93 2.437 1.233 0 2.465.609 3.698-.609 1.232-1.219 3.081-2.437 5.546-1.828-1.232 2.437-3.081 4.264-3.081 7.311-1.233 0-1.849.609-1.849 1.827-.616.609-.616 1.219-1.233 1.828l-1.848 1.827-1.85 1.828-1.848 1.828c-.616-.61-1.233.609-1.849 1.218-1.849.609-4.314-.609-5.546 1.219-1.85 3.046-4.93 4.264-6.163 7.31-.616 0-1.233.609-1.233 1.219Zm72.105-3.047c.616-.609 1.233-1.218 1.233-1.827h.616v.609c-.616 0-1.233.609-1.849 1.218l-1.849 1.828c-1.849 0-3.081 1.219-4.314 3.046 2.465 0 3.082-2.437 4.314-3.046l1.849-1.828Zm-102.919-7.31c.617 0 0 0 0 0Zm75.803-3.655c.616-.61 1.232-1.219 1.849-1.219.616-.609.616-1.218 1.232-1.827-.616.609-.616 1.218-1.233 1.827-.616.609-1.232 1.219-1.848 1.219Zm112.779-1.219s-.617 0 0 0Zm-70.872-4.873c.616-.61 0-.61 0 0Zm-77.035-57.266 1.849-1.828c1.232 0 1.232-.609 1.849-1.828h.616-.617l-1.848 1.828-1.85 1.828Zm58.546 291.202s.617 0 0 0c.617 0 0 0 0 0Zm19.105-320.444c-1.233.609-1.233 1.218 0 1.827v1.219c-2.465 0-4.314.609-6.163 1.827-2.465 1.219-4.93 2.437-7.395 2.437.616-.609.616-1.218 1.232-1.828.617-.609 1.233-1.218 1.233-1.827 0-.61-1.233-1.219-1.849-.61-2.465.61-4.93 1.828-7.395 2.438 2.465-4.265 6.779-5.483 9.86-9.139 1.233-.609 2.465-1.218 3.698-1.218 1.232 0 2.465-.61 3.698-.61l.616-1.218s-.616-.609-1.233-.609c-1.232.61-2.465 1.218-3.081 2.437-1.233.61-2.465 1.218-3.698 1.218h-4.93c.616-3.655.616-3.655-1.849-3.655s-4.93 0-6.779 1.828c-2.465-2.437-5.546-2.437-8.628-1.828-1.232-1.218-2.465-1.828-3.698-1.828-6.162-.609-11.709-.609-17.872-1.218-14.174-.61-28.965-3.655-43.14-9.747-2.464-1.219-5.546-3.046-9.243-2.437 0 2.437-.617 4.264-.617 6.092 0 .61.617 2.437.617 2.437 4.314.609 1.848 3.655 2.465 6.092.616-.61 1.232-.61 1.849-1.218 1.232-1.219 2.465-.61 3.697.609 1.233 1.218 0 2.436-.616 3.655 0 .61-.616 1.218-.616 1.218-1.85 0-3.698 1.219-5.547 2.437-3.081 1.828-3.697 4.265-1.232 6.701 4.314 3.656 9.244 6.702 14.79 7.92 6.78 1.828 13.558 3.046 20.338 4.265 19.104 2.437 38.825 4.873 57.93 5.483 4.314 0 8.011-.61 12.325-1.828 1.849 1.828 3.698 1.828 6.163 1.218 1.849-.609 3.698-1.827 6.163-3.046 0 1.219-.616 3.046 1.849 2.437s4.314-1.827 6.779-2.437c1.849 1.828 3.698 1.828 6.163.61 4.93-1.828 9.244-4.265 14.174-6.093h1.849c1.849 0 3.081 0 4.314-1.218 1.849-1.218 3.698-1.218 5.546-.61h1.849c1.233-.608 3.082-1.218 4.314-1.827 1.849-1.218 3.082-.609 4.314.61h-.616c7.395.609 9.244-.61 7.395-8.53 0-.609 0-1.218-.616-1.218s-1.233 0-1.849-.61c0-1.827.616-3.045 1.849-4.873 1.849-3.046 1.849-6.092 1.232-9.138-4.313-1.828-8.011-.61-12.325 0-9.244 2.437-19.105 4.265-28.965 4.874-7.396.609-14.791 1.218-22.186 3.046-.617-.61-1.233-.61-1.849-1.219h-.616c-.617.61 0 1.219.616.61h2.465c0 .609-.616 1.218-.616 1.827v1.828c-1.849 1.827-4.314 3.046-6.779 3.655 0 0 .616-.61.616-1.218ZM185.5 53.61c1.233-.61 1.849-1.219 3.081-1.828h3.698v.61-1.22.61c-1.232 0-2.465 0-3.698-.61 0-1.218 1.849-3.655-1.232-3.655-.616-.609-1.233-.609-1.849 0-1.232.61-2.465 0-3.081 1.828-1.233 0-2.465.61-3.082 1.828h3.082c.616 1.218 1.849 1.827 3.081 1.827v.61Zm-8.628 130.98c-.616 0-1.232 0-1.232.609v.609c0-.609.616-.609 1.232-1.218Zm-1.849 49.955-1.232 1.218v.61c.616-.61 1.232-1.219 1.232-1.828Zm27.117-45.082c.616 0 1.232-.609 1.232-1.218s-.616-1.218-.616-.609c-.616.609-1.233 1.218-.616 1.827 0 .61-.617.61 0 0-.617 0-.617.61-.617.61l.617-.61Zm-6.779 164.487 1.232-1.218v-.609c-.616-.61-.616-.61-1.232.609v1.218c-1.233 0-1.849.61-1.849 1.828-.617.609-1.233.609-1.849 1.218-.616.61-1.233 1.828-1.849 3.046 0 1.219 1.849 0 3.081-1.827.617-.609.617-1.828.617-2.437 1.232-.609 1.232-1.219 1.849-1.828Zm-80.733 68.841c-3.081-.609-3.081 1.828-3.081 3.655-1.849 0-3.082.61-4.931 1.219-.616.609-1.232 2.437-.616 2.437s1.233 0 1.233-.61l3.697-3.655c1.233-.609 2.465-1.828 3.698-3.046.616-.609.616-.609 0-.609v.609Zm62.244-141.337c-.616 0-1.232 0-1.232.609 0 0-.617.61-.617 1.219.617 0 1.233 0 1.233-.609 0-.61.616-1.219.616-1.219Zm21.57 88.336c.616-.609 1.232-1.219 1.232-1.828.617-.609.617-1.218 0-1.218 0 0-.616 0-.616.609s0 1.218-.616 2.437ZM185.5 276.582c1.233-2.437 4.314-3.656 4.93-6.702 3.082-1.827 6.779-3.655 9.861-5.483-3.082 3.046-5.547 6.092-8.628 9.748-3.082 4.264-7.395 7.31-8.628 13.402h-.616l.616-.609c5.546-5.483 11.093-10.356 16.639-15.839 1.849-1.828 3.698-3.656 3.698-6.702v.61h-3.698c1.233-2.437 3.082-4.874 4.314-7.311.617-.609 0-1.828 0-2.437-.616-.609-1.232-.609-2.465 0-5.546 3.655-9.244 8.529-12.325 14.621-1.849.609-4.314 2.437-3.698 6.702ZM16.64 156.567c-1.85 1.218-3.698 2.437-4.314 4.874v1.218h1.232c2.465-1.218 3.698-3.046 3.082-6.092ZM148.523 46.909c1.849-.609 3.082-1.218 4.314-3.046.617-.61 1.849-1.218 1.233-1.828-.616-.609-1.233-.609-1.849-.609h.616c-1.849 1.828-4.314 3.046-4.314 5.483Zm32.663 209.569c-1.849 3.046-6.163 4.873-6.163 9.138-.616 0-1.232 0-1.849.609v.609c0 .609.617.609 1.233.609.616-.609 1.233-1.218 1.233-1.827 3.081-1.828 6.162-4.265 5.546-9.138ZM133.116 46.3c1.849 1.828 1.849 1.828 3.082 0 4.314-.61 6.779-3.655 9.86-5.483 1.849-1.218 3.082-3.655 5.547-3.655 3.697 0 4.93-2.437 5.546-5.483.617-3.046 1.233-5.483 1.849-8.529.616-3.655-1.232-6.701-4.314-8.529-1.232-.61-2.465-1.218-3.698-1.218-4.93-.61-9.244-1.828-14.174-3.046-8.012-1.828-16.023-3.656-24.651-3.047-8.628.61-17.256.61-25.884 1.219-5.546.61-10.477 1.218-16.023 2.437-7.395 1.218-9.244 4.264-9.244 11.575 0 4.873.616 10.356 1.232 15.23 0 3.655 1.85 5.483 4.93 6.092 6.78 1.828 12.942 3.655 19.721 4.874 3.082.609 6.78.609 9.86.609 1.233 0 2.466-.61 3.699-1.828 6.162 3.046 6.779 3.046 11.093-1.218 1.232 3.046 1.232 3.046 4.93 1.828 1.232.609 2.465 1.827 4.314.609 1.849-1.219 3.697-1.828 5.546-2.437 1.849 3.046 1.849 3.046 4.314 1.828.617 0 1.233-1.219 2.465-1.828Zm55.465 216.27c6.163-3.656 10.477-9.138 15.407-14.012 1.849-1.828-.616-2.437-1.848-3.655.616-1.828 1.848-3.656 2.465-4.874.616-.609 0-1.828-.617-2.437h-1.232c-.616.609-1.233 1.219-1.849 1.219a73.766 73.766 0 0 0-12.942 14.621v.609-.609c3.082.609 4.314-1.828 6.163-3.047 2.465-1.827 4.314-4.873 8.012-5.482-.617 2.436-3.082 3.655-4.314 4.873-3.082 4.265-8.012 7.311-9.245 12.794.617 0-.616.609 0 0Zm10.477-42.036c-1.849 2.437-3.697 4.265-5.546 6.701-1.233 1.828-3.082 3.656-2.465 6.093 2.465 1.218 3.697-1.828 5.546-3.046l5.547-5.483c.616-.61 1.232-1.828 1.848-3.046.617-.61-.616-2.437-1.848-2.437-1.233.609-2.466 1.218-3.082 1.218 0-1.827 1.849-3.046 3.082-4.264.616-1.219 1.848-1.828 2.465-3.046 1.232-2.437 0-3.656-2.465-4.265 1.232-2.437 1.848-4.874 3.081-6.701 0-.609 0-1.219-.616-1.219h-1.233c-3.081 2.437-5.546 5.483-8.011 7.92-1.233 1.219-2.466 3.046-1.849 5.483 2.465-1.218 5.546-2.437 8.011-3.655l-7.395 9.138c-.616 1.218-1.849 2.437-1.233 3.655 1.233 1.828 2.466 0 3.698-.609 0-1.218.616-2.437 2.465-2.437Zm-15.407 74.933c1.849-2.437 3.698-4.874 6.163-7.31 1.233-1.219 2.465-3.046 3.698-3.656 4.314-1.827 6.779-5.483 9.86-8.529.616-.609 1.233-1.827 1.233-3.046 0-.609-.617-1.827-.617-2.437h-1.232c-6.163 6.093-12.326 12.185-17.872 18.886-1.233 2.437-1.233 4.264-1.233 6.092Zm-75.186 69.45c6.779-.609 12.942-.609 18.489-1.218 5.546-.61 11.709-.61 17.255-1.828 8.628-1.828 16.64-4.264 25.268-6.092 1.849-.609 3.081-1.219 3.081-3.655 0-6.702-.616-13.403 0-20.104 0-6.092 0-11.575-1.849-17.058-1.232-3.655-1.232-7.311 0-10.966 1.233-4.874 1.849-9.747 1.233-14.621-.616-4.264-1.233-9.138-1.849-13.403-.616-4.264.616-9.138-.616-12.793-1.849-4.874.616-9.138.616-13.403-.616-3.655 1.233-7.31-1.849-10.965-.616-.61 0-1.828 0-2.437.617-1.828 1.233-3.656 1.233-6.092.616-8.529.616-17.058.616-25.587v-2.437c0-1.828-1.232-3.046-3.081-3.046s-3.698 0-4.931.609c-3.697 1.218-7.395 1.828-11.709 1.828s-8.628.609-13.558 1.218c-11.093 1.828-21.57-.609-32.663.609-17.872-1.218-36.36-1.218-54.232-6.092-2.465-.609-5.547-.609-8.012-1.218-2.465-.609-4.314.609-5.546 3.046-3.082 6.701-4.314 13.402-3.698 20.713.616 6.092 1.849 12.793 1.849 18.886.616 12.793.616 24.977 1.232 37.771 0 4.873 1.233 10.356 1.233 15.23 0 6.701 0 12.184 6.779 16.448 2.465 1.219 2.465 3.047.616 6.093-2.465 3.046-3.697 6.092-3.697 10.356v24.978c0 1.827.616 2.437 2.465 1.827.616 0 1.232.61 1.232.61 0 3.046 2.465 2.437 3.698 3.655 1.232 1.218 3.697 1.828 5.546 1.828l22.186 3.655c11.71 2.437 22.803 3.046 32.663 3.655Zm78.884-119.405c1.232.609 1.849 0 2.465 0 5.547-3.655 9.86-8.529 14.174-13.403.617-.609.617-1.827 1.233-3.046 0-.609 0-1.218-.616-1.828-.617-1.218-1.233-.609-1.849 0-6.779 4.265-10.477 11.575-15.407 18.277Zm4.314 79.197c4.93-4.264 9.244-8.529 12.325-13.402.617-.61 1.233-2.437 0-3.047-.616 0-1.848 0-2.465.61-1.849 1.827-3.697 3.655-5.546 4.873-3.082 3.046-4.314 6.092-4.314 10.966Zm-69.64-133.417c-3.697 1.828-7.395 4.265-9.244 7.92v1.218s1.233.609 1.233 0c3.697-2.437 6.162-4.873 8.011-9.138Zm-19.721 213.224c-.616 0-.616 0 0 0-2.465-1.219-6.162 1.218-6.162 3.046 0 0 .616.609 1.232.609 1.849 0 3.698-1.218 4.93-3.046v-.609Zm72.105-96.256c1.233-.609 1.849-1.827 2.465-3.046.616-.609 1.233-1.827 0-3.046h-.616c-1.233 0-1.849 1.219-1.849 1.828 0 1.828-.616 3.046 0 4.264Zm-72.721-125.497v-.609h-.616c-.616.609-1.849 1.218-2.465 1.828v1.218h.616c.616-1.218 1.849-1.828 2.465-2.437Zm-.616 244.294c-1.233 0-3.082 1.218-2.465 2.436 0 .61.616.61 1.232.61l1.849-1.828c.616 0 0-.609-.616-1.218Zm-3.698-3.047c1.849 0 2.465-1.218 3.082-2.436v-.61c0-.609-.617-1.218-1.233-.609-1.233.609-2.465 1.219-3.081 2.437l1.232 1.218Zm104.151-49.346-1.849 1.828c-.616.609-.616 1.219 0 1.219h.617c.616-.61 1.232-1.219 1.232-1.828v-.609c.617-.61 0-.61 0-.61ZM175.64 178.499l1.848-1.828c0-.609-.616-1.218-1.232-.609-.616 0-1.233.609-1.849 1.827.616.61 1.233.61 1.233.61ZM113.395 416.7c.617-.609 1.849-1.218 1.849-2.437l-.616-.609c-1.233 0-1.849 1.218-2.465 1.828v.609c.616.609.616.609 1.232.609Zm15.407-218.097c0 .609.617 1.218 1.233.609.616 0 1.233-1.219 1.233-1.828l-1.233-.609c-.616.609-.616 1.218-1.233 1.828Zm-12.941 244.902c0-.609-.617-1.218-.617-1.218-.616 0-1.232.609-1.849 1.218v1.219c.617 0 1.849-.61 2.466-1.219Zm-30.814 1.219c.616-.61.616-1.219 1.232-1.828-.616 0-1.232-.609-1.232-.609-.617 0-.617.609-.617 1.218s.617.609.617 1.219Zm82.581-3.046c0-.61 0-1.219-.616-1.219-.617 0-.617.609-1.233.609-.616.61 0 1.219.616 1.219 0 0 .617 0 1.233-.609Zm-59.779-18.886c-.616-1.218-1.233-1.218-1.233-1.218-.616.609-1.232 1.218-1.232 1.827s.616.609 1.232.609l1.233-1.218Zm21.57-21.931c.616-.61.616-1.219 0-1.219h-.617c0 .609-.616 1.219-.616 1.219.616.609 1.233.609 1.233 0Zm66.558-230.891v-.61c-.616 0-.616.61-1.233.61v.609c.617-.609 1.233-.609 1.233-.609Zm-91.209 231.5h.616c.616-.61 0-.609-.616-.609v.609Zm69.639-144.992c0-.61-.616-1.219-1.233-.61l-.616.61c0 .609 0 1.218.616 1.218 1.233 0 1.233-.609 1.233-1.218ZM89.36 439.241c.617 0 .617-.609 0 0v-.609.609Zm81.349-74.933v-.609s-.616 0-.616.609v.609c.616 0 .616-.609.616-.609Zm6.779-238.811v-.609h-.616c-.616.609-.616.609 0 1.219l.616-.61Zm-3.081 124.279v-.609s-.616-.609-.616 0c-.617.609-.617.609 0 1.218l.616-.609Zm1.849 38.99h-.616c0 .609 0 .609.616.609s.616-.609 0-.609Zm-56.698 82.852c0-.609 0-.609-.616 0 0 0 0 .61.616 0 0 .61 0 0 0 0Zm-25.267 62.749c.616 0 .616 0 0 0 0-.609 0-1.218-.617-1.218l-.616.609c.616.609.616 1.218 1.233.609Zm54.232 6.092h-.616c0 .609 0 1.219.616 0 0 .609 0 0 0 0Z"/><path d="M41.29 410.608c1.233-4.265 1.233-4.265 6.163-7.311-3.081 3.046-4.93 5.483-6.163 7.311ZM50.535 367.354c-.616 4.264-3.698 6.092-6.163 8.529.616-3.655 3.081-6.092 6.163-8.529ZM13.558 260.742c1.232-3.655 3.698-6.701 6.779-9.138-.616 4.264-4.314 6.092-6.78 9.138ZM48.07 436.804c0-2.437 1.232-4.265 3.697-5.483-.616 3.046-3.697 3.046-3.697 5.483ZM73.953 385.021l-6.779 6.701c1.85-3.046 3.082-6.092 6.78-6.701.616 0 0 0 0 0ZM43.756 394.768c.616-2.436 1.849-4.264 4.314-5.482-.617 3.046-.617 3.046-4.314 5.482ZM32.047 287.547c0 3.656-2.465 5.483-4.314 7.311 0-3.046 2.465-4.874 4.314-7.311 0 .61 0 0 0 0ZM41.907 396.596c0 3.046-2.465 5.483-4.93 6.701.616-3.046 3.081-4.264 4.93-6.701ZM33.279 311.916c.616 3.655-2.465 4.874-4.314 6.701.616-2.437 2.465-4.264 4.314-6.701.616.609 0 0 0 0ZM22.186 258.914c.616-3.046 2.465-5.482 4.93-6.701-.616 3.046-2.465 4.874-4.93 6.701ZM32.047 365.526v3.656l-1.85 1.827c-1.232 0-1.848 1.219-1.848 1.828-1.233-3.655 1.849-5.483 3.698-7.311ZM24.035 366.135c0-3.046 3.081-4.264 4.314-7.31-.616 3.046-1.849 4.874-4.314 7.31 0-.609 0 0 0 0ZM27.116 303.996c.617-3.046 2.465-5.483 4.93-7.31 0 3.046-2.465 4.873-4.93 7.31ZM20.337 252.213c.616-3.046 3.082-5.483 4.93-7.31-.616 3.046-1.848 5.483-4.93 7.31ZM24.035 381.366l-1.849 1.827c-.616.61-.616 1.219-1.233 1.828-.616.609 0-1.828.617-2.437.616-.609 1.849-.609 2.465-1.218ZM23.419 334.457c1.232 0 1.848-.61 1.848-1.828h1.85c0 .609-.617 1.218-.617 2.437-1.233 1.827-1.849.609-3.081-.609ZM32.663 336.284c0-.609 0-1.827.616-2.437 0-.609.616-.609 1.233-.609v1.219c-1.233 1.218-1.85 1.218-1.85 1.827ZM27.116 284.501c.617-2.437 1.849-3.655 3.082-5.483 0 2.437-1.233 4.265-3.082 5.483ZM22.186 284.501c0-2.437 1.233-4.264 3.081-5.483 0 3.046-1.848 4.265-3.081 5.483ZM22.186 267.443v3.656l-1.849 1.827h-1.232c0-2.437 1.232-4.264 3.08-5.483ZM30.814 272.317v3.655l-3.698 1.828c.617-2.437 1.233-4.264 3.698-5.483ZM43.756 427.666c.616-1.828 1.232-3.656 3.081-4.874 0 1.828-1.233 3.655-3.081 4.874ZM33.28 406.953c0 2.436-1.85 3.655-2.466 5.482 0-1.827 1.233-3.655 2.465-5.482ZM28.349 352.124c-.616 2.437-1.85 3.655-3.082 5.483.617-2.437 1.85-4.265 3.082-5.483ZM33.28 344.813c0 2.437-1.233 4.265-3.082 5.483.616-2.437 1.849-3.655 3.081-5.483.616 0 0 0 0 0Z"/><path d="M32.047 369.182h1.848c-.616 1.827-1.848 3.046-3.697 3.655v-1.828l1.849-1.827ZM68.407 378.929V381.366c-.617.609-.617 0 0-.609v-1.828c.616 0 0 0 0 0ZM27.116 252.213c0-.609.617-1.218.617-2.437l.616-.609c.616 0 .616.609 0 1.218 0 .61-.616 1.219-1.233 1.828ZM27.116 284.501c0 .61 0 1.219-.616 1.828 0 0 0 .609-.616.609s-.616-.609 0-1.218l1.232-1.219ZM20.337 329.583v1.828c0 .609-.616 1.218-1.232.609v-.609c.616-1.219.616-1.219 1.232-1.828ZM84.43 393.55c-1.232 1.218-1.849 2.437-3.081 3.046.616-1.219 1.232-3.046 3.081-3.046ZM80.733 407.562c0 .609-.617 1.218-1.233.609v-.609h1.233ZM27.116 415.482c.617-1.828 1.849-3.047 4.314-3.047-1.849 1.219-3.081 2.437-4.314 3.047ZM33.895 419.137c0-.609 0-1.219.617-1.828l.616-.609c.616 0 .616.609 0 1.218 0 .61-.616.61-1.233 1.219ZM43.755 427.666c0 2.437-1.232 3.046-3.697 3.655l3.697-3.655ZM18.488 261.96c0 1.219 0 2.437-1.232 3.656.616-1.219.616-2.437 1.232-3.656ZM13.558 269.271c-.616 1.219-.616 2.437-1.232 3.655.616-1.218 1.232-2.436 1.232-3.655ZM27.733 312.525c0-1.218.616-2.437 1.232-3.655-.616 1.218-1.232 2.437-1.232 3.655ZM18.488 313.743c0-.609.617-.609.617-1.218 0 .609 0 1.218-.617 1.218ZM18.488 321.054c0 .609 0 .609-.616 1.218 0-.609 0-.609.616-1.218-.616 0 0 0 0 0ZM28.965 341.767c-.616-1.218 0-2.437 1.233-3.655.616 1.218 0 2.437-1.233 3.655ZM25.267 344.813c0 1.219 0 3.046-1.232 3.655-.616-1.218 0-2.436 1.232-3.655ZM28.965 403.907c.616-1.219.616-2.437 1.233-3.656-.617 1.219-.617 2.437-1.233 3.656ZM41.29 420.964c.617-1.218.617-2.436 1.233-3.655-.616 1.219-1.232 2.437-1.232 3.655-.616 0 0 0 0 0ZM77.651 439.85c-.616 0-1.849 0-1.849-.609 0-.61.616-1.219 1.85-.61v1.219ZM27.116 243.075c.617-1.218.617-1.828 1.849-1.828 0 1.219-.616 1.828-1.849 1.828ZM25.267 244.903l1.85-1.828c0 1.218-.617 1.828-1.85 1.828ZM22.186 258.915c-.616.609-1.233 1.218-1.849 1.218.616 0 1.233-.609 1.849-1.218ZM11.71 262.57ZM20.337 260.133ZM17.256 265.616l-1.85 1.827 1.85-1.827ZM15.407 267.443l-1.85 1.828 1.85-1.828ZM22.186 271.099h1.849l-1.849 1.827v-1.827ZM22.186 272.317h-1.849c.616.609 1.233.609 1.849 0ZM25.267 279.628l1.85-1.828c0 .609-.617 1.219-1.85 1.828ZM22.186 284.501c-.616.61-1.233 1.219-1.849 1.219.616 0 1.233-.609 1.849-1.219ZM22.186 291.812l.616-.609h-.616v.609ZM22.186 291.203c-.616.609-1.233.609-1.849 1.218.616 0 1.233-.609 1.849-1.218 0 .609 0 0 0 0ZM27.116 294.858l-1.849 1.828c1.233-.61 1.233-1.219 1.85-1.828ZM17.256 298.513l.616-.609-.616.609ZM25.267 296.686c-.616.609-1.232 1.218-1.848 1.218.616 0 1.232-.609 1.848-1.218.617 0 0 0 0 0ZM17.256 298.513l-1.85 1.828 1.85-1.828ZM20.337 303.996l.616-.609-.616.609ZM27.116 303.387l-1.849 1.827 1.85-1.827c0 .609 0 0 0 0ZM25.267 305.214c-.616.61-1.232 1.219-1.848 1.219.616 0 1.232-.609 1.848-1.219ZM32.047 305.214c-.617.61-1.233 1.219-1.85 1.219 1.233 0 1.85-.609 1.85-1.219.616 0 0 0 0 0ZM28.965 308.87l1.849-1.828c-1.233.609-1.849 1.218-1.849 1.828-.616 0 0 0 0 0ZM35.128 310.088l-1.849 1.828c1.233-.609 1.849-1.219 1.849-1.828.616 0 0 0 0 0ZM27.116 312.525l-1.849 1.828c1.233-.61 1.85-1.219 1.85-1.828.616 0 0 0 0 0Z"/><path d="m25.884 313.743-1.85 1.828c.617-.609 1.233-.609 1.85-1.828 0 .61 0 0 0 0ZM22.186 317.399l1.849-1.828-1.849 1.828ZM22.186 317.399ZM20.337 319.226ZM27.116 320.445c.617-.61 1.233-1.219 2.465-1.219-1.232.61-1.848.609-2.465 1.219ZM24.035 325.928l-1.849 1.827 1.849-1.827ZM22.186 327.755l-1.849 1.828 1.849-1.828ZM24.035 332.629v1.828c-.616 0-1.233-.61-1.849-.61.616 0 1.233-.609 1.849-1.218ZM32.047 336.284c-.617.609-1.233 1.219-2.465 1.828 1.232-.609 2.465-1.219 2.465-1.828.616 0 0 0 0 0ZM27.116 343.595c.617-.609 1.233-1.219 1.849-1.219-.616 0-1.232 0-1.849 1.219Z"/><path d="m25.267 344.813 1.85-1.828c0 1.219-.617 1.828-1.85 1.828ZM35.744 342.985c0 1.219-.616 1.828-1.849 1.828.617-.609 1.233-.609 1.85-1.828 0 .61 0 0 0 0ZM21.57 349.687c.616-.609 1.232-1.219 2.465-1.219-.617 1.219-1.233 1.219-2.465 1.219ZM21.57 349.687l.616.609-.616-.609ZM30.814 350.296ZM33.895 353.342c0 1.219-.616 1.828-1.848 1.828l1.849-1.828c0 .609 0 0 0 0ZM32.047 355.17c0 1.218-.617 1.827-1.85 1.827l1.85-1.827ZM25.267 357.607l.617-.61-.617.61ZM30.198 356.997c0 1.219-1.233 1.828-1.85 1.828.617-.609 1.85-1.218 1.85-1.828.616 0 0 0 0 0ZM37.593 360.653l-1.849 1.827 1.85-1.827ZM40.674 362.48c0-1.218 1.233-1.827 1.85-1.827-.617.609-1.233 1.827-1.85 1.827ZM35.744 362.48l-1.849 1.828 1.85-1.828ZM38.826 364.308c0-1.219.616-1.828 1.849-1.828 0 .609-.617 1.219-1.85 1.828ZM33.895 363.699l-1.848 1.827c.616 0 1.232-1.218 1.849-1.827ZM36.977 366.135c0-1.218 1.232-1.827 1.849-1.827 0 .609-.617 1.218-1.85 1.827ZM22.186 367.354l1.849-1.828-1.849 1.828Z"/><path d="M35.744 367.354c0-1.218.617-1.828 1.85-1.828-.617 1.219-1.233 1.828-1.85 1.828ZM22.186 367.354l-1.849 1.827 1.849-1.827ZM33.895 369.181l1.85-1.827c-.617 1.218-1.233 1.827-1.85 1.827ZM40.675 370.4l-1.85 1.828c.617 0 1.233-.61 1.85-1.828ZM30.198 372.837c0 1.218-.617 1.827-1.85 1.218v-1.827c1.233.609 1.85.609 1.85.609ZM37.593 374.055l1.85-1.827c-1.233.609-1.85 1.218-1.85 1.827Z"/><path d="m28.349 374.055.616.609v-.609h-.616ZM36.977 374.055l-1.85 1.828 1.85-1.828c.616 0 0 0 0 0ZM44.372 375.883l-1.849 1.828 1.849-1.828ZM42.523 377.71l-1.849 1.828 1.85-1.828ZM30.198 381.366h.616l-.616-.609v.609ZM40.675 379.538l-1.85 1.828 1.85-1.828ZM78.884 379.538c0 1.219-.617 1.828-1.233 1.828 0-1.219.616-1.828 1.233-1.828.616 0 0 0 0 0ZM36.977 382.584ZM46.22 383.193l1.85-1.827c-1.233.609-1.85 1.218-1.85 1.827ZM75.802 383.193c0-1.218.616-1.827 1.85-1.827 0 .609-.617 1.218-1.85 1.827ZM35.128 384.412l1.849-1.828c0 1.218-.616 1.828-1.85 1.828ZM44.372 385.021l1.849-1.828c-1.233.61-1.233 1.219-1.849 1.828ZM75.802 383.193l-1.849 1.828c1.233-.609 1.85-1.218 1.85-1.828ZM84.43 385.021c0-1.218.617-1.828 1.85-1.828l-1.85 1.828c0-.609 0 0 0 0ZM41.907 386.239c.616-.609 1.849-.609 2.465-1.218-.616 0-1.849.609-2.465 1.218ZM82.582 386.24l1.848-1.828-1.849 1.828ZM81.349 388.067c0-1.218.616-1.218 1.849-1.827-1.233.609-1.85 1.218-1.85 1.827ZM79.5 389.895l1.849-1.828-1.849 1.828ZM77.651 391.722l1.849-1.827-1.849 1.827ZM67.79 391.113l-1.848 1.828c.616 0 1.232-.61 1.849-1.828 0 .609 0 0 0 0ZM75.802 393.55l1.85-1.828-1.85 1.828ZM85.663 391.722c0 1.219-.617 1.828-1.849 1.828.616-1.219 1.233-1.828 1.849-1.828ZM37.593 392.941l-1.849 1.827c.617 0 1.233-.609 1.85-1.827 0 .609 0 0 0 0ZM35.744 394.768c0 .61 0 0 0 0ZM43.756 394.768c0 1.219-.617 1.828-1.85 1.828l1.85-1.828ZM32.047 398.424l1.849-1.828c-.617.609-.617 1.828-1.85 1.828ZM81.349 396.596c-.616.609-1.233 1.218-1.849 2.437.616-1.219 1.233-1.828 1.849-2.437ZM30.198 400.251l1.849-1.827-1.85 1.827ZM27.116 405.734c.617-.609 1.233-1.218 2.465-1.828-1.232.61-1.848 1.219-2.465 1.828ZM36.977 403.297l-1.85 1.828c1.233-.609 1.85-.609 1.85-1.828ZM83.198 405.734l1.849-1.828c-1.233 0-1.85.61-1.85 1.828ZM27.116 405.734c-1.232 0 0-1.218 0 0-.616 0 0 0 0 0ZM35.744 405.125l-1.849 1.828 1.85-1.828ZM80.733 407.562l1.849-1.828c-.617 0-1.233.609-1.85 1.828ZM40.675 410.608c-.617.609-1.233.609-2.465 1.218 1.232 0 1.848-.609 2.465-1.218.616 0 0 0 0 0ZM47.453 412.435l.617-.609-.617.609c.617 0 0 0 0 0ZM45.605 414.263c0-1.218.616-1.218 1.848-1.828-.616.61-.616 1.219-1.849 1.828Z"/><path d="M45.605 413.654c0 .609-.617 1.218-1.85 1.828.617-.61 1.233-.61 1.85-1.828ZM43.756 415.481l-1.85 1.828 1.85-1.828ZM32.663 420.964c.616-.609 1.232-1.218 1.232-1.827-.616.609-1.232 1.218-1.232 1.827ZM32.663 420.964c-.616.61-1.233.61-2.465 1.219.616-.609 1.232-.609 2.465-1.219ZM38.826 422.183c.616-.609 1.232-1.219 2.465-1.219-1.233.61-1.849.61-2.465 1.219ZM47.453 422.792l1.85-1.828c-.617.61-1.85 1.219-1.85 1.828ZM86.28 422.792c0-1.218.616-1.218 1.848-1.828-1.232.61-1.849 1.219-1.849 1.828ZM85.663 422.183c-.616.609-1.233 1.218-1.233 2.437.617-.61 1.233-1.219 1.233-2.437.616.609 0 0 0 0ZM35.744 428.275l.617-.609h-.617v.609ZM89.36 425.838l-1.848 1.828 1.849-1.828ZM33.895 429.493ZM87.512 427.666l-1.85 1.827c1.233-.609 1.85-1.218 1.85-1.827ZM142.361 131.59v1.827c-1.233 1.219-2.466 3.046-4.314 3.655-1.233.61-1.849.61-3.082-.609-.616-.609-.616-1.827-.616-2.437 1.232-2.436 3.081-3.655 5.546-3.655 1.233 0 1.849.609 2.466 1.219ZM121.407 134.636c-1.849 0-3.081 1.218-4.314 1.827-.616.609-1.233 1.219-1.849 0 0-.609-.616-1.218-.616-1.827.616-3.046 1.849-4.265 4.314-4.265 1.232 0 2.465.609 4.314.609v1.828c-1.233 0-1.849.609-1.849 1.828ZM94.29 120.624c1.85-1.219 3.082-2.437 4.93-3.046h-.615c1.232-.61 1.848-2.437 3.081-1.219 1.232 1.219.616 2.437 0 3.655-.616.61-.616 1.219-1.233 1.828-1.232 0-2.465.609-3.697.609 0-.609-1.233-1.218-2.466-1.827ZM110.93 129.153c0 .609 0 1.827-.616 2.437-1.233 1.827-2.465 4.264-5.547 4.264l-.616-.609c0-3.046 2.465-3.655 4.314-5.483 1.233 0 1.849 0 2.465-.609Z"/><path d="M122.639 132.808c2.465-.609 4.314-2.437 6.779-1.828-.616 2.437-2.465 3.655-4.314 4.874-1.848 1.218-2.465 1.218-4.313-1.828 1.232.609 1.848 0 1.848-1.218ZM155.302 130.98c-1.232 0-2.465.61-3.697 1.828l-1.849 1.828h-3.698c-.616-3.046 1.849-3.656 3.698-4.874 2.465-1.219 3.698 0 5.546 1.218ZM75.186 128.543c0 .61 0 1.219-.616 1.219-.617.609-1.233 1.828-2.465 1.218-.617 0-.617-1.218-.617-1.218.617-.609 1.85-1.219 2.465-1.828.617 0 1.233.609 1.233.609ZM78.884 134.026l-1.233-1.218c0-1.218 1.233-1.828 1.849-2.437h1.233v1.219c0 1.218-.617 1.827-1.85 2.436Z"/><path d="M154.686 132.808v1.828l-3.698 1.827c-2.465 1.219-1.232-1.218-1.849-1.827l1.849-1.828h3.698ZM69.023 128.543c0 1.219-1.232 1.828-2.465 1.828-.616 0-1.232-.609-1.232-.609 0-1.219.616-1.828 1.849-1.828 1.232 0 1.232.609 1.848.609ZM101.07 130.98c0 2.437-1.85 3.655-4.314 3.655l-.617-.609c.617-2.437 2.466-3.046 4.931-3.046ZM97.372 127.934c-.616.609-.616 1.219-1.233 1.219-.616 0-.616 0-1.232.609 0-.609.616-1.219 1.232-1.219.617-.609 1.233-.609 1.233-.609ZM163.314 124.279l-1.849 3.655c-1.233-.609-2.465-.609-1.233-1.827 1.233-1.219 2.466-1.219 3.082-1.828ZM101.07 122.451c1.232 2.437 1.232 3.046-1.85 3.656.617-1.828 2.466-2.437 1.85-3.656.616-.609 0 0 0 0ZM162.081 119.405c-.616.609-1.232 1.219-1.848 1.219-.617.609-1.233.609-1.233 0 0-.61.616-1.219.616-1.219h2.465ZM111.547 124.279c0-.609 0-1.828 1.232-1.219v.61c-.616 0-.616.609-1.232.609ZM86.896 133.417c0-.609-.617-1.218-.617-1.218 0-.61.617-.61 1.233-.61.616 0 .616.61.616 1.219-.616.609-1.232.609-1.232.609ZM144.826 109.049l-3.698 1.827c1.232-1.827 2.465-1.827 3.698-1.827.616 0 0 0 0 0Z"/><path d="M141.744 110.267c-1.232 1.219-2.465 1.219-3.697 1.219 1.232-.61 2.465-1.219 3.697-1.219 0 .609 0 0 0 0ZM144.826 113.922l-.617.61.617-.61ZM149.756 115.141c1.232-1.219 2.465-1.219 3.697-1.219-1.232 1.219-2.465 1.828-3.697 1.219ZM87.512 115.75l-1.233 1.218c0-1.827 1.233-1.218 1.233-1.218ZM30.814 126.107c0-.61.616-.61.616-1.219h.617c0 1.219-.617 1.219-1.233 1.219ZM111.547 124.279c-1.233 1.218-2.466 1.218-3.698 1.218 1.232 0 2.465-.609 3.698-1.218ZM27.116 127.934c.617-1.827 1.849-1.218 3.698-1.827-1.233 1.218-2.465 1.827-3.698 1.827ZM102.918 129.153c1.233-.61 2.466-.61 3.082-1.219-.616 1.219-1.849 1.219-3.082 1.219-.616 0 0 0 0 0ZM24.035 130.98c-1.233 0-2.465-.609-3.698-1.827 1.233.609 2.465.609 3.698 1.827ZM32.663 130.98c-.616 0-.616 0-1.233-.609h.617s0 .609.616.609c-.616 0 0 0 0 0ZM23.419 132.808v-1.828c.616 0 1.232.609 1.848 1.219-.616 0-1.232.609-1.848.609ZM20.337 134.636c1.233-1.219 2.465-1.828 3.698-1.828-.616 1.828-2.465 1.828-3.698 1.828ZM188.581 136.463c-.616.609 0 0 0 0ZM104.151 107.221c0-1.218 1.233-1.828 1.849-1.828l-1.849 1.828ZM102.918 109.049c0-1.219.617-1.828 1.849-1.828l-1.849 1.828ZM133.116 110.267c.616-.609 1.233-1.218 1.233-1.828 0 .61-.617 1.219-1.233 1.828ZM65.942 112.095l1.849-1.828c-.617 1.219-1.233 1.828-1.85 1.828ZM72.72 112.095l1.85-1.828c-1.233.609-1.233 1.219-1.85 1.828ZM64.093 113.922ZM71.488 113.922c.617-.609.617-1.218 1.233-1.827-.616.609-1.233 1.218-1.233 1.827ZM77.651 112.095l-1.849 1.827 1.85-1.827ZM138.047 111.485c-.617.61-.617 1.828-1.233 2.437.616-.609.616-1.218 1.233-2.437 0 .61 0 0 0 0ZM62.244 115.75ZM60.395 117.578l1.85-1.828-1.85 1.828ZM148.523 117.578c.616-.61.616-1.219 1.233-2.437 0 1.218-.617 1.827-1.233 2.437ZM97.988 127.934c.617-.609 1.233-1.218 1.85-2.437-1.233.61-1.85 1.828-1.85 2.437ZM107.849 125.497c0 1.219-.616 1.828-1.849 2.437.616-.609 1.233-1.218 1.849-2.437ZM112.779 127.934c0-.609 0-1.218.617-.609 0-.609 0 0-.617.609.617-.609 0-.609 0 0ZM110.93 129.762c0-1.219.617-1.828 1.849-1.828 0 .609-.616 1.219-1.849 1.828ZM101.07 130.98l1.848-1.827c-.616.609-1.232 1.827-1.848 1.827ZM122.639 131.589l.617-.609-.617.609ZM130.035 131.589s-.617-.609 0 0c-.617-.609 0 0 0 0Z"/><path d="M32.047 132.808v-2.437c0 .609.616 1.219.616 1.219 0 1.218 0 1.218-.616 1.218ZM184.884 132.808v.609c-.616 0-.616 0 0-.609ZM33.895 136.463l.617-.609-.617.609ZM188.582 136.463c0-1.218.616-1.827 1.848-1.827l-1.848 1.827ZM93.058 157.176c0-1.218-1.233 0 0 0 0-.609 0 0 0 0ZM131.267 93.21v-1.828c3.698-1.828 7.396-3.047 11.71-4.874-3.082 4.264-4.314 4.874-11.71 6.701ZM188.581 74.324c-1.232.609-1.848 1.218-3.081 1.827-.616.61-1.233 1.219-2.465.61 1.232-3.046 3.081-4.874 5.546-6.702h1.233v3.656c-.616-1.219-1.233-.61-1.233.609ZM61.012 75.542c.616.61.616.61.616 1.218v2.437c-1.233.61-3.081.61-4.314.61l-.616-.61c.616-1.218 3.081-3.655 4.314-3.655ZM175.023 75.542c3.081 0 3.698-3.655 6.163-3.655 0 3.046-2.465 4.264-4.314 6.092-.616.609-1.233 1.218-1.849 0 0-.61.616-1.828 0-2.437Z"/><path d="m189.814 72.496 5.547-3.655c-.617 3.046-2.466 4.873-4.314 6.701-1.849 1.828-1.233-.61-1.849-1.828 0 .61 1.232 0 .616-1.218ZM44.372 73.105v-1.218c.616-.61 1.233-1.219 1.849-1.219.616 0 1.233 0 1.233.61 0 .609-2.466 1.827-3.082 1.827ZM175.023 75.542l-1.849 1.828h-1.232c0-.61-.616-1.219 0-1.219.616-2.437 1.849-2.437 3.081-.609ZM67.174 81.634c0-.61-.616-1.218 0-1.218.617-1.219 1.85-1.828 2.466-1.219v1.828c-1.233.61-1.85 1.218-2.466.61ZM38.826 70.668c0-1.218 1.232-1.827 1.849-2.436h.616v1.218c0 1.218-1.233 1.218-2.465 1.218ZM33.895 70.668s0 .61-.616.61c-1.849 1.827-1.849 1.827-2.465-.61h3.081c0 .61 0 0 0 0ZM154.07 88.945c0 3.046-1.849 3.655-4.314 3.655.616-1.218 3.081-1.828 4.314-3.655 0 .609 0 0 0 0ZM145.442 91.99c0-.608 0-1.218.616-1.218l.616-.609c.617 0 .617.61 0 .61-.616.609-1.232.609-1.232 1.218ZM114.628 70.668c-1.233 1.828-3.081 1.828-4.93 1.828 1.232-2.437 3.081-1.828 4.93-1.828 0 .61 0 0 0 0ZM195.361 69.45v-1.828c0-.609.616-1.218.616-1.218l1.232.61c0 .608 0 1.218-.616 1.218-.616.609-1.232.609-1.232 1.218ZM109.698 79.197c0 .61-.617 1.219-.617 1.219h-1.232c0-.61.616-.61.616-1.219 0 .61.616.61 1.233 0ZM97.988 67.013c-.616 0-.616.61-1.232.61 0 0 0-.61.616-.61 0 .61.616.61.616 0 0 .61 0 0 0 0ZM91.21 68.84c-.617 0-.617.61-1.233.61 0-.61.616 0 1.232-.61ZM102.302 70.668c1.233-.609 2.465-1.218 3.698-1.218-.616.61-1.849.61-3.698 1.218ZM136.198 72.496v-1.828c.616 0 1.232 0 1.232.61.617 1.218-.616 1.218-1.232 1.218ZM196.593 74.324v1.218c-.616.61-.616 0-.616-.61 0-.608.616-.608.616-.608ZM130.035 79.807c-1.233.609-2.465.609-3.698 1.218 1.233-.61 2.465-.61 3.698-1.218ZM112.779 82.853c1.233-.61 2.465-1.828 3.698-1.219-1.233.61-2.465.61-3.698 1.219ZM131.884 86.508c0-.61-.617-1.219-.617-1.828 1.849 0 1.233.61.617 1.828ZM128.802 88.335c.617-1.218 1.849-2.436 3.082-1.827-1.233.61-2.465 1.218-3.082 1.828ZM128.802 88.335c-1.232 0-2.465.61-4.314.61 1.233-.61 2.465-.61 4.314-.61ZM158.384 88.335c-1.233.61-2.466.61-4.314 1.219 1.232-.61 3.081-1.219 4.314-1.219ZM122.639 91.382c-.616 0-.616.609-1.232.609.616 0 .616 0 1.232-.61 0 .61 0 .61 0 0ZM141.128 93.21c1.232-1.828 2.465-1.22 4.314-1.22-1.233.61-3.082.61-4.314 1.22ZM35.744 68.84c-.616.61-1.232 1.22-1.849 1.828l1.85-1.827Z"/><path d="M37.593 72.496c0-1.218.616-1.828 1.233-1.828 0 1.219-.617 1.219-1.233 1.828ZM50.535 72.496s.616-.61 0 0c.616-.61 0-.61 0 0ZM102.302 70.06l.617.608h-.617v-.609ZM35.744 74.324l1.85-1.828-1.85 1.828ZM50.535 72.496c0 1.219-.616 1.828-1.849 1.828 1.233-.61 1.233-1.219 1.849-1.828ZM56.081 74.324v-.61l-.616.61h.616ZM48.686 74.324c0 1.218-.616 1.827-1.849 1.827.616-1.218 1.233-1.827 1.849-1.827ZM54.233 76.151c0-1.218.616-1.827 1.232-1.827 0 .609-.616 1.218-1.232 1.827Z"/><path d="M47.453 75.542c0 .61-.616.61-.616 1.218-1.232-1.218 0-.609.616-1.218ZM54.233 76.151s-.617 0 0 0l-.617.61c0-.61.617-.61.617-.61ZM130.035 77.37c-.616.609-.616 1.827 0 2.436V77.37ZM130.651 82.243s.616 0 0 0c.616-.609.616-.609 0 0ZM130.651 82.243v3.047c.616-1.219 0-2.437 0-3.047ZM183.651 86.508h-1.849c.617-1.219 1.233-1.828 1.849 0ZM150.988 85.899v1.218V85.9c.617 0 0 0 0 0ZM124.488 89.554l-1.849 1.828 1.849-1.828ZM129.418 95.037c0-1.219.617-1.828 1.849-1.828 0 1.218-.616 1.828-1.849 1.828ZM107.849 20.713H83.814c-1.233 0-3.081 0-4.314-.61-1.233 0-1.849-.608-2.465-1.827 0-1.218 1.849-3.655 2.465-4.264h2.465c2.465 0 4.93 0 7.395.609 11.094 2.437 22.803 2.437 34.512 1.828 5.547 0 11.093-1.219 16.64-1.828 2.465 0 4.314-.61 6.779.61.616 0 .616.608.616 1.218 0 .609 0 1.218-.616 1.218-1.849.61-3.082.61-4.931 1.218-11.709 1.828-22.802 2.437-34.511 1.828ZM101.07 35.943c-2.465.61-5.547 1.219-8.628 1.828v-1.828h.616-3.081c1.232-2.436 3.697-3.046 4.93-5.482 3.698-.61 6.779-3.656 10.477 0-1.233 3.046-3.698 3.655-4.314 5.482Z"/><path d="M80.733 35.943c0-1.218.616-3.046-.617-3.655-2.465-1.827-2.465-1.827-.616-3.046 1.849-1.218 3.698-1.828 6.163-.61 2.465 1.22 6.163.61 8.628 2.438-2.465-.61-4.93 1.218-6.78 2.437-1.848 1.218-3.697 3.046-6.778 2.436ZM136.198 46.91H132.5c.616-1.828 3.081-3.047 3.698-5.484l1.849-1.827 1.848-1.828c1.849-.61 3.698-1.218 6.163-2.437-3.081 5.483-8.011 6.701-9.86 11.575ZM134.349 34.725c-2.465 4.264-6.779 7.31-11.71 8.529l1.849-3.655c1.233 0 1.849-.61 1.849-1.828 1.849 0 3.081-.61 4.314-1.828 1.233 0 2.465-1.218 3.698-1.218ZM101.07 35.943c2.465.61 4.314-1.827 6.779-1.827-1.849 3.046-4.93 4.873-8.628 4.873 1.233-.609 1.849-1.218 1.849-3.046Z"/><path d="M136.198 41.426H132.5c.616-1.827 1.849-3.046 3.081-3.655 1.849-1.218 3.082-1.218 4.314 0l-1.848 1.828-1.849 1.827ZM85.663 37.771c-3.081 2.437-3.081 2.437-4.93 0h4.93ZM119.558 43.254h-3.697c1.232-1.828 3.081-3.046 4.93-3.655 0 1.218-1.233 1.827-1.233 3.655ZM133.116 41.426c-.616 2.437-2.465 3.655-5.546 3.655 1.232-2.436 3.081-3.046 5.546-3.655ZM117.709 46.91l1.849-3.656h3.698c-1.233 2.437-3.698 2.437-5.547 3.655ZM109.698 32.288c1.232-.61 2.465-1.218 3.081-1.218-.616 1.218-2.465 1.218-3.081 1.218ZM89.36 35.943c-.616 1.219-1.848 1.828-3.697 1.828 1.232-1.218 2.465-1.218 3.698-1.828ZM121.407 39.599c.616-1.219 1.849-1.219 3.081-1.828v1.828h-3.081ZM94.29 43.254s-.616 0-.616.61l.617-.61ZM114.628 45.081l-3.698 1.828 3.698-1.828ZM100.453 47.519c1.233-.61 2.465-.61 3.698-1.219-1.233.61-2.465 1.219-3.698 1.219ZM109.081 32.288c0 1.219-.616 1.828-1.848 1.828 1.232 0 1.848-.61 1.848-1.828.617 0 0 0 0 0ZM134.965 34.725v-.61c.616 0 .616 0 0 .61ZM125.721 35.943c1.232 0 0 .61 0 0 1.232-.609.616-.609 0 0 0-.609 0 0 0 0Z"/><path d="M124.488 37.77c.617-.608 1.233-1.218 1.233-2.436 0 .61 0 1.828.616 2.437h-1.849ZM92.442 37.771v.61c-.617 0-.617 0 0-.61ZM116.477 43.254ZM104.151 46.91l.616-.61v.61h-.616ZM128.186 44.472c0 1.219-.616 1.828-1.849 1.828 0-.61.616-1.218 1.849-1.828ZM115.861 48.128ZM48.686 48.128c-.616.609-1.232 1.218-1.849 1.218h-.616c-.616-.61-.616-1.218 0-1.218.616-.61 1.849-1.219 3.081-1.219-.616 0-.616.61-.616 1.219ZM47.453 41.426h3.698l-3.698 1.828v-1.828ZM52.384 44.472V46.3h-3.698l3.698-1.828ZM52.384 48.128c-1.233 2.436-2.465.609-3.082 0h3.082ZM151.604 57.266h-3.697c1.232-2.437 2.465-1.828 3.697 0Z"/><path d="M52.384 46.91h1.849c0 1.218-.617 1.827-1.85 1.827v-1.828ZM70.256 177.28v2.437c0 .609-.617 1.219-1.85 1.219v-1.219c1.233-1.218 1.85-1.828 1.85-2.437ZM64.093 168.751h3.698c-1.233 1.219-1.849 2.437-3.081 3.656-.617-1.219-.617-2.437-.617-3.656ZM67.174 176.062c0 .609-.616 1.218-.616 1.218-.616 0-.616-.609-.616-.609.616-.609 1.232-.609 1.232-.609ZM67.174 169.36l1.85-1.827-1.85 1.827ZM74.57 168.751l-1.85 1.828c0-.609.617-1.218 1.85-1.828ZM71.489 173.016c0-1.219.616-1.828 1.232-1.828-.616 0-1.233.609-1.233 1.828-.616-.609 0 0 0 0Z"/><path d="m62.86 174.234 1.85-1.828c-1.233.61-1.85 1.219-1.85 1.828ZM69.64 174.234c0-1.218 1.232-1.218 1.848-1.218-1.232 0-1.849.609-1.849 1.218ZM62.244 174.234c-.616.609-1.232 1.219-1.232 2.437.616-1.218 1.232-1.828 1.232-2.437.617 0 0 0 0 0ZM69.023 174.234l-1.849 1.828c1.233-.609 1.85-1.219 1.85-1.828.615 0 0 0 0 0ZM80.733 175.453l-1.85 1.827c.617-.609 1.233-.609 1.85-1.827ZM78.884 177.28c-.617.609-1.233 1.219-1.233 1.828.616-.609 1.233-1.219 1.233-1.828.616 0 0 0 0 0ZM75.802 180.936l1.85-1.828-1.85 1.828ZM41.907 182.763v-1.827h1.849c0 1.218-.617 1.827-1.85 1.827ZM75.802 180.936l-1.849 1.827c1.233-.609 1.233-1.218 1.85-1.827ZM40.674 182.763h1.85l-1.85 1.828v-1.828ZM72.72 184.591l1.85-1.828-1.85 1.828ZM38.826 186.418l1.849-1.827-1.85 1.827ZM70.872 186.418l1.849-1.827-1.849 1.827ZM70.872 186.418ZM69.023 188.246l-.616.609s0-.609.616-.609ZM75.802 188.246c0 1.218-.616 1.828-1.849 1.828.617-1.219 1.233-1.828 1.85-1.828Z"/><path d="M74.57 189.464c0 1.219-.617 1.828-1.85 1.828l1.85-1.828ZM72.72 191.292c0 1.218-.615 1.828-1.848 1.828l1.849-1.828ZM70.872 193.12l-1.849 1.827 1.849-1.827ZM69.023 194.947l-1.849 1.828 1.85-1.828ZM15.407 220.534c-.616 2.437-1.849 3.655-3.697 5.483.616-1.828 2.465-3.655 3.697-5.483ZM20.337 215.661l-1.849 1.827 1.85-1.827ZM19.105 217.488l-1.85 1.828c0-1.219.617-1.828 1.85-1.828ZM17.256 219.316c0 1.218-.617 1.827-1.85 1.827l1.85-1.827ZM24.035 229.063c-.617 3.046-3.082 4.874-4.93 7.311.616-3.046 1.848-5.483 4.93-7.311ZM17.256 238.201l-1.85 3.656 1.85-3.656Z"/><path d="M25.884 227.845c0 1.218-.617 1.827-1.85 1.827 0-1.218.617-1.827 1.85-1.827ZM15.407 229.063l-.617.609.617-.609ZM19.105 236.374l-1.85 1.827 1.85-1.827ZM15.407 241.247l-1.85 1.828 1.85-1.828ZM13.558 243.075ZM20.337 243.684c.616-2.437 1.849-4.264 3.698-5.483-.616 1.828-1.849 3.656-3.698 5.483ZM27.116 234.546c0-2.437 1.849-3.655 3.698-5.483-.616 2.437-1.849 4.265-3.698 5.483ZM15.407 250.385l1.849-3.655-1.85 3.655ZM25.267 236.374c0-1.219.617-1.828 1.85-1.828 0 1.218-.617 1.828-1.85 1.828ZM23.419 238.201c.616-1.218.616-1.827 1.848-1.827 0 1.218-.616 1.827-1.848 1.827ZM18.488 244.903ZM17.256 246.73l1.849-1.827c-.617 1.218-1.233 1.827-1.85 1.827ZM13.558 252.213l1.849-1.828-1.85 1.828ZM11.71 253.432ZM82.581 188.246c-1.232 2.437-3.081 4.264-4.93 5.483 0-3.655 2.465-4.874 4.93-5.483ZM87.512 189.464c0 1.219-.617 1.828-1.85 1.828l1.85-1.828ZM200.291 210.787c0-1.219.616-1.828 1.848-1.828l-1.848 1.828ZM102.918 191.292c0 1.218-.616 1.828-1.848 1.828 0-.61.616-1.219 1.848-1.828ZM91.21 194.947c0-1.218.616-1.827 1.848-1.827-.616 1.218-1.232 1.827-1.849 1.827ZM101.07 193.12c0 1.218-.617 1.827-1.85 1.827.617-1.218 1.233-1.827 1.85-1.827ZM89.36 196.775c0-1.219.617-1.828 1.85-1.828 0 1.219-.617 1.828-1.85 1.828ZM99.22 194.947c0 1.219-.615 1.828-1.848 1.828.616-1.219 1.233-1.828 1.849-1.828ZM65.942 105.393h1.849v3.656h-3.698c.617-1.828 1.233-2.437 1.85-3.656ZM57.314 110.267l1.849-1.828-1.849 1.828ZM64.093 108.439c-.616.61-1.232 1.219-1.232 1.828.616-.609.616-1.218 1.232-1.828ZM62.86 110.267l-.616.609.617-.609ZM57.314 113.922v-1.827c1.233.609 1.849 1.218 0 1.827ZM188.581 51.783h-3.697l3.697-1.828v1.828ZM181.802 49.955v-1.827c.617.609.617 1.218 0 1.827ZM184.884 46.3h1.849c-.617 1.219-1.233 1.828-1.849 0ZM54.233 109.049v-1.828h1.849l-1.85 1.828ZM175.023 45.081l-1.849 1.828h-3.697v-1.828c1.232 0 1.849-.609 1.849-1.827h3.697v1.828Z"/></g><defs><clipPath id="a"><path fill="#fff" d="M0 0h212v463H0z"/></clipPath></defs></svg>