<svg width="306" height="444" viewBox="0 0 306 444" fill="none" xmlns="http://www.w3.org/2000/svg"><g clip-path="url(#a)" clip-rule="evenodd"><path d="M173.909 84.105c0 .797.118 1.535.177 2.273.147 1.89.354 3.869.472 5.759.059 1.152.206 2.303.295 3.455l.443 5.847c.029.739.118 1.565.147 2.333.03.355.089.798.089 1.152l.236 3.485c.029.413.029.767.059 1.181l.088 1.152c.03.679.089 1.358.118 2.037l.296 4.105v.325c.118.886.118 1.772.177 2.658l.236 3.839c.029.384.029.797.088 1.181l.266 4.4c.059.65.059 2.097.147 2.658.089.65.059 1.683.148 2.362.059.591.029 1.211.088 1.772.089 1.004.059 2.038.148 3.012.059.562.059 1.949.118 2.363.059.413 0 .797.059 1.211l.295 6.024c.089.738.059 2.126.148 2.953l.088 2.422c0 .265.03.413.03.62l.118 3.012c.029.207 0 .443 0 .65l.059 1.21c0 .237 0 .384.029.591.03.177 0 .414 0 .62 0 .207.03.325.03.591 0 .472.059 1.24.059 1.86l.147 4.194c0 .62.059 1.299.059 1.86 0 .827.059 1.595.059 2.422 0 .266.03.384.03.59v.65c0 .207.029.325.029.591v.649c.089.768 0 1.684.089 2.451.03.355 0 .886.03 1.241.029.561 0 2.067.059 2.451l.029 2.48c0 .237.03.325.03.591l.029 2.451c0 .266.03.355.03.62 0 .886.029 1.625.029 2.51 0 .443.03.768.03 1.211v1.27c0 .207.029.325.029.591 0 .59-.059 1.358.03 1.89.088.679-.03 1.772 0 2.51.029.797.029 1.683.029 2.51 0 .856.03 1.595.03 2.451v5.64c0 .591.088 1.241 0 1.861-.059.413 0 4.489 0 5.02 0 1.713-.03 3.308-.03 5.05 0 .266-.029.354-.029.591v1.89c0 .265-.03.354-.03.59 0 .62.03 1.329-.029 1.89l-.118 6.172c-.059.414.029.857-.03 1.241-.059.354 0 .856-.029 1.21-.03.178 0 .443 0 .621 0 .265-.03.413-.03.62v.62c0 .236-.029.354-.029.62 0 .591-.059 1.24-.059 1.801v.65l-.06 1.211c0 .443-.029.797-.029 1.211 0 .265-.03.354-.03.59 0 .65-.059 1.181-.059 1.861 0 .236-.029.325-.029.59l-.325 6.852c0 .147-.029.147-.029.295v.325c-.03.472-.089 1.004-.089 1.476 0 .62-.088 1.152-.088 1.772 0 .177-.03.148-.03.295l-.767 10.809c-.03.679-.118 1.594-.207 2.303-.413 4.518-.855 9.007-1.446 13.525-.472 3.662-1.003 7.265-1.446 10.956l-.797 6.675c-.531 4.459-.973 9.125-1.387 13.613-.059.768-.177 1.536-.206 2.274 0 .384-.089.768-.089 1.152-.029.384-.088.768-.088 1.152-.03.767-.148 1.535-.177 2.274-.03.383-.03.797-.089 1.181l-.177 2.303c0 .591-.118 1.182-.118 1.743 0 .236-.029.383-.029.62-.03.354-.059.797-.089 1.151l-.561 9.45c0 .739-.147 2.186-.147 2.924 0 .768-.148 2.185-.148 2.983l-.059 1.21c-.029.827-.059 1.595-.088 2.422l-.177 4.193c0 .266-.03.355-.03.621 0 .649-.059 1.151-.059 1.771l-.088 2.422c0 .266-.03.354-.03.62 0 .443-.029.738-.029 1.211l-.237 6.054c0 .856-.059 1.624-.059 2.48 0 .266-.029.355-.029.591v.65c0 .206-.03.324-.03.59v.65c-.059.738-.029 1.683-.088 2.422-.059.797 0 1.683-.059 2.421-.03.413.029.856-.03 1.24s0 .827-.029 1.241c0 .206-.03.325-.03.59v.65c0 .443-.029.768-.029 1.24 0 .857-.03 1.624-.03 2.51 0 .443-.029.768-.029 1.182v1.269c0 .473-.03.798-.03 1.241l-.029 13.23v.088c0 2.097.029 4.076.029 6.172 0 1.034.03 2.038.03 3.131l.059 3.13c.029.443 0 1.093 0 1.565 0 .295.029.473.029.768 0 1.535.059 3.101.059 4.636 0 .296.03.443.03.768v.797c0 .296.029.473.029.768v.798c0 .295.03.443.03.767 0 1.566.088 3.072.088 4.637 0 .502.03.974.03 1.535l.059 1.536c.029.236.029.502.029.738 0 .296.03.502.03.768 0 1.093.059 2.038.059 3.13l.118 4.607c0 .296.03.443.03.738l.029 1.566c0 .295.03.443.03.767l.029 1.507c.118 1.328 1.269 2.067 2.39 2.067.797 0 1.476-.118 2.125-.502.472-.266.915-.591 1.269-1.034.059-.059.059-.088.118-.148l.354-.531c.738-1.299.768-2.333.768-3.898 0-2.983-.059-5.847-.059-8.8 0-2.924-.118-5.848-.118-8.771 0-.738-.03-1.418-.03-2.186 0-.413-.029-.679-.029-1.092 0-.355.029-.768 0-1.122l-.03-1.595c0-.236-.029-.325-.029-.532 0-1.506-.059-2.894-.059-4.4l-.059-2.185c-.03-.325 0-.738 0-1.093 0-.384-.03-.679-.03-1.092 0-.768-.029-1.418-.029-2.215l-.059-2.126c-.03-.355 0-.739 0-1.093 0-.384-.03-.679-.03-1.093 0-2.185-.089-4.4-.089-6.556v-4.459c0-.768-.029-1.417-.029-2.215 0-7.294-.059-14.588-.059-21.882v-.679c0-.266.029-.414.029-.68 0-.531-.029-5.138 0-5.581.089-.827.03-1.831.03-2.717 0-1.831.059-3.662.059-5.522 0-.502.029-.886.029-1.329v-1.418l.06-2.687v-.679c0-.266.029-.414.029-.65 0-.443-.029-.945.03-1.388.029-.325 0-2.156.059-2.746.059-.679 0-2.067.088-2.687.03-.207 0-.473 0-.68 0-.265.03-.443.03-.649v-.68c0-.236.029-.383.029-.649 0-.502.03-.857.03-1.329l.059-1.359c.059-.354.029-1.476.088-1.978l.03-1.359c0-.265.029-.383.029-.649l.177-4.637c0-.472.03-.856.059-1.299v-.354l.059-.975v-.325c0-.177.03-.177.03-.325v-.324c0-.148.029-.148.029-.325.03-.857.118-1.772.118-2.658l.118-1.949c.03-.738.118-1.536.118-2.245l.118-1.653c.06-.561.119-1.861.178-2.599.088-.827.088-1.713.206-2.569.089-.65.148-1.831.207-2.51.383-4.135.826-8.24 1.416-12.315.354-2.392.768-4.695 1.122-7.058.118-.797.236-1.624.354-2.392.383-2.717.915-7.205 1.121-9.834.03-.413.089-.856.118-1.24l.472-5.729c.03-.177.059-.443.059-.62.03-.414.089-.857.089-1.27l.443-6.497c0-.502.088-1.654.118-2.244l.295-4.902v-.355c0-.147.029-.147.029-.325l.059-1.299c0-.679.089-1.358.089-2.008l.029-.65c0-.413 0-.945.059-1.329l.148-3.337c0-.265.029-.443.029-.649.03-.473.03-.886.03-1.388l.059-1.3c0-.502.03-.886.03-1.388l.059-1.299c.029-.207 0-.472 0-.679.029-.65.059-1.329.059-1.979 0-.266.029-.384.029-.649l.059-2.038c.03-.207 0-.473 0-.679 0-.296.03-.443.03-.68v-.679c0-.266.029-.384.029-.649v-.68c0-.295.03-.413.03-.679v-.679c0-.266.029-.414.029-.65 0-.443-.029-.974.03-1.358.029-.355 0-.975 0-1.359 0-.236.029-.384.029-.649l.059-3.455c.089-.562.03-1.418.03-2.038 0-.266.029-.414.029-.679-.029-3.692.059-7.354.059-11.045v-6.644c-.088-1.152-.029-2.481-.029-3.692 0-.207-.03-.207-.03-.384v-1.417c0-1.861-.088-3.692-.088-5.552l-.118-3.573c-.03-1.211-.059-2.392-.148-3.544-.029-.591-.029-1.211-.088-1.742-.03-.148 0-.296 0-.473l-.118-2.215c0-.236-.06-.62-.06-.856 0-.295 0-.62-.029-.886-.089-.62-.118-1.92-.148-2.628-.029-.561-.088-1.182-.118-1.743-.029-.295 0-.561-.029-.856l-.797-12.226c0-.266-.059-.591-.059-.856l-.236-3.485c-.118-1.122-.148-2.333-.236-3.455-.089-.886-.089-1.772-.177-2.628l-.413-6.054c-.059-.532-.089-1.182-.118-1.743-.03-.531-.118-1.151-.118-1.712 0-.562-.089-1.182-.118-1.743l-.591-8.652c0-.532-.147-1.979-.177-2.57-.059-.856-.088-1.801-.177-2.628-.088-.797-.088-1.86-.177-2.628-.029-.295-.029-.591-.059-.857-.088-.59-.059-1.122-.118-1.712-.059-.532-.059-1.152-.118-1.743-.059-.531-.089-1.151-.118-1.712-.03-.562-.118-1.152-.118-1.743-.03-.709-.177-1.89-.177-2.569 0-.295-.059-.591-.059-.856-.03-.886-.177-1.743-.177-2.6-.03-.855-.148-1.712-.177-2.568-.03-.591-.089-1.182-.118-1.743-.059-1.151-.177-2.303-.266-3.455-.089-1.447-.177-2.894-.325-4.311-.029-.296-.029-.591-.059-.857l-.118-1.742c-.147 0-.383.059-.56.089-.177.029-.384.059-.561.088-.384.06-.738.118-1.121.177l-1.683.237c-.324-.06-.501 0-.737 0z" stroke="#00467F" stroke-width="3" stroke-miterlimit="22.926" stroke-linejoin="round"/><path fill-rule="evenodd" d="M173.909 84.105c0 .797.118 1.535.177 2.273.147 1.89.354 3.869.472 5.759.059 1.152.206 2.303.295 3.455l.443 5.847c.029.739.118 1.565.147 2.333.03.355.089.798.089 1.152l.236 3.485c.029.413.029.767.059 1.181l.088 1.152c.03.679.089 1.358.118 2.037l.296 4.105v.325c.118.886.118 1.772.177 2.658l.236 3.839c.029.384.029.797.088 1.181l.266 4.4c.059.65.059 2.097.147 2.658.089.65.059 1.683.148 2.362.059.591.029 1.211.088 1.772.089 1.004.059 2.038.148 3.012.059.562.059 1.949.118 2.363.059.413 0 .797.059 1.211l.295 6.024c.089.738.059 2.126.148 2.953l.088 2.422c0 .265.03.413.03.62l.118 3.012c.029.207 0 .443 0 .65l.059 1.21c0 .237 0 .384.029.591.03.177 0 .414 0 .62 0 .207.03.325.03.591 0 .472.059 1.24.059 1.86l.147 4.194c0 .62.059 1.299.059 1.86 0 .827.059 1.595.059 2.422 0 .266.03.384.03.59v.65c0 .207.029.325.029.591v.649c.089.768 0 1.684.089 2.451.03.355 0 .886.03 1.241.029.561 0 2.067.059 2.451l.029 2.48c0 .237.03.325.03.591l.029 2.451c0 .266.03.355.03.62 0 .886.029 1.625.029 2.51 0 .443.03.768.03 1.211v1.27c0 .207.029.325.029.591 0 .59-.059 1.358.03 1.89.088.679-.03 1.772 0 2.51.029.797.029 1.683.029 2.51 0 .856.03 1.595.03 2.451v5.64c0 .591.088 1.241 0 1.861-.059.413 0 4.489 0 5.02 0 1.713-.03 3.308-.03 5.05 0 .266-.029.354-.029.591v1.89c0 .265-.03.354-.03.59 0 .62.03 1.329-.029 1.89l-.118 6.172c-.059.414.029.857-.03 1.241-.059.354 0 .856-.029 1.21-.03.178 0 .443 0 .621 0 .265-.03.413-.03.62v.62c0 .236-.029.354-.029.62 0 .591-.059 1.24-.059 1.801v.65l-.06 1.211c0 .443-.029.797-.029 1.211 0 .265-.03.354-.03.59 0 .65-.059 1.181-.059 1.861 0 .236-.029.325-.029.59l-.325 6.852c0 .147-.029.147-.029.295v.325c-.03.472-.089 1.004-.089 1.476 0 .62-.088 1.152-.088 1.772 0 .177-.03.148-.03.295l-.767 10.809c-.03.679-.118 1.594-.207 2.303-.413 4.518-.855 9.007-1.446 13.525-.472 3.662-1.003 7.265-1.446 10.956l-.797 6.675c-.531 4.459-.973 9.125-1.387 13.613-.059.768-.177 1.536-.206 2.274 0 .384-.089.768-.089 1.152-.029.384-.088.768-.088 1.152-.03.767-.148 1.535-.177 2.274-.03.383-.03.797-.089 1.181l-.177 2.303c0 .591-.118 1.182-.118 1.743 0 .236-.029.383-.029.62-.03.354-.059.797-.089 1.151l-.561 9.45c0 .739-.147 2.186-.147 2.924 0 .768-.148 2.185-.148 2.983l-.059 1.21c-.029.827-.059 1.595-.088 2.422l-.177 4.193c0 .266-.03.355-.03.621 0 .649-.059 1.151-.059 1.771l-.088 2.422c0 .266-.03.354-.03.62 0 .443-.029.738-.029 1.211l-.237 6.054c0 .856-.059 1.624-.059 2.48 0 .266-.029.355-.029.591v.65c0 .206-.03.324-.03.59v.65c-.059.738-.029 1.683-.088 2.422-.059.797 0 1.683-.059 2.421-.03.413.029.856-.03 1.24s0 .827-.029 1.241c0 .206-.03.325-.03.59v.65c0 .443-.029.768-.029 1.24 0 .857-.03 1.624-.03 2.51 0 .443-.029.768-.029 1.182v1.269c0 .473-.03.798-.03 1.241l-.029 13.23v.088c0 2.097.029 4.076.029 6.172 0 1.034.03 2.038.03 3.131l.059 3.13c.029.443 0 1.093 0 1.565 0 .295.029.473.029.768 0 1.535.059 3.101.059 4.636 0 .296.03.443.03.768v.797c0 .296.029.473.029.768v.798c0 .295.03.443.03.767 0 1.566.088 3.072.088 4.637 0 .502.03.974.03 1.535l.059 1.536c.029.236.029.502.029.738 0 .296.03.502.03.768 0 1.093.059 2.038.059 3.13l.118 4.607c0 .296.03.443.03.738l.029 1.566c0 .295.03.443.03.767l.029 1.507c.118 1.328 1.269 2.067 2.39 2.067.797 0 1.476-.118 2.125-.502.472-.266.915-.591 1.269-1.034.059-.059.059-.088.118-.148l.354-.531c.738-1.299.768-2.333.768-3.898 0-2.983-.059-5.847-.059-8.8 0-2.924-.118-5.848-.118-8.771 0-.738-.03-1.418-.03-2.186 0-.413-.029-.679-.029-1.092 0-.355.029-.768 0-1.122l-.03-1.595c0-.236-.029-.325-.029-.532 0-1.506-.059-2.894-.059-4.4l-.059-2.185c-.03-.325 0-.738 0-1.093 0-.384-.03-.679-.03-1.092 0-.768-.029-1.418-.029-2.215l-.059-2.126c-.03-.355 0-.739 0-1.093 0-.384-.03-.679-.03-1.093 0-2.185-.089-4.4-.089-6.556v-4.459c0-.768-.029-1.417-.029-2.215 0-7.294-.059-14.588-.059-21.882v-.679c0-.266.029-.414.029-.68 0-.531-.029-5.138 0-5.581.089-.827.03-1.831.03-2.717 0-1.831.059-3.662.059-5.522 0-.502.029-.886.029-1.329v-1.418l.06-2.687v-.679c0-.266.029-.414.029-.65 0-.443-.029-.945.03-1.388.029-.325 0-2.156.059-2.746.059-.679 0-2.067.088-2.687.03-.207 0-.473 0-.68 0-.265.03-.443.03-.649v-.68c0-.236.029-.383.029-.649 0-.502.03-.857.03-1.329l.059-1.359c.059-.354.029-1.476.088-1.978l.03-1.359c0-.265.029-.383.029-.649l.177-4.637c0-.472.03-.856.059-1.299v-.354l.059-.975v-.325c0-.177.03-.177.03-.325v-.324c0-.148.029-.148.029-.325.03-.857.118-1.772.118-2.658l.118-1.949c.03-.738.118-1.536.118-2.245l.118-1.653c.06-.561.119-1.861.178-2.599.088-.827.088-1.713.206-2.569.089-.65.148-1.831.207-2.51.383-4.135.826-8.24 1.416-12.315.354-2.392.768-4.695 1.122-7.058.118-.797.236-1.624.354-2.392.383-2.717.915-7.205 1.121-9.834.03-.413.089-.856.118-1.24l.472-5.729c.03-.177.059-.443.059-.62.03-.414.089-.857.089-1.27l.443-6.497c0-.502.088-1.654.118-2.244l.295-4.902v-.355c0-.147.029-.147.029-.325l.059-1.299c0-.679.089-1.358.089-2.008l.029-.65c0-.413 0-.945.059-1.329l.148-3.337c0-.265.029-.443.029-.649.03-.473.03-.886.03-1.388l.059-1.3c0-.502.03-.886.03-1.388l.059-1.299c.029-.207 0-.472 0-.679.029-.65.059-1.329.059-1.979 0-.266.029-.384.029-.649l.059-2.038c.03-.207 0-.473 0-.679 0-.296.03-.443.03-.68v-.679c0-.266.029-.384.029-.649v-.68c0-.295.03-.413.03-.679v-.679c0-.266.029-.414.029-.65 0-.443-.029-.974.03-1.358.029-.355 0-.975 0-1.359 0-.236.029-.384.029-.649l.059-3.455c.089-.562.03-1.418.03-2.038 0-.266.029-.414.029-.679-.029-3.692.059-7.354.059-11.045v-6.644c-.088-1.152-.029-2.481-.029-3.692 0-.207-.03-.207-.03-.384v-1.417c0-1.861-.088-3.692-.088-5.552l-.118-3.573c-.03-1.211-.059-2.392-.148-3.544-.029-.591-.029-1.211-.088-1.742-.03-.148 0-.296 0-.473l-.118-2.215c0-.236-.06-.62-.06-.856 0-.295 0-.62-.029-.886-.089-.62-.118-1.92-.148-2.628-.029-.561-.088-1.182-.118-1.743-.029-.295 0-.561-.029-.856l-.797-12.226c0-.266-.059-.591-.059-.856l-.236-3.485c-.118-1.122-.148-2.333-.236-3.455-.089-.886-.089-1.772-.177-2.628l-.413-6.054c-.059-.532-.089-1.182-.118-1.743-.03-.531-.118-1.151-.118-1.712 0-.562-.089-1.182-.118-1.743l-.591-8.652c0-.532-.147-1.979-.177-2.57-.059-.856-.088-1.801-.177-2.628-.088-.797-.088-1.86-.177-2.628-.029-.295-.029-.591-.059-.857-.088-.59-.059-1.122-.118-1.712-.059-.532-.059-1.152-.118-1.743-.059-.531-.089-1.151-.118-1.712-.03-.562-.118-1.152-.118-1.743-.03-.709-.177-1.89-.177-2.569 0-.295-.059-.591-.059-.856-.03-.886-.177-1.743-.177-2.6-.03-.855-.148-1.712-.177-2.568-.03-.591-.089-1.182-.118-1.743-.059-1.151-.177-2.303-.266-3.455-.089-1.447-.177-2.894-.325-4.311-.029-.296-.029-.591-.059-.857l-.118-1.742c-.147 0-.383.059-.56.089-.177.029-.384.059-.561.088-.384.06-.738.118-1.121.177l-1.683.237c-.324-.06-.501 0-.737 0z" fill="#FAF7F3"/><path d="M112.968 205.153c0 .472.089.856.266 1.269.088.178.354.65.502.768 1.239.798 2.508 1.565 3.747 2.392 1.712 1.122 3.365 2.333 5.017 3.574 1.387 1.033 2.774 2.155 4.102 3.248a99.118 99.118 0 012.656 2.303c.236.207.414.384.65.591l2.242 2.097c.384.325.709.738 1.092 1.063l1.387 1.388c.118.147.177.207.295.325.207.206.355.443.62.649l2.686 2.924c.118.118.147.207.265.354.207.237.384.414.591.65l2.803 3.396.148.148c.383.443.708.945 1.092 1.417l2.508 3.396c.089.118.148.237.266.355 1.032 1.388 2.301 3.366 3.275 4.872.827 1.329 2.155 3.367 2.833 4.666l2.715 4.843c.591 1.093 1.122 2.215 1.712 3.308.443.827.797 1.713 1.239 2.539l3.837 8.801 2.095 5.522a182.94 182.94 0 013.483 10.513l.855 2.953c.089.325.177.679.295 1.004.561 1.802 1.447 5.404 1.86 7.058.501 2.038.974 4.194 1.446 6.261.118.561 1.269 5.936 1.298 6.408.738 0 1.623-.473 2.214-.945.826-.679 1.387-1.388 2.036-2.274.088-.118.147-.207.236-.325.206-.266.118-.177.236-.059 0-.236-.059-.088-.148-.472a3.893 3.893 0 01-.118-.561c-.088-.355-.147-.739-.236-1.093l-1.003-4.312-.266-1.063c-.413-1.772-.915-3.543-1.357-5.286-.177-.708-.413-1.358-.59-2.096-.178-.709-.443-1.388-.591-2.068l-1.888-6.054c-.856-2.628-1.801-5.256-2.745-7.855-.443-1.24-.944-2.599-1.475-3.809-.118-.325-.266-.62-.384-.945-.059-.148-.118-.325-.177-.473-.266-.62-.502-1.24-.767-1.86-.473-1.063-.915-2.156-1.387-3.219l-5.578-11.488c-.325-.59-.62-1.122-.915-1.713-.767-1.417-1.534-2.805-2.361-4.163l-1.475-2.481a29.614 29.614 0 00-1.004-1.595l-.501-.797c-.177-.266-.325-.532-.532-.797-.177-.266-.324-.502-.501-.768-.768-1.181-1.594-2.304-2.361-3.455-.089-.148-.177-.237-.266-.384l-3.777-5.021c-.325-.413-.708-.797-1.004-1.24l-2.656-3.16c-.206-.236-.383-.472-.619-.708l-2.479-2.688c-.207-.236-.413-.413-.62-.649a1.668 1.668 0 00-.325-.325l-6.256-5.966-2.42-2.067c-1.534-1.27-3.128-2.451-4.722-3.632-1.859-1.358-3.777-2.599-5.725-3.81-.265-.177-3.01-1.86-3.216-1.83-.089 0-.355.177-.414.206-.767.384-1.741 1.211-1.741 2.245z" stroke="#00467F" stroke-width="3" stroke-miterlimit="22.926" stroke-linejoin="round"/><path fill-rule="evenodd" d="M112.968 205.153c0 .472.089.856.266 1.269.088.178.354.65.502.768 1.239.798 2.508 1.565 3.747 2.392 1.712 1.122 3.365 2.333 5.017 3.574 1.387 1.033 2.774 2.155 4.102 3.248a99.118 99.118 0 012.656 2.303c.236.207.414.384.65.591l2.242 2.097c.384.325.709.738 1.092 1.063l1.387 1.388c.118.147.177.207.295.325.207.206.355.443.62.649l2.686 2.924c.118.118.147.207.265.354.207.237.384.414.591.65l2.803 3.396.148.148c.383.443.708.945 1.092 1.417l2.508 3.396c.089.118.148.237.266.355 1.032 1.388 2.301 3.366 3.275 4.872.827 1.329 2.155 3.367 2.833 4.666l2.715 4.843c.591 1.093 1.122 2.215 1.712 3.308.443.827.797 1.713 1.239 2.539l3.837 8.801 2.095 5.522a182.94 182.94 0 013.483 10.513l.855 2.953c.089.325.177.679.295 1.004.561 1.802 1.447 5.404 1.86 7.058.501 2.038.974 4.194 1.446 6.261.118.561 1.269 5.936 1.298 6.408.738 0 1.623-.473 2.214-.945.826-.679 1.387-1.388 2.036-2.274.088-.118.147-.207.236-.325.206-.266.118-.177.236-.059 0-.236-.059-.088-.148-.472a3.893 3.893 0 01-.118-.561c-.088-.355-.147-.739-.236-1.093l-1.003-4.312-.266-1.063c-.413-1.772-.915-3.543-1.357-5.286-.177-.708-.413-1.358-.59-2.096-.178-.709-.443-1.388-.591-2.068l-1.888-6.054c-.856-2.628-1.801-5.256-2.745-7.855-.443-1.24-.944-2.599-1.475-3.809-.118-.325-.266-.62-.384-.945-.059-.148-.118-.325-.177-.473-.266-.62-.502-1.24-.767-1.86-.473-1.063-.915-2.156-1.387-3.219l-5.578-11.488c-.325-.59-.62-1.122-.915-1.713-.767-1.417-1.534-2.805-2.361-4.163l-1.475-2.481a29.614 29.614 0 00-1.004-1.595l-.501-.797c-.177-.266-.325-.532-.532-.797-.177-.266-.324-.502-.501-.768-.768-1.181-1.594-2.304-2.361-3.455-.089-.148-.177-.237-.266-.384l-3.777-5.021c-.325-.413-.708-.797-1.004-1.24l-2.656-3.16c-.206-.236-.383-.472-.619-.708l-2.479-2.688c-.207-.236-.413-.413-.62-.649a1.668 1.668 0 00-.325-.325l-6.256-5.966-2.42-2.067c-1.534-1.27-3.128-2.451-4.722-3.632-1.859-1.358-3.777-2.599-5.725-3.81-.265-.177-3.01-1.86-3.216-1.83-.089 0-.355.177-.414.206-.767.384-1.741 1.211-1.741 2.245z" fill="#FAF7F3"/><path d="M184.828 252.816s8.233-18.073-10.005-47.811c-18.208-29.738-34.734-39.897-34.734-39.897s18.12 27.701 21.661 34.345c3.571 6.645 15.021 37.475 17.648 47.368 2.656 9.922 4.662 7.589 5.43 5.995z" stroke="#00467F" stroke-width="3" stroke-miterlimit="22.926" stroke-linejoin="round"/><path fill-rule="evenodd" d="M184.828 252.816s8.233-18.073-10.005-47.811c-18.208-29.738-34.734-39.897-34.734-39.897s18.12 27.701 21.661 34.345c3.571 6.645 15.021 37.475 17.648 47.368 2.656 9.922 4.662 7.589 5.43 5.995z" fill="#FAF7F3"/><path d="M179.811 283.912s-12.867-25.426 11.627-69.546c24.495-44.119 47.69-59.889 47.69-59.889s-24.464 41.166-29.216 50.971c-4.722 9.834-19.448 55.016-22.664 69.486-3.217 14.441-6.227 11.222-7.437 8.978z" stroke="#00467F" stroke-width="3" stroke-miterlimit="22.926" stroke-linejoin="round"/><path fill-rule="evenodd" d="M179.811 283.912s-12.867-25.426 11.627-69.546c24.495-44.119 47.69-59.889 47.69-59.889s-24.464 41.166-29.216 50.971c-4.722 9.834-19.448 55.016-22.664 69.486-3.217 14.441-6.227 11.222-7.437 8.978z" fill="#FAF7F3"/><path d="M144.604 303.58s5.519 12.048 8.794 25.839c3.276 13.791 6.817 33.282 10.595 43.824 3.777 10.543 12.985 41.964 9.266 51.119-3.718 9.154-16.201-29.502-21.454-48.077-5.224-18.545-7.909-43.233-7.201-72.705z" stroke="#00467F" stroke-width="3" stroke-miterlimit="22.926" stroke-linejoin="round"/><path fill-rule="evenodd" d="M144.604 303.58s5.519 12.048 8.794 25.839c3.276 13.791 6.817 33.282 10.595 43.824 3.777 10.543 12.985 41.964 9.266 51.119-3.718 9.154-16.201-29.502-21.454-48.077-5.224-18.545-7.909-43.233-7.201-72.705z" fill="#FAF7F3"/><path d="M103.761 297.614s4.161 16.597 11.745 32.691c7.614 16.095 19.359 37.8 23.963 51.325 4.604 13.526 20.304 51.857 30.898 56.966 10.595 5.109-7.614-43.175-17.057-65.648-9.414-22.443-26.029-48.254-49.549-75.334z" stroke="#00467F" stroke-width="3" stroke-miterlimit="22.926" stroke-linejoin="round"/><path fill-rule="evenodd" d="M103.761 297.614s4.161 16.597 11.745 32.691c7.614 16.095 19.359 37.8 23.963 51.325 4.604 13.526 20.304 51.857 30.898 56.966 10.595 5.109-7.614-43.175-17.057-65.648-9.414-22.443-26.029-48.254-49.549-75.334z" fill="#FAF7F3"/><path d="M171.872 438.98c7.142-.473-9.62-44.77-18.533-66.002-9.296-22.09-25.497-47.398-48.368-73.976 3.246 6.527 7.879 15.415 13.811 25.958 12.926 22.975 26.058 48.018 28.36 53.126 2.302 5.109 14.106 35.438 17.589 44.386 1.8 4.784 4.78 11.399 7.141 16.508z" stroke="#00467F" stroke-width="3" stroke-miterlimit="22.926" stroke-linejoin="round"/><path fill-rule="evenodd" d="M171.872 438.98c7.142-.473-9.62-44.77-18.533-66.002-9.296-22.09-25.497-47.398-48.368-73.976 3.246 6.527 7.879 15.415 13.811 25.958 12.926 22.975 26.058 48.018 28.36 53.126 2.302 5.109 14.106 35.438 17.589 44.386 1.8 4.784 4.78 11.399 7.141 16.508z" fill="#FAF7F3"/><path d="M173.672 441.076s-6.522-23.949 21.396-55.813c27.917-31.864 49.962-40.281 49.962-40.281s-27.386 29.413-32.994 36.648c-5.607 7.235-25.527 42.023-30.632 53.452-5.135 11.428-7.112 8.121-7.732 5.994z" stroke="#00467F" stroke-width="3" stroke-miterlimit="22.926" stroke-linejoin="round"/><path fill-rule="evenodd" d="M173.672 441.076s-6.522-23.949 21.396-55.813c27.917-31.864 49.962-40.281 49.962-40.281s-27.386 29.413-32.994 36.648c-5.607 7.235-25.527 42.023-30.632 53.452-5.135 11.428-7.112 8.121-7.732 5.994z" fill="#FAF7F3"/><path d="M180.194 104.806s-11.627-42.318-3.63-62.458c7.998-20.14 11.451-11.901 13.221-13.614 1.771-1.713.354-6.32 8.706-11.074 8.322-4.784 9.621-7.147 15.021-6.763 5.401.413 8.972-5.61 8.972-5.61s.826-1.477 2.744-1.861c1.948-.384 2.568-2.658 2.568-2.658s1.623 2.599.914 3.603c-.708 1.004.03 5.847.797 6.644.767.797 5.489 2.48 4.545 6.467-.915 3.958-8.942 17.01-11.982 28.055-3.069 11.045-6.138 16.95-20.775 26.962-14.638 9.981-14.254 22.886-15.73 27.936-1.446 5.021-5.371 4.371-5.371 4.371z" stroke="#00467F" stroke-width="3" stroke-miterlimit="22.926" stroke-linejoin="round"/><path fill-rule="evenodd" d="M180.194 104.806s-11.627-42.318-3.63-62.458c7.998-20.14 11.451-11.901 13.221-13.614 1.771-1.713.354-6.32 8.706-11.074 8.322-4.784 9.621-7.147 15.021-6.763 5.401.413 8.972-5.61 8.972-5.61s.826-1.477 2.744-1.861c1.948-.384 2.568-2.658 2.568-2.658s1.623 2.599.914 3.603c-.708 1.004.03 5.847.797 6.644.767.797 5.489 2.48 4.545 6.467-.915 3.958-8.942 17.01-11.982 28.055-3.069 11.045-6.138 16.95-20.775 26.962-14.638 9.981-14.254 22.886-15.73 27.936-1.446 5.021-5.371 4.371-5.371 4.371z" fill="#FAF7F3"/><path d="M176.299 86.821c-2.42-13.968-4.309-32.868.265-44.473 7.998-20.14 11.451-11.901 13.221-13.614 1.771-1.713.354-6.32 8.706-11.074 8.322-4.784 9.621-7.147 15.021-6.763 5.401.413 8.971-5.61 8.971-5.61s.827-1.477 2.745-1.861c1.948-.384 2.567-2.658 2.567-2.658s0 .03.03.059c-.03.531-.118 1.122-.266 1.417-.324.71-1.092 1.182-1.888 1.506-.797.325-1.21.355-1.771.62-.561.266-1.21 1.27-1.505 1.832-.295.56-.944 1.151-1.505 1.83-.59.68-1.771 1.595-2.538 2.097-.767.532-1.712 1.034-3.276 1.152-2.892.207-4.043-.03-6.669 1.181-2.538 1.152-2.833 1.595-4.988 3.042-2.39 1.624-5.902 3.632-7.555 4.843-2.242 1.654-2.656 2.864-3.954 6.526-1.299 3.662-1.8 3.544-3.777 3.249-1.978-.296-2.096-1.122-5.312 1.654-8.559 11.25-7.85 29.885-8.116 36.677-.177 3.721.738 11.813 1.594 18.368z" stroke="#00467F" stroke-width="3" stroke-miterlimit="22.926" stroke-linejoin="round"/><path fill-rule="evenodd" d="M176.299 86.821c-2.42-13.968-4.309-32.868.265-44.473 7.998-20.14 11.451-11.901 13.221-13.614 1.771-1.713.354-6.32 8.706-11.074 8.322-4.784 9.621-7.147 15.021-6.763 5.401.413 8.971-5.61 8.971-5.61s.827-1.477 2.745-1.861c1.948-.384 2.567-2.658 2.567-2.658s0 .03.03.059c-.03.531-.118 1.122-.266 1.417-.324.71-1.092 1.182-1.888 1.506-.797.325-1.21.355-1.771.62-.561.266-1.21 1.27-1.505 1.832-.295.56-.944 1.151-1.505 1.83-.59.68-1.771 1.595-2.538 2.097-.767.532-1.712 1.034-3.276 1.152-2.892.207-4.043-.03-6.669 1.181-2.538 1.152-2.833 1.595-4.988 3.042-2.39 1.624-5.902 3.632-7.555 4.843-2.242 1.654-2.656 2.864-3.954 6.526-1.299 3.662-1.8 3.544-3.777 3.249-1.978-.296-2.096-1.122-5.312 1.654-8.559 11.25-7.85 29.885-8.116 36.677-.177 3.721.738 11.813 1.594 18.368z" fill="#FAF7F3"/><path d="M186.952 99.254s1.535-7.973 3.719-11.783c2.183-3.78 2.715-4.223 4.928-5.02 2.213-.768-.944-1.772 2.213-4.902 3.187-3.101 17.117-14.618 38.837-12.758 21.72 1.86 32.049 11.547 37.007 17.217 4.957 5.67 12.512 19.343 10.624 26.932-1.889 7.59-11.156-14.175-20.776-18.161-9.621-3.987-24.878-6.97-34.085-4.696-4.162 1.034-18.799 6.851-26.56 6.615-7.791-.177-15.405 12.787-15.907 6.556z" stroke="#00467F" stroke-width="3" stroke-miterlimit="22.926" stroke-linejoin="round"/><path fill-rule="evenodd" d="M186.952 99.254s1.535-7.973 3.719-11.783c2.183-3.78 2.715-4.223 4.928-5.02 2.213-.768-.944-1.772 2.213-4.902 3.187-3.101 17.117-14.618 38.837-12.758 21.72 1.86 32.049 11.547 37.007 17.217 4.957 5.67 12.512 19.343 10.624 26.932-1.889 7.59-11.156-14.175-20.776-18.161-9.621-3.987-24.878-6.97-34.085-4.696-4.162 1.034-18.799 6.851-26.56 6.615-7.791-.177-15.405 12.787-15.907 6.556z" fill="#FAF7F3"/><path d="M281.152 109.531c-3.925-3.662-10.713-15.829-17.648-18.693-9.621-3.987-24.878-6.97-34.085-4.696-2.774.68-10.182 3.485-17.117 5.227 4.397-2.48 12.867-7.323 14.933-9.095 2.833-2.422 6.197-1.181 9.886-1.979 3.689-.827 4.84-.148 9.148.768 4.309.915 12.897 1.683 18.061 4.932 5.106 3.189 13.988 12.787 16.822 23.536z" stroke="#00467F" stroke-width="3" stroke-miterlimit="22.926" stroke-linejoin="round"/><path fill-rule="evenodd" d="M281.152 109.531c-3.925-3.662-10.713-15.829-17.648-18.693-9.621-3.987-24.878-6.97-34.085-4.696-2.774.68-10.182 3.485-17.117 5.227 4.397-2.48 12.867-7.323 14.933-9.095 2.833-2.422 6.197-1.181 9.886-1.979 3.689-.827 4.84-.148 9.148.768 4.309.915 12.897 1.683 18.061 4.932 5.106 3.189 13.988 12.787 16.822 23.536z" fill="#FAF7F3"/><path d="M125.186 26.755c-2.243-.236-5.106-.088-6.788 1.624-1.416 2.038-.443 3.633-.265 4.017.177.383 1.416-1.211 3.984-1.506 2.095-.237 5.961.059 8.617 1.83-1.358-1.949-3.04-3.661-5.548-5.965z" stroke="#00467F" stroke-width="3" stroke-miterlimit="22.926" stroke-linejoin="round"/><path fill-rule="evenodd" d="M125.186 26.755c-2.243-.236-5.106-.088-6.788 1.624-1.416 2.038-.443 3.633-.265 4.017.177.383 1.416-1.211 3.984-1.506 2.095-.237 5.961.059 8.617 1.83-1.358-1.949-3.04-3.661-5.548-5.965z" fill="#FAF7F3"/><path d="M178.394 103.506c.856-.265.295-14.322-1.358-26.548-1.888-14.204-6.197-33.99-21.425-46.452-8.174-6.704-20.392-11.37-30.544-3.869 5.283 4.814 6.876 7.117 9.651 14.027 2.803 6.91 3.216 15.238 6.787 22.385 3.571 7.146 6.374 9.834 10.122 12.314 3.748 2.451 17.294 18.014 20.629 24.482 3.334 6.467 5.4 6.526 6.138 3.661z" stroke="#00467F" stroke-width="3" stroke-miterlimit="22.926" stroke-linejoin="round"/><path fill-rule="evenodd" d="M178.394 103.506c.856-.265.295-14.322-1.358-26.548-1.888-14.204-6.197-33.99-21.425-46.452-8.174-6.704-20.392-11.37-30.544-3.869 5.283 4.814 6.876 7.117 9.651 14.027 2.803 6.91 3.216 15.238 6.787 22.385 3.571 7.146 6.374 9.834 10.122 12.314 3.748 2.451 17.294 18.014 20.629 24.482 3.334 6.467 5.4 6.526 6.138 3.661z" fill="#FAF7F3"/><path d="M64.127 113.636s.856 1.919 3.718.325c2.863-1.595 4.338-9.952 11.569-13.644 7.23-3.691 12.542-6.201 19.448-5.67 6.905.532 16.644 1.95 23.107 5.11 6.463 3.159 18.769 5.61 24.376 3.129-3.955.089-6.906-.767-19.094-4.075-3.305-.886-5.194-2.953-8.411-4.46-3.806-1.8-8.794-2.362-10.24-2.893a2.565 2.565 0 00-.443-.148c-.147-.059-.295-.088-.442-.147-.148-.06-.295-.089-.443-.148-.147-.06-.295-.089-.443-.148-.147-.03-.295-.088-.442-.118-.148-.03-.295-.088-.443-.118-.147-.03-.295-.089-.413-.118a1.685 1.685 0 01-.413-.118 9.283 9.283 0 01-.413-.089c-.148-.03-.266-.059-.414-.088-.147-.03-.265-.06-.413-.089-.147-.03-.265-.06-.413-.089-.147-.03-.265-.059-.413-.059-.148-.03-.266-.059-.413-.059-.148-.03-.266-.03-.413-.059-.148-.03-.266-.03-.384-.059-.118-.03-.266-.03-.384-.059-.118-.03-.265-.03-.383-.03s-.266-.029-.384-.029-.265-.03-.384-.03c-.118 0-.265-.03-.383-.03s-.266 0-.384-.029c-.118 0-.236 0-.383-.03h-2.155c-.118 0-.236 0-.354.03-.118 0-.236 0-.354.03-.118 0-.236 0-.354.03-.118 0-.236.029-.354.029s-.236.03-.325.03c-.118 0-.236.03-.325.03-.118 0-.236.029-.324.029-.118 0-.207.03-.325.03-.118 0-.206.029-.324.029-.118 0-.207.03-.325.03-.207.029-.413.058-.65.088-.117.03-.206.03-.324.059-.118.03-.206.03-.295.059-.088.03-.207.03-.295.059-.089.03-.207.03-.295.059-.089.03-.207.03-.295.06-.089.029-.207.029-.295.058-.089.03-.207.03-.295.06-.09.029-.207.029-.296.058-.088.03-.206.03-.295.06l-.295.058-.295.06-.266.058-.265.06-.266.059-.265.059-.266.059-.266.059-.265.059-.266.059-.265.059-.236.06-.237.058-.236.06c-5.135 1.121-13.073 7.943-16.083 13.672-3.128 5.7-5.283 9.775-6.404 8.653z" stroke="#00467F" stroke-width="3" stroke-miterlimit="22.926" stroke-linejoin="round"/><path fill-rule="evenodd" d="M64.127 113.636s.856 1.919 3.718.325c2.863-1.595 4.338-9.952 11.569-13.644 7.23-3.691 12.542-6.201 19.448-5.67 6.905.532 16.644 1.95 23.107 5.11 6.463 3.159 18.769 5.61 24.376 3.129-3.955.089-6.906-.767-19.094-4.075-3.305-.886-5.194-2.953-8.411-4.46-3.806-1.8-8.794-2.362-10.24-2.893a2.565 2.565 0 00-.443-.148c-.147-.059-.295-.088-.442-.147-.148-.06-.295-.089-.443-.148-.147-.06-.295-.089-.443-.148-.147-.03-.295-.088-.442-.118-.148-.03-.295-.088-.443-.118-.147-.03-.295-.089-.413-.118a1.685 1.685 0 01-.413-.118 9.283 9.283 0 01-.413-.089c-.148-.03-.266-.059-.414-.088-.147-.03-.265-.06-.413-.089-.147-.03-.265-.06-.413-.089-.147-.03-.265-.059-.413-.059-.148-.03-.266-.059-.413-.059-.148-.03-.266-.03-.413-.059-.148-.03-.266-.03-.384-.059-.118-.03-.266-.03-.384-.059-.118-.03-.265-.03-.383-.03s-.266-.029-.384-.029-.265-.03-.384-.03c-.118 0-.265-.03-.383-.03s-.266 0-.384-.029c-.118 0-.236 0-.383-.03h-2.155c-.118 0-.236 0-.354.03-.118 0-.236 0-.354.03-.118 0-.236 0-.354.03-.118 0-.236.029-.354.029s-.236.03-.325.03c-.118 0-.236.03-.325.03-.118 0-.236.029-.324.029-.118 0-.207.03-.325.03-.118 0-.206.029-.324.029-.118 0-.207.03-.325.03-.207.029-.413.058-.65.088-.117.03-.206.03-.324.059-.118.03-.206.03-.295.059-.088.03-.207.03-.295.059-.089.03-.207.03-.295.059-.089.03-.207.03-.295.06-.089.029-.207.029-.295.058-.089.03-.207.03-.295.06-.09.029-.207.029-.296.058-.088.03-.206.03-.295.06l-.295.058-.295.06-.266.058-.265.06-.266.059-.265.059-.266.059-.266.059-.265.059-.266.059-.265.059-.236.06-.237.058-.236.06c-5.135 1.121-13.073 7.943-16.083 13.672-3.128 5.7-5.283 9.775-6.404 8.653z" fill="#FAF7F3"/><path d="M176.771 107.257s-6.315-18.191-19.3-28.586-27.947-12.462-34.823-11.458c-6.876 1.004-7.909-.768-13.28 2.57-5.371 3.336-4.634-.798-19.094 8.622-6.404 4.312-9.502 7.501-11.362 9.066-1.888 1.565-11.538 11.074-12.63 16.449-1.092 5.375-1.978 2.746-1.623 6.349.354 3.603-1.624 2.245-.502 3.367 1.121 1.122 3.276-2.953 6.315-8.682 3.04-5.73 10.949-12.551 16.084-13.673 5.135-1.123 12.453-3.367 22.015.177 1.446.532 6.433 1.122 10.24 2.894 3.217 1.506 5.106 3.573 8.411 4.46 21.189 5.728 14.431 4.104 33.672 2.893 4.427-.266 9.296 2.658 11.657 5.788 2.302 3.131 4.102 1.595 4.22-.236z" stroke="#00467F" stroke-width="3" stroke-miterlimit="22.926" stroke-linejoin="round"/><path fill-rule="evenodd" d="M176.771 107.257s-6.315-18.191-19.3-28.586-27.947-12.462-34.823-11.458c-6.876 1.004-7.909-.768-13.28 2.57-5.371 3.336-4.634-.798-19.094 8.622-6.404 4.312-9.502 7.501-11.362 9.066-1.888 1.565-11.538 11.074-12.63 16.449-1.092 5.375-1.978 2.746-1.623 6.349.354 3.603-1.624 2.245-.502 3.367 1.121 1.122 3.276-2.953 6.315-8.682 3.04-5.73 10.949-12.551 16.084-13.673 5.135-1.123 12.453-3.367 22.015.177 1.446.532 6.433 1.122 10.24 2.894 3.217 1.506 5.106 3.573 8.411 4.46 21.189 5.728 14.431 4.104 33.672 2.893 4.427-.266 9.296 2.658 11.657 5.788 2.302 3.131 4.102 1.595 4.22-.236z" fill="#FAF7F3"/><path d="M167.387 105.397c-2.214-1.211-3.955-1.772-5.46-1.949-32.137-3.426-19.241 54.691-14.785 71.583.443 1.654.826 4.311 1.446 6.024 1.299 3.544 3.128 5.877 5.135 7.088 2.981 1.801 3.099 1.004 3.099 1.004s2.508-22.296 3.453-28.911c.944-6.615 7.938-25.367 11.715-29.827 3.748-4.459 6.257-6.939 7.762-13.643 1.505-6.703 1.18-10.129 1.18-10.129-2.036-6.88-6.817 2.421-13.545-1.24z" stroke="#00467F" stroke-width="3" stroke-miterlimit="22.926" stroke-linejoin="round"/><path fill-rule="evenodd" d="M167.387 105.397c-2.214-1.211-3.955-1.772-5.46-1.949-32.137-3.426-19.241 54.691-14.785 71.583.443 1.654.826 4.311 1.446 6.024 1.299 3.544 3.128 5.877 5.135 7.088 2.981 1.801 3.099 1.004 3.099 1.004s2.508-22.296 3.453-28.911c.944-6.615 7.938-25.367 11.715-29.827 3.748-4.459 6.257-6.939 7.762-13.643 1.505-6.703 1.18-10.129 1.18-10.129-2.036-6.88-6.817 2.421-13.545-1.24z" fill="#FAF7F3"/><path d="M156.821 189.058c.177-1.506 2.538-22.444 3.424-28.822.944-6.615 7.938-25.367 11.716-29.827 3.747-4.459 6.256-6.939 7.761-13.643 1.505-6.704 1.18-10.129 1.18-10.129-.029-.148-.088-.266-.118-.414-.383 1.034-1.092 2.333-2.42 4.46-2.538 4.045-2.006 3.957-1.416 6.703.561 2.747 1.328 4.075-2.981 6.084-4.308 2.008-4.102 5.788-5.577 10.04-1.476 4.223-7.201 13.555-10.801 29.059-2.627 11.251-1.564 21.646-.768 26.489z" stroke="#00467F" stroke-width="3" stroke-miterlimit="22.926" stroke-linejoin="round"/><path fill-rule="evenodd" d="M156.821 189.058c.177-1.506 2.538-22.444 3.424-28.822.944-6.615 7.938-25.367 11.716-29.827 3.747-4.459 6.256-6.939 7.761-13.643 1.505-6.704 1.18-10.129 1.18-10.129-.029-.148-.088-.266-.118-.414-.383 1.034-1.092 2.333-2.42 4.46-2.538 4.045-2.006 3.957-1.416 6.703.561 2.747 1.328 4.075-2.981 6.084-4.308 2.008-4.102 5.788-5.577 10.04-1.476 4.223-7.201 13.555-10.801 29.059-2.627 11.251-1.564 21.646-.768 26.489z" fill="#FAF7F3"/><path d="M181.257 104.186s10.594-11.31 16.998-12.256c6.404-.945 12.395-.443 16.261 3.574 3.866 4.016 5.755 6.201 8.086 10.601 2.331 4.4 4.692 5.434 7.997 10.336 1.771 2.628 3.63 5.257 4.457 7.678.708 2.126.472 4.076.767 6.438.679 5.079 2.243 5.699 3.777 10.218 1.535 4.518 2.42 11.428.827 15.208-1.624 3.81 1.21 5.198-3.306 8.239-3.866-5.168-4.721-16.124-6.758-19.461-2.036-3.366-8.44-16.832-25.94-22.679-17.529-5.848-29.54-12.787-23.166-17.896z" stroke="#00467F" stroke-width="3" stroke-miterlimit="22.926" stroke-linejoin="round"/><path fill-rule="evenodd" d="M181.257 104.186s10.594-11.31 16.998-12.256c6.404-.945 12.395-.443 16.261 3.574 3.866 4.016 5.755 6.201 8.086 10.601 2.331 4.4 4.692 5.434 7.997 10.336 1.771 2.628 3.63 5.257 4.457 7.678.708 2.126.472 4.076.767 6.438.679 5.079 2.243 5.699 3.777 10.218 1.535 4.518 2.42 11.428.827 15.208-1.624 3.81 1.21 5.198-3.306 8.239-3.866-5.168-4.721-16.124-6.758-19.461-2.036-3.366-8.44-16.832-25.94-22.679-17.529-5.848-29.54-12.787-23.166-17.896z" fill="#FAF7F3"/><path d="M235.173 160.738c-2.331-5.582-3.187-13.23-4.84-15.947-2.036-3.367-8.44-16.833-25.94-22.68-15.198-5.079-26.235-10.985-24.73-15.769 3.6 1.624 8.499 3.632 11.952 4.282 6.079 1.122 11.007 2.421 17.913 6.526 6.905 4.105 13.309 7.914 17.766 13.643 4.22 5.345 10.889 16.803 7.879 29.945z" stroke="#00467F" stroke-width="3" stroke-miterlimit="22.926" stroke-linejoin="round"/><path fill-rule="evenodd" d="M235.173 160.738c-2.331-5.582-3.187-13.23-4.84-15.947-2.036-3.367-8.44-16.833-25.94-22.68-15.198-5.079-26.235-10.985-24.73-15.769 3.6 1.624 8.499 3.632 11.952 4.282 6.079 1.122 11.007 2.421 17.913 6.526 6.905 4.105 13.309 7.914 17.766 13.643 4.22 5.345 10.889 16.803 7.879 29.945z" fill="#FAF7F3"/><path d="M175.797 91.251c-.177.207-.797 1.27-.442 5.581.383 5.05.885 7.915.885 7.915s1.889.266 2.774-.325c0 0 .029-4.341-.295-8.15-.207-2.245-.679-4.844-1.063-5.257-.56.413-1.298.502-1.859.236z" stroke="#00467F" stroke-width="3" stroke-miterlimit="22.926" stroke-linejoin="round"/><path fill-rule="evenodd" d="M175.797 91.251c-.177.207-.797 1.27-.442 5.581.383 5.05.885 7.915.885 7.915s1.889.266 2.774-.325c0 0 .029-4.341-.295-8.15-.207-2.245-.679-4.844-1.063-5.257-.56.413-1.298.502-1.859.236z" fill="#FAF7F3"/><path d="M175.089 89.154c-.443.237-1.033.945-.944 2.717v-.03c.118-1.033.59-1.653.914-1.742-.088-.413-.059-.709.03-.945z" stroke="#00467F" stroke-width="3" stroke-miterlimit="22.926" stroke-linejoin="round"/><path fill-rule="evenodd" d="M175.089 89.154c-.443.237-1.033.945-.944 2.717v-.03c.118-1.033.59-1.653.914-1.742-.088-.413-.059-.709.03-.945z" fill="#FAF7F3"/><path d="M175.03 90.07c-.325.088-.797.709-.915 1.742-.177 1.536-.118 7.944.944 12.049.148.502.649.561 1.151.768-.088-.502-.531-3.278-.885-7.826-.325-4.312.265-5.375.442-5.581a1.211 1.211 0 01-.59-.62c-.059-.178-.118-.355-.147-.532zm1.446 14.677h.029-.029z" stroke="#00467F" stroke-width="3" stroke-miterlimit="22.926" stroke-linejoin="round"/><path fill-rule="evenodd" d="M175.03 90.07c-.325.088-.797.709-.915 1.742-.177 1.536-.118 7.944.944 12.049.148.502.649.561 1.151.768-.088-.502-.531-3.278-.885-7.826-.325-4.312.265-5.375.442-5.581a1.211 1.211 0 01-.59-.62c-.059-.178-.118-.355-.147-.532zm1.446 14.677h.029-.029z" fill="#FAF7F3"/><path d="M178.217 88.83c.236.118.531.383.767.915.62 1.358.62 3.071.62 3.071-.177-.856-.384-1.654-.59-2.215-.177-.502-.532-.885-.738-1.004 0-.118 0-.206-.03-.324 0-.178 0-.325-.029-.443z" stroke="#00467F" stroke-width="3" stroke-miterlimit="22.926" stroke-linejoin="round"/><path fill-rule="evenodd" d="M178.217 88.83c.236.118.531.383.767.915.62 1.358.62 3.071.62 3.071-.177-.856-.384-1.654-.59-2.215-.177-.502-.532-.885-.738-1.004 0-.118 0-.206-.03-.324 0-.178 0-.325-.029-.443z" fill="#FAF7F3"/><path d="M178.306 89.597c.236.148.56.502.737 1.005.65 1.89 1.269 5.817 1.358 8.357.118 3.603-.295 4.872-.295 4.872l-1.092.591s.029-4.341-.295-8.15c-.207-2.245-.679-4.844-1.063-5.257.354-.295.65-.768.65-1.418z" stroke="#00467F" stroke-width="3" stroke-miterlimit="22.926" stroke-linejoin="round"/><path fill-rule="evenodd" d="M178.306 89.597c.236.148.56.502.737 1.005.65 1.89 1.269 5.817 1.358 8.357.118 3.603-.295 4.872-.295 4.872l-1.092.591s.029-4.341-.295-8.15c-.207-2.245-.679-4.844-1.063-5.257.354-.295.65-.768.65-1.418z" fill="#FAF7F3"/><path d="M175.295 88.741s-.62.65-.118 1.86c.62 1.448 3.364.916 3.069-1.358-.236-1.801-.561-2.008-.797-4.695-.147-1.566.502-14.855 1.86-27.612.973-9.096 2.537-17.925 3.452-22 1.092-4.844 1.83-7.59 2.302-9.126.915-3.012 1.83-3.041 2.45-4.075.383-.62.56-1.388.501-2.126-.177-1.743-1.77-3.337-3.866-3.072-1.77.237-2.538 1.359-2.744 2.806-.177 1.329.059 3.042.206 4.548.118 1.506-2.597 18.9-3.128 22-.265 1.595-1.239 7.974-1.8 14.234-.797 9.539-.708 19.136-1.387 28.616z" stroke="#00467F" stroke-width="3" stroke-miterlimit="22.926" stroke-linejoin="round"/><path fill-rule="evenodd" d="M175.295 88.741s-.62.65-.118 1.86c.62 1.448 3.364.916 3.069-1.358-.236-1.801-.561-2.008-.797-4.695-.147-1.566.502-14.855 1.86-27.612.973-9.096 2.537-17.925 3.452-22 1.092-4.844 1.83-7.59 2.302-9.126.915-3.012 1.83-3.041 2.45-4.075.383-.62.56-1.388.501-2.126-.177-1.743-1.77-3.337-3.866-3.072-1.77.237-2.538 1.359-2.744 2.806-.177 1.329.059 3.042.206 4.548.118 1.506-2.597 18.9-3.128 22-.265 1.595-1.239 7.974-1.8 14.234-.797 9.539-.708 19.136-1.387 28.616z" fill="#FAF7F3"/><path d="M178.925 100.347s-2.449-24.777 1.505-37.24c3.955-12.432 5.873-13.879 7.643-16.389 1.771-2.48 2.184-3.248 2.184-3.248-.177-.207-.265-.473-.295-.768-.797.974-3.571 4.46-4.928 6.526-1.564 2.422-4.486 6.172-6.847 17.335-2.361 11.163-1.269 20.583-1.151 22.266.118 1.684.945 11.695.945 11.695s.619.561.944-.177z" stroke="#00467F" stroke-width="3" stroke-miterlimit="22.926" stroke-linejoin="round"/><path fill-rule="evenodd" d="M178.925 100.347s-2.449-24.777 1.505-37.24c3.955-12.432 5.873-13.879 7.643-16.389 1.771-2.48 2.184-3.248 2.184-3.248-.177-.207-.265-.473-.295-.768-.797.974-3.571 4.46-4.928 6.526-1.564 2.422-4.486 6.172-6.847 17.335-2.361 11.163-1.269 20.583-1.151 22.266.118 1.684.945 11.695.945 11.695s.619.561.944-.177z" fill="#FAF7F3"/><path d="M195.186 30.948s-1.239 3.515-2.361 5.789c-1.121 2.273-3.718 5.433-2.538 6.792 1.181 1.358 2.981-.68 4.545-2.776 1.564-2.097 2.567-5.02 3.04-7.413.413-2.45-.768-4.931-2.686-2.392z" stroke="#00467F" stroke-width="3" stroke-miterlimit="22.926" stroke-linejoin="round"/><path fill-rule="evenodd" d="M195.186 30.948s-1.239 3.515-2.361 5.789c-1.121 2.273-3.718 5.433-2.538 6.792 1.181 1.358 2.981-.68 4.545-2.776 1.564-2.097 2.567-5.02 3.04-7.413.413-2.45-.768-4.931-2.686-2.392z" fill="#FAF7F3"/><path d="M162.753 40.251c.295 1.477.59 2.953.885 4.341 1.063 5.05 2.391 10.66 4.043 16.42 3.66 12.963 6.375 25.898 9.65 39.01 0 0-1.062 1.86-2.006.502-.945-1.359-7.968-33.813-7.968-33.813s-4.516-17.246-5.224-24.452c-.059-.561-.118-1.122-.177-1.654.266-.03.531-.147.797-.354z" stroke="#00467F" stroke-width="3" stroke-miterlimit="22.926" stroke-linejoin="round"/><path fill-rule="evenodd" d="M162.753 40.251c.295 1.477.59 2.953.885 4.341 1.063 5.05 2.391 10.66 4.043 16.42 3.66 12.963 6.375 25.898 9.65 39.01 0 0-1.062 1.86-2.006.502-.945-1.359-7.968-33.813-7.968-33.813s-4.516-17.246-5.224-24.452c-.059-.561-.118-1.122-.177-1.654.266-.03.531-.147.797-.354z" fill="#FAF7F3"/><path d="M163.225 35.792s-.59-8.033-1.121-10.189c-.531-2.155-2.951-3.366-3.925-.65-.944 2.688.738 7.325.915 9.54.177 2.214.177 5.728 1.505 6.024 1.328.295 3.541.531 2.626-4.725z" stroke="#00467F" stroke-width="3" stroke-miterlimit="22.926" stroke-linejoin="round"/><path fill-rule="evenodd" d="M163.225 35.792s-.59-8.033-1.121-10.189c-.531-2.155-2.951-3.366-3.925-.65-.944 2.688.738 7.325.915 9.54.177 2.214.177 5.728 1.505 6.024 1.328.295 3.541.531 2.626-4.725z" fill="#FAF7F3"/><path d="M175.531 102.739s-6.256-27.76-9.148-33.99c-2.892-6.232-5.991-10.78-10.093-13.585a358.026 358.026 0 01-4.249-2.924c.029.266.088.502.118.768.324.266.708.59 1.21.945 3.747 2.865 6.669 6.113 8.174 8.446 5.519 8.505 6.463 19.668 9.444 28.94.649 2.009 3.246 11.665 3.246 11.665s1.269.798 1.298-.265z" stroke="#00467F" stroke-width="3" stroke-miterlimit="22.926" stroke-linejoin="round"/><path fill-rule="evenodd" d="M175.531 102.739s-6.256-27.76-9.148-33.99c-2.892-6.232-5.991-10.78-10.093-13.585a358.026 358.026 0 01-4.249-2.924c.029.266.088.502.118.768.324.266.708.59 1.21.945 3.747 2.865 6.669 6.113 8.174 8.446 5.519 8.505 6.463 19.668 9.444 28.94.649 2.009 3.246 11.665 3.246 11.665s1.269.798 1.298-.265z" fill="#FAF7F3"/><path d="M151.657 49.76s.206-4.282-1.181-5.109c-1.387-.856-2.597.295-2.685 2.983-.089 2.569 1.594 9.538 3.984 7.441.915-.826.059-3.337-.118-5.315z" stroke="#00467F" stroke-width="3" stroke-miterlimit="22.926" stroke-linejoin="round"/><path fill-rule="evenodd" d="M151.657 49.76s.206-4.282-1.181-5.109c-1.387-.856-2.597.295-2.685 2.983-.089 2.569 1.594 9.538 3.984 7.441.915-.826.059-3.337-.118-5.315z" fill="#FAF7F3"/><path d="M179.545 100.967s-1.712-15.917 1.21-23.92c2.922-8.003 5.312-9.391 9.355-14.146 3.01-3.543 5.784-7.825 7.024-9.804-.177-.118-.236-.325-.266-.561-.443.59-.885 1.181-1.298 1.683-1.122 1.388-4.604 6.91-7.054 8.889-2.449 1.95-6.285 6.763-7.643 9.509-1.357 2.746-3.246 9.952-3.276 16.508-.029 6.526.945 12.728.945 12.728s1.151.797 1.003-.886z" stroke="#00467F" stroke-width="3" stroke-miterlimit="22.926" stroke-linejoin="round"/><path fill-rule="evenodd" d="M179.545 100.967s-1.712-15.917 1.21-23.92c2.922-8.003 5.312-9.391 9.355-14.146 3.01-3.543 5.784-7.825 7.024-9.804-.177-.118-.236-.325-.266-.561-.443.59-.885 1.181-1.298 1.683-1.122 1.388-4.604 6.91-7.054 8.889-2.449 1.95-6.285 6.763-7.643 9.509-1.357 2.746-3.246 9.952-3.276 16.508-.029 6.526.945 12.728.945 12.728s1.151.797 1.003-.886z" fill="#FAF7F3"/><path d="M201.147 40.605s-1.594.384-1.623 2.304c-.03 1.92.088 4.193-.738 4.99-.827.798-1.358 2.038-1.682 3.456-.354 1.387-.532 2.096 1.416 1.978 1.977-.118 3.187-3.81 3.837-5.404.708-1.624 1.475-7.915-1.21-7.324z" stroke="#00467F" stroke-width="3" stroke-miterlimit="22.926" stroke-linejoin="round"/><path fill-rule="evenodd" d="M201.147 40.605s-1.594.384-1.623 2.304c-.03 1.92.088 4.193-.738 4.99-.827.798-1.358 2.038-1.682 3.456-.354 1.387-.532 2.096 1.416 1.978 1.977-.118 3.187-3.81 3.837-5.404.708-1.624 1.475-7.915-1.21-7.324z" fill="#FAF7F3"/><path d="M179.692 102.886c.591-5.286 1.24-9.686 2.037-13.88.796-4.193 1.18-8.327 2.242-12.875.355-1.535 2.656-8.593 3.483-9.361.147-.118.265-.266.383-.384-.413-.236-.619-.532-.708-.856-7.082 12.993-5.223 24.067-8.765 37.061-.029.709 1.004.856 1.328.295z" stroke="#00467F" stroke-width="3" stroke-miterlimit="22.926" stroke-linejoin="round"/><path fill-rule="evenodd" d="M179.692 102.886c.591-5.286 1.24-9.686 2.037-13.88.796-4.193 1.18-8.327 2.242-12.875.355-1.535 2.656-8.593 3.483-9.361.147-.118.265-.266.383-.384-.413-.236-.619-.532-.708-.856-7.082 12.993-5.223 24.067-8.765 37.061-.029.709 1.004.856 1.328.295z" fill="#FAF7F3"/><path d="M192.353 55.489s-4.368 6.674-4.87 8.21c-.531 1.535-.826 2.45 1.181 3.07 2.007.621 2.508-2.007 3.807-4.015 1.298-2.008 2.213-3.898 2.656-5.286.472-1.418-.974-3.987-2.774-1.979z" stroke="#00467F" stroke-width="3" stroke-miterlimit="22.926" stroke-linejoin="round"/><path fill-rule="evenodd" d="M192.353 55.489s-4.368 6.674-4.87 8.21c-.531 1.535-.826 2.45 1.181 3.07 2.007.621 2.508-2.007 3.807-4.015 1.298-2.008 2.213-3.898 2.656-5.286.472-1.418-.974-3.987-2.774-1.979z" fill="#FAF7F3"/><path d="M175.915 102.414s-2.508-11.813-5.666-20.258c-1.83-4.903-2.833-6.172-5.105-8.387-.502-.502-1.269-1.004-1.948-1.625-.089.444-.177.827-.266 1.182.531.325 1.269.886 2.007 1.772 1.357 1.624 4.456 7.028 6.02 13.26 1.564 6.26 3.246 14.587 3.246 14.587s1.594 1.152 1.712-.531z" stroke="#00467F" stroke-width="3" stroke-miterlimit="22.926" stroke-linejoin="round"/><path fill-rule="evenodd" d="M175.915 102.414s-2.508-11.813-5.666-20.258c-1.83-4.903-2.833-6.172-5.105-8.387-.502-.502-1.269-1.004-1.948-1.625-.089.444-.177.827-.266 1.182.531.325 1.269.886 2.007 1.772 1.357 1.624 4.456 7.028 6.02 13.26 1.564 6.26 3.246 14.587 3.246 14.587s1.594 1.152 1.712-.531z" fill="#FAF7F3"/><path d="M162.517 74.537s1.003-2.304.856-5.286c-.148-2.983.708-4.903-2.007-5.405-2.715-.502-1.151 4.135-1.446 5.789-.295 1.653-.797 2.893 0 4.37.797 1.506 2.42 1.359 2.597.532z" stroke="#00467F" stroke-width="3" stroke-miterlimit="22.926" stroke-linejoin="round"/><path fill-rule="evenodd" d="M162.517 74.537s1.003-2.304.856-5.286c-.148-2.983.708-4.903-2.007-5.405-2.715-.502-1.151 4.135-1.446 5.789-.295 1.653-.797 2.893 0 4.37.797 1.506 2.42 1.359 2.597.532z" fill="#FAF7F3"/><path d="M175.295 103.329s-10.535-18.102-21.897-23.388c-11.332-5.286-1.623.354.118 1.24 5.223 2.628 11.598 9.834 15.523 14.854 2.626 3.367 4.928 6.91 4.987 7.737.089 1.359 1.505 0 1.269-.443z" stroke="#00467F" stroke-width="3" stroke-miterlimit="22.926" stroke-linejoin="round"/><path fill-rule="evenodd" d="M175.295 103.329s-10.535-18.102-21.897-23.388c-11.332-5.286-1.623.354.118 1.24 5.223 2.628 11.598 9.834 15.523 14.854 2.626 3.367 4.928 6.91 4.987 7.737.089 1.359 1.505 0 1.269-.443z" fill="#FAF7F3"/><path d="M146.699 79.32s-3.807-.738-4.25-2.392c-.442-1.683.827-2.746 3.217-2.244 2.273.473 8.057 3.81 5.696 5.936-.915.797-2.951-.709-4.663-1.3z" stroke="#00467F" stroke-width="3" stroke-miterlimit="22.926" stroke-linejoin="round"/><path fill-rule="evenodd" d="M146.699 79.32s-3.807-.738-4.25-2.392c-.442-1.683.827-2.746 3.217-2.244 2.273.473 8.057 3.81 5.696 5.936-.915.797-2.951-.709-4.663-1.3z" fill="#FAF7F3"/><path d="M97.092 209.08s-23.698-13.23-44.474-.177c-20.746 13.023-28.035 30.86-31.488 49.258-3.453 18.398 6.581 34.699 9.178 35.85 2.597 1.152 5.194-.945 1.387-5.551-3.807-4.607-1.387-27.701 6.227-40.812 7.614-13.142 20.422-29.502 51.556-30.86 3.098-.178 15.021-1.123 7.614-7.708z" stroke="#00467F" stroke-width="3" stroke-miterlimit="22.926" stroke-linejoin="round"/><path fill-rule="evenodd" d="M97.092 209.08s-23.698-13.23-44.474-.177c-20.746 13.023-28.035 30.86-31.488 49.258-3.453 18.398 6.581 34.699 9.178 35.85 2.597 1.152 5.194-.945 1.387-5.551-3.807-4.607-1.387-27.701 6.227-40.812 7.614-13.142 20.422-29.502 51.556-30.86 3.098-.178 15.021-1.123 7.614-7.708z" fill="#FAF7F3"/><path d="M31.813 294.277c1.888-.088 2.95-2.185-.118-5.876-3.807-4.607-1.387-27.7 6.226-40.812 7.614-13.142 20.422-29.502 51.556-30.86 2.42-.118 10.388-.709 9.975-4.194-8.617.355-28.478 1.861-39.25 8.417-14.017 8.534-21.012 16.951-27.327 30.003-6.315 13.053-6.404 26.844-5.371 31.333.885 3.868.885 6.703 4.309 11.989z" stroke="#00467F" stroke-width="3" stroke-miterlimit="22.926" stroke-linejoin="round"/><path fill-rule="evenodd" d="M31.813 294.277c1.888-.088 2.95-2.185-.118-5.876-3.807-4.607-1.387-27.7 6.226-40.812 7.614-13.142 20.422-29.502 51.556-30.86 2.42-.118 10.388-.709 9.975-4.194-8.617.355-28.478 1.861-39.25 8.417-14.017 8.534-21.012 16.951-27.327 30.003-6.315 13.053-6.404 26.844-5.371 31.333.885 3.868.885 6.703 4.309 11.989z" fill="#FAF7F3"/><path d="M98.921 202.672s-9.71-19.609-20.864-26.608c-11.156-6.998-24.908-5.788-30.279-5.167-15.227 1.712-22.694 6.644-29.068 22.709 3.01 0 5.637.738 8.352.738 4.84 0 10.89-.561 17.913 1.329 6.994 1.92 16.083 1.152 22.044.473 5.962-.68 19.625 3.927 23.904 9.243 4.162 2.687 11.274-.384 7.998-2.717z" stroke="#00467F" stroke-width="3" stroke-miterlimit="22.926" stroke-linejoin="round"/><path fill-rule="evenodd" d="M98.921 202.672s-9.71-19.609-20.864-26.608c-11.156-6.998-24.908-5.788-30.279-5.167-15.227 1.712-22.694 6.644-29.068 22.709 3.01 0 5.637.738 8.352.738 4.84 0 10.89-.561 17.913 1.329 6.994 1.92 16.083 1.152 22.044.473 5.962-.68 19.625 3.927 23.904 9.243 4.162 2.687 11.274-.384 7.998-2.717z" fill="#FAF7F3"/><path d="M.915 212.476s3.069-13.377 9.916-16.921c6.846-3.544 11.42-1.24 16.26-1.24 4.84 0 10.89-.561 17.913 1.329 6.994 1.919 16.084 1.151 22.045.472 5.961-.679 19.625 3.928 23.904 9.243-5.637-2.008-10.683-6.792-23.993-6.319-13.309.472-13.309 1.978-23.697.443-7.053-1.034-16.91-2.717-23.904 1.181-3.305 1.831-5.518 5.138-7.319 9.952-1.032 2.776-2.685 4.489-3.806 5.936-1.89 2.362-3.276 3.366-4.81 3.071-2.568-.473-2.893-3.692-2.51-7.147z" stroke="#00467F" stroke-width="3" stroke-miterlimit="22.926" stroke-linejoin="round"/><path fill-rule="evenodd" d="M.915 212.476s3.069-13.377 9.916-16.921c6.846-3.544 11.42-1.24 16.26-1.24 4.84 0 10.89-.561 17.913 1.329 6.994 1.919 16.084 1.151 22.045.472 5.961-.679 19.625 3.928 23.904 9.243-5.637-2.008-10.683-6.792-23.993-6.319-13.309.472-13.309 1.978-23.697.443-7.053-1.034-16.91-2.717-23.904 1.181-3.305 1.831-5.518 5.138-7.319 9.952-1.032 2.776-2.685 4.489-3.806 5.936-1.89 2.362-3.276 3.366-4.81 3.071-2.568-.473-2.893-3.692-2.51-7.147z" fill="#FAF7F3"/><path d="M24.995 198.685c-2.006.384-3.895 1.004-5.636 1.979-3.305 1.831-5.519 5.138-7.319 9.952-1.033 2.776-2.685 4.489-3.807 5.936-1.888 2.362-3.275 3.366-4.81 3.071l-.354-.089c1.092-1.683 2.508-4.311 3.482-7.885 1.83-6.615 5.519-13.318 13.575-13.318 1.594-.03 3.246.118 4.87.354z" stroke="#00467F" stroke-width="3" stroke-miterlimit="22.926" stroke-linejoin="round"/><path fill-rule="evenodd" d="M24.995 198.685c-2.006.384-3.895 1.004-5.636 1.979-3.305 1.831-5.519 5.138-7.319 9.952-1.033 2.776-2.685 4.489-3.807 5.936-1.888 2.362-3.275 3.366-4.81 3.071l-.354-.089c1.092-1.683 2.508-4.311 3.482-7.885 1.83-6.615 5.519-13.318 13.575-13.318 1.594-.03 3.246.118 4.87.354z" fill="#FAF7F3"/><path d="M72.214 136.581v.03-.03zm-.03.443c-.177 2.717-1.033 17.453.354 24.659 1.505 7.944 2.243 10.926 9.355 20.022 7.083 9.095 11.657 16.655 13.605 19.579 1.357 2.067 3.069 3.78 4.072 3.042-2.036.295-3.04-3.869-3.777-5.227-1.387-2.629-3.719-6.438-7.614-11.37-8.322-10.483-13.31-20.022-14.195-28.852-.708-7.353-2.066-16.921-1.8-21.853z" stroke="#00467F" stroke-width="3" stroke-miterlimit="22.926" stroke-linejoin="round"/><path fill-rule="evenodd" d="M72.214 136.581v.03-.03zm-.03.443c-.177 2.717-1.033 17.453.354 24.659 1.505 7.944 2.243 10.926 9.355 20.022 7.083 9.095 11.657 16.655 13.605 19.579 1.357 2.067 3.069 3.78 4.072 3.042-2.036.295-3.04-3.869-3.777-5.227-1.387-2.629-3.719-6.438-7.614-11.37-8.322-10.483-13.31-20.022-14.195-28.852-.708-7.353-2.066-16.921-1.8-21.853z" fill="#FAF7F3"/><path d="M101.872 199.807s2.922-27.404 2.154-35.466c-.767-8.062-5.105-29.236-10.21-33.075-5.106-3.839-5.135 3.662-5.725 4.961-.62 1.299-6.404 3.367-8.53 1.683-2.124-1.683-5.783-6.615-6.993-3.248-1.21 3.366.56 15.386 1.416 24.186.856 8.83 5.873 18.368 14.195 28.852 3.895 4.931 6.256 8.711 7.614 11.369.856 1.624 2.125 7.147 4.987 4.578.62-.562 1.092-1.684 1.092-3.84z" stroke="#00467F" stroke-width="3" stroke-miterlimit="22.926" stroke-linejoin="round"/><path fill-rule="evenodd" d="M101.872 199.807s2.922-27.404 2.154-35.466c-.767-8.062-5.105-29.236-10.21-33.075-5.106-3.839-5.135 3.662-5.725 4.961-.62 1.299-6.404 3.367-8.53 1.683-2.124-1.683-5.783-6.615-6.993-3.248-1.21 3.366.56 15.386 1.416 24.186.856 8.83 5.873 18.368 14.195 28.852 3.895 4.931 6.256 8.711 7.614 11.369.856 1.624 2.125 7.147 4.987 4.578.62-.562 1.092-1.684 1.092-3.84z" fill="#FAF7F3"/><path d="M100.78 203.646s-9.237-27.995 4.072-50.025c13.31-22.03 25.616-31.037 45.506-32.78 19.891-1.713 34.764 3.839 30.279 11.488-4.486 7.678-8.381-3.367-22.134 3.455-34.173 16.98-36.21 24.393-49.814 67.833-2.391 7.53-6.935 4.991-7.909.029z" stroke="#00467F" stroke-width="3" stroke-miterlimit="22.926" stroke-linejoin="round"/><path fill-rule="evenodd" d="M100.78 203.646s-9.237-27.995 4.072-50.025c13.31-22.03 25.616-31.037 45.506-32.78 19.891-1.713 34.764 3.839 30.279 11.488-4.486 7.678-8.381-3.367-22.134 3.455-34.173 16.98-36.21 24.393-49.814 67.833-2.391 7.53-6.935 4.991-7.909.029z" fill="#FAF7F3"/><path d="M179.693 133.658c-4.161 4.872-8.411-4.253-21.219 2.126-34.085 16.921-36.21 24.363-49.726 67.508.974-6.438 4.515-22.562 7.083-30.033 3.187-9.391 8.823-15.031 8.823-15.031s-2.419-1.566 1.83-2.983c2.154-2.126 4.25-11.015 10.978-13.407 6.758-2.392.354-2.392 14.608-6.231 14.284-3.839 8.204-3.81 13.546-4.371 5.371-.561 3.364.827 5.784.827s1.741-.856 4.25.768c1.269.768 2.685.974 4.043.827z" stroke="#00467F" stroke-width="3" stroke-miterlimit="22.926" stroke-linejoin="round"/><path fill-rule="evenodd" d="M179.693 133.658c-4.161 4.872-8.411-4.253-21.219 2.126-34.085 16.921-36.21 24.363-49.726 67.508.974-6.438 4.515-22.562 7.083-30.033 3.187-9.391 8.823-15.031 8.823-15.031s-2.419-1.566 1.83-2.983c2.154-2.126 4.25-11.015 10.978-13.407 6.758-2.392.354-2.392 14.608-6.231 14.284-3.839 8.204-3.81 13.546-4.371 5.371-.561 3.364.827 5.784.827s1.741-.856 4.25.768c1.269.768 2.685.974 4.043.827z" fill="#FAF7F3"/><path d="M103.259 212.978s1.151-29.856 15.434-35.614c14.254-5.759 12.424-1.211 17.058-4.607 4.662-3.396 3.806-.886 8.971-1.418 5.164-.531 17.47 1.566 27.357 9.539 9.886 7.973 23.254 27.375 23.254 27.375s-12.394.591-29.452-6.851c-17.057-7.471-38.128-9.007-45.653-4.754-7.555 4.252-18.327 20.878-16.969 16.33z" stroke="#00467F" stroke-width="3" stroke-miterlimit="22.926" stroke-linejoin="round"/><path fill-rule="evenodd" d="M103.259 212.978s1.151-29.856 15.434-35.614c14.254-5.759 12.424-1.211 17.058-4.607 4.662-3.396 3.806-.886 8.971-1.418 5.164-.531 17.47 1.566 27.357 9.539 9.886 7.973 23.254 27.375 23.254 27.375s-12.394.591-29.452-6.851c-17.057-7.471-38.128-9.007-45.653-4.754-7.555 4.252-18.327 20.878-16.969 16.33z" fill="#FAF7F3"/><path d="M103.259 212.978c3.659-6.615 11.863-19.608 21.1-23.182 12.513-4.843 14.402-3.868 18.946-1.978 4.545 1.89 2.125-1.359 6.611-.945 4.486.413 10.063 5.788 15.05 8.475 5.017 2.687 4.663-.118 13.074 3.957 4.663 2.274 11.185 6.054 16.083 9.007-3.482-.059-14.312-.768-28.242-6.851-17.057-7.471-38.128-9.007-45.653-4.754-7.555 4.193-18.327 20.819-16.969 16.271z" stroke="#00467F" stroke-width="3" stroke-miterlimit="22.926" stroke-linejoin="round"/><path fill-rule="evenodd" d="M103.259 212.978c3.659-6.615 11.863-19.608 21.1-23.182 12.513-4.843 14.402-3.868 18.946-1.978 4.545 1.89 2.125-1.359 6.611-.945 4.486.413 10.063 5.788 15.05 8.475 5.017 2.687 4.663-.118 13.074 3.957 4.663 2.274 11.185 6.054 16.083 9.007-3.482-.059-14.312-.768-28.242-6.851-17.057-7.471-38.128-9.007-45.653-4.754-7.555 4.193-18.327 20.819-16.969 16.271z" fill="#FAF7F3"/><path d="M96.56 189.678s-6.02-14.913-6.315-32.307c-.206-13.348 4.28-37.209 7.053-41.432 1.653-2.481 3.365-5.257-.088-6.91-3.453-1.625-4.751 1.447-4.486 5.079.266 3.632-1.298 11.222-1.83 13.23-.53 2.008-2.597 15.917-2.862 25.485-.089 3.78 0 9.775.826 15.504 1.27 8.83 3.689 17.689 5.135 21.853.207.532 2.951.975 2.568-.502z" stroke="#00467F" stroke-width="3" stroke-miterlimit="22.926" stroke-linejoin="round"/><path fill-rule="evenodd" d="M96.56 189.678s-6.02-14.913-6.315-32.307c-.206-13.348 4.28-37.209 7.053-41.432 1.653-2.481 3.365-5.257-.088-6.91-3.453-1.625-4.751 1.447-4.486 5.079.266 3.632-1.298 11.222-1.83 13.23-.53 2.008-2.597 15.917-2.862 25.485-.089 3.78 0 9.775.826 15.504 1.27 8.83 3.689 17.689 5.135 21.853.207.532 2.951.975 2.568-.502z" fill="#FAF7F3"/><path d="M97.888 115.024c1.387-2.245 2.391-4.578-.678-5.995-3.276-1.536-4.604 1.122-4.515 4.489.973.088 1.8-.798 2.656-1.329.147-.089 1.003-.591 1.593.886.266.62.354 1.358.944 1.949z" stroke="#00467F" stroke-width="3" stroke-miterlimit="22.926" stroke-linejoin="round"/><path fill-rule="evenodd" d="M97.888 115.024c1.387-2.245 2.391-4.578-.678-5.995-3.276-1.536-4.604 1.122-4.515 4.489.973.088 1.8-.798 2.656-1.329.147-.089 1.003-.591 1.593.886.266.62.354 1.358.944 1.949z" fill="#FAF7F3"/><path d="M96.973 202.701s-19.536-17.334-39.544-24.156c-5.49-1.861-9.238-3.101-11.775-3.869-3.719-.856-1.683.768-1.683.768 1.594.768 3.807 1.683 6.7 2.628 7.082 2.304 18.001 7.177 22.664 10.248 4.663 3.071 17.293 11.694 21.72 15.415 1.77 1.742 2.715-.856 1.918-1.034z" stroke="#00467F" stroke-width="3" stroke-miterlimit="22.926" stroke-linejoin="round"/><path fill-rule="evenodd" d="M96.973 202.701s-19.536-17.334-39.544-24.156c-5.49-1.861-9.238-3.101-11.775-3.869-3.719-.856-1.683.768-1.683.768 1.594.768 3.807 1.683 6.7 2.628 7.082 2.304 18.001 7.177 22.664 10.248 4.663 3.071 17.293 11.694 21.72 15.415 1.77 1.742 2.715-.856 1.918-1.034z" fill="#FAF7F3"/><path d="M45.418 174.942c-1.033-1.535-2.332-3.396-2.951-4.046-1.092-1.181-3.306-3.632-4.84-2.716-1.535.915-.679 3.278-.295 3.809.413.532 2.39 1.979 3.6 3.071.826.768 3.04 2.599 4.574 2.924 2.833.591.443-2.274-.088-3.042z" stroke="#00467F" stroke-width="3" stroke-miterlimit="22.926" stroke-linejoin="round"/><path fill-rule="evenodd" d="M45.418 174.942c-1.033-1.535-2.332-3.396-2.951-4.046-1.092-1.181-3.306-3.632-4.84-2.716-1.535.915-.679 3.278-.295 3.809.413.532 2.39 1.979 3.6 3.071.826.768 3.04 2.599 4.574 2.924 2.833.591.443-2.274-.088-3.042z" fill="#FAF7F3"/><path d="M50.995 149.841s12.72 14.765 17.028 19.077c4.339 4.311 19.212 17.157 23.432 21.085 4.25 3.928 9.68 13.141 9.68 13.141s-.561 1.713-2.686.384c-2.125-1.329-6.374-10.542-14.608-17.246a171.354 171.354 0 01-10.181-9.007c-7.85-7.471-15.464-15.947-20.923-23.418-1.623-2.244-2.715-3.987-2.715-3.987s-.06-1.624.974-.029z" stroke="#00467F" stroke-width="3" stroke-miterlimit="22.926" stroke-linejoin="round"/><path fill-rule="evenodd" d="M50.995 149.841s12.72 14.765 17.028 19.077c4.339 4.311 19.212 17.157 23.432 21.085 4.25 3.928 9.68 13.141 9.68 13.141s-.561 1.713-2.686.384c-2.125-1.329-6.374-10.542-14.608-17.246a171.354 171.354 0 01-10.181-9.007c-7.85-7.471-15.464-15.947-20.923-23.418-1.623-2.244-2.715-3.987-2.715-3.987s-.06-1.624.974-.029z" fill="#FAF7F3"/><path d="M53.12 149.723c-3.541-2.363-4.899-5.021-4.662-6.999.206-1.979-3.512-.945-2.893 2.982.62 3.928 6.375 8.505 7.968 9.155 1.89.738 4.043-2.185-.413-5.138z" stroke="#00467F" stroke-width="3" stroke-miterlimit="22.926" stroke-linejoin="round"/><path fill-rule="evenodd" d="M53.12 149.723c-3.541-2.363-4.899-5.021-4.662-6.999.206-1.979-3.512-.945-2.893 2.982.62 3.928 6.375 8.505 7.968 9.155 1.89.738 4.043-2.185-.413-5.138z" fill="#FAF7F3"/><path d="M74.31 162.421c3.069 11.045 7.997 13.643 13.456 22.325 4.693 7.442 9.592 16.981 8.854 19.491-.295 1.004-6.493-10.543-12.04-19.697-2.627-4.341-5.52-7.797-6.847-9.746-2.243-3.366-3.246-5.522-4.309-11.487-.148-.679.885-.886.885-.886z" stroke="#00467F" stroke-width="3" stroke-miterlimit="22.926" stroke-linejoin="round"/><path fill-rule="evenodd" d="M74.31 162.421c3.069 11.045 7.997 13.643 13.456 22.325 4.693 7.442 9.592 16.981 8.854 19.491-.295 1.004-6.493-10.543-12.04-19.697-2.627-4.341-5.52-7.797-6.847-9.746-2.243-3.366-3.246-5.522-4.309-11.487-.148-.679.885-.886.885-.886z" fill="#FAF7F3"/><path d="M71.21 163.661s3.188.266 4.81-2.48c1.653-2.717.738-3.957-1.268-3.544-1.978.413-1.27 2.097-3.955 2.51-2.685.414-5.43-.059-6.08.679-.648.709-.825 2.245 1.21 2.599 2.067.384 5.283.236 5.283.236z" stroke="#00467F" stroke-width="3" stroke-miterlimit="22.926" stroke-linejoin="round"/><path fill-rule="evenodd" d="M71.21 163.661s3.188.266 4.81-2.48c1.653-2.717.738-3.957-1.268-3.544-1.978.413-1.27 2.097-3.955 2.51-2.685.414-5.43-.059-6.08.679-.648.709-.825 2.245 1.21 2.599 2.067.384 5.283.236 5.283.236z" fill="#FAF7F3"/><path d="M73.1 135.37c2.655 13.408 4.927 24.57 11.272 36.324 4.132 7.648 9.886 16.951 13.634 21.292.65.738-1.24.886-1.623.502-7.26-7.324-13.781-19.166-18.09-31.776-3.158-9.214-4.899-19.077-6.197-26.666.324-.237 1.003.324 1.003.324z" stroke="#00467F" stroke-width="3" stroke-miterlimit="22.926" stroke-linejoin="round"/><path fill-rule="evenodd" d="M73.1 135.37c2.655 13.408 4.927 24.57 11.272 36.324 4.132 7.648 9.886 16.951 13.634 21.292.65.738-1.24.886-1.623.502-7.26-7.324-13.781-19.166-18.09-31.776-3.158-9.214-4.899-19.077-6.197-26.666.324-.237 1.003.324 1.003.324z" fill="#FAF7F3"/><path d="M97.8 132.654l1.062.59s-3.069 6.556-4.84 14.766c-1.77 8.21-1.268 16.272.06 24.511 1.564 9.804 3.925 17.541 3.925 17.541s-1.27 1.506-2.892-.856c-1.21-1.743-4.191-16.803-3.925-30.033.118-5.611 1.18-13.762 6.61-26.519z" stroke="#00467F" stroke-width="3" stroke-miterlimit="22.926" stroke-linejoin="round"/><path fill-rule="evenodd" d="M97.8 132.654l1.062.59s-3.069 6.556-4.84 14.766c-1.77 8.21-1.268 16.272.06 24.511 1.564 9.804 3.925 17.541 3.925 17.541s-1.27 1.506-2.892-.856c-1.21-1.743-4.191-16.803-3.925-30.033.118-5.611 1.18-13.762 6.61-26.519z" fill="#FAF7F3"/><path d="M100.013 129.405s-4.662-1.447-7.436.148.442 3.012 2.124 3.248c1.683.237 5.047.532 6.67 1.772 1.594 1.24 3.512 1.24 3.718-.059.177-1.299-.295-3.248-5.076-5.109z" stroke="#00467F" stroke-width="3" stroke-miterlimit="22.926" stroke-linejoin="round"/><path fill-rule="evenodd" d="M100.013 129.405s-4.662-1.447-7.436.148.442 3.012 2.124 3.248c1.683.237 5.047.532 6.67 1.772 1.594 1.24 3.512 1.24 3.718-.059.177-1.299-.295-3.248-5.076-5.109z" fill="#FAF7F3"/><path d="M66.754 131.886s4.751 3.75 7.26 3.78c2.508.059 3.423-2.687-.118-4.873-3.541-2.215-6.847-3.16-7.319-2.156-.472 1.005-.797 1.802.177 3.249z" stroke="#00467F" stroke-width="3" stroke-miterlimit="22.926" stroke-linejoin="round"/><path fill-rule="evenodd" d="M66.754 131.886s4.751 3.75 7.26 3.78c2.508.059 3.423-2.687-.118-4.873-3.541-2.215-6.847-3.16-7.319-2.156-.472 1.005-.797 1.802.177 3.249z" fill="#FAF7F3"/><path d="M102.817 199.482c-6.758-19.342-.62-36.116 1.387-40.044.708-1.358 1.239-2.421 1.652-3.219 0 0 1.004-.147 1.181.827-9.68 13.319-3.128 41.196-3.128 41.196s.147 2.067-1.092 1.24z" stroke="#00467F" stroke-width="3" stroke-miterlimit="22.926" stroke-linejoin="round"/><path fill-rule="evenodd" d="M102.817 199.482c-6.758-19.342-.62-36.116 1.387-40.044.708-1.358 1.239-2.421 1.652-3.219 0 0 1.004-.147 1.181.827-9.68 13.319-3.128 41.196-3.128 41.196s.147 2.067-1.092 1.24z" fill="#FAF7F3"/><path d="M110.932 157.046l-6.492-5.699s-1.859-1.063-2.42-.236c-.561.826 1.328 2.628 2.331 4.075 1.004 1.447 3.158 3.484 4.545 4.518 1.387.975 3.954-1.122 2.036-2.658z" stroke="#00467F" stroke-width="3" stroke-miterlimit="22.926" stroke-linejoin="round"/><path fill-rule="evenodd" d="M110.932 157.046l-6.492-5.699s-1.859-1.063-2.42-.236c-.561.826 1.328 2.628 2.331 4.075 1.004 1.447 3.158 3.484 4.545 4.518 1.387.975 3.954-1.122 2.036-2.658z" fill="#FAF7F3"/><path d="M95.557 190.682s-.442.059-1.357-.295c-2.332-.916 4.338 9.716 4.426 9.893 0 0 1.24.827 1.978-.295-.118.029-.207 0-.207 0s-5.725-8.919-4.84-9.303z" stroke="#00467F" stroke-width="3" stroke-miterlimit="22.926" stroke-linejoin="round"/><path fill-rule="evenodd" d="M95.557 190.682s-.442.059-1.357-.295c-2.332-.916 4.338 9.716 4.426 9.893 0 0 1.24.827 1.978-.295-.118.029-.207 0-.207 0s-5.725-8.919-4.84-9.303z" fill="#FAF7F3"/><path d="M96.56 189.678s-.147.621-1.032 1.004c-.856.384 4.839 9.303 4.839 9.303s1.21.059 1.417-1.388c.265-1.477-4.81-9.805-5.224-8.919z" stroke="#00467F" stroke-width="3" stroke-miterlimit="22.926" stroke-linejoin="round"/><path fill-rule="evenodd" d="M96.56 189.678s-.147.621-1.032 1.004c-.856.384 4.839 9.303 4.839 9.303s1.21.059 1.417-1.388c.265-1.477-4.81-9.805-5.224-8.919z" fill="#FAF7F3"/><path d="M101.046 203.41s-13.487-3.071-17.943 2.865c-4.456 5.936-6.965 7.294.472 17.246 7.437 9.952 16.91 24.363 19.92 33.134 3.01 8.771 8.381 13.525 12.631 15.09 1.151.414 3.069 0 3.954.118 2.332.325 2.804.414 3.748.325 1.299-.118 6.522-4.754 7.083-7.973.561-3.219 2.302-5.847-1.741-13.023-5.637-9.982-12.454-41.964-8.854-50.676 1.653-3.986 2.922-8.298-5.813-8.948-4.633 1.625-6.257 10.041-13.457 11.842z" stroke="#00467F" stroke-width="3" stroke-miterlimit="22.926" stroke-linejoin="round"/><path fill-rule="evenodd" d="M101.046 203.41s-13.487-3.071-17.943 2.865c-4.456 5.936-6.965 7.294.472 17.246 7.437 9.952 16.91 24.363 19.92 33.134 3.01 8.771 8.381 13.525 12.631 15.09 1.151.414 3.069 0 3.954.118 2.332.325 2.804.414 3.748.325 1.299-.118 6.522-4.754 7.083-7.973.561-3.219 2.302-5.847-1.741-13.023-5.637-9.982-12.454-41.964-8.854-50.676 1.653-3.986 2.922-8.298-5.813-8.948-4.633 1.625-6.257 10.041-13.457 11.842z" fill="#FAF7F3"/><path d="M172.433 442.405c.472 0 .708-.059 1.151-.177.265-.088.531-.148.797-.236.501-.177 1.003-.414 1.387-.738 1.21-.975 1.151-2.717 1.298-4.253.03-.325.089-.709.118-1.033.059-.709.089-1.447.118-2.127.03-.354.03-.708.059-1.063.089-1.033.118-2.096.266-3.16.088-.649.118-1.388.177-2.067l.207-2.067c.088-1.063.324-3.071.442-4.075.325-2.658.62-5.345 1.004-8.003.324-2.126.649-4.696 1.003-6.822.236-1.27.413-2.599.62-3.868l1.918-10.454a40.69 40.69 0 01.384-1.861c.531-2.451 1.003-4.932 1.564-7.412.265-1.241.56-2.422.826-3.633.266-1.21.561-2.421.856-3.602a277.44 277.44 0 011.8-7.147l2.892-10.513c.354-1.152.679-2.274 1.003-3.426l2.922-9.272c.384-1.093.708-2.245 1.121-3.337.502-1.388.945-2.776 1.417-4.135l2.361-6.526c.118-.325 1.21-3.13 1.21-3.219l-.236-.797c-.118-.384-.177-.886-.236-1.3-.03-.177-.03-.295-.03-.502-.059-.679-.029-1.269-.029-1.919 0-.975.354-3.219.501-4.223.03-.177.148-.827.177-1.418v-.354c-.029-.413-.118-.709-.383-.709-.413 0-1.151.679-1.446.945a1.38 1.38 0 00-.295.296l-.148.147-.738.768c-.206.207-.265.561-.383.856l-3.394 8.948c-1.859 5.168-3.66 10.366-5.371 15.681a44.906 44.906 0 00-.59 1.861l-3.512 11.399c-.325 1.092-.679 2.215-.974 3.337l-.295.974c-.354 1.123-.62 2.274-.945 3.426l-.265.975c-.443 1.624-.915 3.248-1.328 4.902l-2.981 11.96c-.62 2.717-1.269 5.433-1.829 8.18-.207 1.004-.443 2.067-.65 3.071l-.413 2.097a271.973 271.973 0 00-1.003 5.256l-.945 5.345c-.059.355-.118.739-.177 1.064l-.855 5.404c-.384 2.569-.709 5.168-1.033 7.766l-.266 2.245c-.059.768-.177 1.535-.236 2.274 0 .177-.03.354-.059.561l-.384 4.016c-.059.502-.177 1.89-.206 2.333-.03.561-.118 1.181-.148 1.742l-.295 4.784c0 .148-.029.148-.029.296 0 .177-.03.295-.03.413v.295c.03.148.089.296.266.562.501.679 1.475 1.269 2.272 1.269z" stroke="#00467F" stroke-width="3" stroke-miterlimit="22.926" stroke-linejoin="round"/><path fill-rule="evenodd" d="M172.433 442.405c.472 0 .708-.059 1.151-.177.265-.088.531-.148.797-.236.501-.177 1.003-.414 1.387-.738 1.21-.975 1.151-2.717 1.298-4.253.03-.325.089-.709.118-1.033.059-.709.089-1.447.118-2.127.03-.354.03-.708.059-1.063.089-1.033.118-2.096.266-3.16.088-.649.118-1.388.177-2.067l.207-2.067c.088-1.063.324-3.071.442-4.075.325-2.658.62-5.345 1.004-8.003.324-2.126.649-4.696 1.003-6.822.236-1.27.413-2.599.62-3.868l1.918-10.454a40.69 40.69 0 01.384-1.861c.531-2.451 1.003-4.932 1.564-7.412.265-1.241.56-2.422.826-3.633.266-1.21.561-2.421.856-3.602a277.44 277.44 0 011.8-7.147l2.892-10.513c.354-1.152.679-2.274 1.003-3.426l2.922-9.272c.384-1.093.708-2.245 1.121-3.337.502-1.388.945-2.776 1.417-4.135l2.361-6.526c.118-.325 1.21-3.13 1.21-3.219l-.236-.797c-.118-.384-.177-.886-.236-1.3-.03-.177-.03-.295-.03-.502-.059-.679-.029-1.269-.029-1.919 0-.975.354-3.219.501-4.223.03-.177.148-.827.177-1.418v-.354c-.029-.413-.118-.709-.383-.709-.413 0-1.151.679-1.446.945a1.38 1.38 0 00-.295.296l-.148.147-.738.768c-.206.207-.265.561-.383.856l-3.394 8.948c-1.859 5.168-3.66 10.366-5.371 15.681a44.906 44.906 0 00-.59 1.861l-3.512 11.399c-.325 1.092-.679 2.215-.974 3.337l-.295.974c-.354 1.123-.62 2.274-.945 3.426l-.265.975c-.443 1.624-.915 3.248-1.328 4.902l-2.981 11.96c-.62 2.717-1.269 5.433-1.829 8.18-.207 1.004-.443 2.067-.65 3.071l-.413 2.097a271.973 271.973 0 00-1.003 5.256l-.945 5.345c-.059.355-.118.739-.177 1.064l-.855 5.404c-.384 2.569-.709 5.168-1.033 7.766l-.266 2.245c-.059.768-.177 1.535-.236 2.274 0 .177-.03.354-.059.561l-.384 4.016c-.059.502-.177 1.89-.206 2.333-.03.561-.118 1.181-.148 1.742l-.295 4.784c0 .148-.029.148-.029.296 0 .177-.03.295-.03.413v.295c.03.148.089.296.266.562.501.679 1.475 1.269 2.272 1.269z" fill="#FAF7F3"/><path d="M198.668 328.12s5.43-48.549 21.691-64.939c16.26-16.39 16.408-6.319 18.887-7.176 2.479-.856 2.921-6.201 13.28-6.881 10.358-.679 12.63-2.451 17.913.65 5.312 3.101 11.362-1.181 11.362-1.181s1.416-1.093 3.541-.502c2.095.59 3.689-1.418 3.689-1.418s.59 3.426-.531 4.105c-1.122.679-2.332 5.906-1.889 7.117.442 1.181 4.545 5.257 1.977 8.8-2.538 3.544-15.936 12.728-23.52 22.355-7.585 9.628-13.103 14.087-31.961 16.892-18.857 2.806-23.697 16.036-27.238 20.406-3.512 4.4-7.201 1.772-7.201 1.772z" stroke="#00467F" stroke-width="3" stroke-miterlimit="22.926" stroke-linejoin="round"/><path fill-rule="evenodd" d="M198.668 328.12s5.43-48.549 21.691-64.939c16.26-16.39 16.408-6.319 18.887-7.176 2.479-.856 2.921-6.201 13.28-6.881 10.358-.679 12.63-2.451 17.913.65 5.312 3.101 11.362-1.181 11.362-1.181s1.416-1.093 3.541-.502c2.095.59 3.689-1.418 3.689-1.418s.59 3.426-.531 4.105c-1.122.679-2.332 5.906-1.889 7.117.442 1.181 4.545 5.257 1.977 8.8-2.538 3.544-15.936 12.728-23.52 22.355-7.585 9.628-13.103 14.087-31.961 16.892-18.857 2.806-23.697 16.036-27.238 20.406-3.512 4.4-7.201 1.772-7.201 1.772z" fill="#FAF7F3"/><path d="M202.062 307.98c3.217-15.356 9.001-35.378 18.326-44.799 16.261-16.39 16.408-6.319 18.887-7.176 2.479-.856 2.922-6.201 13.28-6.881 10.359-.679 12.631-2.451 17.914.65 5.312 3.101 11.361-1.181 11.361-1.181s1.417-1.093 3.542-.502c2.095.59 3.689-1.418 3.689-1.418v.089c-.266.531-.561 1.063-.856 1.299-.62.561-1.594.65-2.509.591-.915-.059-1.387-.236-2.065-.266-.679 0-1.742.679-2.273 1.093-.531.413-1.416.709-2.272 1.122-.856.384-2.42.709-3.423.856-.974.148-2.155.207-3.778-.472-3.01-1.24-4.102-2.038-7.23-2.156-3.04-.118-3.512.177-6.286.591-3.069.443-7.437.708-9.591 1.122-2.922.561-3.866 1.565-6.64 4.607-2.804 3.041-3.276 2.687-5.135 1.388-1.859-1.3-1.682-2.186-6.05-1.004-13.221 7.087-20.067 26.282-23.107 33.015-1.652 3.751-4.013 12.403-5.784 19.432z" stroke="#00467F" stroke-width="3" stroke-miterlimit="22.926" stroke-linejoin="round"/><path fill-rule="evenodd" d="M202.062 307.98c3.217-15.356 9.001-35.378 18.326-44.799 16.261-16.39 16.408-6.319 18.887-7.176 2.479-.856 2.922-6.201 13.28-6.881 10.359-.679 12.631-2.451 17.914.65 5.312 3.101 11.361-1.181 11.361-1.181s1.417-1.093 3.542-.502c2.095.59 3.689-1.418 3.689-1.418v.089c-.266.531-.561 1.063-.856 1.299-.62.561-1.594.65-2.509.591-.915-.059-1.387-.236-2.065-.266-.679 0-1.742.679-2.273 1.093-.531.413-1.416.709-2.272 1.122-.856.384-2.42.709-3.423.856-.974.148-2.155.207-3.778-.472-3.01-1.24-4.102-2.038-7.23-2.156-3.04-.118-3.512.177-6.286.591-3.069.443-7.437.708-9.591 1.122-2.922.561-3.866 1.565-6.64 4.607-2.804 3.041-3.276 2.687-5.135 1.388-1.859-1.3-1.682-2.186-6.05-1.004-13.221 7.087-20.067 26.282-23.107 33.015-1.652 3.751-4.013 12.403-5.784 19.432z" fill="#FAF7F3"/><path d="M207.757 325.876s4.781-7.324 8.529-10.041c3.748-2.746 4.456-2.923 7.024-2.599 2.567.325-.237-2.273 4.22-3.839 4.485-1.565 23.225-6.231 44.443 6.468 21.219 12.698 27.711 27.67 30.426 35.85 2.715 8.21 4.781 25.811-.206 32.514-4.988 6.704-5.519-19.874-13.635-28.704-8.115-8.83-22.339-19.431-32.55-21.764-4.633-1.034-21.779-2.451-29.541-6.556-7.761-4.105-20.746 5.227-18.71-1.329z" stroke="#00467F" stroke-width="3" stroke-miterlimit="22.926" stroke-linejoin="round"/><path fill-rule="evenodd" d="M207.757 325.876s4.781-7.324 8.529-10.041c3.748-2.746 4.456-2.923 7.024-2.599 2.567.325-.237-2.273 4.22-3.839 4.485-1.565 23.225-6.231 44.443 6.468 21.219 12.698 27.711 27.67 30.426 35.85 2.715 8.21 4.781 25.811-.206 32.514-4.988 6.704-5.519-19.874-13.635-28.704-8.115-8.83-22.339-19.431-32.55-21.764-4.633-1.034-21.779-2.451-29.541-6.556-7.761-4.105-20.746 5.227-18.71-1.329z" fill="#FAF7F3"/><path d="M298.829 383.225c-2.479-5.67-4.397-21.322-10.241-27.7-8.115-8.83-22.34-19.432-32.55-21.765-3.07-.708-11.716-1.535-19.448-3.248 5.459-.325 15.965-1.004 18.798-1.742 3.866-1.034 6.758 1.89 10.831 2.923 4.072 1.034 4.958 2.245 8.942 5.345 3.984 3.072 12.335 8.121 16.231 13.998 3.836 5.788 8.942 19.933 7.437 32.189z" stroke="#00467F" stroke-width="3" stroke-miterlimit="22.926" stroke-linejoin="round"/><path fill-rule="evenodd" d="M298.829 383.225c-2.479-5.67-4.397-21.322-10.241-27.7-8.115-8.83-22.34-19.432-32.55-21.765-3.07-.708-11.716-1.535-19.448-3.248 5.459-.325 15.965-1.004 18.798-1.742 3.866-1.034 6.758 1.89 10.831 2.923 4.072 1.034 4.958 2.245 8.942 5.345 3.984 3.072 12.335 8.121 16.231 13.998 3.836 5.788 8.942 19.933 7.437 32.189z" fill="#FAF7F3"/><path d="M174.794 221.808c-2.184-1.358-5.106-2.658-7.526-1.742-2.272 1.358-1.918 3.455-1.888 3.927 0 .473 1.918-.502 4.633.473 2.213.827 5.991 3.012 7.968 6.142-.59-2.657-1.594-5.227-3.187-8.8z" stroke="#00467F" stroke-width="3" stroke-miterlimit="22.926" stroke-linejoin="round"/><path fill-rule="evenodd" d="M174.794 221.808c-2.184-1.358-5.106-2.658-7.526-1.742-2.272 1.358-1.918 3.455-1.888 3.927 0 .473 1.918-.502 4.633.473 2.213.827 5.991 3.012 7.968 6.142-.59-2.657-1.594-5.227-3.187-8.8z" fill="#FAF7F3"/><path d="M197.37 325.935c.973.147 6.108-14.323 9.414-27.523 3.836-15.297 7.525-37.446-2.774-57.645-5.549-10.867-15.995-21.646-29.305-19.107 3.364 7.472 4.043 10.632 4.073 18.989.029 8.357-2.951 17.01-2.243 26.017.708 9.007 2.42 13.112 5.223 17.482 2.804 4.371 10.182 26.844 10.919 35.024.738 8.18 2.804 9.273 4.693 6.763z" stroke="#00467F" stroke-width="3" stroke-miterlimit="22.926" stroke-linejoin="round"/><path fill-rule="evenodd" d="M197.37 325.935c.973.147 6.108-14.323 9.414-27.523 3.836-15.297 7.525-37.446-2.774-57.645-5.549-10.867-15.995-21.646-29.305-19.107 3.364 7.472 4.043 10.632 4.073 18.989.029 8.357-2.951 17.01-2.243 26.017.708 9.007 2.42 13.112 5.223 17.482 2.804 4.371 10.182 26.844 10.919 35.024.738 8.18 2.804 9.273 4.693 6.763z" fill="#FAF7F3"/><path d="M77.761 279.187s.06 2.362 3.6 2.185c3.542-.207 8.44-7.885 17.235-8.032 8.794-.148 15.198-.03 21.956 3.957 6.758 3.987 16.025 10.277 21.278 16.685 5.253 6.438 16.673 15.031 23.372 15.297-4.043-1.89-6.669-4.193-17.647-13.643-2.981-2.54-4.043-5.582-6.67-8.712-3.128-3.721-7.938-6.763-9.178-8.032a138.842 138.842 0 00-.767-.768c-.118-.118-.265-.236-.384-.355-.118-.118-.265-.236-.383-.354s-.266-.236-.384-.354a3.678 3.678 0 00-.383-.325c-.118-.118-.266-.207-.384-.325-.118-.118-.266-.207-.384-.325-.118-.118-.265-.207-.383-.295-.118-.089-.266-.207-.384-.295-.118-.089-.266-.207-.384-.296-.118-.088-.265-.177-.383-.295-.118-.089-.266-.177-.384-.266-.118-.088-.266-.177-.384-.266-.118-.088-.265-.177-.383-.265-.118-.089-.266-.178-.384-.266a2.6 2.6 0 00-.384-.236c-.118-.089-.265-.148-.383-.237-.118-.088-.266-.147-.384-.236s-.236-.148-.383-.236c-.119-.059-.237-.148-.384-.207-.118-.059-.236-.148-.384-.207-.118-.059-.236-.147-.383-.206a5.593 5.593 0 01-.384-.207c-.118-.059-.236-.118-.384-.177l-.354-.177-.354-.178-.354-.177-.354-.177a1.838 1.838 0 00-.354-.148 1.772 1.772 0 00-.354-.147c-.119-.059-.237-.089-.355-.148s-.236-.089-.354-.148-.236-.088-.354-.147-.236-.089-.354-.148c-.118-.029-.236-.089-.354-.118-.118-.03-.236-.089-.354-.118-.118-.03-.236-.089-.354-.118-.118-.03-.236-.089-.355-.118-.236-.089-.442-.148-.678-.237a1.052 1.052 0 01-.325-.118 4.968 4.968 0 01-.325-.088c-.118-.03-.236-.059-.324-.089-.118-.03-.207-.059-.325-.089-.118-.029-.206-.059-.324-.088-.118-.03-.207-.059-.325-.089-.118-.029-.207-.059-.325-.088-.118-.03-.206-.059-.324-.089-.118-.03-.207-.059-.325-.089l-.324-.088-.296-.089-.295-.088-.295-.089-.295-.059-.295-.059-.295-.059-.295-.059-.295-.059-.295-.059-.266-.059-.266-.059-.265-.06-.266-.059c-5.636-1.447-16.438 1.507-21.808 5.789-5.43 4.222-9.267 7.264-9.946 5.581z" stroke="#00467F" stroke-width="3" stroke-miterlimit="22.926" stroke-linejoin="round"/><path fill-rule="evenodd" d="M77.761 279.187s.06 2.362 3.6 2.185c3.542-.207 8.44-7.885 17.235-8.032 8.794-.148 15.198-.03 21.956 3.957 6.758 3.987 16.025 10.277 21.278 16.685 5.253 6.438 16.673 15.031 23.372 15.297-4.043-1.89-6.669-4.193-17.647-13.643-2.981-2.54-4.043-5.582-6.67-8.712-3.128-3.721-7.938-6.763-9.178-8.032a138.842 138.842 0 00-.767-.768c-.118-.118-.265-.236-.384-.355-.118-.118-.265-.236-.383-.354s-.266-.236-.384-.354a3.678 3.678 0 00-.383-.325c-.118-.118-.266-.207-.384-.325-.118-.118-.266-.207-.384-.325-.118-.118-.265-.207-.383-.295-.118-.089-.266-.207-.384-.295-.118-.089-.266-.207-.384-.296-.118-.088-.265-.177-.383-.295-.118-.089-.266-.177-.384-.266-.118-.088-.266-.177-.384-.266-.118-.088-.265-.177-.383-.265-.118-.089-.266-.178-.384-.266a2.6 2.6 0 00-.384-.236c-.118-.089-.265-.148-.383-.237-.118-.088-.266-.147-.384-.236s-.236-.148-.383-.236c-.119-.059-.237-.148-.384-.207-.118-.059-.236-.148-.384-.207-.118-.059-.236-.147-.383-.206a5.593 5.593 0 01-.384-.207c-.118-.059-.236-.118-.384-.177l-.354-.177-.354-.178-.354-.177-.354-.177a1.838 1.838 0 00-.354-.148 1.772 1.772 0 00-.354-.147c-.119-.059-.237-.089-.355-.148s-.236-.089-.354-.148-.236-.088-.354-.147-.236-.089-.354-.148c-.118-.029-.236-.089-.354-.118-.118-.03-.236-.089-.354-.118-.118-.03-.236-.089-.354-.118-.118-.03-.236-.089-.355-.118-.236-.089-.442-.148-.678-.237a1.052 1.052 0 01-.325-.118 4.968 4.968 0 01-.325-.088c-.118-.03-.236-.059-.324-.089-.118-.03-.207-.059-.325-.089-.118-.029-.206-.059-.324-.088-.118-.03-.207-.059-.325-.089-.118-.029-.207-.059-.325-.088-.118-.03-.206-.059-.324-.089-.118-.03-.207-.059-.325-.089l-.324-.088-.296-.089-.295-.088-.295-.089-.295-.059-.295-.059-.295-.059-.295-.059-.295-.059-.295-.059-.266-.059-.266-.059-.265-.06-.266-.059c-5.636-1.447-16.438 1.507-21.808 5.789-5.43 4.222-9.267 7.264-9.946 5.581z" fill="#FAF7F3"/><path d="M194.212 328.888s1.003-21.528-7.909-38.538c-8.883-16.981-23.166-26.519-30.544-28.941-7.378-2.421-7.702-4.725-14.49-4.016-6.788.709-4.368-3.101-22.783-.797-8.233 1.151-12.63 2.864-15.168 3.484-2.538.62-16.172 5.464-19.448 10.336-3.276 4.873-3.128 1.802-4.22 5.611-1.122 3.81-2.568 1.447-1.889 3.13.679 1.684 4.515-1.329 9.886-5.64 5.4-4.282 16.172-7.235 21.809-5.788 5.637 1.447 13.959 2.805 22.192 11.163 1.24 1.269 6.05 4.341 9.178 8.032 2.627 3.13 3.719 6.172 6.67 8.712 19.093 16.36 12.896 11.34 32.846 19.697 4.574 1.92 8.322 7.324 9.414 11.665 1.151 4.341 3.6 3.691 4.456 1.89z" stroke="#00467F" stroke-width="3" stroke-miterlimit="22.926" stroke-linejoin="round"/><path fill-rule="evenodd" d="M194.212 328.888s1.003-21.528-7.909-38.538c-8.883-16.981-23.166-26.519-30.544-28.941-7.378-2.421-7.702-4.725-14.49-4.016-6.788.709-4.368-3.101-22.783-.797-8.233 1.151-12.63 2.864-15.168 3.484-2.538.62-16.172 5.464-19.448 10.336-3.276 4.873-3.128 1.802-4.22 5.611-1.122 3.81-2.568 1.447-1.889 3.13.679 1.684 4.515-1.329 9.886-5.64 5.4-4.282 16.172-7.235 21.809-5.788 5.637 1.447 13.959 2.805 22.192 11.163 1.24 1.269 6.05 4.341 9.178 8.032 2.627 3.13 3.719 6.172 6.67 8.712 19.093 16.36 12.896 11.34 32.846 19.697 4.574 1.92 8.322 7.324 9.414 11.665 1.151 4.341 3.6 3.691 4.456 1.89z" fill="#FAF7F3"/><path d="M185.476 322.332c-1.741-2.304-3.275-3.78-4.721-4.696-31.105-19.49-41.67 45.685-44.031 64.998-.236 1.89-.915 4.784-.974 6.822-.118 4.223.768 7.471 2.302 9.716 2.272 3.307 2.715 2.569 2.715 2.569s11.598-21.292 15.228-27.523c3.63-6.231 18.326-21.676 23.933-24.304 5.607-2.658 9.149-3.898 13.398-9.922 4.25-6.025 5.312-9.657 5.312-9.657.768-7.974-7.85-.945-13.162-8.003z" stroke="#00467F" stroke-width="3" stroke-miterlimit="22.926" stroke-linejoin="round"/><path fill-rule="evenodd" d="M185.476 322.332c-1.741-2.304-3.275-3.78-4.721-4.696-31.105-19.49-41.67 45.685-44.031 64.998-.236 1.89-.915 4.784-.974 6.822-.118 4.223.768 7.471 2.302 9.716 2.272 3.307 2.715 2.569 2.715 2.569s11.598-21.292 15.228-27.523c3.63-6.231 18.326-21.676 23.933-24.304 5.607-2.658 9.149-3.898 13.398-9.922 4.25-6.025 5.312-9.657 5.312-9.657.768-7.974-7.85-.945-13.162-8.003z" fill="#FAF7F3"/><path d="M140.826 401.623c.797-1.447 11.687-21.44 15.169-27.435 3.63-6.231 18.326-21.675 23.933-24.304 5.607-2.657 9.149-3.898 13.398-9.922 4.25-6.024 5.312-9.657 5.312-9.657.03-.177.03-.325.03-.472-.826.856-2.036 1.801-4.25 3.278-4.22 2.805-3.63 2.982-4.161 6.054-.531 3.071-.324 4.784-5.489 4.666-5.164-.119-6.492 3.809-9.709 7.353-3.217 3.543-12.778 10.099-22.724 23.979-7.2 10.159-10.358 21.203-11.509 26.46z" stroke="#00467F" stroke-width="3" stroke-miterlimit="22.926" stroke-linejoin="round"/><path fill-rule="evenodd" d="M140.826 401.623c.797-1.447 11.687-21.44 15.169-27.435 3.63-6.231 18.326-21.675 23.933-24.304 5.607-2.657 9.149-3.898 13.398-9.922 4.25-6.024 5.312-9.657 5.312-9.657.03-.177.03-.325.03-.472-.826.856-2.036 1.801-4.25 3.278-4.22 2.805-3.63 2.982-4.161 6.054-.531 3.071-.324 4.784-5.489 4.666-5.164-.119-6.492 3.809-9.709 7.353-3.217 3.543-12.778 10.099-22.724 23.979-7.2 10.159-10.358 21.203-11.509 26.46z" fill="#FAF7F3"/><path d="M199.996 328.032s15.316-6.143 22.163-3.899c6.846 2.245 12.69 5.729 14.962 11.695 2.272 5.965 3.305 9.125 3.895 14.736.561 5.611 2.538 7.825 3.866 14.44.709 3.515 1.535 7.117 1.358 9.982-.148 2.51-1.181 4.341-1.83 6.881-1.387 5.463-.059 6.88-.354 12.226-.295 5.345-2.184 12.757-5.341 15.799-3.158 3.041-.915 5.876-6.699 6.674-1.801-7.147 1.77-18.634 1.062-23.035-.708-4.4-1.682-21.232-16.998-35.88-15.287-14.618-24.583-27.641-16.084-29.619z" stroke="#00467F" stroke-width="3" stroke-miterlimit="22.926" stroke-linejoin="round"/><path fill-rule="evenodd" d="M199.996 328.032s15.316-6.143 22.163-3.899c6.846 2.245 12.69 5.729 14.962 11.695 2.272 5.965 3.305 9.125 3.895 14.736.561 5.611 2.538 7.825 3.866 14.44.709 3.515 1.535 7.117 1.358 9.982-.148 2.51-1.181 4.341-1.83 6.881-1.387 5.463-.059 6.88-.354 12.226-.295 5.345-2.184 12.757-5.341 15.799-3.158 3.041-.915 5.876-6.699 6.674-1.801-7.147 1.77-18.634 1.062-23.035-.708-4.4-1.682-21.232-16.998-35.88-15.287-14.618-24.583-27.641-16.084-29.619z" fill="#FAF7F3"/><path d="M231.543 412.077c-.088-6.792 2.155-14.972 1.594-18.546-.708-4.4-1.682-21.232-16.998-35.88-13.28-12.698-22.045-24.186-18.592-28.291 2.98 3.426 7.112 7.915 10.329 10.277 5.666 4.164 10.151 7.914 15.463 15.533 5.312 7.59 10.241 14.648 12.424 22.68 2.066 7.531 4.132 22.444-4.22 34.227z" stroke="#00467F" stroke-width="3" stroke-miterlimit="22.926" stroke-linejoin="round"/><path fill-rule="evenodd" d="M231.543 412.077c-.088-6.792 2.155-14.972 1.594-18.546-.708-4.4-1.682-21.232-16.998-35.88-13.28-12.698-22.045-24.186-18.592-28.291 2.98 3.426 7.112 7.915 10.329 10.277 5.666 4.164 10.151 7.914 15.463 15.533 5.312 7.59 10.241 14.648 12.424 22.68 2.066 7.531 4.132 22.444-4.22 34.227z" fill="#FAF7F3"/><path d="M199.73 312.232c-.265.119-1.328.886-2.715 5.434-1.652 5.316-2.302 8.446-2.302 8.446s1.801 1.211 2.922 1.063c0 0 1.771-4.37 3.01-8.387.708-2.362 1.269-5.256 1.062-5.847-.737.118-1.534-.177-1.977-.709z" stroke="#00467F" stroke-width="3" stroke-miterlimit="22.926" stroke-linejoin="round"/><path fill-rule="evenodd" d="M199.73 312.232c-.265.119-1.328.886-2.715 5.434-1.652 5.316-2.302 8.446-2.302 8.446s1.801 1.211 2.922 1.063c0 0 1.771-4.37 3.01-8.387.708-2.362 1.269-5.256 1.062-5.847-.737.118-1.534-.177-1.977-.709z" fill="#FAF7F3"/><path d="M199.849 309.752c-.532.029-1.417.443-2.066 2.274l.029-.03c.531-.974 1.269-1.388 1.623-1.329.089-.443.266-.709.414-.915z" stroke="#00467F" stroke-width="3" stroke-miterlimit="22.926" stroke-linejoin="round"/><path fill-rule="evenodd" d="M199.849 309.752c-.532.029-1.417.443-2.066 2.274l.029-.03c.531-.974 1.269-1.388 1.623-1.329.089-.443.266-.709.414-.915z" fill="#FAF7F3"/><path d="M199.435 310.667c-.354-.088-1.092.325-1.623 1.329-.797 1.477-3.335 8.003-3.925 12.669-.059.561.413.886.826 1.358.118-.561.797-3.573 2.273-8.357 1.416-4.518 2.449-5.286 2.715-5.434a1.758 1.758 0 01-.355-.945c.03-.236.059-.443.089-.62zm-4.515 15.563l.029.03-.029-.03z" stroke="#00467F" stroke-width="3" stroke-miterlimit="22.926" stroke-linejoin="round"/><path fill-rule="evenodd" d="M199.435 310.667c-.354-.088-1.092.325-1.623 1.329-.797 1.477-3.335 8.003-3.925 12.669-.059.561.413.886.826 1.358.118-.561.797-3.573 2.273-8.357 1.416-4.518 2.449-5.286 2.715-5.434a1.758 1.758 0 01-.355-.945c.03-.236.059-.443.089-.62zm-4.515 15.563l.029.03-.029-.03z" fill="#FAF7F3"/><path d="M203.154 310.992c.206.266.383.679.413 1.329.059 1.683-.62 3.396-.62 3.396.177-.975.295-1.861.325-2.54.029-.59-.177-1.151-.325-1.388.059-.118.089-.236.118-.354l.089-.443z" stroke="#00467F" stroke-width="3" stroke-miterlimit="22.926" stroke-linejoin="round"/><path fill-rule="evenodd" d="M203.154 310.992c.206.266.383.679.413 1.329.059 1.683-.62 3.396-.62 3.396.177-.975.295-1.861.325-2.54.029-.59-.177-1.151-.325-1.388.059-.118.089-.236.118-.354l.089-.443z" fill="#FAF7F3"/><path d="M202.947 311.789c.177.266.354.798.325 1.388-.118 2.215-1.063 6.527-2.007 9.125-1.357 3.721-2.272 4.784-2.272 4.784l-1.358.059s1.771-4.37 3.01-8.386c.709-2.363 1.269-5.257 1.063-5.848.501-.118.974-.472 1.239-1.122z" stroke="#00467F" stroke-width="3" stroke-miterlimit="22.926" stroke-linejoin="round"/><path fill-rule="evenodd" d="M202.947 311.789c.177.266.354.798.325 1.388-.118 2.215-1.063 6.527-2.007 9.125-1.357 3.721-2.272 4.784-2.272 4.784l-1.358.059s1.771-4.37 3.01-8.386c.709-2.363 1.269-5.257 1.063-5.848.501-.118.974-.472 1.239-1.122z" fill="#FAF7F3"/><path d="M200.262 309.457s-.886.354-.856 1.83c.03 1.772 3.04 2.599 3.659.148.502-1.919.236-2.303 1.092-5.138.502-1.654 6.552-14.766 13.103-26.992 4.663-8.711 9.857-16.862 12.424-20.524 3.069-4.37 4.929-6.762 6.021-8.091 2.154-2.599 3.069-2.156 4.131-2.894a3.66 3.66 0 001.358-1.92c.531-1.86-.443-4.252-2.656-5.02-1.889-.65-3.099.088-3.896 1.476-.738 1.241-1.151 3.101-1.652 4.696-.502 1.594-10.3 17.807-12.1 20.672-.915 1.476-4.486 7.441-7.584 13.495-4.693 9.243-8.529 19.018-13.044 28.262z" stroke="#00467F" stroke-width="3" stroke-miterlimit="22.926" stroke-linejoin="round"/><path fill-rule="evenodd" d="M200.262 309.457s-.886.354-.856 1.83c.03 1.772 3.04 2.599 3.659.148.502-1.919.236-2.303 1.092-5.138.502-1.654 6.552-14.766 13.103-26.992 4.663-8.711 9.857-16.862 12.424-20.524 3.069-4.37 4.929-6.762 6.021-8.091 2.154-2.599 3.069-2.156 4.131-2.894a3.66 3.66 0 001.358-1.92c.531-1.86-.443-4.252-2.656-5.02-1.889-.65-3.099.088-3.896 1.476-.738 1.241-1.151 3.101-1.652 4.696-.502 1.594-10.3 17.807-12.1 20.672-.915 1.476-4.486 7.441-7.584 13.495-4.693 9.243-8.529 19.018-13.044 28.262z" fill="#FAF7F3"/><path d="M199.199 322.982s7.614-26.254 16.644-36.885c9.06-10.601 11.568-11.103 14.372-12.757 2.804-1.654 3.512-2.186 3.512-2.186a1.479 1.479 0 01.029-.945c-1.18.591-5.43 2.717-7.614 4.135-2.567 1.654-7.023 4.016-13.958 14.116-6.935 10.099-9.65 20.169-10.211 21.941-.561 1.743-3.807 12.285-3.807 12.285s.413.886 1.033.296z" stroke="#00467F" stroke-width="3" stroke-miterlimit="22.926" stroke-linejoin="round"/><path fill-rule="evenodd" d="M199.199 322.982s7.614-26.254 16.644-36.885c9.06-10.601 11.568-11.103 14.372-12.757 2.804-1.654 3.512-2.186 3.512-2.186a1.479 1.479 0 01.029-.945c-1.18.591-5.43 2.717-7.614 4.135-2.567 1.654-7.023 4.016-13.958 14.116-6.935 10.099-9.65 20.169-10.211 21.941-.561 1.743-3.807 12.285-3.807 12.285s.413.886 1.033.296z" fill="#FAF7F3"/><path d="M243.82 260.937s-2.656 2.923-4.722 4.666c-2.066 1.713-5.961 3.632-5.342 5.581.62 1.949 3.306.797 5.726-.561 2.419-1.329 4.633-3.81 6.079-5.995 1.446-2.185 1.239-5.286-1.741-3.691z" stroke="#00467F" stroke-width="3" stroke-miterlimit="22.926" stroke-linejoin="round"/><path fill-rule="evenodd" d="M243.82 260.937s-2.656 2.923-4.722 4.666c-2.066 1.713-5.961 3.632-5.342 5.581.62 1.949 3.306.797 5.726-.561 2.419-1.329 4.633-3.81 6.079-5.995 1.446-2.185 1.239-5.286-1.741-3.691z" fill="#FAF7F3"/><path d="M207.255 254.174c-.295 1.625-.59 3.278-.885 4.814a292.047 292.047 0 00-2.597 18.604c-1.564 14.914-4.072 29.354-6.109 44.238 0 0-1.829 1.359-2.242-.502-.414-1.86 5.666-38.154 5.666-38.154s2.42-19.668 4.662-27.287c.177-.591.354-1.181.502-1.772.354.118.679.148 1.003.059z" stroke="#00467F" stroke-width="3" stroke-miterlimit="22.926" stroke-linejoin="round"/><path fill-rule="evenodd" d="M207.255 254.174c-.295 1.625-.59 3.278-.885 4.814a292.047 292.047 0 00-2.597 18.604c-1.564 14.914-4.072 29.354-6.109 44.238 0 0-1.829 1.359-2.242-.502-.414-1.86 5.666-38.154 5.666-38.154s2.42-19.668 4.662-27.287c.177-.591.354-1.181.502-1.772.354.118.679.148 1.003.059z" fill="#FAF7F3"/><path d="M209.558 249.892s2.685-8.416 3.01-10.867c.324-2.451-1.623-4.873-3.689-2.629-2.066 2.245-2.214 7.797-2.951 10.1-.709 2.333-2.155 5.877-.945 6.851 1.24.975 3.365 2.304 4.575-3.455z" stroke="#00467F" stroke-width="3" stroke-miterlimit="22.926" stroke-linejoin="round"/><path fill-rule="evenodd" d="M209.558 249.892s2.685-8.416 3.01-10.867c.324-2.451-1.623-4.873-3.689-2.629-2.066 2.245-2.214 7.797-2.951 10.1-.709 2.333-2.155 5.877-.945 6.851 1.24.975 3.365 2.304 4.575-3.455z" fill="#FAF7F3"/><path d="M194.772 323.69s4.929-31.185 4.574-38.922c-.383-7.737-1.682-13.909-4.662-18.752-1.564-2.51-2.538-4.105-3.099-5.079a6.707 6.707 0 01-.207.827c.207.443.502.945.827 1.565 2.626 4.784 4.249 9.479 4.84 12.61 2.124 11.339-1.476 23.093-2.184 33.96-.148 2.363-1.476 13.407-1.476 13.407s.945 1.477 1.387.384z" stroke="#00467F" stroke-width="3" stroke-miterlimit="22.926" stroke-linejoin="round"/><path fill-rule="evenodd" d="M194.772 323.69s4.929-31.185 4.574-38.922c-.383-7.737-1.682-13.909-4.662-18.752-1.564-2.51-2.538-4.105-3.099-5.079a6.707 6.707 0 01-.207.827c.207.443.502.945.827 1.565 2.626 4.784 4.249 9.479 4.84 12.61 2.124 11.339-1.476 23.093-2.184 33.96-.148 2.363-1.476 13.407-1.476 13.407s.945 1.477 1.387.384z" fill="#FAF7F3"/><path d="M192.205 258.249s1.918-4.223.885-5.758c-1.062-1.536-2.744-1.004-3.925 1.683-1.121 2.569-2.272 10.454 1.004 9.509 1.239-.384 1.387-3.366 2.036-5.434z" stroke="#00467F" stroke-width="3" stroke-miterlimit="22.926" stroke-linejoin="round"/><path fill-rule="evenodd" d="M192.205 258.249s1.918-4.223.885-5.758c-1.062-1.536-2.744-1.004-3.925 1.683-1.121 2.569-2.272 10.454 1.004 9.509 1.239-.384 1.387-3.366 2.036-5.434z" fill="#FAF7F3"/><path d="M199.583 323.927s4.722-16.951 10.919-23.566c6.197-6.645 9.178-6.851 15.198-9.627 4.486-2.067 9.031-5.021 11.096-6.409-.118-.206-.118-.443-.029-.679-.679.384-1.387.768-1.977 1.063-1.683.857-7.467 4.696-10.713 5.464-3.276.767-9.089 3.691-11.598 5.817-2.508 2.097-7.319 8.446-10.004 15.061-2.686 6.586-4.22 13.348-4.22 13.348s.797 1.3 1.328-.472z" stroke="#00467F" stroke-width="3" stroke-miterlimit="22.926" stroke-linejoin="round"/><path fill-rule="evenodd" d="M199.583 323.927s4.722-16.951 10.919-23.566c6.197-6.645 9.178-6.851 15.198-9.627 4.486-2.067 9.031-5.021 11.096-6.409-.118-.206-.118-.443-.029-.679-.679.384-1.387.768-1.977 1.063-1.683.857-7.467 4.696-10.713 5.464-3.276.767-9.089 3.691-11.598 5.817-2.508 2.097-7.319 8.446-10.004 15.061-2.686 6.586-4.22 13.348-4.22 13.348s.797 1.3 1.328-.472z" fill="#FAF7F3"/><path d="M245.944 273.665s-1.77-.414-2.567 1.506c-.797 1.919-1.623 4.282-2.774 4.695-1.151.414-2.184 1.388-3.099 2.628-.915 1.241-1.387 1.831.649 2.717 2.037.886 4.752-2.244 6.08-3.543 1.328-1.3 4.662-7.265 1.711-8.003z" stroke="#00467F" stroke-width="3" stroke-miterlimit="22.926" stroke-linejoin="round"/><path fill-rule="evenodd" d="M245.944 273.665s-1.77-.414-2.567 1.506c-.797 1.919-1.623 4.282-2.774 4.695-1.151.414-2.184 1.388-3.099 2.628-.915 1.241-1.387 1.831.649 2.717 2.037.886 4.752-2.244 6.08-3.543 1.328-1.3 4.662-7.265 1.711-8.003z" fill="#FAF7F3"/><path d="M198.963 325.935c2.745-5.079 5.194-9.184 7.673-13.023 2.479-3.839 4.574-7.826 7.496-11.872 1.003-1.388 6.168-7.353 7.319-7.707.206-.06.383-.148.56-.207-.324-.443-.413-.827-.354-1.211-12.424 9.598-15.051 21.705-23.904 33.075-.354.679.649 1.358 1.21.945z" stroke="#00467F" stroke-width="3" stroke-miterlimit="22.926" stroke-linejoin="round"/><path fill-rule="evenodd" d="M198.963 325.935c2.745-5.079 5.194-9.184 7.673-13.023 2.479-3.839 4.574-7.826 7.496-11.872 1.003-1.388 6.168-7.353 7.319-7.707.206-.06.383-.148.56-.207-.324-.443-.413-.827-.354-1.211-12.424 9.598-15.051 21.705-23.904 33.075-.354.679.649 1.358 1.21.945z" fill="#FAF7F3"/><path d="M231.012 284.325s-7.112 4.548-8.263 5.848c-1.151 1.299-1.83 2.067-.059 3.691 1.771 1.624 3.364-.768 5.489-2.156 2.125-1.388 3.807-2.835 4.84-3.986 1.033-1.211.59-4.519-2.007-3.397z" stroke="#00467F" stroke-width="3" stroke-miterlimit="22.926" stroke-linejoin="round"/><path fill-rule="evenodd" d="M231.012 284.325s-7.112 4.548-8.263 5.848c-1.151 1.299-1.83 2.067-.059 3.691 1.771 1.624 3.364-.768 5.489-2.156 2.125-1.388 3.807-2.835 4.84-3.986 1.033-1.211.59-4.519-2.007-3.397z" fill="#FAF7F3"/><path d="M195.304 323.572s2.243-13.2 2.479-23.3c.147-5.877-.355-7.649-1.742-11.015-.324-.768-.855-1.624-1.328-2.599-.265.414-.501.768-.737 1.063.413.591.915 1.536 1.328 2.806.708 2.333 1.652 9.332.708 16.419-.944 7.117-2.656 16.36-2.656 16.36s1.18 1.89 1.948.266z" stroke="#00467F" stroke-width="3" stroke-miterlimit="22.926" stroke-linejoin="round"/><path fill-rule="evenodd" d="M195.304 323.572s2.243-13.2 2.479-23.3c.147-5.877-.355-7.649-1.742-11.015-.324-.768-.855-1.624-1.328-2.599-.265.414-.501.768-.737 1.063.413.591.915 1.536 1.328 2.806.708 2.333 1.652 9.332.708 16.419-.944 7.117-2.656 16.36-2.656 16.36s1.18 1.89 1.948.266z" fill="#FAF7F3"/><path d="M193.12 288.725s1.948-1.801 3.01-4.902c1.062-3.101 2.685-4.607.177-6.467-2.508-1.861-2.863 3.603-3.807 5.109-.974 1.506-2.007 2.54-1.8 4.43.177 1.89 1.889 2.539 2.42 1.83z" stroke="#00467F" stroke-width="3" stroke-miterlimit="22.926" stroke-linejoin="round"/><path fill-rule="evenodd" d="M193.12 288.725s1.948-1.801 3.01-4.902c1.062-3.101 2.685-4.607.177-6.467-2.508-1.861-2.863 3.603-3.807 5.109-.974 1.506-2.007 2.54-1.8 4.43.177 1.89 1.889 2.539 2.42 1.83z" fill="#FAF7F3"/><path d="M194.3 324.192s-3.305-23.565-12.631-34.551c-9.325-10.986-1.8-.443-.383 1.299 4.22 5.286 7.732 15.711 9.65 22.769 1.269 4.695 2.184 9.45 1.889 10.306-.443 1.418 1.534.738 1.475.177z" stroke="#00467F" stroke-width="3" stroke-miterlimit="22.926" stroke-linejoin="round"/><path fill-rule="evenodd" d="M194.3 324.192s-3.305-23.565-12.631-34.551c-9.325-10.986-1.8-.443-.383 1.299 4.22 5.286 7.732 15.711 9.65 22.769 1.269 4.695 2.184 9.45 1.889 10.306-.443 1.418 1.534.738 1.475.177z" fill="#FAF7F3"/><path d="M175.148 285.654s-3.542-2.628-3.335-4.548c.236-1.919 1.948-2.362 4.19-.679 2.125 1.624 6.611 7.885 3.365 8.83-1.269.384-2.715-2.126-4.22-3.603z" stroke="#00467F" stroke-width="3" stroke-miterlimit="22.926" stroke-linejoin="round"/><path fill-rule="evenodd" d="M175.148 285.654s-3.542-2.628-3.335-4.548c.236-1.919 1.948-2.362 4.19-.679 2.125 1.624 6.611 7.885 3.365 8.83-1.269.384-2.715-2.126-4.22-3.603z" fill="#FAF7F3"/></g><defs><clipPath id="a"><path fill="#fff" d="M0 0h306v444H0z"/></clipPath></defs></svg>