<svg viewBox="0 0 230 120" fill="none" xmlns="http://www.w3.org/2000/svg"><path d="M134.597 119.591c.638-.174 1.97-.754 3.303-1.333 4.114-1.797 5.678-4.116 9.908-7.072.985-.696 2.086-1.218 3.013-2.087.753-.696 1.68-1.218 2.549-1.797 2.55-1.798 3.766-3.247 4.404-3.884 2.028-1.797 2.955-2.029 11.125-11.015 8.053-8.811 6.315-7.478 9.792-11.825 6.489-8.058 3.244-3.884 5.04-6.725 5.563-8.58 2.955-4.637 6.548-11.014 2.839-5.043 5.041-8.406 6.837-14.724.637-2.203.869-4.522 1.622-6.725.348-.985.348-2.087.638-3.13.405-1.565.811-3.13 1.274-4.696.348-1.043.696-2.145 1.043-3.188.058-.174.058-.464.058-.638.058-.348.174-.637.29-.985.29.464.463.927.232 1.45-.116.231-.058.463-.058.753-.116 9.854.347 5.97.347 13.1 0 3.943-.174 4.928.348 6.9.29.985.29 2.028.464 3.072.289 1.507.579 3.072.927 4.58.115.579 1.912 6.202 4.055 11.535 1.855 4.464 5.041 9.739 7.765 15.42.173.29.173.696.289 1.043.29.696 1.449 1.044 2.086.58.174-.116.348-.29.406-.522.695-1.913 1.448-3.768 1.332-5.855-.058-1.275.174-2.608.232-3.941 0-.464-.174-.928-.232-1.45 0-.116-.058-.29-.058-.406.058-1.333.174-2.666.174-4 0-.58-1.043-7.71-2.201-12.52-.638-2.61-1.333-4.522-2.028-6.493 0-.058 0-.174-.058-.232-1.159-2.319-1.739-4.928-3.071-7.189-.753-1.275-2.318-4.405-3.361-6.84-.695-1.623-1.332-3.188-2.028-4.811-.289-.638-.869-4.464-.927-5.044-.116-1.275-.058-2.55-.174-3.826 0-.463.174-.811.522-1.16 1.043-1.042 4.056-4.579 4.403-4.926 3.187-3.247 2.955-2.841 3.593-3.305 7.822-5.97 4.693-3.536 8.227-6.144 5.852-4.348 4.172-3.247 5.563-3.942.927-.464 1.158-1.508.463-2.32-.116-.173-.347-.347-.405-.52-.116-.986-.696-1.392-1.681-1.508-.231 0-.405-.174-.521-.232-.811.522-1.565.985-2.26 1.507-.579.464-4.693 3.884-11.182 8.348-1.391.927-7.185 5.16-8.692 5.217-1.158.058-2.143.638-3.128 1.16-.928.463-1.855.521-2.84.695-.753.116-7.764-2.087-9.212-2.55-5.157-1.682-8.807-3.479-9.966-3.943-1.043-.405-2.144-.637-3.187-.985-2.028-.754-4.172-.927-6.258-1.391-5.504-1.218-2.085-.174-5.562-.87-.116 0-3.882-.753-3.998-.753-6.084-.29-12.11-.348-18.309 1.043-6.953 1.565-4.636.928-11.241 3.188a3.975 3.975 0 0 0-.463.174c-.232.232-.638.464-.58.638 0 .232.348.522.58.696.116.116.347.058.579.058 8.981.58 9.213 2.666 29.724 4.521 8.285.754 31.404 1.681 32.099 2.435-.579.29.348.174-4.345.406-10.024.463-6.316-.058-12.458.405-.869.058-1.68.29-2.549.348-1.738.116-3.477.116-5.273.232-.521.058-11.124 1.276-12.573 1.507-1.622.232-7.069 1.392-8.865 1.855-8.228 2.03-8.459 2.551-11.125 3.537-3.592 1.275-2.143.521-6.373 2.318-.811.348-.29.348-3.013-.174-.174 0-.348-.058-.464-.058-2.143-.116-4.345-.116-6.489-.347-5.852-.638-11.299.058-12.226.116-4.577.347-2.723.231-6.547.811-2.492.348-4.056.522-4.925.754-12.69 3.246-6.895 1.797-17.904 5.507-2.433.811-4.751 1.913-7.01 3.188-.464.29-.928.696-1.275 1.16-.348.405-.058 1.043.463 1.159 4.114.87 10.603.406 13.269.232 7.126-.348 6.953-.29 10.255-.464 1.16-.058 2.26-.348 3.419-.522 1.854-.232 3.708-.348 5.562-.58 3.824-.463 3.419-.695 5.273-.58v.175c-.522.29-1.043.522-1.565.811-.116.058-9.444 5.45-9.676 5.566-1.68.985-3.476 2.492-4.983 3.768-.463.405-1.1.811-.81 1.507.23.58.868.695 1.505.637a28.386 28.386 0 0 0 2.202-.232l9.734-1.333c2.086-.29 6.432-1.217 8.344-1.739 11.298-2.956 18.309-6.319 21.554-7.652.464-.232 1.449-.753 2.028-.811 4.114-.348 3.534-.348 7.996 0 15.586 1.275 7.069.637 11.704.87.116 0 .232 0 .521.057-.927.812-.579.406-1.158.754-.29.232-.58.463-.406.87.174.405.522.405.985.29.927-.175 1.854-.233 2.897-.407-.116.232-.116.348-.174.406-.811.29-1.622.696-2.433.754-1.101.058-1.97.695-3.013.985-1.333.348-2.492 1.102-3.882 1.16-.348 0-.638.29-.985.405-1.681.406-3.245 1.102-4.925 1.508-2.028.463-3.766 1.507-5.736 2.087-.812.231-1.565.695-2.376.985-2.202.812.058-.406-5.157 1.97-.579.29-1.043-.173-1.854.697-.348.347-2.202.58-3.129.87-3.534 1.216.116.289-8.227 2.666-.116 0-2.724.927-4.114 1.333-2.781.754-1.449-.058-6.316 1.74-.695.289-1.39.405-2.144.52-.985.233-2.028.349-3.07.522-1.217.232-2.434.638-3.65.116-.059 0-.175-.058-.233 0-1.332.406-2.433-.347-3.65-.695-1.448-.348-2.839-.696-4.287-1.044-2.318-.58-7.243-2.26-16.05-3.072-2.897-.29-12.863-.116-17.44.754-8.286 1.565-8.576 2.145-8.75 2.724-.347 1.333 5.1.986 13.385 2.377 1.217.232 2.26.58 3.013.522 1.564-.116 3.882.753 4.75.753 7.301.116 5.274 0 9.503-.348 3.709-.347 8.633-.405 10.72-.347 1.274 0 2.549.29 3.823.463 0 .058 0 .116.058.232-.579.29.174.116-2.549.464-14.427 1.74-12.631.638-17.73 1.16-.232 0-.463.115-.637 0-1.217-.406-2.492-.175-3.766-.233-3.65-.173-3.998.116-5.273.174-1.217.058-5.794-.58-22.076 2.783-11.878 2.435-9.502 2.725-13.848 3.188-2.839.29-5.099.522-6.895.406-4.635-.232-11.182 2.203-12.283 2.725-2.144.985-4.23 2.145-6.316 3.304-.29.174-.521.58-.753.927.406.29.753.696 1.159.812.637.174 1.39.174 2.028.29 7.127 1.217 9.155 2.26 18.251 1.855 6.49-.29 3.245-.116 17.73-3.362 16.92-3.768 12.574-4 37.836-7.71 0 .116.058.174.058.29-4.056 1.217-5.157 1.39-6.721 2.202-1.623.812-1.333.29-4.462 2.03-.811.463-1.622 1.043-2.607 1.043-.174 0-.406.174-.58.29-1.159.927-2.491 1.449-3.882 1.855-2.202.58-3.244 1.797-13.094 3.478-5.679.985-16.745 1.275-38.01 17.507-.58.463-1.738.927-1.738 1.681 0 .463.463.463.811.463 3.419-.405 7.88-1.681 9.445-1.739 4.403-.174 11.935-2.608 13.152-3.014 1.622-.58 11.183-4.406 11.415-4.522 3.534-1.68 1.738-1.565 9.792-3.884 2.028-.58 4.75-1.043 9.618-2.782 8.749-3.188 9.618-4 20.627-10.782l.174.173c-.985 1.16-1.217.928-5.041 3.594C64.315 87.07 63.33 89.331 61.533 91.012c-1.912 1.797-3.012 4.116-4.577 6.145-.405.522-1.854 2.55-1.912 3.246-.116.928.174 1.275 1.217.928 3.302-1.102 5.562-4.464 14.37-10.377 3.418-2.26 7.88-4.985 12.051-8.985 3.013-2.899 10.893-11.362 10.893-11.362l.87 3.304c.115.348.289.754.81.638.522-.116.522-.522.464-.87-.116-1.043-.695-2.666.869-4.753 2.781-3.536 2.55-3.015 5.041-3.826 1.043-.348 2.086-.58 3.129-.87.405-.116.869-.058 1.274-.174 1.043-.29 2.086-.58 3.187-.87 0 0 1.796-.29 6.142-1.275 1.912-.405 3.592-1.449 5.388-1.623.29 0 4.056-1.391 4.288-1.449 6.316-2.145 7.88-2.55 10.024-3.362 4.751-1.855 1.97-1.102 10.603-4.348 1.275-.464-.348-.058 7.822-2.956 3.071-1.102-.29.347 6.895-2.493.232-.116.464-.116.695-.174.058.058.058.174.116.232-1.274.812.174-.058-3.244 1.797-.522.29-1.217.812-.869 1.391.231.406.637.522 1.158.464a7.018 7.018 0 0 0 2.55-.87c.174-.116.405-.174.637-.231.058.057.058.115.116.173-.695.986-1.738 1.624-3.65 3.479-4.288 4.29-4.404 5.159-6.49 7.594-1.738 2.029-2.723 4.521-4.229 6.724-5.737 8.58-13.269 22.202-15.471 25.217-7.011 9.623-10.429 11.246-15.238 19.304-.348.637-2.144 3.652-2.666 4.869-.405.928.696 1.333 1.623.87 0 0 4.461-2.783 5.562-3.363 3.071-1.797 1.333-.405 5.273-3.188 1.854-1.333 5.272-3.362 8.112-6.087 6.489-6.26 6.547-5.97 9.502-9.68 1.043-1.334 4.461-5.913 5.446-7.537 2.086-3.478 6.606-16 10.951-23.883 1.854-3.304 3.477-6.666 7.706-13.101 3.419-5.275 4.172-5.275 5.679-6.725 3.302-3.072.811-1.101 6.141-5.333.522-.406.985-.87 1.565-1.217 3.129-2.203 14.022-9.043 14.601-9.217.058.058.116.116.116.174-1.449 1.739-3.998 4.695-3.998 4.753a30.409 30.409 0 0 0-1.912 2.84c-.174.29-.232.696-.29 1.044 0 .754.406 1.043 1.159.812 1.391-.464 2.434-1.392 3.476-2.435.638-.638 1.217-1.275 2.028-1.855-.347 1.45-.985 2.029-2.028 4.174-.753 1.623-2.433 5.797-2.665 6.434-2.723 7.362-5.968 11.536-6.721 12.696-2.086 3.188-.521 1.797-8.459 10.26-3.129 3.305-5.447 5.16-10.662 10.725-.289.347-.753.58-1.042.87-11.763 11.94-9.155 9.68-11.125 11.825-9.503 10.376-13.79 15.304-20.859 28.811-.174.29-.29.579 0 .869.811.232 1.101.58 1.622.406Zm21.554-84.056c-1.68-.232-3.997-.695-5.678-.985-.174 0-.289-.116-.521-.29.753-.522 4.172-2.029 4.983-2.377 7.648-3.42 7.648-3.304 13.964-5.16 2.143-.637 8.575-2.144 9.212-2.202.695-.116 1.449-.174 2.202-.29 2.433-.405 3.998-.811 11.183-1.623.231 0 .405 0 .637-.058v.232c-7.474 3.42-6.2 3.188-8.228 4.811-.521.406-.521.522-.058 1.044 1.623-.464 3.245-.928 4.925-1.391 0 .058.058.116.058.174-.116.115-.174.29-.289.347-1.159.696-2.26 1.623-3.535 2.03-.985.347-1.796.985-2.723 1.449-.811.405-4.983 2.26-5.91 2.26-3.534.058-4.404 3.073-7.648 2.783-1.912-.058-1.275.927-12.574-.754Z" fill="#fff"/><path d="M41.138 87.186c.811-.29 1.449-.464 2.26-.754-.811-.116-1.796.232-2.26.754ZM189.815 56.52c.058.058.116.058.232.116.348-.638.753-1.275 1.101-1.971-.637.058-1.159.754-1.333 1.855Z" fill="#00467F"/><path d="M23.756 97.563h-.464v.115h.464v-.115ZM147.344 35.36c.58.638.754.638 2.028.406-.579-.116-1.216-.232-2.028-.406Zm2.782.754c.753.116 1.564.29 2.317.406 0-.058 0-.116.058-.232-.753-.29-1.506-.522-2.317-.464-.058.116-.058.174-.058.29ZM30.593 95.185c-.811.29-1.622.58-2.434.928.058.116.058.174.116.29.812-.348 1.623-.638 2.434-.985-.058-.058-.058-.174-.116-.232Zm27.754 2.377c2.201-.695 4.114-3.941 11.878-12.695-.058-.058-.058-.116-.116-.174-.29.116-.58.232-.811.464-3.593 3.246-4.81 4.232-8.054 8.29-.522.637-2.434 3.188-2.897 4.115Zm-9.85-14.666c-.058 0-.058-.058-.116-.058 0 0-.058.058-.058.116l.058.058c.058-.058.058-.116.116-.116Zm-24.451 8.406c1.564-.87 4.461-1.565 5.388-2.03 1.796-.869 3.766-1.275 5.62-1.97 6.606-2.493 6.026-1.74 12.458-3.942.058 0 .058-.116.116-.174 0-.058-.058-.174-.058-.232-8.691 1.16-15.123 3.305-21.09 6.203-2.377 1.16-12.342 7.072-14.428 8.87 0 .057.058.115.058.173.232-.058.463-.058.637-.174 5.04-3.072 11.24-6.724 11.299-6.724Zm35.228 7.536c.29-.29.232-.174.058-.406-.29.232-.232.174-.058.406Zm-26.421-4.985c1.332-.232 2.433-.928 3.65-1.334 2.086-.754 1.68-.174 8.923-4.174 1.1-.637 2.144-1.39 3.187-2.144.173-.116.231-.29.463-.58-2.955.87-5.678 2.029-8.517 2.724 0-.058-.058-.116-.058-.174 1.217-.521 2.433-.985 3.824-1.507-.29-.232-.406-.348-.58-.463 2.84-1.392 5.91-2.145 8.692-3.595-.522-.29-.985 0-1.449.174-12.573 4.522-2.202.87-21.206 7.073-8.17 2.666-14.891 8.057-18.773 9.796 0 .116.058.174.058.29 9.386-1.275 2.955-.521 8.227-1.68 1.449-.407 12.052-4.117 13.559-4.406ZM169.072 44.23c.869-.522 1.739-1.044 2.26-1.971-.695.695-1.738 1.043-2.26 1.97Zm-5.156-3.073c-.812-.232-6.722.87-7.533 1.45.811.463 6.026-.58 7.533-1.45Zm-8.46-3.246c-2.317-.406-4.461-.812-5.736-.928-4.462-.405-4.23-.405-5.447.116-5.446 2.377-4.055 1.971-4.867 2.087v.116c7.127.522 4.404 0 8.46.754.927.174 3.998.464 5.215.521 6.025.348 7.358-.115 8.633-.29 3.476-.521 1.39.059 6.489-1.159v-.174c-.116-.058-.174-.116-.29-.116-5.852.116-2.665.116-6.605-.347-2.375-.232-3.998-.29-5.852-.58ZM50.351 60.288c0 .058 0 .116.058.232 11.356 1.74 5.04.29 11.82 1.681.58.116 5.446.87 8.691 1.102 3.07.231 10.082-1.218 17.382-.696 2.955.174 4.288.754 7.07.348-7.07-1.913-2.724-.638-9.33-2.493-4.287-1.16-11.704-2.203-12.283-2.203-10.14-.116-11.298-.232-18.773 1.044-.58 0-4.114.637-4.635.985Zm110.146-12.29c1.101-.58 2.318-1.043 3.361-1.68 1.101-.696 2.085-1.566 3.128-2.32.116-.115.232-.29.29-.463l-.174-.174c-5.214 2.899-3.013 1.623-8.227 4.638.695.231 1.158.29 1.622 0Zm-19.294 2.32c-1.159.405-2.376.753-3.593 1.159-3.129 1.217-1.043.638-7.59 3.014-6.605 2.435-5.91 2.03-7.359 2.667-2.201.985-4.577 1.333-6.837 2.203-1.738.637-3.592.87-5.388 1.275-.406.116-2.665.87-4.809 1.565-.29.116-.58.174-.869.232-1.217.174-2.434.348-3.651.464-.173 0-.289.116-.579.232.695.232 1.043.87 1.738.637.927-.232 1.854-.405 2.781-.637.869-.232 1.681-.522 2.492-.754 1.506-.406 3.013-.87 4.577-1.217.058 0 4.635-1.044 4.751-1.044 1.159-.116 2.202-.985 3.419-.87.174 0 .348-.057.579-.115 4.23-1.623 4.404-1.855 6.258-2.203.753-.116 1.391-.696 2.144-.87.579-.116 1.101-.58 1.796-.29.116.059.29-.173.406-.173.811-.29 1.622-.58 2.433-.812.116-.058.29 0 .406-.116.695-.638 1.622-.812 2.433-1.275.406-.232.927-.174 1.333-.348.811-.348 1.506-.87 2.317-1.217 1.97-.87 7.88-3.13 9.677-3.768 0 0 1.39-.232 2.781-.638.521-.174 1.043-.464 1.564-.638.869-.232 1.796-.405 2.666-.695.579-.174 4.403-2.087 7.068-2.609 1.739-.348 3.187-1.275 4.809-1.797.522-.174.985-.696 1.449-1.102 0-.057-.058-.115-.058-.173-1.159 0 .695-.464-6.895 2.26-1.043.348-3.65 1.218-5.215 1.797-14.311 4.928-9.966 3.363-14.369 4.87-.869.232-1.738.696-2.665.985Zm-46.47-15.652c-2.49.232-4.692 1.275-7.01 1.913-1.449.405-2.955.695-4.462 1.043-.753.174-1.506.464-2.26.696-.057 0-6.373 1.623-8.922 2.26-.058 0-.058.058-.232.174.174.116.348.232.464.232 1.448.116 2.839.29 4.287.29 6.663 0 9.792-.406 13.79-.753 0 0 4.056-.116 5.33-.232 1.45-.116 2.898-.406 4.288-.58.985-.116 1.97-.174 3.013-.29.927-.116 2.897-.522 5.215-.637.637-.058 1.217-.29 1.912-.116.406.116.985-.464 1.507-.696 9.734-4.986 8.169-4.174 8.865-4.638l-.058-.116c-1.217-.116-2.492-.232-3.709-.347h-1.158c-.348 0-.638-.116-.985-.116-7.301-.116-5.331-.058-10.372.347-.579.058-3.013 0-5.736.638-1.275.406-2.492.812-3.766.928Zm3.94-2.957c-7.59 1.218-5.446.928-7.705 1.565-6.664 1.913-2.144.348-13.5 4.522-1.68.638-.928.174-2.608 1.043 0 .058.058.116.058.174.753-.174 1.448-.29 2.202-.463l9.734-2.725c4.345-1.217.463-.58 9.502-2.493 1.217-.29 3.65-.87 6.026-1.101.695-.058 6.721-.406 7.301-.406.927-.058 1.796.348 3.592.058.753-.116 1.622.174 2.202.232 2.086.116 7.764.87 10.429-.928-.347-.173-.579-.347-.811-.347-2.202-.29-5.389-.754-10.024-.696-2.086 0-7.822.348-9.502.464-.232 0-6.721 1.043-6.895 1.101Zm92.823 3.71c.058.058.115.116.173.116.464-.29.985-.464 1.391-.811.869-.696 1.796-1.276 2.491-2.203 1.333-1.797 3.303-2.725 4.867-6.145.87-1.855.638-1.275.812-2.26-.116-.059-.174-.117-.29-.175-2.491 2.55-8.517 8.116-9.444 11.478Zm.579-12.811c-.232 0-.406 0-.637.058-7.185.811-8.75 1.217-11.183 1.623-.695.116-1.449.116-2.202.29-.637.116-7.011 1.623-9.212 2.203-6.316 1.855-6.316 1.739-13.964 5.16-.811.347-4.172 1.854-4.983 2.376.232.116.405.232.521.29a97.11 97.11 0 0 0 5.678.985c11.299 1.681 10.662.696 12.516.87 3.245.29 4.114-2.725 7.648-2.783.927 0 5.041-1.855 5.91-2.26.869-.464 1.738-1.044 2.723-1.45 1.275-.464 2.376-1.333 3.535-2.029.116-.058.231-.232.289-.348 0-.058-.058-.116-.058-.174-1.622.464-3.244.928-4.925 1.392-.463-.58-.405-.696.058-1.044 2.028-1.623.812-1.333 8.228-4.811.058-.174.058-.29.058-.348Zm-5.678 4.29c.289 0 .637.058.869 0 3.187-.812 5.157-1.334 7.242-3.13.58-.522 1.623-1.044 1.97-1.45 0-.058-.057-.116-.115-.232-3.535 1.102-6.837 2.667-10.024 4.58a.438.438 0 0 1 .058.232Zm-21.786-2.493c-1.854-.116-15.123 2.493-19.874 4.174-1.506.522-3.129.753-4.635 1.275-1.391.406-2.666 1.102-4.056 1.45-1.391.347-2.607 1.217-4.056 1.043-.232 0-.521.116-.753.29-1.681.87-3.361 1.739-5.099 2.55-1.738.812-3.592 1.334-5.215 2.261-1.101.58-2.259.928-3.302 1.507-.927.522-1.97.87-2.897 1.392-1.913.985-3.825 2.029-5.737 3.014-1.912.986-2.317 1.102-3.186 1.681 0 .058.058.116.058.116 1.216-.58 2.433-1.16 3.708-1.681.405-.174.811-.29 1.217-.464 1.216-.521 2.375-1.101 3.534-1.623 2.839-1.217 2.955-1.16 5.446-2.377 5.157-2.434 3.129-1.333 4.983-2.029 1.275-.463 7.359-2.84 8.344-3.246 6.2-2.435 2.781-1.101 4.635-1.739 9.734-3.014 5.968-1.681 10.488-3.014 1.332-.406 2.781-.522 4.113-1.044 1.043-.464 2.26-.521 3.419-.811 5.157-1.392 5.794-1.797 15.47-3.768.695-.174 2.202-.232 4.346-1.044-.174-.058-.348-.174-.464-.116-1.912.406-3.824.986-5.736 1.218-1.564.231-4.751.985-4.751.985Zm16.977-2.898c-.058 0-.174.058-.232.058.058 0 .174.057.232.057v-.115Zm-5.389.87c1.043 0 2.028-.233 3.187-.465-.753-.521.058-.58-3.245.174 0 .116 0 .232.058.29Zm3.419-.697c0 .058 0 .174.058.232.347-.116.695-.174 1.1-.29-.405-.058-.811-.29-1.158.058Zm-12.284.174c-.174 0-1.333.174-3.65.406-11.125 1.16-21.496 4-23.177 4.522 0 0-7.706 2.956-11.472 4.405-8.865 3.363-4.751 1.682-8.633 3.537-5.91 2.782-3.245 1.507-5.273 2.608-11.356 6.319-7.474 4.116-10.951 6.03l-5.099 2.84c-3.882 2.434-4.287 2.898-5.098 3.536.058.058.058.116.116.174 1.158-.58 2.26-1.16 3.418-1.681 5.62-2.783 3.476-1.624 8.923-4.638.116-.058.232-.174.348-.232 2.085-.522 3.708-2.087 5.736-2.724.116-.059.232-.059.289-.116 1.333-1.218 3.245-1.392 4.694-2.493l5.794-2.609c1.043-.463 7.88-3.13 8.459-3.362.29-.116 8.749-3.188 9.155-3.304 1.043-.348 2.086-.522 3.187-.754.405-.116.753-.232 1.159-.348 1.796-.463 3.128-.87 5.91-1.507 10.95-2.55 7.068-1.217 16.513-3.188.463-.116 1.159-.058 1.564-.116 7.243-1.45 6.142-.696 8.691-1.565-1.738-.348-1.68.232-5.388.29-1.217 0-2.376.057-3.593.347-.521 0-1.043-.116-1.622-.058Zm25.32 4.29c-.637.29-1.101.928-1.68 1.276-8.17 5.159-6.837 4.057-9.271 5.159-.115.058-.347.116-.405.29-.174.637-.464.521-2.723 1.507 0 .058.058.174.058.232 1.158 0 1.564-.232 1.622.463.058.58-.348.464-.695.58a28.46 28.46 0 0 0-2.376.812c-.058 0-.058.116-.058.232-.869-.29-1.738.057-2.549.173-.753.116-1.507.174-2.26.406-1.043.348-2.086.116-3.071.232-2.086.232-4.172.174-6.257.116-3.94-.116-8.865-.927-9.445-.985h-.348v.173c.174.058 3.94.754 4.114.754 1.101.116 2.202.174 3.245.29 1.275.116 2.607.406 3.882.464 4.577.232 3.824.174 8.923-.58.406-.058.869-.116 1.275-.232.869-.232 1.796-.116 2.549-.753h.058c.521.115 1.043.231 1.564-.174.058-.058.116-.058.116-.058 1.101.231 1.565-.696 2.26-1.16 1.506-.985 2.897-2.145 4.693-2.608.232-.058 4.52-2.84 4.751-3.015 9.097-5.739 9.677-5.333 12.052-8.173v-.29c-.347 0-.753-.116-1.101-.058-1.332.348-2.723.753-3.824 1.739-1.622 1.101-3.302 2.203-5.099 3.188Zm6.837-5.623c.232-.058.406-.232.58-.348 0-.058-.058-.174-.058-.232l-4.172.522c-.927.116-1.912.174-2.839.232-2.144.232-7.127.87-7.127.87-.174 0-3.476.231-3.592.29-1.217.753-1.854.347-5.91 1.1-7.88 1.508-15.528 3.595-17.962 4.233-34.359 8.869-19.758 5.796-34.707 10.898-1.68.58-.115-.174-9.792 4.174-12.978 5.797-8.981 4.174-14.021 6.55 0 0-2.55.87-5.331 1.971-.058.058-.116.174-.232.348 1.101.116-.405.174 4.693-.522 2.028-.29 2.782-.232 8.344-1.333 2.202-.406 4.23-.754 10.14-2.609 4.983-1.565 9.444-3.188 12.573-4.521 1.912-.812 3.708-1.74 5.562-2.609.985-.464 2.028-.811 3.013-1.217 7.88-3.478 9.039-4.174 13.964-6.55 3.187-1.508 9.387-4.465 15.818-5.914 1.217-.29 2.433-.811 3.766-.811.869 0 1.738-.464 2.665-.696 8.923-2.203 16.63-2.203 21.786-3.072.985-.348 1.912-.58 2.839-.754Zm-7.184-4.29c-.232 0-.522-.058-.754-.058v.174h.754v-.116Zm-57.13-4.753v.174c1.332.232 2.607.464 3.94.753 1.274.29 2.607.638 3.882.928.347.058 12.399 1.913 13.5 2.029 2.955.29 5.91.521 8.923.87.695.057 1.333 0 1.97 0 2.202.057 4.867.463 5.447.463 13.268.58 11.356.464 17.614 1.102.231 0 .463.173.695.231.753.116 1.506.174 2.318.29 2.723.406 1.448.58 7.59.464.232 0 .463-.174.753-.29v-.174c-.174-.058-.405-.174-.579-.116-.811.406-1.623-.116-2.492-.058-.695.058-3.418-.29-5.446-.695-5.679-1.044-6.606-.696-13.674-3.073-5.215-1.739-4.694-1.797-10.777-2.84-1.681-.29-3.361-.406-4.983-.812-1.449-.348-2.955-.348-4.462-.637-.232-.058-.463-.058-.637-.058-12.458-.406-9.097-.348-13.327.058-1.564.174-8.749.927-10.255 1.39Zm34.649-2.26c-1.739-.349-5.679-.986-10.198-1.508-4.577-.522-7.359-.29-12.052.116-3.94.348-3.766.464-9.502 1.68-2.318.465-1.333.175-2.376.639 0 .116.058.174.058.29 1.854-.29 3.708-.522 5.562-.754 0 0 1.855-.116 5.853-.638.347-.058 5.04.116 7.764.232 1.448.058-.464-.464 6.895.29 16.397 1.739 16.976 4.927 29.028 6.782.058-.058.058-.116.116-.174-.174-.115-.29-.347-.463-.405-2.434-.87-4.868-1.623-7.243-2.493-1.912-.696-3.708-1.565-5.62-2.203-1.797-.58-3.593-1.217-5.505-1.391-.753-.058-1.506-.348-2.317-.464Zm-41.544 94.141c.579-.058-.058.522 4.345-3.072 10.661-8.753 12.226-13.159 14.312-16.927 6.373-11.304 4.519-11.072 10.082-21.043.115-.232.173-.58.289-.812 4.23-8.173 3.998-7.883 5.331-9.507 2.433-3.014 3.187-3.883 5.562-6.84l-.116-.116c-.463.464-.985.87-1.448 1.391-5.041 5.566-4.346 4.986-6.663 8.058-2.376 3.13-2.086 2.087-5.91 9.217-1.391 2.609-3.361 6.667-3.361 6.667-13.095 23.188-13.095 22.144-20.164 30.202a18.152 18.152 0 0 0-2.259 2.782ZM65.358 77.853c-.696.406-1.275.87-2.086.985-1.043.116-13.095 8.174-14.022 8.87 0 .058.058.116.058.232 4.346-.638 10.545-2.899 14.659-4.522 9.27-3.768 6.2-4 18.136-9.739.753-.348 1.506-.754 2.26-1.16 5.156-2.55 6.43-2.724 8.111-4.231.174-.116.406-.174.58-.29.231-.174.463-.348.637-.522a.44.44 0 0 1-.116-.231c-.348.115-.753.231-1.1.347-1.623.638-3.303 1.276-4.926 1.913-3.882 1.45-4.52 1.508-6.895 2.203-4.056 1.16-2.144.986-5.33 1.913-.87.232-8.228 3.188-9.966 4.232Zm150.705 5.101c.058 0 .173 0 .231-.058 0-.406.058-.87 0-1.275-.116-.87-.289-1.681-.405-2.55-1.449-10.145-.811-11.015-1.912-14.899-3.709-12.927-6.548-16.927-8.923-24.869-1.333-4.405-.696-3.362-1.333-3.942-.174 1.566 0 .928.116 4 .232 5.565-.695 9.913 2.144 20.348.869 3.188 2.202 6.782 3.94 10.956.347.811.811 1.507 1.217 2.319.869 1.739 1.622 3.536 2.491 5.275.869 1.739.579.753 2.434 4.695Zm-136.162-5.16c-5.504 4.175-3.013 2.494-8.17 7.073-2.955 2.609-5.33 5.797-8.46 9.45-1.216 1.449-2.607 2.782-3.36 3.651l.174.174c.174-.174.406-.348.58-.521.173-.116.29-.348.463-.406.927-.348 1.622-1.044 2.26-1.797.347-.348.869-.522 1.274-.812.348-.29.638-.58.927-.87 1.565-1.797 10.082-7.014 12.284-8.695 1.448-1.101 5.62-4.753 6.895-6.029 0 0 6.605-7.246 10.371-11.072a.385.385 0 0 0 .116-.406c-4.809 3.536-12.573 8.174-13.558 8.812-.637.405-1.159.985-1.796 1.449ZM168.087 48c.869-1.218 1.854-2.435 2.839-3.595.406-.463.927-.869 1.391-1.333.116-.116.174-.232.232-.348-.058-.058-.058-.115-.116-.115-2.086 1.449-3.94 3.536-5.62 5.449a56.84 56.84 0 0 0-2.376 2.898c-.637.87-1.333 1.74-1.912 2.667-.985 1.565-3.592 6.26-4.288 7.652-5.736 11.014-3.418 7.42-7.648 16.753-2.549 5.68-6.084 11.42-7.474 13.1-2.318 2.9-3.187 4.175-8.865 8.928-1.217.986-2.318 2.029-3.709 2.783-.405.232-.753.579-1.158.869-1.623 1.16-3.245 2.319-4.809 3.536-3.303 2.493-3.129 3.015-4.056 2.551 3.534-3.188 3.013-2.609 5.678-5.507.405-.464.811-.985 1.217-1.449 1.216-1.334 2.375-2.725 3.592-4.058 5.331-6.029 4.056-3.826 10.719-14.434 3.534-5.624 7.185-12.638 10.256-18.609 3.94-7.71 3.534-7.072 8.054-12.811.695-.87 1.39-1.681 2.085-2.493.927-1.043 1.797-2.145 2.839-3.304-.289.058-.463 0-.521.058-1.043.928-2.086 1.855-3.071 2.84-.985.986-1.854 2.03-2.781 3.015-2.376 2.493-5.331 5.913-10.429 14.492-3.245 5.45-5.389 8.58-7.127 11.652-.29.464-5.099 8.696-5.447 9.275-.289.522-.811.928-1.043 1.45-.753 1.449-1.854 2.724-2.665 4.115-.521.928-1.39 1.624-2.086 2.435-1.332 1.565-2.607 3.13-3.998 4.696-.869.985-1.796 1.913-2.665 2.898-1.97 2.203-3.766 4.464-5.157 7.072-.116.232-.232.464-.405.696 0 0 0 .058.058.116.405-.232.869-.464 1.274-.696l.116.116c-.29.986.406-.348-2.375 2.609.058.058.115.116.115.174.116 0 .232 0 .348-.058 1.217-.696 2.376-1.449 3.592-2.145 1.565-.928 3.129-1.797 4.694-2.725a75.292 75.292 0 0 0 5.041-3.304c1.854-1.333 3.534-2.84 5.156-4.464 3.071-3.13 2.897-2.26 5.91-5.97 7.301-9.044 7.475-10.319 9.271-14.55.29-.696.753-1.392 1.043-2.146 3.65-7.941 3.187-8.173 5.215-11.825 1.912-3.363 5.04-10.609 11.066-18.956Zm-24.161 55.071c-.464.637-.811 1.449-1.391 1.971-.637.579-1.043 1.275-1.506 2.029-.927 1.391-1.796 2.84-2.723 4.231.058.058.173.116.231.174 1.854-2.203.927-1.565 3.129-3.71 9.213-8.87 6.663-6.55 9.966-9.855 16.05-16.405 19.642-18.898 27.522-29.448 4.172-5.565 3.94-5.45 3.94-5.45 1.564-1.622 2.492-3.767 3.882-5.564.927-1.218 1.738-2.32 3.824-6.377.985-1.855 2.202-4.232 3.882-7.536 0 0 .232-.638 1.275-2.956.058 0 .116.057.174.057 0 .116.058.29.058.406-1.159 3.304-2.318 6.087-3.766 8.812-1.333 2.608-2.897 5.217-4.867 8.231 0 0 0 .058-.058.058-2.955 4.58-6.374 9.16-11.357 15.42-3.882 4.928-2.839 3.246-4.925 5.565-3.534 3.826 2.144-1.913-10.082 10.435-.231.232-.521.348-.695.522-2.318 2.376-5.794 6.144-17.035 17.274-2.086 2.029-2.723 2.493-4.056 4.754.058.058.058.116.116.174.696-.464-.811 1.101 11.878-11.246 17.556-16.985 20.048-18.956 28.044-29.565 6.142-8.057 3.708-4.927 4.577-6.26.811-1.218 1.507-2.551 2.376-3.71.811-1.044 1.274-2.03 1.912-2.957.29-.406.579-.87.985-1.217.058.058.116.058.174.116-.058.173-.058.405-.116.58-.29.579-.58 1.217-.985 1.68-.985 1.044-1.507 2.377-2.26 3.537-7.532 11.536-4.114 6.666-7.88 11.362-7.648 9.565-5.504 6.55-12.399 13.796-2.55 2.725 1.216-.811-7.591 7.42-7.184 6.725-4.056 3.942-7.3 7.247-1.391 1.449-13.848 12.927-14.833 14.144.637.232 1.101.116 1.564-.174 4.867-2.492 5.041-3.304 8.344-6.029 1.217-.985 4.867-2.956 7.127-5.101 1.796-1.681 3.882-2.956 6.373-5.391 1.043-1.044 2.028-2.203 3.129-3.13 1.68-1.392 2.839-3.189 4.345-4.754 18.715-20.057 22.829-31.651 26.132-37.39 1.912-3.304 2.897-7.246 3.476-9.043.29-.812.638-1.624.464-2.493-.058 0-.174-.058-.232-.058-.232.58-1.738 4.406-3.708 7.072-.116-.058-.174-.116-.232-.116.058-.174.058-.348.116-.463 2.607-4.87 1.275-2.493 2.492-4.986 1.622-3.362 2.433-4.232 3.07-6.956.29-1.334.87-3.362.927-4.29.058-.87.29-1.623.522-2.493.116-.521-.058-1.101-.116-1.855-2.491 3.073-6.316 13.74-6.837 15.014a78.499 78.499 0 0 1-2.839 6.203c-5.794 11.014-13.095 16.348-26.19 29.912-11.124 11.478-15.006 15.594-20.047 22.377ZM5.504 77.1c.058.057.058.173.116.231 5.62-1.043 6.374-1.101 9.329-1.449.927-.116 3.766.174 6.721-.638 2.376-.637 2.955.29 8.286-1.16.579-.173 10.14-2.086 13.326-3.245.695-.232 5.04-2.087 10.14-2.667 3.824-.406 3.824-.406 4.577-.406 7.011.29 4.23.29 8.402-.174.173 0 .405-.058.579 0 3.013.522 12.631.29 15.18-.116 3.94-.58 3.303.058 8.634-1.855.116-.058.174-.116.29-.347-1.623-.116.115-.174-4.346.58-2.84.463-4.23.173-6.2.463-2.491.406-5.04 0-7.532.232-3.593.29-11.82-2.087-39.98 4.811-7.474 1.797-6.663 1.218-15.354 2.03-3.187.405-9.386 1.68-12.168 3.71ZM215.31 52.867c-.173-.522-.405-1.043-.579-1.507-1.449-3.826-2.434-5.681-2.434-5.681-.289-1.507-3.012-6.203-3.708-7.942-2.955-6.956-2.086-6.203-2.491-7.42-.638-1.971-.696-4.058-.638-6.087 0-.232-.116-.464-.116-.696-.115-1.449.174-.058.406-2.086.058-.348.116-.754.232-1.102.29-.753.521-.753 1.332-.232 1.391-1.16.638-.174 2.608-3.13.637-.928-.29.058 4.925-3.71 13.095-9.565 3.36-2.087 13.558-9.97-.232-1.044-.174-1.45-.869-1.508-1.912-.232-.579-.464-6.432 3.942-1.796 1.333-3.65 2.55-5.388 4-1.912 1.623-4.172 2.608-6.084 4.116-3.36 2.608-2.955 2.203-4.114 2.492-2.723.638-2.201.348-2.491.812.811.174 1.68-.522 2.433.348-.231.174-.347.463-.579.463-.695.174-1.043.58-1.159 1.16 1.507.927 1.912.927 1.622 2.029-.521 1.97-.927 1.739-1.448 6.666-.116 1.044.174 2.03.637 3.015 1.507 3.072.638 2.086 3.477 7.478 2.202 4.116 2.549 4.405 5.099 10.144.521 1.16.927 2.203 1.274 3.073 1.507 3.826 1.623 5.333 2.086 7.768.348 1.797.753 3.594.985 5.39.116.87-.058 1.74.058 2.61.522 4.115-.116 13.159-.116 15.71 0 .81.232 1.622.406 2.434h.232c.231-.464.579-.87.695-1.391.695-2.667.869-5.391.811-8.174-.232-7.304-.058-4.058-1.043-10.203-1.506-9.043-2.781-11.71-3.187-12.81ZM84.536 68.23v-.174c-.232-.058-.405-.174-.58-.116-1.158.348-2.375.29-3.534.464-2.028.29-4.055.116-6.084.116l-5.504.174c-1.275 0-2.55-.116-3.766 0-5.505.637-9.213-.928-18.078 1.739-1.622.521-3.244 1.16-4.867 1.739-.231.058-14.427 3.594-15.18 3.652-3.825.348-4.056.058-5.91.58-.985.29-3.419.347-4.81.463-10.023 1.044-6.315.696-9.212 1.276-1.507.29-1.796.058-3.766.522v.173c15.47 3.305 16.687 3.479 38.183-1.739 3.419-.811 2.665-.811 7.88-1.97 4.056-.928 5.968-1.566 6.026-1.566 9.908-2.435 24.045-3.304 29.202-5.333Zm-62.75 13.855c-9.039.405-11.125-.58-18.252-1.855-.695-.116-1.39-.116-2.028-.29-.405-.116-.753-.522-1.158-.812.231-.29.405-.753.753-.927 2.086-1.16 4.172-2.32 6.315-3.304 1.101-.522 7.649-2.957 12.284-2.725 1.796.116 4.056-.116 6.895-.406 4.346-.464 2.028-.754 13.848-3.188 16.281-3.362 20.859-2.725 22.076-2.783 1.274-.058 1.622-.348 5.272-.174 1.275.058 2.55-.174 3.766.232.174.058.464 0 .638 0 5.157-.521 3.302.58 17.73-1.16 2.723-.347 1.97-.173 2.55-.463 0-.058 0-.116-.059-.174-1.275-.174-2.55-.464-3.824-.464-2.144-.058-7.069.058-10.72.348-4.229.348-2.259.464-9.501.348-.927 0-3.187-.87-4.752-.754-.753.058-1.796-.29-3.013-.521-8.343-1.392-13.732-1.044-13.384-2.377.116-.58.464-1.16 8.75-2.725 4.576-.87 14.542-1.043 17.44-.753 8.749.87 13.674 2.492 16.05 3.072 1.448.348 2.838.696 4.287 1.044 1.217.29 2.318 1.043 3.65.695h.232c1.217.522 2.433.116 3.65-.116 1.043-.174 2.028-.348 3.071-.521a14.42 14.42 0 0 0 2.144-.522c4.867-1.855 3.534-.986 6.315-1.74 1.391-.405 3.998-1.275 4.114-1.333 8.344-2.318 4.636-1.449 8.228-2.666.869-.29 2.781-.58 3.129-.87.811-.87 1.274-.405 1.854-.695 5.215-2.377 2.955-1.16 5.157-1.971.811-.29 1.564-.754 2.375-.986 1.97-.58 3.708-1.623 5.736-2.087 1.623-.405 3.245-1.159 4.925-1.507.348-.058.638-.348.985-.406 1.391-.058 2.608-.811 3.882-1.159 1.043-.232 1.913-.87 3.013-.986.812-.058 1.623-.463 2.434-.753.058 0 .116-.174.174-.406-1.043.116-2.028.174-2.897.406-.464.116-.812.116-.985-.29-.174-.406.116-.696.405-.87.58-.405.232 0 1.159-.753-.29 0-.405-.058-.521-.058-4.636-.232 3.882.464-11.705-.87-4.403-.347-3.882-.347-7.995 0-.58.058-1.565.58-2.028.812-3.187 1.333-10.256 4.638-21.554 7.652-1.855.522-6.258 1.45-8.344 1.739l-9.734 1.333c-.753.116-1.449.174-2.202.232-.58.058-1.275-.058-1.506-.638-.29-.695.347-1.1.81-1.507 1.45-1.217 3.303-2.782 4.984-3.768.232-.116 9.56-5.449 9.676-5.565.521-.29 1.043-.58 1.564-.811v-.174c-1.854-.116-1.39.116-5.272.58-1.854.231-3.709.347-5.563.58-1.158.115-2.26.463-3.418.52-3.303.175-3.187.117-10.256.465-2.665.116-9.154.637-13.268-.232-.522-.116-.754-.754-.464-1.16.348-.463.754-.87 1.275-1.159a44.884 44.884 0 0 1 7.01-3.188c11.01-3.71 5.216-2.261 17.905-5.507.869-.232 2.433-.348 4.925-.754 3.824-.58 1.97-.464 6.547-.812.927-.058 6.431-.753 12.226-.116 2.143.232 4.345.232 6.489.348.174 0 .348.058.464.058 2.665.522 2.201.522 3.012.174 4.23-1.797 2.724-1.043 6.374-2.319 2.665-.985 2.897-1.507 11.125-3.536 1.796-.463 7.242-1.623 8.865-1.855 1.448-.232 12.051-1.449 12.573-1.507 1.738-.116 3.534-.116 5.273-.232.869-.058 1.68-.29 2.549-.348 6.084-.521 2.434.058 12.457-.405 4.694-.232 3.766-.174 4.346-.406-.637-.754-23.814-1.681-32.1-2.435-20.453-1.797-20.684-3.884-29.723-4.522-.174 0-.406 0-.58-.058-.231-.173-.579-.463-.579-.695 0-.232.348-.464.579-.638.116-.116.29-.174.464-.232 6.605-2.203 4.287-1.623 11.24-3.188 6.2-1.391 12.226-1.333 18.31-1.044.116 0 3.882.696 3.998.754 3.476.638 0-.406 5.562.87 2.086.463 4.23.637 6.258 1.39 1.043.407 2.144.58 3.187.986 1.158.464 4.809 2.203 9.965 3.942 1.449.464 8.46 2.667 9.213 2.551.927-.174 1.912-.232 2.839-.696.985-.521 1.97-1.101 3.129-1.16 1.506-.057 7.301-4.289 8.691-5.216 6.49-4.464 10.603-7.884 11.183-8.348.695-.522 1.448-.985 2.259-1.507.116.058.348.174.522.232.927.116 1.506.521 1.68 1.507 0 .174.232.348.406.522.637.811.463 1.855-.464 2.318-1.39.696.29-.405-5.562 3.942-3.477 2.609-.348.174-8.228 6.145-.637.522-.405.116-3.592 3.304-.348.348-3.419 3.884-4.404 4.928-.347.348-.521.637-.521 1.101.058 1.276 0 2.55.174 3.884.058.58.637 4.406.927 5.043.637 1.624 1.332 3.189 2.028 4.812 1.043 2.435 2.607 5.565 3.36 6.84 1.333 2.261 1.912 4.87 3.071 7.189.058.058 0 .173.058.231.695 2.03 1.391 3.942 2.028 6.493 1.159 4.812 2.202 11.942 2.202 12.521.058 1.334-.116 2.667-.174 4 0 .116.058.29.058.406.116.464.29.928.232 1.45-.058 1.333-.29 2.608-.232 3.941.116 2.087-.637 4-1.333 5.855a1.166 1.166 0 0 1-.405.522c-.638.464-1.796.116-2.086-.58-.116-.348-.116-.695-.29-1.043-2.781-5.681-5.968-11.014-7.764-15.42-2.202-5.333-3.94-10.956-4.056-11.536-.29-1.507-.637-3.072-.927-4.58-.174-1.043-.232-2.087-.463-3.072-.522-1.97-.348-2.956-.348-6.898 0-7.13-.464-3.247-.348-13.101 0-.232-.058-.522.058-.754.29-.522.058-.986-.231-1.45-.116.29-.232.638-.29.986-.058.232 0 .464-.058.638-.348 1.043-.753 2.087-1.043 3.188-.464 1.565-.869 3.13-1.275 4.696-.232 1.043-.29 2.145-.637 3.13-.753 2.203-.985 4.522-1.622 6.724-1.797 6.261-3.998 9.623-6.838 14.725-3.592 6.318-1.043 2.377-6.547 11.014-1.854 2.84 1.391-1.333-5.041 6.724-3.476 4.29-1.738 2.957-9.792 11.826-8.17 8.985-9.097 9.159-11.125 11.014-.695.58-1.854 2.029-4.403 3.884-.811.58-1.796 1.102-2.549 1.797-.928.87-2.028 1.392-3.013 2.087-4.23 2.899-5.795 5.276-9.908 7.073-1.333.579-2.666 1.159-3.303 1.333-.522.116-.811-.174-1.159-.464-.29-.29-.174-.58 0-.869 7.127-13.507 11.415-18.493 20.859-28.811 1.97-2.145-.637.174 11.125-11.826.347-.348.753-.58 1.043-.87 5.214-5.623 7.532-7.42 10.661-10.782 7.938-8.463 6.373-7.072 8.459-10.26.753-1.102 3.998-5.334 6.721-12.696.232-.637 1.912-4.811 2.666-6.434.985-2.203 1.622-2.783 2.028-4.174-.754.58-1.391 1.217-2.028 1.855-.985 1.043-2.028 1.97-3.477 2.435-.753.231-1.217-.058-1.159-.812 0-.348.116-.696.29-1.044.579-.985 1.217-1.97 1.912-2.84 0 0 2.55-2.956 3.998-4.754-.058-.058-.116-.115-.116-.173-.579.174-11.472 7.072-14.601 9.217-.521.348-1.043.811-1.564 1.217-5.331 4.232-2.84 2.203-6.142 5.333-1.507 1.392-2.202 1.45-5.678 6.725-4.23 6.492-5.852 9.855-7.707 13.159-4.403 7.884-8.922 20.405-10.95 23.883-.927 1.623-4.346 6.203-5.447 7.536-2.955 3.71-3.013 3.362-9.502 9.681-2.839 2.783-6.258 4.754-8.112 6.087-3.94 2.782-2.202 1.391-5.273 3.188-1.043.58-5.504 3.363-5.562 3.363-.869.463-1.97.115-1.622-.87.521-1.217 2.259-4.232 2.665-4.869 4.751-8.058 8.17-9.681 15.238-19.304 2.202-3.015 9.735-16.58 15.471-25.217 1.448-2.203 2.491-4.696 4.229-6.724 2.028-2.435 2.144-3.363 6.49-7.594 1.854-1.855 2.897-2.493 3.65-3.479-.058-.058-.058-.116-.116-.174-.232.058-.463.116-.637.232-.811.464-1.622.754-2.55.87-.521.058-.869-.058-1.158-.464-.29-.522.347-1.101.869-1.391 3.36-1.855 1.97-1.044 3.244-1.797-.057-.058-.057-.174-.115-.232l-.696.174c-7.184 2.84-3.824 1.391-6.895 2.492-8.169 2.899-6.605 2.493-7.822 2.957-8.633 3.246-5.852 2.435-10.603 4.348-2.144.87-3.708 1.217-10.024 3.362-.232.058-4.056 1.45-4.287 1.45-1.797.173-3.477 1.158-5.389 1.622-4.346.986-6.142 1.276-6.142 1.276-1.043.29-2.086.637-3.186.87-.406.115-.87.057-1.275.173-1.043.29-2.144.522-3.129.87-2.492.811-2.318.347-5.04 3.826-1.623 2.028-.986 3.652-.87 4.695.058.406.058.812-.463.87-.522.116-.696-.29-.812-.638-.347-1.043-.58-2.145-.869-3.304 0 0-7.88 8.521-10.893 11.362-4.171 4.058-8.633 6.724-12.051 8.985-8.808 5.913-11.067 9.333-14.37 10.435-1.043.347-1.333 0-1.217-.928.058-.638 1.507-2.725 1.912-3.246 1.507-2.03 2.666-4.348 4.578-6.145 1.796-1.681 2.78-4 14.427-12.174 3.824-2.724 4.114-2.434 5.04-3.594l-.173-.174c-11.067 6.783-11.878 7.594-20.627 10.783-4.867 1.797-7.59 2.203-9.618 2.782-8.112 2.319-6.258 2.203-9.792 3.884-.232.116-9.85 3.942-11.415 4.522-1.159.406-8.749 2.84-13.152 3.014-1.623.058-6.084 1.333-9.445 1.739-.405.058-.81 0-.81-.463 0-.754 1.158-1.218 1.737-1.682 21.265-16.231 32.332-16.52 38.01-17.506 9.85-1.681 10.95-2.899 13.094-3.478 1.449-.406 2.724-.928 3.883-1.856.173-.115.405-.29.579-.29.985-.057 1.796-.58 2.607-1.043 3.13-1.797 2.84-1.217 4.462-2.029 1.564-.811 2.665-.985 6.72-2.203 0-.116-.057-.174-.057-.29-25.204 3.71-20.859 3.885-37.836 7.71-14.948 3.305-11.704 3.073-18.193 3.42Zm194.682-5.218h.116c0-.174.058-.29.058-.463.058-1.855.232-3.652.174-5.507 0-1.276-.348-4.986-.348-4.986.116-1.855-.174-3.362-1.854-10.956 0-.116-4.345-10.435-4.867-11.42-3.418-6.145-3.882-6.608-4.751-9.217-.174-.522-.58-.986-.985-1.623-.058.232-.116.347-.116.405 1.448 5.681 1.101 4.174 1.912 6.493 3.245 9.101 1.97 5.217 3.65 9.101.406.87.638 1.855.985 2.783.348.87.754 1.739 1.101 2.608.174.464.232.928.406 1.392.405 1.043.927 2.087 1.274 3.188 2.26 7.188 2.202 8.985 2.202 11.362 0 .812.232 1.623.348 2.435.058.29 0 .637.058.985.521 3.536.463 2.899.637 3.42Z" fill="#00467F"/></svg>