<svg viewBox="0 0 307 87" fill="none" xmlns="http://www.w3.org/2000/svg"><path d="M43.552 87c24.057 0 43.553-19.472 43.553-43.5S67.609 0 43.552 0C19.496 0 0 19.472 0 43.5S19.496 87 43.552 87Z" fill="#fff"/><path d="M85.266 43.5c0 23-18.687 41.663-41.714 41.663C20.527 85.163 1.84 66.499 1.84 43.5c0-23 18.687-41.663 41.714-41.663 23.026 0 41.713 18.664 41.713 41.663Z" fill="#00467F"/><path d="M62.68 43.5c0 10.728-8.46 19.252-19.201 19.252-3.826 0-11.403-1.543-10.447-6.907.074-.368.295-1.47.957-2.425.735-1.102 2.501-2.719 6.253-3.968 5.591-1.837 10.005.294 10.005.294s-3.531-3.013-10.005-1.25c-1.324.368-2.354.809-3.384 1.25-.81.367-.956-.147-.81-.441.736-1.25 1.472-2.498 2.355-3.6 1.103-1.397 3.899-4.336 8.313-6.026 3.163-1.176 6.327-1.543 6.327-1.543s-3.164-.22-6.18.808c-1.25.441-2.28.882-3.163 1.323-.736.367-.589-.147-.221-.515l.662-.66c6.033-6.173 11.55-9.039 11.55-9.039-5.002 1.102-8.975 3.233-13.095 6.907-.147.147-.515.441-.515-.073s0-1.029-.073-1.837c-.148-1.984-1.251-3.233-1.251-3.233s.956 1.543.736 3.82c-.221 2.279-1.03 3.454-1.251 3.748a64.618 64.618 0 0 0-3.384 3.895c-.074.146-.442.22-.442-.368 0-.882-.073-2.13-.147-3.012-.294-4.777-2.207-6.32-2.207-6.32s1.398 2.278 1.472 6.32c0 1.69-.221 3.453-.442 4.702-.147.882-1.177 2.498-1.324 2.646-3.237 4.408-5.518 8.45-6.548 10.287-1.692 2.939-2.722 4.996-3.752 7.054-.662 1.175-1.692-.588-.809-2.572 1.472-3.233 4.488-7.642 3.017-11.463-.883-2.278-1.325-4.409-1.325-6.98 0-10.729 8.608-19.252 19.054-19.252h19.422V43.5h-.147Z" fill="#8BC53F"/><path d="M119.254 49.525h-3.678v10.802c1.103.22 3.089.367 4.487.367 3.899 0 6.548-1.91 6.548-5.731 0-4.042-2.869-5.438-7.357-5.438Zm.515-14.181c-1.324 0-3.237.22-4.193.367v9.846h3.825c3.899 0 6.18-1.983 6.18-5.143-.074-3.454-2.722-5.07-5.812-5.07Zm.294 29.539c-3.237 0-6.989-.368-9.196-1.103V32.037c2.207-.514 6.621-.882 8.976-.882 5.738 0 10.52 2.572 10.52 8.671 0 3.307-1.913 5.878-4.856 7.054v.22c3.605.956 6.033 3.748 6.033 7.863 0 6.099-4.488 9.92-11.477 9.92ZM136.248 38.724h4.488v25.57h-4.488v-25.57Zm2.207-4.63c-1.618 0-2.795-1.175-2.795-2.865 0-1.617 1.25-2.792 2.869-2.792 1.545 0 2.722 1.175 2.722 2.792 0 1.69-1.251 2.866-2.796 2.866ZM157.142 42.471c-4.194 0-7.284 3.233-7.284 9.038 0 5.511 2.722 9.038 7.21 9.038 4.414 0 7.357-3.453 7.357-9.038.074-5.584-2.722-9.038-7.283-9.038Zm0 22.412c-7.651 0-12.139-5.585-12.139-13.374 0-7.495 5.003-13.3 12.139-13.3 7.504 0 12.138 5.291 12.138 13.3 0 7.642-5.076 13.374-12.138 13.374ZM189.512 64.295V48.717c0-4.409-2.06-6.172-5.371-6.172-2.428 0-4.487 1.249-5.738 3.012v18.738h-4.561V45.998c0-2.13-.368-5.07-.957-6.76l4.267-1.029c.294.735.662 2.425.736 3.16 2.133-2.425 4.855-3.306 7.283-3.306 4.267 0 8.902 1.837 8.902 9.92V64.22h-4.561v.074ZM210.405 42.471c-4.194 0-7.283 3.233-7.283 9.038 0 5.511 2.722 9.038 7.209 9.038 4.488 0 7.357-3.453 7.357-9.038 0-5.584-2.795-9.038-7.283-9.038Zm0 22.412c-7.651 0-12.139-5.585-12.139-13.374 0-7.495 5.003-13.3 12.139-13.3 7.504 0 12.139 5.291 12.139 13.3 0 7.642-5.15 13.374-12.139 13.374ZM239.17 43.206c-.515-.073-1.251-.22-1.986-.22-2.355 0-4.12 1.102-5.592 3.453v17.856h-4.487V47.027c0-2.792-.368-5.731-.957-7.715l4.267-.956c.368.956.81 2.499.81 3.821 1.545-2.865 3.972-4.041 6.694-4.041.442 0 1.251.073 1.766.22l-.515 4.85ZM242.848 38.724h4.488v25.57h-4.488v-25.57Zm2.207-4.63c-1.618 0-2.795-1.175-2.795-2.865 0-1.617 1.25-2.792 2.869-2.792 1.545 0 2.722 1.175 2.722 2.792 0 1.69-1.177 2.866-2.796 2.866ZM269.701 45.557c-1.251-1.837-3.311-2.939-5.739-2.939-4.561 0-7.356 3.454-7.356 9.112 0 5.29 3.09 8.597 7.651 8.597 2.722 0 5.812-1.176 7.43-2.498l.368 4.702c-1.986 1.396-5.297 2.278-8.313 2.278-7.283 0-11.918-4.996-11.918-12.859 0-8.524 5.076-13.814 12.138-13.814 3.679 0 6.474 1.102 8.534 3.6l-2.795 3.821ZM279.706 54.154c-.515.882-.662 1.837-.662 2.572 0 2.572 1.251 4.336 4.12 4.336 4.12 0 5.812-3.307 6.033-7.936-2.943.073-6.989.514-9.491 1.029Zm10.888 10.435-.809-3.6h-.22c-1.766 2.35-3.973 3.894-7.284 3.894-4.782 0-7.724-2.866-7.724-7.642 0-5.585 3.825-7.348 14.64-7.348.073-.956.147-1.984.147-2.719 0-3.086-1.913-4.703-5.076-4.703-2.355 0-4.929.662-6.769 1.617l-.588-4.262c1.986-.955 5.002-1.617 8.092-1.617 4.929 0 8.755 2.572 8.755 8.377 0 2.94-.662 8.083-.662 9.773l1.913 7.789-4.415.44ZM303.248 32.11c0 .515-.368.735-.883.735h-.515V31.45h.589c.515 0 .809.22.809.662Zm1.177 2.94c-.221-.588-.515-1.029-1.104-1.837.515-.22.736-.588.736-1.176 0-.882-.588-1.396-1.692-1.396-.294 0-.956.074-1.398.074v4.408h.81v-1.69h.735c.515.735.809 1.25.957 1.617h.956Zm1.766-2.058c0 2.278-1.472 3.895-3.679 3.895s-3.678-1.69-3.678-3.895c0-2.277 1.545-3.894 3.678-3.894 2.06 0 3.679 1.617 3.679 3.894Zm.809 0c0-2.645-1.986-4.555-4.488-4.555-2.501 0-4.414 1.984-4.414 4.555 0 2.646 1.913 4.556 4.414 4.556 2.575.074 4.488-1.91 4.488-4.556Z" fill="#00467F"/></svg>