<svg width="431" height="440" viewBox="0 0 431 440" fill="none" xmlns="http://www.w3.org/2000/svg"><g clip-path="url(#a)" fill="#00467F"><path d="M181.084 411.979c.907.303 1.966-.151 3.025 0 .151 0 1.816-1.211 2.118-1.211 2.269.454 4.539.757 6.505 1.969.908.606 1.816.908 2.875 1.363a36.4 36.4 0 014.992 2.272c3.025 1.817 6.505 2.12 9.984 2.272 2.118 0 4.236.151 6.203-.455 3.328-1.363 10.892-2.423 11.043-2.575.757-.151 1.664-.302 1.967.455.303.757-.605.909-1.21 1.212-1.21.757-2.572 1.363-4.085 1.666-.302 0-2.269 1.363-3.177 1.514-.756.152-2.269 1.515-2.571 1.515-3.026-.454-6.052.303-9.077 0-1.664-.152-3.329.151-4.841-.454-3.329-1.212-6.657-2.424-9.834-3.636-.605-.151-1.059-.454-.907-1.211 0-.455-.303-.758-.605-.909-2.421-.757-4.539-2.575-7.413-1.818-1.967.455-3.934-.151-6.051.303-1.059.303-2.118-.908-3.329-1.06-.151 0-.302-.303-.151-.606.303-.303.605-.606.908-.606h3.631zm62.327-6.058c-1.21-.455-2.269.303-3.479.454-.756 0-1.362.303-2.118.152-2.572-.758-5.295-.152-7.867-1.212-.756-.303-1.664-.454-2.42-.303-.605.152-1.21 0-1.816-.303-2.269-1.666-4.992-1.817-7.564-2.575l-8.623-2.272c-.453-.151-1.059-.151-.907-.757.151-.606.756-.454 1.21-.454 2.118.454 4.387-.303 6.505.605.908.303 1.664.303 2.118-1.06.605-1.514 2.269-2.575 3.479-3.635.303-.303.757-.303 1.059.152.303.454 0 .757-.302 1.211-.908 1.212-2.572 1.666-3.177 3.181-.151.454-.908.606-.605 1.212.151.454.756.303 1.21.303.454 0 .756 0 1.21.151 2.723 1.818 5.749.909 8.623.757 1.513-.151 2.875-.454 4.236-1.06.605-.303 1.513-.606 1.967.303.454.757-.151 1.212-.757 1.515-.453.303-.302.606.152.606 1.21.303 2.118 1.211 3.479 1.211 2.118 0 3.934 1.061 6.051.909.454 0 .908 0 .908.454 0 .455-.454.455-.908.455-.907.151-1.21 0-1.664 0zm-122.537-3.029c-.454-.303-1.513.454-1.513-.455s1.059-.454 1.513-.606c.453-.151 1.21.152 1.21-.757 0-.757-.605-.757-1.21-.757-.454-.152-.908 0-1.362 0-1.664.151-1.815 0-1.513-1.666.152-1.061.757-.909 1.513-.758 2.118.455 4.085 1.061 6.203 1.363 1.059.152 2.118.152 2.874-.303 2.874-1.666 6.354-1.666 9.379-2.877.757-.303 1.362-.758 2.118-.909.908-.152 1.664-.757 1.664-1.818-.151-1.06-1.664-1.969-2.723-1.666-.907.303-1.815.455-2.42.909-.303.152-.605.454-.908.303-.454-.152-1.059-.152-1.21-.757-.151-.606.605-.909 1.059-.909 1.21-.152 2.269-.606 3.177-1.363.151-.152.302-.303.454-.152 2.269.455 4.689-.151 6.656 1.515 1.059.909.908 2.12-.151 2.878-1.967 1.363-4.387 1.969-6.505 2.877-1.211.606-2.572 1.061-3.782 1.818-4.539 2.575-9.531 3.484-14.523 4.09zm10.892-21.963c3.933.152 7.866 0 11.497-1.969 1.816-.908 3.026-2.574 4.841-3.635.454-.303.908-.909 1.362-.151.454.606-.303.909-.605 1.212-1.816 1.211-3.631 2.423-4.841 4.543-.152.303-.454.455-.908.606-3.026.758-5.446 2.727-8.018 4.393-.605.454-1.513.151-1.967.757-.151.151-.605.303-.605.606s.454.303.757.303c.302 0 .756-.303.756.151 0 .455-.454.455-.908.455-.756 0-1.21 0-1.512.908-.303 1.061-1.362.909-1.967.455-1.059-1.06-2.118-.606-3.328-.303-.454.151-1.059.454-1.362-.152-.302-.605.152-1.06.605-1.363.152-.151.454-.303.605-.303.454-.303 1.211-.303 1.211-.908-.152-.758-.908-.758-1.513-1.061-.908-.303-1.815-.303-2.421-1.363-.453-.909-.151-1.212.606-1.06.605 0 1.059.151 1.664.303 1.815.454 3.63.454 5.446.606.302 0 .605.151.605-.303 0-.303-.151-.303-.454-.455h-.303c-.756-.151-1.21-.757-1.21-1.211 0-.758.908-.455 1.362-.455.302-.757.454-.757.605-.606zm-10.892-136.771c-.908.606-1.816 1.212-2.723 1.969-.303.303-.757.455-1.059.152-.454-.455.151-.606.453-.757 1.059-.758 2.118-1.364 3.329-1.364zm214.97 180.544c0 .152-.151.606-.151.606-.303 0-.303-.303-.454-.606-.303-.757-.454-1.514-.756-2.272-1.211-4.241-17.095-48.619-18.154-51.346a95.703 95.703 0 01-2.118-6.058c-.756-2.272-16.036-46.348-16.641-47.56-.151-.302-.454-.757-.151-1.06.454-.303.756.152 1.059.455 1.059 1.514 10.892 31.504 13.01 37.108 1.059 2.575 16.036 46.802 17.549 50.74 1.058 3.029 2.269 6.059 3.176 9.088 1.059 3.332 2.27 6.664 3.329 9.996.151.455.151.606.302.909zm.908 7.271c-1.21 0-2.421-.001-3.48-.909-.151-.152-.756-.303-.151-.606.757-.303 1.513-.606 2.421-.757.907 0 .907 2.272 1.21 2.272zm-41.754-108.448c-.454-.152-1.059 0-1.059-.606s.454-.606.908-.606.756.152.756.606c.152.454-.151.606-.605.606zm-2.269.757c0 .303-.302.606-.454.606-.151 0-.454 0-.454-.303s.303-.454.454-.454c.152-.152.303 0 .454.151zm38.577 100.269c0 .303-.303.303-.454.303-.303 0-.454-.152-.303-.455 0-.303.303-.303.454-.303.303 0 .454.152.303.455zM123.294 169.033c-.302 0-.302-.152-.302-.303 0-.303 0-.606.302-.758.151 0 .303.152.303.303-.152.303-.303.455-.303.758zm85.323 39.834c0 .152-.303.152-.303 0 0-.302.303-.151.303 0zm-.303-1.363c-.454 0-.302-.303-.302-.606 0-.151.151-.454.151-.454.302.151.302 1.06.151 1.06z"/><path d="M431 350.94c-.302-3.332-1.664-6.21-3.328-9.088-2.269-3.938-4.387-8.028-6.505-12.117-.757-1.515-4.69-14.843-4.841-18.479 0-.605-.303-1.363.151-1.969.908-1.363.454-2.877.151-4.241-.605-1.969-.453-4.089-1.21-6.209-.605-1.818 1.967-14.844 2.118-14.995 1.21-1.969 1.664-4.241 1.967-6.513.151-.606-1.059-3.787-1.362-4.696-.605-1.817-3.782-7.421-4.387-8.482-.908-1.666-1.362-3.483-3.328-4.392-.908-.454-1.664-1.363-2.118-2.423-.605-1.212-1.513-2.272-2.118-3.333-1.059-1.817-10.59-20.447-11.346-21.81-1.664-2.575-5.144-13.48-6.051-16.207-.454-1.211-.303-2.726-1.211-3.786-1.059-1.212-1.966-2.575-2.874-3.938-1.059-1.666-2.118-3.333-3.328-4.847-2.421-2.878-5.446-5.15-8.623-7.119-1.816-1.212-6.657-4.241-6.808-4.392-.908-1.212-17.851-33.019-18.759-34.231-1.059-1.666-2.874-2.878-4.538-4.09-2.118-1.514-4.841-1.514-7.262-2.574-2.571-1.212-5.597-.909-8.32-1.666-.756-.152-2.118.151-3.026-.152-1.815-.606-14.371.303-16.641.454-1.361 0-2.571.303-3.63 1.212-.757.606-1.664.909-2.572 1.212-1.362.303-1.816 0-1.513-1.363.454-2.424 17.246-78.155 17.7-78.761.605-.909.756-1.97.756-3.03.152-4.695-1.21-9.087-2.118-13.48-.302-1.363-1.512-4.695-1.664-5.15-.756-2.877-2.269-5.603-2.874-8.481-.303-1.97-4.841-15.298-5.749-18.327-.302-.909 0-1.818-.454-2.575-1.21-1.97-2.118-4.09-3.176-6.21-.908-2.12-5.749-11.208-6.052-11.814C294.544.454 293.334.15 290.46.606c-1.362.303-2.118 1.363-3.177 1.969-2.421 1.514-10.741 6.058-12.405 6.816-.605.303-12.103 3.938-12.859 4.392-3.328 1.97-6.203 4.241-9.077 6.665-.908.908-1.815 1.817-2.269 3.029a7.728 7.728 0 01-2.572 3.18c-1.059.758-1.361 1.667-1.664 2.727-.454 2.272-22.39 85.879-22.995 88.757-.302 1.363-.605 1.818-2.42 1.363-2.723-.908-5.446-1.666-8.169-2.575-1.967-.605-3.782-2.12-6.203-1.363-.151 0-2.572 1.061-2.723 2.121 0 1.06-3.328 7.421-1.967 9.996 0 .152-.151 4.241-.756 6.059-.151.454-2.421 13.783-3.328 16.206-.151.303-.151.758-.454.758-.303 0-.303-.455-.454-.606-1.361-2.121-18.305-65.13-18.91-68.007-.151-.909-.454-1.666-1.21-2.272-1.513-1.212-2.723-2.726-4.387-3.787-1.362-.757-10.288-6.664-13.464-8.482-3.177-1.817-6.506-3.483-9.531-5.452-3.631-2.424-22.995-13.632-26.626-15.752-3.328-1.97-6.807-3.787-10.135-5.907-3.177-1.97-15.129-8.937-17.7-10.754-.908-.758-8.018-3.938-8.472-4.241-.454-.303-2.27-.152-2.572-.303-2.27-1.06-4.387-1.515-6.505.454 0 0-4.538 3.332-5.295 5.756-.454 1.817-15.733 30.292-16.64 32.413-.152.303-.303.606-.152.909.756 2.877 3.026 17.418 3.933 21.81.757 3.787 10.893 66.19 11.195 69.068 0 .302.303.908-.151 1.06-.454.151-.605-.303-.908-.606-1.815-1.666-8.018-6.664-9.38-7.725-2.269-3.332-34.643-3.18-36.912-3.635-2.723-.606-5.597-.606-8.472-1.06-2.572-.454-5.295.151-7.866.909-2.118.606-2.875.757-2.572 3.332v1.06c0 3.029-1.815 9.694-1.967 9.997-.605 1.969-.605 4.089-.605 6.058 0 2.424-2.118 39.684-1.664 42.561.303 2.424-.151 4.999 1.362 7.422.907 1.363 1.21 3.029 1.966 4.544.605 1.212 1.513 2.12 2.42 3.029.455.455 5.144 6.513 7.565 8.785 2.269 2.12 15.128 16.207 16.64 17.873 2.724 3.332 56.277 62.705 58.395 64.674 1.362 1.212 2.723 2.424 3.328 4.09.303 1.06.757 2.272 1.06 3.332.453 1.969.907 4.09 1.21 6.059.15 1.666-.757 2.423-2.42 1.969-.455-.152-.757-.152-1.06-.303-2.874-.758-5.748-1.969-8.774-1.969-.454 0-.756-.152-1.06-.455-1.058-1.06-2.42-.757-3.479-.151-1.966 1.06-3.025 2.878-3.933 4.847-.605 1.514-1.966 9.39-2.118 10.905-.151 1.515-1.059 2.726-.907 4.241.15.757 0 1.06-.606 1.363-1.361.757-2.874 1.515-3.177 3.332-.302 1.666-.907 3.181-1.059 4.696-.15 1.06-.302 1.969-1.512 2.272-.454.151-.908.757-.908 1.211.303 1.818-.908 3.484-.756 5.301 0 .606-.303 1.212-.303 1.667-.303 1.06-1.059 1.969-.908 2.877.303 1.212-.302 2.121-1.059 2.878-.302.303-.907.606-.453 1.212.756 1.212.605 2.423.605 3.786 0 .606 0 1.061.302 1.515.908 1.212 1.21 2.726 1.06 4.09 0 .757 0 1.211.302 1.969.605 1.969 1.966 3.635 2.572 5.755.15.909.453 1.818.756 2.726.756 2.121 2.723 3.03 4.236 4.393.907.757 5.9 1.515 6.959 1.666 2.118.151 3.782.909 5.295 2.423 1.966 1.818 3.48 4.09 5.748 5.453 1.362.757 2.723 1.666 4.236 2.423 1.362.758 2.572 1.364 2.42 3.181 0 .303 0 .606.152.758 1.059 1.969-.151 3.938-.151 4.089 0 1.515-.152 3.181.605 4.392.605 1.061.907 2.121 1.059 3.333 0 .757.302 1.211 1.059 1.514 1.059.455 2.118 1.061 2.874 1.969.454.606 1.059.758 1.664.909 2.874.909 5.598 2.272 8.169 3.938 1.513.909 2.875 2.272 4.539 2.726 2.118.606 3.782 1.969 5.9 2.575 1.815.606 3.63 1.818 5.9.909 1.815-.757 3.63-1.817 4.992-3.181 1.513-1.514 3.177-2.423 4.992-2.12 2.269.454 4.539.606 6.657 1.06 1.664.303 3.177.909 4.992.909 1.361 0 2.723.303 3.933.606 1.513.606 3.177.303 4.539 1.06 1.361.606 4.689.303 4.841.303 2.571-1.212 5.446-1.515 8.018-2.726 1.966-.909 4.235-.909 6.202-1.969 1.059-.606 2.118-1.364 3.48-1.061 2.571.455 4.992 1.363 7.866.606 3.328-.909 6.808-.909 9.985-1.817 3.933-1.061 8.018-1.969 12.102-2.878.454-.152 5.144.303 6.203.303 2.572 0 4.992-.758 7.564-1.06 2.572-.152 5.143-1.061 7.564-1.818.605-.151 1.21-.152 1.513-.606 1.059-1.212 2.42-1.666 3.782-1.969 1.059-.151 1.966-.606 2.723-1.212 2.572-1.514 5.143-2.877 8.169-3.635 2.874-.757 5.597-1.666 8.32-2.878 1.664-.757 3.48-1.514 5.295-2.271 1.664-.758 3.48-1.364 4.69-3.03.605-.757 1.361-1.06 2.42-1.06 3.026-.151 6.052.454 9.077 0 .605 0 2.723-1.06 3.177-.606 1.967 1.818 3.328 4.09 5.446 5.756.303.151.454.454.605.757.454.909 1.211 1.515 1.967 2.121 2.118 1.363 4.085 2.726 6.203 4.241.302.151 3.177 3.332 4.538 3.635 3.026.454 10.136 3.483 10.439 3.635 1.664.606 3.176 1.666 4.689 2.575 1.362.757 2.118 1.969 1.816 3.635-.454 1.666-.152 2.12 1.512 2.272 3.329.454 6.808 1.06 10.136 1.363 3.631.303 7.11.909 10.741 0 2.723-.606 7.413-4.393 7.564-4.696 1.362-.908 2.118-2.271 2.269-3.938.152-.908.152-1.817.303-2.726.303-1.817 1.21-3.484.908-5.453-.152-1.363.605-1.969 1.361-2.726.908-.909 2.269-1.212 2.723-2.575.757-2.12 1.967-3.938 3.328-5.604 1.211-1.666 4.388-5.301 4.842-5.15 1.664.152 3.025-.605 4.538-1.211 1.664-.758 11.649-7.271 12.405-7.876.908-.606 2.118-1.212 2.269-2.424 0-1.06.605-1.363 1.21-1.969 1.513-1.363 3.631-1.212 5.144-2.272 1.362-.909 2.572-1.969 4.085-2.423 2.723-.758 5.446-1.515 8.018-2.272 2.571-.757 5.294-.757 8.017-1.212 1.513-.303 3.026-.454 4.236-1.363 2.572-1.818 4.993-3.635 7.262-5.604 1.664-1.363 3.479-2.424 5.597-2.726 2.118-.303 3.933-1.515 4.387-3.636.303-1.363 1.816-4.846 1.816-5.301-.454-1.969 1.815-14.086 1.815-14.54zm-26.777-94.059c.303 0 .757.152.757.455.151 1.211 1.361 1.666 2.118 2.423.756.606 2.269 2.878 2.571 3.029 2.875 1.363 3.934 4.241 5.295 6.816.757 1.363.908 3.181 1.816 4.544.302.454.302.909.151 1.515 0 .303-.151.908-.303.908-.453.152-.302-.454-.453-.757-.454-1.06-1.513-1.817-1.665-3.029-.151-.455-.605-.455-.907-.303-.454.151-.454.454-.152.909a8.832 8.832 0 01.908 3.938c0 .303-2.572 2.878-2.723 2.726-.605-.606-1.059-1.06-1.21-1.969-.605-2.423-1.059-4.847-2.118-7.119-1.967-3.786-2.269-8.027-4.085-11.662-.151-.455-.302-.909-.302-1.212-.303-.606-.303-1.06.302-1.212zm9.985 56.344c-.151.455.302 1.061-.454 1.212-.605 0-.605-.454-.454-.757 0-.455 0-1.212.605-1.212s.152.606.303.757zm-44.326-114.051c.606-.152 1.211 0 1.513.303.908 1.06 2.27 1.514 3.026 2.575.605.908 1.513 1.666 2.723 1.969 2.874.908 3.933 3.483 5.446 5.604 1.513 2.12 2.269 4.544 3.328 6.816.757 1.514.908 3.332 1.513 4.998.757 2.272.908 4.695 2.421 6.664.302.455.453.909.605 1.363.302 1.212.907 2.272 1.664 3.181 1.059 1.515 1.513 3.332 1.664 5.15.151.909-.756 1.06-1.362 1.212-.756.151-1.21 0-1.512-.606-1.967-4.847-4.993-9.24-6.203-14.389-.454-1.818-1.21-3.635-1.967-5.453-.151-.454-.453-.909-.907-.909-.605.152-.152.758-.152 1.061.152 2.423 1.513 4.543 1.816 6.967.151 2.272 1.361 4.241 1.21 6.664 0 1.515 1.059 2.727 1.664 3.938.454 1.061.908 2.121 1.059 3.03.303 1.211.908 1.817 2.118 1.969 1.815.151 3.328.757 4.236 2.423.605 1.06 1.664 1.666 2.572 2.575 1.361 1.212 1.966 2.878 2.571 4.392 1.513 4.09 2.724 8.179 3.934 12.42.907 3.332 1.966 6.665 3.025 9.845 1.211 3.635 2.118 7.422 3.177 11.057.605 2.272.908 4.544 2.118 6.664.605 1.212.757 2.878.757 4.393 0 3.332.605 6.513.756 9.845 0 1.818.151 3.484 0 5.301 0 .303 0 .758-.151.758-.303.151-.454-.303-.605-.455-.757-1.06-2.723-4.089-2.875-4.241l-1.361-2.272c-.303-.454-.605-.454-1.059-.303-.454.152-.454.455-.303.909.303 1.06 2.269 5.15 2.875 6.362.756 1.514.907 3.18 1.966 4.543 1.816 2.727 1.513 6.059 2.875 8.937.453.909-.152 1.817.151 2.726.454 1.969.756 3.938 1.059 5.907.151 1.06 0 2.121.605 3.181.454.606 4.085 10.299 5.144 13.48.605 1.515 1.21 3.181 1.664 4.695.151.303.453.606 0 .909-.303.152-.454-.151-.606-.454-1.512-1.363-2.571-2.727-2.874-4.998-.151-2.272-17.397-43.622-18.456-47.105a86.63 86.63 0 00-3.177-8.785c-.605-1.363-6.656-15.601-7.413-18.933-.454-2.272-.908-4.696-1.966-6.816-1.513-2.878-.908-6.21-2.118-9.088-1.362-3.029-1.513-6.21-2.421-9.239-.756-2.726-.908-5.453-1.361-8.179 0-.454-3.631-8.633-4.388-10.905-.302-.758-2.42-7.876-3.328-10.754-.302-1.06-.302-2.121-.605-3.181.151-.757.151-1.515.454-2.272.302-.757.302-1.666 0-2.272-.756-1.969-1.059-4.392-3.782-5.15-.757-.151-.908-.757-1.059-1.514-.303-1.818-.303-3.635-.303-5.301.303-.455 0-1.061.605-1.212zm-34.038-42.713c3.631-.606 6.051-1.969 10.59 4.544 1.361 1.969 15.128 29.535 16.338 31.807 1.362 2.727 2.572 5.605 3.631 8.331.151.303.303.757.303 1.212-1.362 2.272 1.664 6.512 1.966 6.815 2.723 1.667 2.572 4.393 2.572 7.119 0 .152 0 .455-.303.606-.302.151-.453-.151-.605-.454l-.907-1.818c-.152-.454-33.282-56.041-34.19-57.101-.151-.152-.302-.455-.302-.606.453-.303.756-.455.907-.455zm-6.807 9.24c.302-2.575 0-5.15.151-7.877 0-.757 0-1.817.756-2.12.757-.303 1.513.454 1.967 1.212.454.908 5.9 7.724 7.715 10.754a160.194 160.194 0 005.295 8.481c1.513 2.575 26.626 48.014 27.836 50.741 1.966 4.241 6.959 18.932 7.866 21.962.303.908 1.665 6.21 1.816 7.421 0 .303.151.606-.151.758-.303 0-.303-.303-.454-.455-1.816-2.575-3.329-5.301-5.295-7.724-2.118-2.424-4.236-4.696-7.413-5.604-1.21-.303-8.623-2.121-10.438-3.484-.757-.606-1.664-1.06-2.572-1.515-3.177-1.06-6.354-1.969-9.38-3.938-2.42-1.514-3.479-3.635-4.235-5.907-1.816-5.604-3.026-11.36-5.295-16.812-1.513-3.787-6.657-25.295-7.262-28.172-.454-1.818-1.361-3.484-2.118-5.15-.302 0 .757-8.482 1.211-12.571zm49.771 90.574c-.151.152-.151.303-.302.455-.152 0-.454 0-.606-.152-.605-.908-1.21-1.817-2.118-.151-.151.303-.453 0-.756-.152-2.42-1.363-5.144-1.969-7.564-3.18-2.572-1.212-4.841-2.575-5.9-5.453-.605-1.818-2.269-3.029-2.723-4.998-.151-.303-.303-.455-.151-.758.302-.303.605-.151.907 0 1.967.455 3.934 1.364 5.749 2.272 1.664.758 3.328 1.515 5.144 2.121 1.815.606 3.177 1.514 3.933 3.332 1.059 2.121 2.572 3.787 3.933 5.756l.454.908zm-23.902-15.449l-.454.455c-.454.454-1.059.908-1.513 1.363-.454.454-.908 1.211-1.664.909-.605-.303-.605-1.061-.605-1.667 0-1.06-.152-1.817-.908-2.574-.151-.152-.454-.455-.302-.758.151-.303.453-.151.756-.151 1.513.454 2.723 1.514 4.387 1.666.303.151.454.303.303.757zm-6.808 4.241c-1.664.152-3.328.303-5.144.606-1.21-.757-2.571-.151-3.933.303-1.059.303-1.664-.606-1.21-1.666.756-1.515 1.21-3.332 2.572-4.544.302-.152 1.512-2.726 1.815-3.787.151-.757.756-.454 1.21-.151 1.816.757 3.026 2.12 3.934 3.635.907 1.363 1.059 2.878 1.512 4.392.606.758-.151 1.212-.756 1.212zm-19.213-56.496c1.362 5.15 11.498 41.047 12.557 43.925.453 1.211-.303 3.18-1.513 3.483-.908.152-1.21.606-1.21 1.364-.152 1.211-2.118 3.786-2.27 4.24-1.059 3.03-2.118 5.908-2.571 9.088-.454 3.484-.908 6.968-1.816 10.3-.302 1.211-.907 1.969-2.269 2.272-1.815.303-3.479.454-5.295-.455-1.664-.908-3.479-1.514-5.597-1.514-1.967 0-3.934-.909-5.295-2.424-2.118-2.272-19.969-23.476-20.726-25.446-.605-1.514-1.664-2.726-1.512-4.543.453-4.393 1.966-31.959 3.176-33.777.606-.908 1.059-4.089 1.211-4.392 1.361-2.878 1.513-3.787 5.446-2.575.605.152 1.059.303 1.664.303.454 0 1.059-.151 1.059-.454-.151-1.515 1.059-3.03-.151-4.544-1.059-1.363-.605-3.181.756-4.09.756-.606 1.059-1.514 1.664-1.969.303-.303.605-.757 1.059-.151.908 1.514 2.421 2.12 4.085 2.423.302 0 .454.303.756.455 1.815 1.06 3.631 2.423 5.597 0 .454-.606 1.665-.455 2.572 0 2.118 1.363 4.236 2.726 6.505 4.089 1.362.909 1.664 2.726 2.118 4.392zm-7.564 99.815c.605 1.363 1.21 2.877 1.21 4.392 0 1.666.454 3.181.908 4.695 1.362 3.938 1.816 8.028 3.782 11.663 0 .151 1.362 5.301 1.816 7.876.151 1.06.907 1.969 1.361 3.029.151.303.303.758 0 .909-.302.303-.605 0-.908-.303-1.21-1.06-2.571-2.12-3.782-3.332-1.815-1.969-3.782-3.635-5.446-5.756-3.177-4.089-13.615-15.903-14.523-18.327-1.21-3.029-1.966-6.058-2.118-9.239-.151-1.515 0-1.515 1.362-1.06 2.42.757 4.69 1.817 6.959 3.181.454.303 1.059.757 1.21 1.211.605 1.515 1.664 1.515 2.874 1.515.454 0 .908-.152 1.211-.454.302-.455-.303-.606-.605-.909-1.362-1.515-2.27-3.029-1.362-5.15.151-.454.454-.909 0-1.212-.454-.454-.908-.303-1.362-.151-.302.151-.756.303-.907 0-.757-1.212-1.967-.606-2.875-.303-.605.151-1.21.151-1.815-.152-.756-.454-1.664-.605-2.572-.454-1.21.303-2.42-.757-3.328-1.969-.908-1.363-1.967-2.575-3.328-3.635-1.664-1.212-2.723-2.878-4.387-4.09-1.059-.757-1.21-2.12-1.362-3.483-.151-1.363.454-1.666 1.513-1.515.605 0 1.21.152 1.815.303.908.152 1.816.454 3.026.152.605-.152 1.664.151 2.269.605 1.059.758 2.269 1.212 3.177 1.969 1.967 1.515 4.387 1.364 6.808.909 1.664-.303 3.177-.606 4.841-.303 1.815.303 3.631-.151 5.295-1.211 1.664-1.061 3.025-1.061 4.387.151.605.606.756 2.121 0 3.029-1.816 2.121-3.026 4.544-4.236 6.968-.605 1.363-1.815 2.272-1.967 3.938-.151 2.423.152 4.544 1.059 6.513zm37.518 49.528c-.605.454-1.513.606-2.421.606-3.176.454-15.43 3.938-18.456 5.15-.908.302-1.513-.303-1.513-1.364 0-.908 0-1.817-.151-2.726-.302-1.212 0-1.969 1.21-2.272 1.664-.454 18.003-6.664 18.457-6.967 2.269-1.06 2.269-1.06 2.723 1.363.151 1.06.454 2.12.454 3.029-.152.303.453 2.575-.303 3.181zm-17.851 64.523c-1.513-.303-1.362-1.666-1.967-2.423-.302-.455-.756-1.515-.454-1.818.454-.454 12.557 1.363 12.557 2.272 0 1.06-.757 2.272-1.211 3.332-.151.152-6.202-.908-8.925-1.363zm8.169 3.787c-.454 1.969-.756 2.272-2.874 2.272-1.059-.152-2.27-.758-3.48-.606-2.42.454-2.118-1.363-2.42-3.029 0-.303.151-.758.302-1.061.151-.303.454-.151.757-.151 1.815 0 7.412 1.212 7.715 1.515.151.454 0 .757 0 1.06zm.756-7.725c-2.42-.454-8.169-1.514-8.774-1.514-2.874.302-3.933-.758-3.782-3.484.151-2.121.454-2.121 2.723-1.818 2.723.303 9.682 2.121 10.59 2.424 1.21.454 2.118.757 1.664 2.12 0 2.272-.454 2.727-2.421 2.272zm2.421-7.724c-.151 2.423-.151 2.423-2.572 1.969-3.328-.606-6.656-1.061-9.984-1.667-2.421-.454-3.026-1.514-2.572-4.241.151-.908.302-1.666 1.513-1.363 1.815.455 3.63.455 5.446.909 2.571.455 4.992 1.212 7.564 1.818.907.151 1.059.606.907 1.363a2.86 2.86 0 00-.302 1.212zm-1.059-4.09c-3.328-.606-12.254-2.575-13.313-2.726-.908-.152-1.21-.606-1.059-1.363.303-1.515.454-3.03.151-4.544-.151-.909.152-1.212 1.211-1.212 4.538.303 8.925.909 13.464 1.818 1.513.302 1.815.605 1.513 1.969-.303 1.666 0 3.332-.606 4.998-.151.909-.453 1.212-1.361 1.06zm1.664-8.785c-3.479-.151-12.405-1.817-13.615-1.817-1.362 0-2.27-.455-2.421-1.969 0-.455-.151-.909-.151-1.364 0-2.574.151-2.726 2.723-1.969 1.967.606 11.649 1.364 14.372 2.121 1.21.303 1.512.757 1.21 1.817-.151.606-.303 1.061-.303 1.667-.151 1.211-.605 1.817-1.815 1.514zm1.513-6.967c-3.328 0-14.372-1.666-16.641-1.969-.757 0-1.059-.303-1.059-1.212v-3.483c0-2.727 0-2.727 2.874-2.878 2.421-.152 15.431 2.12 16.944 2.272.907 0 1.361.303.907 1.514-.605 1.363-1.21 2.727-1.21 4.241-.151 1.06-.302 1.515-1.815 1.515zm.907-8.331c-3.479-.454-14.523-2.423-16.64-2.423-2.118 0-1.513-5.301-1.665-6.967 0-.606.454-.606.757-.758 1.21-.454 21.179-1.06 21.784-.757 1.059.454-.605 7.422-1.21 9.845-.151 1.212-1.967 1.212-3.026 1.06zm3.329-12.268c-1.967 0-15.582.606-20.423.757-1.059 0-1.362-.303-1.362-1.211v-2.424c0-1.666.605-2.272 2.118-2.878 4.387-1.514 20.726-5.604 20.877-4.241.302 2.727.454 5.453.605 8.331-.151.909-.605 1.514-1.815 1.666zm-.908-21.659c-3.026.606-16.338 5.452-20.12 7.27-1.362.606-1.816.454-1.967-1.212-.151-1.211-.908-1.969-1.059-3.181-.151-.757 0-1.211.756-1.363 2.118-.757 16.944-7.876 20.121-9.087 1.664-.606 1.059.908 1.513 1.514.151.152.907 3.635 1.21 5.15 0 .303.302.757-.454.909zm-2.723-8.634c-5.295 2.424-18.305 8.179-19.515 8.482-.757.303-1.362.303-1.362-.909-.151-1.06-.605-2.12-.908-3.18-.302-.758-.302-1.212.757-1.818 1.967-1.212 19.515-9.088 20.877-9.996.453-.303.453.151.453.303.152 1.817.908 3.483.908 5.301.151 1.211-.454 1.363-1.21 1.817zm-22.087 52.255v-.454c0-.303 0-.606.454-.606.151 0 .454.454.302.454-.454 1.06.152 2.121.152 3.181 0 .303 0 .757-.454.757-.303 0-.454-.303-.454-.606.302-.757-.151-1.666 0-2.726zm21.028-61.191c-1.967.909-4.085 1.515-6.051 2.575-3.026 1.515-6.052 3.029-8.926 4.544-1.664.909-3.631 1.514-5.446 2.272-.908.303-1.21.151-1.361-.606-.152-.757-.303-1.515-.908-2.272-.454-.606-.605-1.363.454-1.969 3.177-1.666 6.051-3.787 9.228-5.453 3.631-1.817 7.261-3.483 10.589-5.604 1.665-1.06 1.816-1.06 2.27.909.302 1.515.605 3.181.907 4.695.152.758-.302.758-.756.909zm-56.882-26.506c-.302-.303-.302-.757-.302-1.06.454-1.666-.454-3.181-.908-4.847-.151-.606-.151-1.363-.303-1.969-.151-.455-.605-1.06 0-1.363.303-.152.757.454 1.059.606 1.513 1.06 2.118 2.574 1.664 4.392-.605 2.423 1.211 4.392 1.665 6.664 0 .152.151.303.302.303.303 0 .454-.454.303-.606-.152-.908-.454-1.817-.757-2.726-.151-.454-.302-.909 0-1.06.605-.303.454.454.757.606 1.21 1.211 1.21 2.878 1.664 4.392.756 3.332 1.664 6.513 3.631 9.239.453.606.756 1.212 1.21 1.818 1.21 1.363 15.43 19.842 17.7 23.174 1.21 1.817 1.815 3.786 2.571 5.755.908 2.121 1.816 4.241 2.572 6.362 1.211 3.332 1.664 6.816 1.967 10.299.454 3.938.303 7.876.303 11.663 0 4.544.151 9.088.302 13.632 0 .908 0 1.817-.302 2.726-.152.303-.001.606-.303.757-.303 0-.454-.303-.605-.454-1.816-3.029-3.782-6.059-5.295-9.239-1.967-4.241-4.69-8.179-6.505-12.572-1.059-2.726-7.715-16.812-9.682-21.053-1.362-2.878-6.657-18.933-9.228-23.628-2.572-4.696-3.177-9.845-3.177-15.147 0-1.514-.151-2.877.151-4.392a2.117 2.117 0 00-.454-2.272zm2.875-4.544c.151 0 .302.303.302.454 0 .303-.151.606-.302.606-.152 0-.303-.303-.303-.454-.151-.303 0-.606.303-.606zm51.284 23.477c-2.421 1.212-17.851 9.693-19.364 10.602-1.059.455-1.664.606-1.967-.757-.151-.606-.302-1.212-.605-1.818-1.059-3.635-1.059-3.635 2.269-5.301 2.421-1.212 15.128-8.33 19.364-9.845 1.211-.454 1.362-.151 1.513.909.151 1.515.454 2.878.605 4.544-.151 1.06-1.059 1.363-1.815 1.666zm-.757-8.331c-3.176.909-14.371 7.574-17.094 9.088-1.059.606-4.841 2.272-5.446 1.818-.606-.455-.454-1.515-.757-2.272-.151-.303-.151-.758-.151-1.212 0-1.212-1.513-2.575 0-3.635 1.059-.757 19.061-11.511 22.087-13.329.605-.303 1.059-.606 1.361.152.606 2.575.908 5.301 1.362 7.724 0 1.061-.756 1.515-1.362 1.666zm-.302-11.965c-1.059 3.029-17.851 11.36-20.423 12.723-1.059.606-2.269 1.211-3.631 1.363-.605.151-.907-.152-1.059-.757l-.454-1.364c-.756-2.12-.756-2.272 1.059-3.483 2.572-1.666 18.608-12.875 19.062-13.329.302-.151 2.572-1.818 3.479-2.575.757 1.969 2.723 5.453 1.967 7.422zm-5.446-5.453c-1.059.757-20.574 13.48-20.726 13.329-.605-.606-.454-1.515-.605-2.272-.151-.606.151-.606.605-.757.908-.152 1.664-.758 2.27-1.364 1.815-2.423 4.689-3.635 6.807-5.604 1.816-1.514 3.631-3.332 5.749-4.544 1.967-1.06 3.631-2.726 5.9-3.483.756-.152 1.815-.909 2.572-1.818 0 .606.302 1.06.453 1.666.152.758.454 1.515.606 2.121-1.059.757-3.48 2.575-3.631 2.726zm-50.831 18.327c0 .757-1.21 1.06-1.966.455-.605-.455-1.362-.758-1.816-1.212-2.42-2.424-5.446-1.969-8.32-2.424-3.177-.454-6.354-.757-9.682-1.363-2.421-.454-4.841-1.211-7.262-1.666-1.664-.303-2.723-1.363-3.933-2.575-4.538-5.301-13.767-20.144-14.826-21.507-.756-.909-5.899-8.937-8.169-11.663-1.664-2.121-2.269-4.847-2.874-7.422-.303-1.211.454-1.666 1.664-1.363 2.421.454 38.879 10.602 42.359 12.42.756.454 1.513 2.12 1.513 3.332 0 .152.151.455.453.606 2.875 1.818 10.59 11.057 11.952 13.177.907 1.515.605 3.333.756 5.15.151 1.06.151 2.121.756 3.181.606.909.303 2.12.303 3.332.151 3.029-.756 6.21-.908 9.542zm-25.112 79.064c-.152.303-.152.606-.605.606-.454-.152-.606-.758-.908-1.212-.908-1.212-1.362-2.575-.303-3.938 1.211-1.666 3.48-6.513 4.236-6.513.757 0 .757.757.908 1.363.302.606.454 1.363.605 2.121 0 .757-3.026 5.907-3.933 7.573zm4.236-4.847c.302.151.151.303.151.606.756 3.635 1.664 7.27 2.42 10.905 0 .152.152.303.303.455 0 .151 0 .303-.151.454-.303.151-3.782-2.878-4.69-3.484-1.21-1.06-1.967-2.12-.908-3.786 1.059-1.515 2.572-5.15 2.875-5.15zm-1.816-8.482c-.756 1.969-4.236 7.725-4.841 8.634-.151.302-.454.605-.756.908-.151 0-.303-.151-.454-.151-1.362-1.212-1.815-3.181-1.059-4.847 1.21-2.878 2.572-5.604 4.085-8.33.151-.303 1.512-2.272 1.815-2.121.151 0 .605 1.212.756 1.515 0 0 .908 3.18.454 4.392zm-6.505 11.511c-.302.152-5.295-2.726-5.749-3.029-1.966-1.06-3.025-2.726-3.328-4.998-.302-1.363-3.631-13.632-4.387-16.207 0-.303-.303-.606 0-.757.454-.152 1.059 0 1.059.303.303.606 12.254 23.325 12.405 23.628.151.303.454.757 0 1.06zm4.69-18.933c-.605.909-1.21 1.515-1.816 2.575-1.361 2.878-3.176 5.453-4.538 8.331-.454.909-.605.909-1.059-.152-.454-.908-.756-1.969-1.21-3.029.605-1.666 1.21-3.332 1.966-4.998 1.362-2.727 3.026-5.453 4.539-8.179.302-.455.605-.606.756 0 .454 1.514 2.421 3.938 1.362 5.452zm-3.934-3.938c-1.664 3.03-4.084 5.605-4.992 9.088-.151.757-.605.757-.907.152-1.059-1.969-1.967-3.635-.454-6.059 2.118-3.484 6.353-12.723 6.959-13.632.151-.151.151-.605.605-.605.302 0 .302.454.454.605 1.664 7.725-.757 8.785-1.665 10.451zm-.605-10.905c-2.269 3.635-3.782 7.725-5.748 11.511-.605 1.212-1.362 2.424-2.118 3.635-.303-.908-.908-1.969-1.362-2.726-.907-1.363-.454-2.12.151-3.332 1.967-3.787 3.934-7.573 5.749-11.36.908-1.817 1.664-3.635 2.572-5.453.151-.302.303-.757.605-.605.303.151.303.454.454.908 0 .455 0 .758.151 1.212.757 1.969 1.059 3.787-.454 6.21zm-.453-9.845c-3.48 5.301-9.682 16.661-9.682 16.812-.303.455-.303 1.364-.757 1.364-.605 0-1.21-2.121-1.361-2.272-1.665-2.272-.606-4.241.605-6.21.907-1.818 1.815-3.636 2.571-5.453.606-1.363 6.354-10.754 6.506-11.511.151-.303.302-.606.605-.455.151 0 .454.455.454.606.302 1.363 1.361 5.756 1.361 6.816-.151-.151-.151.151-.302.303zm-2.421-10.148c-1.815 2.12-9.228 16.661-10.136 18.63-.454.909-.756 2.12-1.664 2.12-1.059 0-1.21-1.363-1.815-2.12-.605-.757-.303-1.515.151-2.424 1.815-3.635 11.951-21.053 12.103-21.507.302-.455.756-.455.756.151.151 1.363.302 2.878.756 4.241.152.303.152.757-.151.909zm-2.42-6.059c-1.059 1.364-1.816 3.03-2.421 4.544-.756 1.969-1.815 3.787-3.026 5.604-1.815 2.727-2.723 6.059-4.538 8.785-.303.455-.605 1.061-.908 1.363-.454.455-.605 1.667-1.513 1.364-.907-.455-1.361-3.938-1.966-4.544-.454-.606-.454-1.212-.151-1.969 2.269-4.544 4.992-8.937 7.564-13.48 1.815-3.03 3.328-6.211 4.841-9.391.302-.606.605-1.363 1.059-1.363.302 0 .756.908.756 1.514.303 1.363.605 2.878 1.059 4.393-.303.908 0 2.12-.756 3.18zm-1.059-11.208c-1.816 3.484-9.229 16.964-12.254 21.205-.605.909-1.362 1.818-2.269 2.726-.606.606-.908.455-1.362-.151-1.513-1.969-2.42-3.635-1.21-5.907 1.966-3.787 14.069-22.417 14.977-23.477.605-.757 1.361-.454 1.512.454.303 1.364.454 2.727.757 4.09.151.606 0 .757-.151 1.06zM52.646 176.606c1.815.909 3.177 2.272 4.69 3.635 1.21 1.06 2.42 2.12 3.782 2.878.907.454 1.815 1.211 1.815 2.423-.151.455-2.874 7.422-3.026 10.451-.15 2.121-.605 4.393-.302 6.21.605 2.726.908 5.604 2.269 8.179.605 1.363 9.077 12.42 10.892 14.238.303.303.757.605.908.908.454.606.151 1.364 0 1.969-.151.455-.756.152-1.21.152-2.42 0-22.39.454-24.054.606-6.354.757-11.8-1.818-16.64-5.756-1.363-1.06-1.514-2.726-1.816-4.241-.152-.303-3.026-8.33-3.934-12.268-.756-2.878-5.597-38.32-6.656-39.078-.756-.454-.303-1.514.605-1.817 2.27-.758 4.539-1.363 6.808-1.969.605-.152 5.446 2.272 7.11 2.877 3.026.909 6.051 2.121 8.472 4.241.302.303.756.455 1.059.758.907.454 1.815.909 2.572 1.514 2.117 1.666 4.387 2.878 6.656 4.09zm-.757-3.484c.303-.454.757-.151 1.06 0 3.479 1.666 7.11 3.029 10.74 3.938 3.177.758 5.9 2.424 8.926 3.181 1.21.303 2.118 1.515 3.48 1.818.15 0 .302.151.302.302 0 .152-.151.152-.303.152-.756.151-6.807.151-8.925.909-1.816.606-3.48.454-4.69-1.212-1.966-2.423-4.992-3.787-7.261-6.059-.908-.757-1.816-1.514-2.723-2.12-.454 0-.908-.303-.605-.909zm21.634 49.074c-1.06-1.666-8.32-9.239-9.228-12.42-.303-1.06-.757-1.969-.908-3.029 0-.151 0-.303.151-.454.151 0 .303 0 .303.151.605 1.969 26.474 26.809 27.079 27.566 1.361 1.515 20.272 20.448 21.331 21.811.453.606.605 1.06-.152 1.515-.302.303-.605.605-1.059.908-1.361 1.212-1.966 1.061-3.176-.303-2.421-2.574-33.131-33.776-34.341-35.745zm39.333 35.443c.756-.455 1.21 0 1.664.605 3.177 3.484 66.11 67.553 67.925 69.219.303.303.757.757 1.059.303.303-.303-.151-.757-.454-.909-2.269-2.272-64.899-66.644-67.925-69.521-.605-.606-.454-1.061 0-1.515a147.841 147.841 0 017.11-6.664 123.052 123.052 0 006.505-6.059c2.27-2.12 4.69-4.241 7.111-6.361.605-.455 1.664-.909 1.21-1.666-.454-.758-1.21.302-1.664.757-2.723 2.12-5.144 4.544-7.564 6.816a14382.31 14382.31 0 00-13.162 12.268c-.756.758-1.361.758-2.118 0-3.631-3.786-41.148-41.652-45.687-46.045-1.513-1.514-3.48-2.726-3.933-4.998-.303-1.06-.303-2.12-.454-3.181-.151-1.363.908-7.724 1.664-9.39l.908-1.818c.756-1.817 2.118-3.332 4.084-3.786 2.118-.455 4.388-.455 6.506-.455 2.723 0 5.143.909 7.564 1.515 2.118.454 7.715 1.666 8.471 1.817 3.177.455 5.598 2.575 8.32 4.09 1.968 1.06 3.178 2.726 4.691 4.089 1.815 1.667 3.63 3.484 5.143 5.453 1.21 1.363 3.026 2.424 4.387 3.938 2.723 3.181 6.354 5.301 9.38 8.028 2.118 1.969 4.084 4.089 6.202 6.058 2.723 2.575 5.295 5.15 8.018 7.573 1.664 1.515 1.664 1.515 0 2.727-2.42 1.817-11.8 9.39-14.22 11.056-.303.303-1.059.455-.605 1.061.453.454.756 0 1.21-.303 3.177-1.818 13.615-9.239 15.279-11.36.757-.909 1.362-.303 1.967.303 2.118 2.12 4.236 4.241 6.505 6.361 2.874 2.878 5.9 5.453 8.623 8.482 3.026 3.484 6.505 6.362 9.833 9.543 2.27 2.271 4.69 4.392 6.808 6.664 1.362 1.363 2.874 2.726 4.236 4.241 1.513 1.817 3.479 3.332 5.143 4.998 2.572 2.575 5.144 4.998 7.716 7.573 2.572 2.727 5.295 5.15 7.866 7.725 2.875 2.878 5.9 5.755 8.775 8.785 1.21 1.363 1.815 3.18 2.42 4.998.908 2.575 1.816 4.998 2.572 7.573.756 2.424 2.723 26.203 2.723 28.93 0 .757 0 4.846.151 6.058.303 4.241 1.816 21.811 1.513 26.355-.151 1.06-.302 2.272-.605 3.332 0 .303-.303.757-.454 1.06-8.925-9.391-104.989-113.143-104.989-113.294.454-1.515 1.513-2.272 2.572-3.029zm94.248-89.667c.454-.151 1.059 0 1.059-.757 0-.151-.151-.454-.151-.606 0-1.969.907-3.635 1.361-5.452.303-.909 1.362-2.878 1.362-3.03-.454-3.635 1.361-6.058 3.782-8.179.605-.605 1.059-1.514 1.815-1.969.151-.151.454-.303.605-.151.303.303.152.454-.151.757-.454.455-1.21.606-1.513 1.363-.151.303-.302.606-.151.758.302.303.605 0 .756-.152.757-.757 1.362-1.514 2.118-2.12.908-.909 2.269-1.061 3.631-.455h.151c1.513.455 1.513.455.303 1.818-2.572 2.726-4.841 5.907-5.749 9.391-1.21 4.544-3.479 8.936-3.782 13.631-.151 1.363-.756 2.727-1.361 4.09-.606 1.363-.757 3.029-1.059 4.544-.454 2.12-1.513 4.241-1.665 6.361 0 .152 0 .303-.302.303-.151 0-.303-.303-.303-.303-.151-1.363-.756-2.423-1.059-3.635-.756-2.878-1.21-6.059-2.42-8.785-1.664-3.786-2.421-7.876-3.631-11.814-.454-1.363-1.059-2.575-.605-4.089.303-1.061.454-1.212 1.362-1.515.907-.303 1.966-.606 2.874-.606 2.269-.151 3.631 1.515 3.328 3.787-.151.908-.302 1.666-.756 2.423-.605 1.212-.303 2.575-.605 3.938 0 .152.302.606.756.454zm71.405-52.406c-.303 0-.303.303-.454.455-.303 2.272-5.749 22.719-5.749 23.779 0 .303-.302.606-.605.303a12.555 12.555 0 01-2.723-4.998c.303-4.09 8.169-33.776 8.32-34.836.908-5.15 2.421-9.997 4.69-14.54.908-1.819 2.723-2.424 4.085-3.636.907-.606 2.118.303 1.815 1.363-.756 3.635-11.497 58.162-11.497 58.313-.152.909-.303 1.818-1.513 1.969-.605.152-1.362-1.514-1.21-2.423.453-3.484 3.782-20.145 4.689-25.143.303-.303.454-.606.152-.606zm1.21 40.895c3.026 1.061 6.202 1.515 9.228 2.272 1.362.303 2.572 0 3.782-.151 1.362-.152 5.295.303 6.051.151 3.177-.303 6.354 0 9.38 1.06.907.303 1.815.303 2.874.152 1.513-.303 3.177.151 4.69-.606.454-.303 1.21 0 1.513.454.756 1.515 2.118 1.969 3.479 2.727 1.513.757 2.874 1.817 4.69 2.12.908.152 1.513.758 1.059 1.969a12.581 12.581 0 00-.908 3.181c-.302 1.363-1.21 2.272-1.967 3.181-.605.909-1.664.909-2.571.606-3.177-1.061-12.708-1.515-13.918 0-1.21 1.514-2.572 3.029-3.934 4.241-4.084 3.483-10.135 17.115-10.74 19.387-.908 2.878-.454 6.058-.908 9.088-.303 1.969-2.269 16.812-2.572 17.569-.454.758-.908.758-1.361.152-1.665-2.424-28.895-35.594-30.105-36.503-1.059-.909-.908-1.212-.152-2.272 1.816-2.272 4.236-3.332 6.959-4.089 1.513-.303 7.413-7.725 8.018-10.148 1.059-4.393 4.539-13.026 4.539-13.178.605-1.969.756-2.12 2.874-1.363zm40.997 20.751c.908-.909 2.421-.455 3.177-1.515.303-.303.908 0 1.21.454.908 1.364 1.513 2.878 1.664 4.544 0 .455 0 1.061-.605.606-1.664-1.211-3.479-1.969-5.295-2.878-.907-.303-.907-.605-.151-1.211zm-.908-1.363c-.907.151-1.512.908-2.571 1.06-1.059.151-1.816 0-2.723-.303-1.059-.455-2.118-1.06-3.329-1.06-.453 0-1.059-.152-.907-.758.151-.454.605-.606 1.513-.303 2.42-.303 5.143.606 8.017.455.454 0 .908 0 1.059.303 0 .606-.605.606-1.059.606zm-18.305 10.753c-3.025-.151-3.176-.454-1.815-2.877 0-.152.151-.152.151-.303.454-.606.454-1.818 1.059-1.666.757.151.908 1.363 1.059 2.12.152.454.152 1.06.303 1.515.454 1.06 0 1.363-.757 1.211zm9.834 76.035c-2.118.606-4.085 1.06-6.354 1.363-.908.151-1.664-.151-2.421 0-2.874 0-5.748-.606-8.471-1.212-2.421-.606-3.782-3.332-3.631-5.907.151-2.272.302-19.69.454-21.356 0-.606.151-1.06.605-1.212.454-.151 19.061 25.446 20.272 27.112.605.606.756.909-.454 1.212zm4.841 1.969c1.21-.303 2.269.151 3.328.757.605.303.605.757 0 1.06-.605.303-1.059.606-1.664.606-1.967-.151-3.782.152-5.598.455-2.571.454-4.689-.606-6.959-1.364-.151 0-.302-.302-.453-.454.151 0 .453-.151.605-.151.756-.152 1.664-.152 2.42-.152 2.723.303 5.598-.303 8.321-.757zm-88.651-.909c-.303 2.272-.454 4.393-1.21 6.513-.152.303 0 .606-.454.606-.303 0-.303-.455-.303-.757 0-1.061-.151-2.272 0-3.333.303-2.575-.454-4.998-.756-7.573 0-.454-.151-1.212-.757-1.06-.605.151-.907.757-.756 1.515.454 1.363.908 2.574 0 3.938V264c1.21 3.635.151 7.119-.303 10.602-.151 1.818-.605 3.787-.605 5.605 0 .908-4.689 17.872-4.236 20.296.152.454-.151.454-.605.303-3.177-1.364-4.538-3.636-4.689-6.968-.152-1.969-.454-4.089-.605-6.058-.152-5.302-.454-10.603 0-16.055.453-3.938 3.782-30.596 4.689-33.928.605-2.121 1.21-4.847 3.782-6.21.908-.454 1.967-.454 3.026-.303 3.631-.303 7.11 1.212 10.59 1.666.453 0 26.776 9.391 30.256 10.451.907.303 1.664.757 2.42 1.212 4.387 2.878 8.623 5.907 12.859 9.088 2.118 1.666 4.387 3.332 6.808 4.543a8.716 8.716 0 012.874 2.272c.605.606.454 1.818 1.362 2.272.302.152.605.455 1.059.606.302 0 .907-.303.907.303 0 .757-.756 1.06-1.21 1.515-.302.303-.605.303-.908 0-1.21-1.212-3.782-4.544-4.084-4.696-3.933-3.332-8.623-5.452-13.464-7.421-.757-.303-19.213-4.999-23.751-6.362-1.967-.606-6.657-2.12-7.111-2.12-3.025-.303-5.748-1.06-8.32-2.575-1.21-.757-2.723-.909-3.933-.606-4.236 1.06-1.816 16.812-2.572 22.265zm-6.656 56.496c.302 1.211.453 2.575.453 3.786 0 .152.303.455 0 .606-.302.152-.302-.303-.453-.454-.908-1.969-1.816-3.787-2.724-5.756l-3.176-6.816c-.454-1.06-.606-2.12-1.059-3.18-.454-1.666-.454-3.484-1.967-4.696a1.157 1.157 0 01-.303-.757c-.151-.606-.907-1.515-.151-1.818.757-.302.756.909.908 1.364.302.605.756 1.06 1.361 1.211 2.27.152 4.236 4.241 4.539 4.393 1.21.606 1.21 1.817 1.21 3.029 0 .757.303 1.515.151 2.272-.151 2.423.605 4.544 1.211 6.816zm44.325-110.417c-.756.455-1.21.758-2.118.152-.756-.455-4.085-2.727-5.144-3.332-3.025-1.515-5.748-3.939-7.866-6.059-1.513-1.363-2.572-4.847-1.967-6.664.454-1.061 1.513-1.364 2.421-1.818.453-.303.756.454 1.059.757l15.43 15.45c-.605.757-1.059 1.06-1.815 1.514zm3.933-.303c1.059-1.363 1.059-1.363 2.421-.151 2.118 1.666 14.825 18.327 16.943 19.69.757.454.303 1.363.152 1.818-.757 4.998-.908 9.996-1.513 14.994-.454 3.484-.454 6.816-.454 10.3 0 1.06-.303.757-.757.454-1.21-1.06-2.571-2.12-3.782-3.18a4.594 4.594 0 00-1.059-.758c-2.117-.908-3.933-2.12-5.446-3.786-1.21-1.212-2.723-1.818-4.084-2.575-2.421-1.212-8.169-5.301-8.926-5.15-1.21.152-1.967-.909-3.177-1.06-.302 0-.605-.303-.454-.606.454-1.818.606-11.966.606-13.026 0-.454.151-1.06.151-1.514 0-.606.454-3.333 1.059-4.696.454-.909 2.42-5.15 3.177-6.361.756-.606 4.689-3.787 5.143-4.393zM247.95 201.9c.302-.909.605-1.212 1.361-.454a48.262 48.262 0 006.354 4.544c1.664.908 5.749 3.786 6.354 4.089 1.21.455 1.513 1.363 1.059 2.575-.151.454-.454.909-.605 1.363-.908 1.666-.908 1.515-2.723.758-4.085-1.969-7.716-4.393-11.498-6.816-.907-.606-1.361-1.212-1.059-2.424.303-1.363.454-2.575.757-3.635zm-.454 6.816c2.118 1.363 4.236 2.272 6.505 3.332 1.815.909 4.387 2.575 6.203 3.484 1.966.757-.908 6.21-1.664 5.755-1.211-.757-8.926-6.21-11.8-7.27-1.059-.303-1.513-.757-1.059-1.817.302-.909.605-1.818.605-2.878 0-.757.454-1.06 1.21-.606zm.756 6.816c1.211.757 8.321 5.301 9.834 6.058.605.303.756.758.605 1.364-.151 1.06-.151 2.12-.303 3.18-.151 1.515-.454 1.666-1.815.909-.303-.151-5.749-2.878-11.649-6.967-.756-.606-.151-1.818-.151-2.272.303-3.029.756-3.787 3.479-2.272zm-2.723 5.755c1.664 1.212 11.649 6.816 11.952 6.816.756.152 2.118 5.756-1.967 4.09-3.933-1.666-6.656-2.727-10.892-5.604-.152-.152-.303-3.787-.152-4.847.152-.455.303-1.06 1.059-.455zm.152 6.665c.907.454 9.379 4.847 11.043 5.301.908.303 1.059.757 1.21 1.666 0 2.878-.605 3.484-3.176 2.272-2.875-1.363-8.018-2.878-10.741-4.847-1.211-.909-.757-2.726-.606-3.635-.151-.454 0-1.817 2.27-.757zm-2.118 4.998c.605-.151 11.346 5.453 13.01 5.604.151 0 .454.303.302.455-.151.454-.453.454-.756.303-3.479-1.061-11.649-3.484-12.405-3.636-.605-.151-.908-.454-.756-1.211.302-.455 0-1.212.605-1.515zm25.566-28.475c.757.757.908 1.212 0 1.818-.605.454-.907.757-1.513 1.363-.756-.758-7.11-6.816-9.379-9.088-2.118-2.12-4.387-4.241-6.203-6.664-.907-1.364-.907-1.818.152-2.727 1.664-1.363 2.269-1.363 3.479-.151 3.026 2.878 11.498 13.631 13.464 15.449zm-16.792-17.115c-1.513.757-2.723 2.12-4.236 2.878-1.967.908-2.269 14.54-2.723 16.055-.908 2.726-2.269 14.54-2.874 17.418-.454 2.878-.757 5.907-.757 8.936 0 1.363-.454 1.515-1.664 1.212-1.815-.455-10.438-3.787-13.161-4.393-1.816-.454-3.48-1.211-5.295-1.514-1.059-.152-1.362-1.515-1.815-2.575-1.211-2.726-4.539-12.874-5.295-15.146-.908-2.878-2.118-5.604-1.816-8.785.152-.909-.453-1.818-.756-2.727-.605-1.666-1.059-3.18-.908-4.998.605-5.301 1.513-10.451 3.177-15.449.757-2.121 1.21-4.241 1.967-6.361.908-2.727 2.118-4.999 4.69-6.513 1.815-1.061 3.176-2.727 4.992-3.938.302-.303.605-.606.756-1.061.152-.606.605-.606 1.059-.908.908-.758 1.967-.758 3.026-1.212.756-.303.908-.152 1.21.151 2.421 2.727 19.364 26.052 20.574 27.112.757.757.757 1.363-.151 1.818zm-20.574-31.05c-1.059-1.212-1.967-2.727-2.572-4.241-1.513-3.029-2.723-6.059-3.177-9.391 0-.303-.151-.606.151-.757.303-.152.303.303.605.454 1.211 1.06 3.026 5.604 3.329 6.513.756 2.272 1.512 4.544 1.966 6.816-.151.303-.302.454-.302.606zm-3.934-1.969l.454.454c.303.455 1.059 1.212.454 1.515-.454.303-1.361.909-2.269.151-.151-.303-.454-.606-.756-.454-.606.151 0 .757-.303.909.303.606.151.908-.303 1.211-1.059.455-1.815 1.364-2.723 2.121-1.21.909-2.269 1.969-3.025 3.332-.152.303-.454.606-.757.909-.151.151-.454.454-.756.303-.454-.152-.303-.606-.151-.909.605-2.726 1.815-5.15 2.571-7.725.606-2.272 1.513-4.392 3.48-5.907.302-.303.756-.908.908 0 .151 1.969 2.269 2.575 3.176 4.09zm-23.146 41.046c.454 2.878.757 5.604.152 8.331-1.362 1.06-2.572 3.029-3.328 4.392-.908 1.515-4.539 5.15-5.598 5.604-2.42 1.061-4.69 2.878-7.564 1.666-.454-.151-1.059 0-1.664.152-.303 0-.605.303-.605.606 0 .454.454.606.756.606 1.362-.303 2.723.151 4.085 0 1.513-.152 3.025-.758 4.69-.455.605.152 1.361-.151 1.361-1.212 0-.605.454-1.06.908-1.363 1.361-.908 2.42-2.12 3.782-3.18.908-.758 1.664-1.212 2.874-.758.303.152.757.152 1.21 0 .454-.151 1.059-.454 1.059-.909 0-.454-.605-.302-1.059-.302-.605.151-.907-.455-1.361-.455-1.059 0-.908-.606-.454-1.212.605-.908 3.177-4.241 3.933-1.969.152.303.303.606.454.606.303 0 .303-.454.303-.757 0-.152 0-.454.151-.454.303-.152.303.302.303.454 1.21 1.515 1.21 3.484 1.815 5.15.908 2.726 4.69 15.903 4.992 19.993.152 2.726-.302 5.453-1.059 8.027-.907 2.575-5.9 44.833-5.446 48.469 0 .302.151.757-.151.908-.454.152-.605-.454-.757-.606-.453-.908-1.058-1.817-1.361-2.877-.908-3.333-48.561-136.771-49.015-138.892-.151-.303-1.059-3.181-1.059-4.089 0-1.515-1.21-6.816-1.059-8.179 2.118 2.574 37.669 35.139 39.787 37.562.454.606.908.909 1.513 1.364 1.059.757 1.664 2.12 2.118 3.332 0 2.726 4.992 18.933 5.294 20.447zm-47.653-29.232c0-.303 1.815.606 2.269.909 6.656 4.847 5.9 6.21 6.808 10.602 0 .152.302 1.666.151 1.818-.303.151-1.21-.909-1.361-1.061-2.118-1.817-4.69-3.635-6.657-5.755-.605-.757-1.361-1.666-1.21-2.575v-3.938zm.605-10.905s.303.303.303.605c.302 1.364.907 2.575 1.361 3.787 1.059 2.575 1.967 5.301 2.874 7.876.152.303.303.606.152.757-.303.152-.454-.151-.605-.303-1.362-1.06-2.723-2.271-4.085-3.332-.303-.303-.303-.606-.303-1.06v-2.878c-.302-1.666 0-5.301.303-5.452zm.303 19.084c.907-.454 6.505 4.998 8.925 6.664.303.303.605.758.757 1.212.453 1.969 1.361 3.787 2.118 5.604.151.303.756 1.212.302 1.363-.151 0-.756-.151-.908-.303-3.177-2.12-6.959-5.604-10.287-7.573-1.966-1.06-1.513-6.664-.907-6.967zm.605 8.179c.756-.454 1.513.303 1.966.757 2.421 1.666 8.926 6.665 9.834 7.573.756.758 2.571 5.907 2.874 7.574 0 .302.454.908 0 1.06-.454.303-.756-.152-1.21-.455-2.421-1.817-10.287-8.027-11.951-8.936-1.362-.757-1.816-1.817-1.967-3.181 0-.606-.151-1.363-.151-1.969v-.454c.302-.909 0-1.666.605-1.969zm0 8.482c0-.909.151-.909.907-.455 3.782 2.727 7.413 5.453 11.044 8.482 1.059.909 2.118 1.969 3.479 2.424.908.303 1.513 1.666 1.664 2.272.908 2.878 1.211 4.544 1.967 6.967.151.606.303 1.212.303 1.818-4.387-2.878-17.246-13.481-17.851-13.935-1.665-1.212-1.665-2.121-1.665-3.635 0-1.363.152-2.726.152-3.938zm.454 8.027c.302-.151.756 0 .907.303 4.085 4.393 19.818 15.45 20.423 18.327.303 1.818 1.664 3.635 1.967 5.604 0 .152.151.455.151.758v.303c-.151 0-.454 0-.605-.152-1.059-.909-22.541-15.752-22.692-17.115 0-1.666-.151-5.301-.303-6.967-.151-.455-.302-.758.152-1.061zm.605 9.997c.454.757 17.397 13.026 20.12 14.692 3.328 2.272 5.295 5.604 6.051 9.542.152.909 1.362 2.878 1.059 3.181-.302.151-.454-.152-.756-.303-3.026-2.121-26.777-20.751-26.777-21.811-.151-1.666-.151-3.181-.151-4.847 0-.151 0-.303.454-.454zm1.512 9.239c2.421 1.666 23.146 18.327 24.357 18.933 1.815 1.06 2.874 2.423 3.328 4.392.454 1.818 1.059 3.636 1.815 5.302.152.454.454 1.06 0 1.363-.454.454-.907-.152-1.361-.455-3.48-1.969-26.172-20.296-27.685-21.053-1.21-.606-1.815-6.513-1.815-7.876 0-1.06.303-1.363 1.361-.606zm-.756 10.3c.303-1.364.303-1.364 1.362-.606 2.118 1.666 24.81 19.084 29.046 23.174.453.454 2.874 4.241 3.328 5.604.454 1.817 1.21 3.483 1.966 5.301.303.606.454 1.212.303 1.969-2.723-1.818-30.861-25.597-34.038-28.172-1.513-1.212-1.664-2.272-1.664-3.635-.303-1.212-.605-2.424-.303-3.635zm1.513 8.785c2.118 1.666 11.043 9.087 13.313 11.056 4.689 4.09 19.364 16.055 21.935 18.024a.834.834 0 01.454.758c.454 2.12 3.48 9.542 3.631 10.905 0 .152.303.454 0 .606-.303.151-.605 0-.756-.152-1.211-1.666-37.064-34.079-39.031-35.139-.303-.151-.605-.454-.454-.757 0-1.666-.302-3.181-.302-4.847.151-1.212.453-.909 1.21-.454zm-.303 8.633c.303-.606.454-.152.757 0 1.815 1.212 37.215 33.17 38.576 34.231 1.059.757 1.816 1.666 2.118 2.877l2.723 8.634c0 .151 0 .151.152.303 0 .151-.152.151-.152.303-.151-.152-.453-.152-.605-.303-1.21-1.969-39.333-38.926-42.812-42.259-1.211-.908-1.513-2.12-.757-3.786zm31.316-81.639c-.454.455-.908-.151-1.211-.303-1.815-1.514-33.13-31.201-36.156-33.927-2.723-2.424-14.977-32.565-16.187-34.534-1.059-1.514-7.715-19.236-8.169-21.205 0-.303-.303-.605.151-.757.303-.151.454 0 .605.151 2.723 3.03 6.354 5.15 9.531 7.725 2.874 2.575 6.354 4.241 9.984 5.604 1.816.758 4.388 1.818 5.598 2.878 1.21.909 2.874 2.726 3.933 4.544.454.757 2.269 4.544 2.875 5.907.453 1.06 28.289 61.494 28.894 62.857 0 .455.605.757.152 1.06zm-56.126-65.28c.152.454 14.069 34.533 14.221 35.897.151.757-.605.302-.908.151-1.513-.757-3.026-1.363-4.69-1.666-1.513-.303-2.874.151-4.236.757-.907.455-1.512.152-1.664-.909-.605-2.726-1.059-5.755-3.63-7.724-.303-.303-.606-.606-.757-.909-1.361-1.666-2.874-1.515-4.084.152-.152.151-.152.302-.303.454-3.933 1.969-3.782 6.058-4.841 9.391-1.21 3.938-1.664 8.027-1.967 12.117-.302 3.483-.756 6.815-1.059 10.299 0 .152-.151.303 0 .455 1.362 3.18-1.059 5.755-1.361 8.784 0 .303-.151.606-.151.758 0 .151.151.303.151.606l.302-.303c.152-.455.454-1.061.606-1.515.151-.303-.001-.757.302-.909 1.513-1.211 1.815-2.878 2.269-4.695 1.059-4.09 4.085-6.967 6.203-10.451.151-.303.302-.909.756-.606.454.152.303.606.303 1.06-.757 6.059-.605 12.117-.303 18.176.151 2.12 1.362 4.089 2.875 5.301 1.059.757.756 1.363.453 1.818-2.42 2.12-.756 4.241.152 5.907 1.361 2.423 2.118 5.149 3.025 7.724.303.909.454 1.969 1.059 2.878 0 0-.454 2.423.303 2.878.605.303.605.757.605 1.212-.303 2.726-.605 5.604-.756 8.33-.152 1.666-.303 3.332-.303 4.998 0 .303-.151.909.303.909.605 0 .756-.454.756-.909 0-1.969.151-3.786.303-5.755.453-3.484.302-6.968.605-10.3.302-4.392.302-8.785.151-13.177 0-.909-.151-1.969-.454-3.029-.151-.303 0-.758-.454-.758s-.302.455-.302.758c.151 1.666.151 3.18.302 4.847.152 1.211-.302 2.271-.151 3.483 0 .303-.151 1.06-.303 1.06-.453 0-.605-.454-.605-.908-.302-1.515-.907-2.878-1.664-4.241-.454-.758-.756-1.666-1.664-1.969-.756-.303-.756-.909-.454-1.515.757-1.212.757-2.575 1.21-3.787.303-.908.001-1.969-.907-2.271-1.362-.303-1.513-1.364-1.664-2.424-1.059-4.544-1.059-9.088-1.513-13.632-.151-1.211.151-2.574.756-3.786.757-1.818-.151-3.484.303-5.15.756-3.029.908-6.361 3.479-8.633 1.664-1.515 3.48-3.181 5.598-3.332 2.269-.303 4.689 0 6.656 1.514.757.606 1.513 1.06 2.421 1.666 1.059.758.605 1.818.756 2.727.303 3.635 4.841 101.177 4.841 102.692 0 .302 0 .908-.454.908-.302.152-.605-.151-.908-.454l-8.169-8.179c-1.664-1.666-3.328-3.332-5.143-4.998-.908-.758-1.362-1.515-.908-2.727.756-2.575.151-4.998-.303-7.421-.453-1.969-.453-4.09-.756-6.059 0-.454 0-.909-.454-.909s-.605.455-.605.909c0 2.575.151 4.998.303 7.573 0 .303 0 .606.151.758 1.513 1.211.454 2.877.908 4.24.151.455-.303.758-.605.909-.454.303-.606 0-.908-.303-3.026-2.877-6.051-5.755-9.077-8.784-.303-.303-.454-.606-.756-.758-.908-.454-1.513-1.06-.908-2.272.454-.757-.151-1.817-.151-2.575-.152-6.361-1.059-12.571-2.875-18.63-.605-2.12-1.21-4.392-2.874-6.058-1.059-1.06-1.21-2.726-2.118-3.787-.151-.151-.151-.454 0-.606 1.21-.908.454-2.12.605-3.18.303-3.03-.605-6.21.303-9.239.151-.758.151-2.272-.757-2.272-.756 0-.756 1.363-.756 2.12.151 3.181-.151 6.361-.151 9.542-.152 2.121-.454 4.241-1.513 6.21-.454.909-.454 1.818-.605 2.727 0 .151 0 .454-.303.454-.302 0-.454-.303-.454-.454 0-2.727-13.918-114.96-13.918-115.264-.302-2.423-.302-2.423 2.118-2.575 2.723-.151 5.446 0 8.169-.606a52.672 52.672 0 009.38-3.18c.908-.455 1.967-.606 2.874-1.06 1.059-.455 1.21.757 1.362 1.211.302 2.575 1.21 4.999 1.513 7.573.453 3.484 6.807 20.296 7.866 22.72zm-7.564 30.595c.151-1.211.454-2.423 1.816-3.029.605-.303 1.058-.454 1.512 0 .605.606 1.362.909 2.118 1.363 1.967 1.212 3.48 4.696 3.026 6.968-.303 1.211-.908 2.271-1.664 3.029-1.816 2.272-2.572 4.998-3.631 7.573-1.059 2.575-2.269 5.15-4.387 7.119-.757.757-1.664 1.514-1.967 2.575-.151.454-.302.908-.756.605-.454-.151-.303-.605-.151-1.06.302-3.181.605-6.21 1.059-9.391.453-2.574 0-5.301.907-7.876.908-2.574.303-5.755 2.421-8.027-.605.454-.757.303-.303.151zm-2.572 84.82c-.907-.455-1.815-.909-2.42-1.515-1.362-1.06-2.421-2.423-3.631-3.635-.605-.606-.302-1.969-.605-3.029-.454-2.272-.908-4.544-1.059-6.816-.151-2.424-.454-4.847.303-7.27.453-1.364.151-2.727.756-3.938.454-1.061.756-1.212 1.664-.303.908 1.06 1.21 2.423 1.815 3.483.757 1.363.152 3.029 1.059 4.393 1.816 3.029 1.362 6.513 1.967 9.845.454 1.817.605 3.938.454 5.755 0 1.212 0 2.121-.303 3.03zm87.895 101.631c.605 0 1.21.303 1.059 1.212.605.909 5.748 11.36 6.656 12.571.454.606.756 1.212.908 1.969.756 2.878 1.966 5.453 3.177 8.028.454 1.06.907 2.272 1.361 3.484.151.757-.454.605-.908.454-1.21-.454-2.269-1.212-3.328-1.969-1.512-1.06-3.479-1.818-4.538-3.635-.454-.606-1.21-.909-2.118-.757-.756.151-1.21-.152-1.21-1.061-.303-6.361-1.967-20.296-1.059-20.296zm5.9-13.934c0-.152-.303-.455-.152-.606 1.211-1.666 1.967-11.966 3.782-14.995.757-1.06 6.506-17.267 6.657-18.176.302-4.089 0-8.027-.605-12.117-.152-1.363.302-9.087.302-11.511 0-.606-.302-1.363.605-1.514.757-.152 1.059.303 1.362 1.06.605 1.514 1.361 3.029 1.815 4.544a166.848 166.848 0 004.539 10.905c1.361 3.181 2.874 6.361 4.538 9.391.605 1.06 1.059 2.272 1.059 3.635 0 1.06.757 2.12 1.362 3.181 1.21 1.969 2.42 3.938 3.63 6.058 1.211 1.969 2.27 4.09 3.631 6.059.303.454.454.908 1.059 1.06.303.151.454.303.303.757 0 0 0 .152-.152.303-.151.152-17.094 23.931-17.7 25.597-.302.758-.907.455-1.361.152-3.177-2.424-6.656-4.241-9.682-6.816-2.269-1.969-4.085-4.09-4.992-6.967zm18.002 13.934c2.421-3.635 4.539-7.421 7.262-10.754 2.571-3.18 4.689-6.664 7.11-9.845.605-.908 1.361-1.817 1.967-2.575.302-.303.302-1.211 1.058-.908.606.303 1.059.757 1.059 1.666 0 .151.303 1.363.152 1.363-1.967 1.212-14.523 22.416-16.641 24.688-.908.909-1.21-2.272-2.118-2.726-.454-.454-.151-.757.151-.909zm18.608-27.415c-.908.303-.908-.454-1.362-.757-2.269-2.272-13.615-23.325-14.22-24.537-.605-1.212-1.21-2.423-1.664-3.635-.152-.303-.303-.606 0-.757.302-.152.454.151.605.454 2.572 3.484 5.295 6.816 7.564 10.451 1.664 2.726 3.177 5.453 4.387 8.331 1.059 2.271 2.269 4.392 3.933 6.361.757 1.06 1.362 2.272 2.421 3.029.151.152.151.303.302.455 0 .151-.151.303-.151.303-.605 0-1.21.151-1.815.302zm43.871-134.499c1.816.455 3.48-.151 5.144-.454a5.603 5.603 0 001.664-.757c1.513-1.364 3.026-1.818 4.69-.758 1.059.606 1.966.303 3.025.303 1.513 0 2.875-.606 4.236-.606.605 0 4.387 1.364 5.446 2.878 1.059 1.666 1.816 3.332 1.513 4.847 0 1.515.303 3.029-.454 3.484-.907.454-1.815-.909-2.874-1.364-2.118-1.06-3.631-2.877-4.841-4.695-.908-1.212-2.118-1.363-3.328-1.817-1.513-.606-2.421-.152-3.631.454a6.01 6.01 0 01-4.236.606c-2.723-.606-5.295-.757-8.018 0-3.177.909-6.354.303-9.682-.152-.907-.151-1.966 0-2.874-.605-.303-.152-.757-.152-.757-.606 0-.455.606-.606.908-.606 1.816.151 3.631-.455 5.446-.303 1.362.151 2.723.151 3.934 0 1.815-.152 3.328-.152 4.689.151zm11.498-77.094c-.605 2.423-16.187 74.065-17.246 74.671-.757.454-1.816-.152-2.875-.152-.151 0-7.564-1.514-10.892-2.423-.908-.303-1.513-1.06-1.362-2.272.454-4.695 10.136-59.222 10.741-62.1.303-1.211 1.059-1.666 1.967-1.666 2.421 0 14.069-5.453 18.003-7.119 1.361-.454 1.966 0 1.664 1.06zm-8.926-44.833c.151-.455.151-1.212.454-1.212.605 0 1.059.606 1.059 1.06.151 1.212.756 2.272 1.21 3.332 1.059 3.333 1.815 6.665 2.118 9.997.303 2.878 1.059 5.755 1.21 8.785 0 .303 0 .757.605.606.606 0 .606-.455.454-.91-1.059-3.028-1.059-6.36-1.815-9.541-.151-.606-.303-1.363 0-1.97.605.304.454 1.06.756 1.667 1.513 3.332 2.27 6.967 3.934 10.3.756 1.362.907 3.029-.303 4.846-2.269 3.18-5.597 5.15-8.32 7.876-.454.303-.757.757-1.211 1.06.757.455 1.362-.151 1.664-.606.757-.757 7.867-7.118 8.926-6.664.756.303.454 1.818.605 2.727.151 1.211.303 2.271.454 3.483.151 1.06-.303 1.666-1.362 2.272-4.387 2.12-9.076 3.484-13.464 5.15-1.664.606-3.328.606-4.841 1.666-.453.303-1.059.151-1.21-.455-.151-.908-.302-1.817-.302-2.726.756-5.755 1.966-11.511 3.479-17.267 1.21-4.544 2.421-9.239 3.48-13.934.453-3.03 1.512-6.21 2.42-9.542zm-3.177-2.12c-.908 3.028-11.951 49.073-13.918 49.679-.907.303-5.597 5.907-5.9 6.664-1.059 2.878-11.951 43.016-12.405 44.985-.151.454-.151 1.06-.605 1.212-.454.151-.605-.606-.908-.909-.605-.757-10.589-4.847-11.648-3.938-.454.454-.757-.152-.605-.606.454-1.818 14.069-67.401 14.523-70.885 0-.606 1.21-4.392 1.361-5.452.303-1.06.605-2.272 1.21-3.333.152-.151 15.885-28.323 17.852-31.807.453-.606.605-.757 1.361-.454 1.967.606 3.026 2.272 4.085 3.483.907 1.06 2.118 1.818 3.025 2.878 1.362 1.363 2.572 2.878 3.177 4.696.605 1.363-.151 2.574-.605 3.786zM292.88 6.21c0-.303-.151-.606 0-.909.303-.454.454-1.06 1.211-.303 1.361 1.212 3.025 2.12 3.177 4.241 0 .303.302.606.605.909 0 0 1.815 6.664 1.664 6.967-.152.303-.454.455-.757.152-1.512-1.666-3.933-.909-5.446-2.575-.454-.454-1.361-.909-1.815-1.363-.454-.909 1.513-5.604 1.361-7.119zm-40.846 19.084c1.059-1.817 1.513-3.938 3.782-5.3 1.362-.758 2.421-2.121 3.631-3.333 1.059-1.06 10.136-3.484 13.162-4.393.605-.151.907 0 .605.758-.303.909-1.059 1.363-1.664 1.969-1.664 1.969-4.236 1.363-6.203 2.12-2.269.91-4.236 1.97-5.748 3.938-1.059 1.363-2.724 2.12-4.085 3.181-.756.606-1.362 1.666-2.421 2.12-.302.152-.605.455-1.059.152-.302-.454-.302-.909 0-1.212zm-2.723 3.787c.454-.454.908-1.363 2.118-.909 1.816.757 3.329-.151 4.539-1.515.454-.605.907-.908 1.815-1.06 1.21-.151 1.513-1.514 2.118-2.423 1.21-1.666 2.723-3.03 4.69-3.938 2.572-1.212 5.446-1.515 8.018-2.575 1.361-.606 2.269-1.515 2.118-2.878-.152-3.03 1.966-4.09 4.084-4.998 2.723-1.06 10.287-6.21 10.741-6.362.605-.151.605.606.908 1.06.756 1.06.908 2.424 1.059 3.636 0 .454 0 1.06-.151 1.211-1.362 1.364-19.667 36.2-21.482 38.623-.454.606-.908.91-1.664.303-1.513-1.06-16.793-14.54-18.759-16.206-.605-.757-.605-1.515-.152-1.97zm-3.025 8.482c.756-1.666.605-3.635 1.21-5.301.303-.758.454-.758 1.059-.303 1.21.606 19.818 17.115 20.423 17.266.151 1.515.303 3.181-.908 5.756-.302.757-.605.757-1.361.303-3.631-2.423-16.339-14.389-19.969-16.66-.454-.304-.757-.607-.454-1.061zm-1.664 6.513c.454-1.212.756-2.575 1.059-3.938.151-.758.454-.758 1.059-.455 1.966 1.364 17.7 15.45 20.423 17.419.453.303.151.605.151.757-.151 2.12-.605 4.09-1.059 6.058-.151.606-.303.91-.908.455-1.664-1.363-14.372-12.723-19.515-16.358-1.967-1.515-2.118-1.515-1.21-3.938zm-1.967 7.724c.454-1.06.454-2.12.756-3.029.152-.606.303-.757.908-.303 2.572 1.818 19.667 16.813 20.423 17.267.605.454.756.909.756 1.515-.151 2.423-1.058 4.846-1.21 7.27 0 .606-.302.757-.907.303-.757-.606-13.767-13.329-19.667-18.782-1.362-1.363-1.664-2.726-1.059-4.24zm-2.723 10.148c.454-1.666 1.059-3.332 1.513-4.998.151-.606.302-.757.907-.303 2.118 1.666 21.482 19.236 21.482 20.448-.151 2.12-1.059 3.938-1.21 6.058 0 .152-.151.455-.454.455-.151 0-.302-.152-.302-.303-.303-1.515-20.574-18.782-20.877-19.085-1.059-.757-1.362-1.363-1.059-2.272zm-1.967 8.634c.454-1.666.757-3.332 1.211-5.15.151-.454.302-.909.907-.303 2.572 2.423 19.213 17.115 20.726 18.479.907.908 1.513 1.817 1.059 3.18-.454 1.515-.605 3.03-.908 4.544-.151 1.06-.605 1.06-1.361.455-1.816-1.818-20.121-19.842-21.18-20.448-.454 0-.605-.303-.454-.757zm-1.815 6.664c.303-.757.605-1.514.605-2.272.151-1.363.605-1.212 1.513-.606 1.664 1.06 19.061 17.116 21.028 19.236.605.606.605.606.605 1.363-.605 1.818-.756 3.938-1.21 6.059-.151.757-.454.606-.908.151-1.361-1.06-18.002-18.024-20.574-19.993-1.815-1.363-1.967-1.817-1.059-3.938zm-2.572 9.39c.454-1.514.757-3.028 1.362-4.392.302-.606.454-.606.907-.302.908.757 8.17 7.27 10.439 9.996 2.42 2.878 9.833 10.3 11.043 11.36.454.303.605.909.605 1.514-.151.758-1.21 5.15-1.512 5.302-.454.303-.757-.303-1.059-.606-2.27-2.424-18.911-20.145-21.331-21.81-.454-.152-.605-.607-.454-1.061zm-1.966 7.725c.453-1.514.756-3.18 1.21-4.695.302-1.06.756-1.06 1.513-.303 1.512 1.515 19.515 21.205 21.33 22.72.454.303.454.908.303 1.363-.303 1.666-.605 3.181-1.059 4.847-.454-.758-20.423-20.145-22.844-22.114-.605-.606-.756-1.06-.453-1.818zm-2.118 7.271c.302-1.212.756-2.424 1.059-3.484.151-.757.453-.757 1.059-.303.151.152 22.389 21.811 22.994 22.114l-.907 4.544c-.152 1.06-.454 1.211-1.362.605-2.572-1.817-18.91-18.024-20.725-19.69-.454-.454-2.421-2.575-2.118-3.786zm-1.513 6.21c.302-.758.302-1.969.907-2.272.757-.303 22.39 20.296 22.541 20.447.303.303.605.606.454 1.06-.151.606-.605.303-1.059.152-2.874-.909-5.446-2.121-7.866-4.09-2.723-2.12-4.841-4.695-7.413-6.967-.303-.303-6.657-6.816-7.867-7.27-.302-.152.151-.757.303-1.06zm-.908 3.332c.605-.303 1.059.151 1.664.606 1.362 1.211 8.018 6.21 8.623 6.816 1.816 1.666 3.177 3.786 4.992 5.452.152.152.152.303.303.455-.151 0-1.513.151-1.967.151-1.664 0-3.328-.151-4.689-1.06-.908-.758-1.816-1.515-2.572-2.272-2.269-2.121-4.387-4.393-6.505-6.513-.605-.909-.605-3.332.151-3.635zm-2.269 8.633c.605-.909.756-1.969 1.059-2.878.302-.908.605-1.06 1.361-.302 1.664 1.514 5.598 5.452 5.9 6.058 0 .454-.302.454-.605.303-1.361-.454-6.354-1.818-7.413-2.121-.453-.302-.605-.757-.302-1.06zm-14.826.606c0-.303.152-.606.152-1.06-.152-1.363.302-1.666 1.512-1.212 2.572 1.06 23.903 7.725 25.718 8.179 2.723.757 13.767 4.998 15.128 5.604.908.455 3.48-.757 4.236-.757 1.664.303 2.421 1.515 3.328 2.575 2.723 3.029 9.077 11.511 9.531 12.723.151.454.605.757 1.059.454.605-.303-.454-2.12-.756-2.423-2.723-3.332-8.623-10.754-8.775-11.057-.453-.606-1.059-1.363-1.512-1.969.151 0 .302-.152.302 0a12.091 12.091 0 011.967 1.969c.151.151 6.354 6.513 8.925 9.239.757.909 1.362 2.121 1.816 3.181.756 1.666 1.966 3.029 3.177 4.544 1.361 1.666 1.059 1.817-.152 3.332-1.21 1.515-4.084 10.148-4.236 11.814-.453 3.181-2.571 5.756-3.63 8.633-.605 1.515-1.967 2.878-3.177 4.241-1.816 1.667-3.934 2.575-6.354 3.181-.908.152-1.664.455-2.118 1.515-.151.454-.756.757-1.21 1.211-.757.606-1.21.455-1.816-.302-1.815-2.575-16.489-21.054-18.153-23.174-1.664-1.969-2.27-4.544-2.875-6.968-.907-3.938-2.571-7.573-4.689-10.905-1.059-1.666-1.664-3.484-2.572-5.15-.303-.454-.605-1.06-1.059-1.514-.908-.909-1.21-1.969-1.059-3.181.151-1.969-.151-3.635-1.815-4.847-.908-.757-3.026-3.029-3.782-3.483-1.362-.909-3.026-1.364-4.69-1.818a963.15 963.15 0 00-1.816-.454c-.453-.758-.756-1.212-.605-2.121zm-3.933-3.332c.151.151.605 0 .605.454-.151.303-.302.455-.454.303-.302 0-.454-.303-.454-.606 0-.151.152-.303.303-.151zm-2.118 3.938c.303-1.212 1.362-1.666 1.967-2.726.151-.303 1.059-.455 1.664 0 .454.303.756.757.756 1.514 0 .606-.151 1.212-1.059 1.363-.756.152-1.664.455-2.269.909-.303.152-.756.152-1.059-.151-.303-.303 0-.606 0-.909zm-4.085 32.867c1.059-6.967 2.875-13.631 3.934-20.599.151-1.363.151-2.877.605-4.089.605-1.818 1.21-3.484 2.269-5.15.605-.909 2.421-.454 3.328.909.152.303.152.606.454.757a.458.458 0 00.605 0c.303-.151 0-.454 0-.606-.302-.454-1.21-.757-.756-1.363.454-.606 1.361-.303 1.967-.151 1.361.303 2.723.757 3.63 1.514 1.362 1.364 2.875 2.424 4.387 3.636.908.757 1.665 4.998 1.665 5.452 0 2.424.605 4.696 1.058 6.968 0 .302.152.605.303.908.151 1.666-.454 2.575-2.118 2.575-1.059 0-3.933-.757-4.387-.454-2.269 1.514-4.085 3.635-6.505 4.695-.908.455-1.362 1.212-1.816 2.121-.756 1.363-1.512 2.272-3.176 2.272-1.513.151-3.026.757-4.539 1.06-1.059.606-1.059.606-.908-.455zm-2.723 12.269c.303.151.606.303.606.606-.152.909.302 1.666.756 2.272.151.303.302.606 0 .757 0 0-.454-.151-.454-.303-.605-.757-1.059-1.666-1.21-2.726-.151-.303-.151-.606.302-.606zm-.756-4.241c-.151.909 1.059 1.818 0 2.726-.151 0-.151.152-.303.152-1.059-.455-1.21-1.363-1.664-2.272-.454-.606 0-1.212.303-1.666.151-.152.302-.152.454-.152.907-.151 1.21.758 1.21 1.212zm-.908-4.241c0 .454-1.664 2.12-2.118 1.969-1.059-.303-1.059-1.515-1.512-2.272-.152-.303 2.42-3.029 2.874-2.878 1.059.455.756 2.272.756 3.181zm-.756-4.392c0 .605-2.118 3.029-3.026 3.18-.907.152-1.21-1.969-1.361-2.575-.152-.303-.152-.454-.303-.757-.454-.909-1.664-2.423-.605-2.726 0 0 3.328-2.272 4.236-1.666.756.606.908 3.332 1.059 4.544zm-2.118-10.148c.454.605.908 3.029.908 4.089 0 .606-.908.606-1.664 1.06-.908.606-1.816 1.212-2.875 1.363-.605.152-.907-.454-1.21-.757-1.513-2.12-1.362-2.423.756-3.786.303-.303 3.177-3.333 4.085-1.969zm-1.664-5.605c.302.909.454 3.333.908 4.09 0 .454-4.236 2.12-5.447 3.029-.151.152-.453.152-.453.152-.908-.909-1.362-2.121-1.816-3.333-.302-.605.605-.908 1.21-1.363 1.211-.606 2.27-1.363 3.329-2.12.907-.455 1.966-1.515 2.269-.455zm-1.362-.757c-1.664.909-3.63 2.272-5.295 3.029-.756.303-1.512-.605-1.815-1.363 0-.151-1.361-2.12-1.21-2.878.151-.908 1.361-.908 2.118-1.363 1.059-.606 2.42-1.363 3.328-1.969 3.479-2.272 4.538 3.635 2.874 4.544zm-1.966-8.936c.605 1.817.302 2.575-1.967 3.938-1.362.909-5.144 3.029-5.295 2.575-.151-.909-1.361-1.969-1.21-2.727 0-.454 1.059-1.06 1.361-1.363 1.967-.909 3.782-2.272 5.749-3.181.908-.151 1.21.152 1.362.758zm-1.211-6.059c.908 2.878.303 3.03-2.118 4.696-1.21.908-5.597 3.635-5.748 3.786-.757 0-2.421-4.544-1.967-4.847 1.816-1.666 6.505-3.938 8.623-5.149.757-.303 1.059.757 1.21 1.514zm-1.966-6.513c.302 1.212.907 2.575 1.059 3.787.151.454-.454.606-.757.757-2.42 1.212-4.841 2.575-7.11 3.938-1.21.758-1.967 1.061-2.269-.303-.151-.757-.908-1.969-1.059-2.877-.151-.606.756-1.061 1.361-1.212 2.421-1.212 4.539-2.878 6.959-4.393.908-.605 1.664-.605 1.816.303zm-2.118-6.361c.302 1.212.756 2.423 1.21 3.635.151.303.454.757.151.909-2.571 1.211-4.992 3.181-7.564 4.544-2.571 1.211-2.42.908-3.177-.758-1.21-2.726-.756-3.332 1.816-4.998 1.966-1.212 3.782-2.423 6.051-3.938.605-.454 1.21-.454 1.513.606zm-1.513-6.362c.303.909.605 1.969.908 2.878.151.606.302 1.363-.152 1.666-2.723 1.969-6.353 4.393-9.228 6.21-.302.152-1.059.152-1.815-1.06-.605-1.06-1.059-2.272-1.362-3.332-.151-.454.303-.909.757-1.212 2.723-2.272 5.9-3.938 8.774-5.755 1.362-1.061 1.513-1.061 2.118.605zm-1.967-7.27c.152.758.303 1.666.454 2.575.151.454.303 1.515 0 1.818-2.874 2.877-6.959 5.755-10.589 7.573-.303.151-.454-1.212-.757-1.515-.151-.303-1.815-3.483-1.21-4.089 1.664-1.515 9.077-5.756 10.59-6.968.907-.606 1.361-.454 1.512.606zm-2.118-6.664c.303.757.908 1.969 1.059 2.726.152.909.606 1.666-.453 2.424-1.059.757-9.229 5.452-11.044 6.815-.756.606-1.361-.454-1.664-1.211-.151-.455-.303-1.06-.605-1.515-1.059-2.726-1.059-2.575 1.513-4.09 3.328-1.817 6.505-3.786 9.833-5.452.756-.303 1.059-.454 1.361.303zm-1.512-4.695c.302.757 1.21 2.271.151 3.332-1.967 1.817-4.539 2.726-6.808 4.09-1.21.757-5.446 2.877-5.9 3.18-.605.454-1.21-1.818-1.361-2.272-.303-.606-.908-1.363-.454-2.12.151-.152 3.026-2.727 4.69-3.333 1.059-.454 6.051-2.877 7.564-3.332.605-.454 1.815-.454 2.118.454zm-50.377-34.383c2.269.91 4.236 2.424 6.505 3.333 3.328 1.514 36.61 21.204 39.031 23.628.907.909 2.571 3.483 2.571 3.483 0 .455-.453.455-.756.758-.454.303-.908.303-1.362-.152-1.058-1.06-2.269-1.969-3.479-3.029-2.874-2.272-39.031-25.294-42.813-27.87-.151-.15-.453-.302-.605-.454.454 0 .605.303.908.303zm-2.874 1.818c.151-.151.453 0 .605.151 2.42 1.212 36.307 22.72 40.846 25.446 1.966 1.212 3.479 3.03 5.446 4.393.908.606.605 1.514-.757 1.969-1.815.605-8.774 3.18-9.984 3.938-.454.303-1.21.606-1.967.151-2.723-1.363-5.597-1.969-8.018-3.635-2.571-1.817-4.841-3.938-7.261-6.21-1.362-1.212-6.959-6.361-8.321-7.573-2.723-2.424-3.177-6.059-4.841-8.936-.302-.455-4.841-8.028-5.748-9.088 0 0-.303-.303 0-.606zM88.197 28.929c1.815 1.515 17.095 10.603 17.7 11.209 2.572 2.12 5.295 3.938 7.564 6.21 1.664 1.514 3.328 3.029 5.143 4.392 1.967 1.515 6.052 10.451 7.413 12.723.303.454.757 1.666 0 1.969-.605.303-8.32 2.423-11.497 3.635-1.21.455-7.11 1.515-8.774 1.363-.303 0-5.295-1.211-5.75-2.12-.907-1.97-2.722-3.18-4.235-4.544-2.118-1.818-4.085-4.09-6.051-6.059-.303-.303-.605-.757-.605-1.363.15-4.998-.606-9.845-1.06-14.692 0-.605-.453-1.514.303-1.666.605-.151 1.664.455 1.816 1.212.15.606.302.757.756.909 1.967.757 3.48 2.272 5.144 3.483 1.512 1.06 3.177 1.818 4.841 2.727 2.269 1.211 3.933 3.18 5.9 4.695.453.303.907 1.363 1.512.303-.151.151.605.606 1.059.909.303.303.757.757 1.211.303.453-.455-.152-.758-.606-1.06-1.664-1.212-3.479-2.424-5.143-3.787-3.782-2.727-8.018-4.696-11.649-7.725-1.513-1.212-3.025-2.575-4.69-3.635-.605-.454-.756-.909-.907-1.514-.454-2.424-.151-4.847-.454-7.422-.151-.758.605-.909 1.059-.455zM76.7 28.475c.302-.303 1.059.151 1.059 0 2.571-1.363 4.235.303 6.202 1.666.151.152.605.303.605.606.454 1.666.908 3.484.605 5.15-.15.909-.756.303-1.21 0-1.967-1.212-3.782-2.575-5.749-3.635-.453-.152-.756-.455-1.21-.606-.756-.152-1.815-.455-1.664-1.06 0-.606.757-1.364 1.362-2.121zM57.487 64.22c-.303-.454.151-.908.302-1.363 1.967-3.03 3.329-6.361 5.144-9.39 2.27-4.09 3.782-8.483 6.051-12.724 1.362-2.574 2.723-5.15 4.236-7.724.454-.909.908-1.363 2.42-.909 3.329 1.363 6.052 3.787 9.229 5.453.756.454.756 8.936 1.059 12.268.151 1.06 0 2.272-.454 3.484-.151.454-.303.757-.605.909-.454.151-.454-.455-.605-.606-.152-.152-.303-.606-.605-.455-.303.152-.303.455-.303.758-.151.454-.151.909.151 1.363 1.06 1.06.303 1.666-.605 2.272-1.966 1.515-17.397 5.907-19.061 6.059-1.664.302-3.48.302-5.144.757-.151.151-.908.151-1.21-.152zm10.892 54.981c-.302 0-.302-.303-.454-.454-.454-.757-.302-1.515-.302-2.272-.605-4.241-1.513-8.33-2.42-12.571-.455-2.424-.757-4.696-1.211-7.12-.303-1.968 0-2.423 1.967-3.028 2.723-.758 5.294-1.818 7.564-3.484 1.513-1.212 5.294-4.241 5.748-4.241.152 0 .152.606.152 1.212-.757 1.666 0 3.786-1.21 5.604-.606.757-.454 2.12-.606 3.03-.454 2.877 0 5.906-.907 8.632-.908 2.878-2.118 5.908-5.144 7.422-1.361.757-1.664 2.121-1.664 3.332 0 1.364-1.362 2.272-1.21 3.787 0-.152-.303.151-.303.151zm.605 7.574c-.454-3.03.454-5.756 1.513-8.331.605-1.515 1.362-2.878 1.513-4.544 0-.757.908-1.06 1.361-1.212 1.665-.454 2.572-1.817 3.177-3.18.757-1.363 1.06-3.03 1.664-4.544.757-1.666.605-3.484.454-5.301-.151-1.97.303-3.635.757-5.453.605-2.575.756-5.301 1.361-7.876 0-.303-.302-2.424-1.059-2.575-.756-.151-1.059.606-1.361 1.06-.908 1.06-2.118 1.97-3.329 2.727-1.966 1.363-3.63 3.029-5.9 4.09l-1.361.908c-1.059.303-2.27.757-3.48.606-1.664-.303-.907-1.818-1.21-2.727-.907-4.392-2.572-19.538-3.48-22.568-.15-.757.152-1.06.909-1.363 1.512-.606 3.176-1.06 4.84-1.212 1.967-.302 9.531-2.271 11.347-3.029 1.815-.757 3.782-1.514 5.597-2.272.605-.151.908-.303 1.513.152 2.723 1.666 5.446 3.483 8.018 5.453.756.605 1.664 1.211 2.269 2.12 1.059 1.666 2.723 2.272 4.387 3.18.908.455 1.513.91 1.513 2.273s14.372 127.986 14.523 129.5c0 0 0 .303-.151.303-.303.152-.454 0-.606-.151-.907-1.212-35.853-38.017-37.063-39.077-.454-.455-2.572-8.785-3.177-11.512-.454-2.726-3.782-19.387-4.539-25.445zm-7.866 24.385c.907.152 12.556 11.511 14.523 13.48 3.782 3.635 21.028 22.265 21.935 23.326.152.151.454.605.303.757-.303.303-.605.151-.908 0-.605-.454-30.559-11.966-32.374-12.572-.756-.302-1.21-1.06-1.361-1.969-.757-4.241-1.362-8.33-2.42-12.571-.757-2.878-1.211-5.604-1.816-8.482-.303-2.12-.303-2.12 2.118-1.969zm-36.762-4.998c3.177.757 29.046.909 31.013 1.666 1.21.454 2.27 1.06 2.42 2.878.908 6.21 1.664 12.42 3.026 18.63l.908 4.089c.151 1.06 0 1.212-.908.909a86.203 86.203 0 00-5.749-1.969c-4.992-1.666-26.625-10.3-27.079-10.754-.454-.454-.756-1.363-.605-1.818.454-1.514-.151-2.726-.605-3.938-.454-1.211-.303-2.574-1.06-3.483-.907-1.212-1.36-2.424-1.966-3.635-.151-.455-.302-.758-.454-1.212-.302-1.06 0-1.515 1.06-1.363zm-18.91 5.452c.151-.908.303-1.817.303-2.877-.152-2.424 13.01-1.363 14.523-.455 1.815 1.061 5.9 10.148 6.354 13.026.15.606 0 .909-.757 1.06-2.572.455-5.143 1.212-7.866 1.515-.454 0-.757.151-1.06-.151-1.512-1.364-3.782-1.667-5.294-2.878-1.513-1.212-3.026-2.121-4.69-3.03-.151 0-.151-.151-.303-.302-.15-1.969-1.512-3.787-1.21-5.908zm16.944 82.245c-.454 1.212-1.06 1.363-1.816.454-3.025-3.18-11.8-12.874-13.464-14.389-1.664-1.514-2.572-3.635-3.328-5.755-.756-1.666-1.059-3.484-1.361-5.302-.454-3.483 1.512-45.287 1.21-48.013 0-.303-.151-.758.151-.909.454-.303 4.841 2.575 5.597 3.181 1.665 1.211 8.32 3.332 8.624 4.846.907 5.605 1.361 11.36 1.966 16.964.454 4.393 1.21 8.785 1.967 13.178a295.585 295.585 0 003.177 15.903c.605 2.424 1.059 4.847.907 7.422 0 1.363-.302 2.423-.756 3.635-.303.151-2.42 7.725-2.874 8.785zm3.782-1.818c.453-2.575 1.512-4.847 2.269-7.27.151-.757.605-.909 1.21-.454.908.454 1.967.908 2.723 1.514 1.06 1.061 6.657 3.484 7.867 3.635.302 0 .756 0 .756.455 0 .303-.454.606-.605.757-3.63 2.726-14.372 4.695-14.826 3.938-.453-.606.454-1.666.606-2.575zm-.152 8.028c-.302-.455-.605-.455.152-.757 3.025-1.667 6.505-1.969 9.53-3.484 2.118-1.06 4.388-1.515 6.657-2.121.907-.303 1.815-.454 2.269-1.514.151-.455.756-.455 1.21-.455 2.118-.605 4.236-.454 6.354-.605l18.003-.455c1.966 0 3.933.455 5.9 0 .453-.151.907-.151 1.21-.606.605-.606 1.059.455 1.512.758 1.967 1.969 26.021 27.717 27.382 29.232.303.303.152.757-.302 1.06-3.177 1.818-6.657 3.181-10.287 4.09-5.749 1.666-11.498 3.332-17.246 4.847-.303.151-.757.151-.757.454 0 .151.605.151.908 0 5.144-1.969 21.482-5.453 24.205-6.21 1.513-.454 3.026-1.212 4.387-2.121.908-.454 1.513-.454 2.118.455 1.815 3.029 103.022 111.325 103.93 112.234.303.303.605.606.303 1.06-.303.455-.757.455-1.21.455-1.059-.152-2.118-.455-3.026-.758-4.69-1.363-9.228-3.029-13.918-4.544-3.479-1.211-6.959-1.969-10.59-2.575-1.21-.151-2.269-.454-3.479-.757-2.723-.606-5.446-.909-8.321-.151-.605.151-1.361-.152-1.966-.606-2.723-1.515-5.749-2.121-8.775-2.726-2.42-.455-5.143-.152-7.564.605-2.269.606-4.387 1.212-6.656 1.818-.908.303-1.664.303-2.572.151-1.059-.151-2.269.455-3.328.606-.605.152-11.195-12.571-11.8-13.177-.151-.152-.454-.454-.302-.757.151-.455.453-.303.907-.303 1.362 0 18.003 0 21.785-.455 1.513-.151 3.177 0 4.689-.151 4.236-.606 13.162-1.212 13.313-1.212.303 0 .757 0 .757-.454 0-.455-.454-.455-.757-.455-1.966 0-4.084-.151-6.051 0-3.026.303-6.051.455-9.077.606-2.42.152-23.449.455-26.02.455-2.118 0-3.328-1.666-4.69-3.03-4.236-4.392-97.425-107.084-98.787-108.447zm185.925 138.437c-.151.303-.454.303-.756.152-2.572-1.061-5.447-.606-8.17-1.515-.302-.152-.756-.152-1.059-.152-3.328.909-6.656.455-9.833-.151-1.21-.152-2.269-.454-3.025-1.818-.303-.605-1.059-.757-1.816-.605-1.059.302-1.815-.152-2.572-.909-1.059-1.06-2.42-1.818-3.782-2.424-.302-.151-.907 0-.907-.454.151-.606.756-.303 1.059-.303h.453c1.211 0 2.27.151 3.48.606.454.151.908.454 1.361.303 2.27-.455 4.539.303 6.808.757 1.815.455 3.933.303 5.446 1.818.757.757 2.118.303 3.177.908 2.118 1.061 4.236 1.969 6.656 2.424.908.151 1.967.151 3.026.454.303.455.605.606.454.909zm-73.825-9.542c-.454.606-1.362.606-1.967.757-.302 0-.605-.151-.605-.151.454-.303.303-1.212 1.21-1.212.605.151 1.059.303 1.362.606zm-24.962-26.052c-.907 3.938-1.21 7.27-3.025 10.603-.303.605-1.967 1.06-2.572 1.211-1.21.303-1.967.909-2.118-.303-.151-1.363 1.362-5.149 1.513-5.452 1.21-2.424 1.664-4.696 2.42-7.27.152-.606.605-1.818 1.362-1.818.605 0 1.361.757 1.664 1.515.151.454.756.908.756 1.514zm.605 2.424c.606-1.212.908-1.364 1.665-.455.756.909 1.664 1.363 2.42 2.272.303.455.756.758.454 1.363 0 1.061-.605 1.969-.908 2.878-.151.455-3.479.909-4.538 1.212-.605.151-.757 0-.605-.606.302-2.12.605-4.544 1.512-6.664zm-4.689-5.302c-.454 1.818-1.059 3.333-1.816 5.453-.756 2.575-1.815 6.816-3.328 9.088-1.059 1.666-5.446 2.726-5.143.757 1.361-6.664 4.992-12.723 7.564-19.084.454-1.06.907-1.06 1.664-.455 1.21 1.364 1.361 2.727 1.059 4.241zm-3.328-5.452c-.606 2.726-7.716 20.296-9.229 22.113-.302.303-3.782 1.515-4.236 1.212-.605-.303-.302-.909-.15-1.212 1.21-3.18 7.11-18.175 8.774-22.416.453-.909.605-2.121 2.118-1.666h1.21c1.21.303 1.664.909 1.513 1.969zm-2.572-2.878c-.908-.151-1.664-.303-2.421-.454-.907-.152-1.815-.152-1.966-1.818 0-1.212-1.06-2.575-1.21-3.938 0-.151-.152-.454.15-.606.303-.151.454 0 .606.303 1.059 1.969 3.025 3.029 4.387 4.695.303.303.605.606.908 1.061.151.151.302.454.302.605-.302.455-.605.152-.756.152zm-5.295.303c2.269 0 2.42.151 1.664 2.423-1.059 2.878-9.38 24.234-9.833 24.234-1.21.152-2.27.606-3.328.909-1.06.303-.908-.606-.757-1.212.454-1.969 8.926-22.87 10.287-25.597.303-1.06 1.06-.757 1.967-.757zm-3.48 26.96c1.362-.151 1.816-.151 1.665.606-.454 3.029-.454 4.847-4.388 3.635-2.118-.757-4.387-.303-6.656-.909-.302-.151-.908 0-.908-.605 0-.303.454-.455.757-.606 1.664-.758 8.32-1.969 9.53-2.121zm2.724.303c0-.303.15-.454.453-.606 1.665-.605 3.48-.757 5.144-1.211.303-.152 1.21-.455 1.21-.152-.151 2.878-.907 4.241-1.815 6.059-.908 1.969 0 2.272-3.63 1.363-.455-.152-1.816-.303-2.27-.454-.757 0 .605-3.787.907-4.999zm5.9 4.847c1.058-1.969 1.058-4.241 2.117-6.21.606-1.212.454-1.515 1.967-1.666.454-.151 2.118-.606 2.118-.303.151.757-.454 2.121-.605 2.878-.756 2.878-1.059 4.241-1.362 6.513 0 .303-.453.606-.756.606-1.059-.152-2.118 0-3.026-.606-.756-.152-.756-.606-.453-1.212zm5.294.303a63.722 63.722 0 011.816-7.27c.454-1.515 1.361-2.121 2.874-2.424 3.48-.606 3.631-.606 2.723 2.727-.756 2.726-1.967 5.452-2.572 8.33-.151.757-.756 1.666-1.966 1.515-.454-.152-.908-.152-1.362-.303-1.966-.455-1.966-.455-1.513-2.575zm6.657.151c.605-1.06 2.269-8.027 2.874-10.148 0-.151 1.21-5.755 2.269-3.938 1.059 1.515 2.572 2.424 3.328 4.09.303.757.303 1.515-.151 2.272-1.059 1.969-4.236 9.542-5.143 11.057-.303.454-1.211.454-1.362.454-3.479-.606-3.479-.757-1.815-3.787zm5.748 3.636c.757-4.09 2.118-8.028 3.782-11.815.303-.605.454-.757 1.059-.151.606.757 1.513 1.363 2.118 2.12.303.303.757.758.605 1.364-.605 3.18-1.966 6.058-4.084 8.482-.605.757-1.816.757-2.874.757-.606 0-.757-.303-.606-.757zm8.018-6.816c.152-.606.605-.909.908-.455 1.21 1.212 2.42 2.575 3.026 4.241.151.758-.454.909-.908.909-1.21.152-2.421.454-3.48.909-.605.303-1.21.151-.907-.909.454-1.666.907-3.181 1.361-4.695zm-6.353 9.088c1.664-.303 3.025-1.061 4.84-.909 1.513.151 5.598-.152 6.354.303.303.151.605.303.757.606.151.454-.152.757-.454.908-.303.152-.605.152-.908.303-1.513.606-3.328.758-4.236 2.575-.454.909-1.664.454-2.571.606-1.967.151-3.329-.757-4.388-2.121-.907-1.06-.756-2.12.606-2.271zm-28.895-39.532c.605.303 1.21 1.06 1.059 1.514-1.513 3.181-8.018 20.448-10.741 25.749a4.606 4.606 0 01-1.967 1.818c-1.059.605-1.815.151-1.815-1.212.151-1.666 9.53-26.203 9.682-26.658.908-1.666 2.118-2.12 3.782-1.211zm-13.918 23.628a19.833 19.833 0 00-1.362 4.241c-.302 1.666-2.723 2.423-3.933 1.514-.454-.302-.302-.605-.151-1.06 1.361-4.089 2.42-8.179 4.236-12.117.302-.757.756-1.363 1.059-2.12.302-.909 1.059-.455 1.815-.455h.908c.756 0 1.361 0 .756 1.212-1.815 2.726-2.27 5.756-3.328 8.785zm6.051-25.294c.757.151 2.874.151 3.026 1.363.454 2.12-1.21 4.241-1.967 6.058-.605 1.363-1.361 2.727-1.815 4.09-.303.909-.908 1.817-1.816 1.817-2.42 0-2.723-.606-1.815-2.423 1.059-1.969 3.328-11.057 4.387-10.905zm-12.254 7.724c.606-2.12.606-4.392 1.665-6.513.756-1.363 2.571-2.272 4.084-1.817.756.303 1.513-.303 2.27 0 .453.151 1.058 0 1.058.606 0 1.514.757 2.877.152 4.392-1.06 2.423-1.967 4.695-3.177 7.119a5.347 5.347 0 01-2.572 2.272c-1.362.757-2.42 1.969-4.085 1.817 1.21-2.575-.151-5.301.605-7.876zm-7.261 21.508a53.81 53.81 0 001.361-7.119c0-.454.303-.757.757-.909 3.026-1.211 5.749-2.726 8.169-4.998.303-.303.605-.454.908-.303.454.303-1.664 3.181-2.27 4.544-1.21 2.726-2.42 5.604-3.63 8.331-.303.908-.908 1.817-2.572 1.666-.454-.152-1.362-.455-2.27-.303-.604-.152-.604-.455-.453-.909zm-2.27 6.513c.303-.909.908-2.272 1.967-2.878 1.06-.454 2.42-.606 3.48 0 .605.303 1.21.303 1.815-.151 1.06-.606 2.118-.303 3.328-.152 2.27.152 4.387.757 6.505 1.212 3.177.454 6.203 1.06 9.38 1.666.756.151 1.815.151 1.815.606.151.606-1.059.606-1.664.909-1.059.454-2.118.908-3.025 1.666-1.21 1.06-2.724 1.363-4.085 2.272-1.059.757-2.572.151-3.933-.152-1.664-.454-3.329-.151-4.993-.303-1.815-.151-3.177.909-4.84 1.06-1.967 0-3.783.606-5.75.606-.756 0-1.21-.303-1.058-1.06 0-1.969.605-3.787 1.059-5.301zm30.257 39.835c-.454 1.06-.303 2.423 0 3.635v.151c-.756.303-1.362-.151-1.967-.454-.756-.606-5.597-3.181-5.748-3.332-1.967-1.364-3.177-3.484-4.69-5.15-.605-.606-1.21-1.212-1.967-1.666-.756-.455-3.177-.152-3.48-.152-1.815-.151-3.479-.606-5.294-.303-1.21.152-2.723-.908-3.48-2.12-2.118-3.332-3.782-6.664-4.538-10.603-.605-3.029-.908-6.209-1.967-9.087-.15-.606 0-1.061.757-1.212 4.538-1.363 8.925-2.726 13.766-3.029 1.664-.152 3.026.454 4.236 1.363s2.572.606 3.48-.152c1.513-1.363 3.63-1.666 5.294-2.877 1.21-.909 2.572-1.666 3.782-2.424.908-.606 1.816-.757 2.875-.757 1.21-.152 2.572-.454 3.782.151 2.572 1.212 17.397 3.181 17.7 3.787.302.606-.454 1.818-.757 2.726-.605 1.666-1.815 2.878-2.42 4.544-.454 1.515-.908 2.878-2.269 3.938-.152.152-.303.303-.303.606-.302 3.332-1.967 6.059-3.933 8.633-1.967 2.575-4.236 5.15-7.11 6.816-3.329 1.212-4.539 4.09-5.75 6.968zm171.855 2.12c-.151.606-.756.606-1.21.757-1.059.455-2.269.909-2.42 1.969-.454 1.818-1.816 2.727-3.177 2.878-3.177.455-6.052 2.575-9.38 1.969-.302 0-.605.152-.907.303-1.513.757-3.026 1.212-4.388 1.969-2.874 1.515-6.051 2.121-9.076 3.181-2.875 1.06-5.749 1.969-7.716 4.544-.302.454-.756.606-1.361.606-3.026.606-5.9 1.514-9.077 1.666-1.059 0-9.228.454-9.833.454-3.48.455-6.959 1.06-10.439 1.818-3.026.606-5.749 1.666-8.774 1.817-1.967 0-3.934.303-5.9.909-.757.303-1.816.152-2.421-.757-.151-.303-.605-.303-.907-.455-2.27-1.211-7.111 1.969-7.413 1.969-1.815.606-3.631 1.363-5.446 1.969-2.421.909-7.413 1.363-7.413 1.363-4.69 0-9.228-.302-13.615-2.12-.908-.454-6.052-.757-7.111-.909-1.21-.151-2.571 0-3.63-.454-1.664-.606-2.723 0-3.782 1.212-1.362 1.363-3.026 2.272-5.144 2.12-4.084-.151-7.866-2.12-11.951-2.272-2.269 0-4.236-1.515-6.354-2.726-2.874-1.515-5.597-3.181-8.32-4.998-1.664-1.061-2.723-2.424-3.026-4.393-.302-2.12-.302-4.392-.302-6.513 0-.909-.454-1.817 0-2.423.756-1.06 0-2.575 1.21-3.484.454-.303.302-1.06-.152-1.666-.756-1.212-1.058-2.575-.302-3.787.756-1.363 1.815-2.726 3.177-3.635 1.966-1.363 3.631-2.877 5.295-4.544 1.512-1.514 2.571-3.332 4.084-4.695.303-.303.605-1.212 1.362-.606.605.455.605 1.06.454 1.666-.152.606-.454 1.212-.908 1.666-.303.455-.757.909-.605 1.364.454 1.817-.605 2.877-1.967 3.938-.302.151-.605.605-.302.908.302.303.907 0 1.059-.151 1.361-2.121 4.689-3.029 3.933-6.362-.151-1.06.756-1.817.908-2.877.302-2.424.756-4.847 1.512-7.271.152-.302.454-.908 0-1.06-1.21-.606-.605-1.211 0-1.817.454-.455.605-.909.908-1.363.756-1.818 1.815-3.484 2.42-5.302.303-1.06 1.665-1.666 2.118-1.06.908 1.515 2.572 2.121 3.631 3.332.757.758 1.362 1.06 2.421 1.06 1.815 0 3.328-.605 4.841-1.514 2.874-1.818 6.051-3.181 9.379-4.09 2.572-.757 5.446-.757 7.715-2.575.303-.302 3.177 0 3.782-.151 1.362-.606 2.724-.909 4.085-1.212 2.421-.757 4.841-.454 7.413-.757.454 0 1.059.151 1.513.303.302 0 .605.303.302.606-.605.909-.605 2.12-1.815 2.575-1.664.605-3.177 1.666-4.992 1.666-.303 0-.757 0-.757.454 0 .303.454.152.757.152.907 0 1.815 0 2.874-.303 2.723-1.061 5.749-.758 8.623-.909 2.42-.303 4.538.909 6.959 1.06 2.269.152 4.538 1.666 6.808 2.575 1.21.606 2.571 1.363 3.933 2.12.454.303.756.606 1.21.909.908.758 1.664 1.969 3.026 1.969 1.815 0 3.479.606 5.143.606 3.328.152 6.657.909 10.136.606.605 0 .908-.757 1.664-.454 2.875 1.211 5.9 1.363 8.926 1.969.756.151 1.513.303 1.815 1.06.454 2.12 2.421 2.423 3.933 3.332 1.362.606 3.177.152 3.934 1.969.151.152.454.152.605.152.302-.152.151-.455.151-.758-.151-.606-.605-.909-.908-1.363-.302-.454-.907-.757-.605-1.363.303-.606 1.059-.303 1.513 0 .605.303 1.21.151 1.967.151 1.664 0 3.328-1.06 4.841.303.454.455 1.21 0 1.513-.606.302-.605.151-1.211-.454-1.666-1.664-.908-3.177-1.817-4.992-2.423-.454-.152-1.211-.454-1.665-.152-1.361.606-2.723.152-4.084-.151-3.631-.909-8.472-2.423-7.413-7.27.151-.909-.454-26.961-1.21-31.959-.151-1.212 0-1.363 1.21-.909 3.177 1.061 5.9 2.878 8.774 4.393 2.875 1.666 4.993 3.635 5.9 7.118.605 2.272 11.044 24.84 12.103 27.112.454.758.151 1.212-.605 1.818-1.967 1.363-3.177 5.453-1.664 7.27 1.059 1.363 1.361 2.726 1.966 4.09.303.606.757.908 1.211 1.363 2.117 1.514 4.387 2.878 6.807 3.635 1.664.606 2.875 1.969 4.539 2.272.151 0 .302.303.453.454.303 1.515 1.513 1.818 2.572 2.272 1.967 1.06 3.631 2.424 5.749 3.332.302.303.908.455.756 1.212zm-19.212-17.115l.151-.303c.605 0 .908.454 1.059 1.06-.757.152-1.059-.151-1.21-.757zm1.059.909c.453.151.756.454.907 1.06 0 0-.151.151-.302.151-.454-.303-.605-.757-.605-1.211zm3.63 2.877c.152-.454.605-.303.908-.303 1.21.152 2.421.455 3.328 1.212 1.059.757 1.967 1.515 3.026 1.969.151.152.454.152.302.455 0 .151-.302.151-.453.151-1.967-.606-3.934-1.363-5.9-1.969-.303-.151-.606-.303-.757-.606-.151-.303-.454-.454-.454-.909zm23.449 9.694c-.151.151-.454.151-.605.151-.151 0-.151 0-.303-.151-2.118-1.515-4.689-1.515-6.959-2.726-.756-.455-1.512-.909-2.118-1.515-1.361-1.363-2.723-2.878-4.538-3.938-.756-.303-1.21-.909-1.815-1.515-1.816-1.514-3.782-2.575-6.203-1.514-.908.454-1.815.454-2.42-.455-1.059-1.666-2.421-2.877-3.934-4.241-.454-.303-.907-.757 0-1.06 1.059-.303.454-.757 0-1.06-.756-.303-1.513-.606-2.269-.757-.605-.152-1.362-.303-1.362-1.061 0-.757.303-1.514 1.211-1.817.302-.152.605-.152.756-.152 2.269-.908 2.421-1.514 1.059-3.483-1.664-2.575-13.464-29.384-13.918-30.899-.605-2.272-6.202-19.539-6.656-21.659-.757-3.787-1.816-7.422-2.421-11.208 0-.152-.151-.455-.151-.606 0-.455 0-.909.454-1.212.302-.151.756.152 1.059.455 1.513 1.514 10.136 6.361 11.195 7.421.302.303.454.455.756.606 1.815.909 2.572 2.726 3.48 4.393 1.059 1.969 6.051 10.753 7.261 13.177.454.909.454 2.12.605 3.181.151.605-.151.757-.605 1.06-.908.454-1.21 1.06-.756 2.272.907 2.575 2.874 4.695 3.479 7.421 1.059 4.241 3.026 8.028 4.085 12.269.756 2.726 1.815 5.604 4.084 7.573 2.27 1.969 4.69 3.787 6.959 5.604 1.513 1.212 3.328 2.121 5.144 2.727 1.815.757 2.572 2.877 4.084 4.089 1.211 1.06 1.816 2.575 2.875 3.635.454.303.454.757.151 1.212-.303.303-.605.151-.908 0-2.42-.909-5.143-1.06-7.715-1.969-.303-.152-4.538-2.121-6.354-2.575-1.059-.303-6.807-2.423-8.623-2.726-1.664-.303-3.328-.909-4.992-1.515-.303-.151-.454-.151-.757-.151.152.151.454.151.606.302 1.664 1.667 4.084 1.818 6.051 2.575 1.059.455 6.202 2.121 7.866 2.424.757.151 1.513.303 2.118 1.06.757.909 2.118.454 3.177 1.06.605.455 1.816.455.908 1.666-.151.303 0 .606.454.606.302 0 .605-.151.756 0 .303.152.908.303.757.757 0 .455-.605.455-.908.455-.605 0-1.362.303-1.967-.303-.302-.303-.756-.152-1.059 0-.605.151-1.21.454-1.664.606-1.966.606-2.42 2.12-1.059 3.635.605.606 1.211 1.363 2.421 1.666 1.513.303 3.025 1.06 4.538 1.666 1.967.757 2.723 2.575 4.085 3.787.605.303.756.605.605.757zm4.387 1.363c-.756-.454-1.21-1.363-1.664-1.969-1.664-2.726-4.387-4.089-7.11-5.15-1.664-.605-2.875-1.969-4.69-2.272-.605-.151-1.21-1.211-.605-1.817.454-.606 1.513-1.212 2.269-.606.605.454 1.21.303 1.664.151 2.421-.908 4.992-.908 7.564-.757h.303c1.815 0 2.42 1.666 3.631 2.424 2.269 1.514 2.269 1.514 2.118 3.786 0 0 0 .455.151.757 1.059 1.667.302 3.333 0 4.847-.303 1.061-2.421 1.363-3.631.606zm64.446 23.477v1.515c0 2.877-1.362 5.149-3.933 6.664-.303.151-.454.303-.757.151-1.815-.908-3.631.152-5.446.152-2.118 0-4.236.303-6.203.757-.907.152-1.664-.303-1.966-.757-1.513-1.969-3.933-2.727-5.295-4.998-.303-.606-1.059-1.364-2.118-.909-.454.151-.756-.152-1.059-.455-1.21-1.817-3.177-3.029-4.085-5.149-.302-.455-.605-.909-1.361-.909-.756-.152-1.513-.303-2.118-.909-.454-.454-1.21-.606-1.513.152-.302.757-.756.605-1.513.454-1.815-.454-3.63.151-5.446 0-1.21 0-1.966-.454-2.572-1.363-1.512-1.818-9.076-7.725-11.497-8.028-.605-.151-1.21-.454-1.664-.909-1.21-1.363-2.42-2.877-3.479-4.543-.303-.455-.908-1.364-.606-2.121.152-.757.757-.606 1.362-.454 1.664.606 3.479-.152 4.236-1.212.756-1.06 1.059-2.878.302-4.241-.605-1.363-1.059-2.726-1.512-4.089-.303-1.061-1.967-3.787-2.27-4.393-1.361-2.878-6.505-21.205-7.261-23.628-.151-.303-2.269-5.604-2.723-8.028-1.513-6.815-3.933-13.328-5.295-20.144a350.045 350.045 0 00-3.631-17.267c-.907-4.09-3.479-15.752-3.782-17.57-.605-3.332-1.361-6.664-1.966-9.845-.152-.757-.606-5.15-.454-5.604.151-.757 1.059-.454 1.664-.454 1.815.151 3.479.757 5.143 1.363 1.059.454 2.118.606 3.177.606 2.572.303 5.144.757 7.564 1.363 2.723.606 5.446 1.06 8.321 1.212 2.42.151 4.387 1.06 6.354 2.271 3.328 2.121 4.841 5.605 6.807 8.634 1.059 1.666 2.118 3.484 2.723 5.301.454 1.515 25.264 60.434 25.416 61.04.756 1.817 1.361 3.786 2.269 5.452.302.606.756 1.212-.303 1.666-.454.152 0 1.061.151 1.667.908 2.423 2.572 4.392 3.631 6.815.605 1.212 1.362 2.727 1.513 3.938.151 3.333 2.572 5.302 3.631 8.179.605 1.515.907 3.03 1.664 4.393 1.513 2.878 2.723 6.058 4.236 8.936.756 1.212 1.059 2.726 1.513 4.09.151.454 0 1.211-.303 1.363-.605.303-.756-.303-.908-.757 0-.152-.151-.152-.151-.152-.303.151 0 .454 0 .606 0 .151.151.606 0 .606-.303.151-.303-.303-.605-.455 0 0 0-.151-.151-.151-.606-.455-.605-1.818-1.362-1.515-.454.152.303 1.212.454 1.969.454 2.121 1.059 4.09 2.42 5.756.757 1.515.908 2.726.757 3.938zm.605-15.752c-.303-.606-1.967-2.121-2.269-2.727-.454-1.06 1.815-.302 2.42-.454.908.152 1.967.303 3.026.454.302 0 .151.909-.151 1.212-.454.757-.908 1.515-1.513 2.121-.757.605-1.21 0-1.513-.606zm78.666-39.532c-.454 0-.908-.303-1.059-.606-.151-.454.454-.151.605-.303.454 0 .908 0 .908.455.151.151-.151.302-.454.454zm4.992-8.785c-.756 1.969-1.966 3.635-2.723 5.604-.151.303-.453.455-.907.303h-1.816v.152c-1.059-.152-1.966-.152-3.025-.303h-1.816c-.605 0-.907.454-.907 1.06 0 .606.453.606.907.606.757.151 2.118-.455 2.421.454.302.909-1.059 1.212-1.816 1.818-1.21 1.06-2.269 2.423-4.084 2.877-.454.152-.908.606-1.21.152-.303-.303.151-.757.302-1.06.303-.909 1.21-1.666.151-2.727-.453-.303.152-.605.303-.757a.732.732 0 000-1.06c-.454-.455-.756-.152-1.059.151-.605.909-1.21 1.818-2.118 2.575-1.815 1.666-3.782 3.332-5.749 4.998-.151.152-10.741 4.393-12.102 4.847-.605.152-10.892 3.938-11.044 3.938-.907.909-2.42 1.363-3.025 2.272-.757 1.06-1.362 1.818-2.269 2.727-1.513 1.363-2.875 3.029-4.539 4.241-3.025 2.12-6.202 3.635-9.531 5.149-.605.303-2.874-1.211-3.933-1.211-.756 0-1.21.302-1.21 1.211-.303 1.969-3.026 7.422-3.328 8.331-1.211 3.18-3.631 5.301-5.749 7.724-.454.606-.908.909-1.362-.303-.453-1.363-.453-2.12.757-3.18 1.967-1.666 3.933-3.635 4.538-6.21.454-1.818 1.362-3.332 1.513-5.301 0-.758 6.203-27.567 6.354-32.565 0-1.515.605-3.029.908-4.544 1.059-3.787 2.269-7.573 3.177-11.36.302-1.363 1.21-8.633 1.059-9.845-.757-4.544-1.816-8.936-2.572-13.48-.605-3.938-12.254-60.737-12.557-62.1-.151-.606-.605-1.06-1.059-1.211-.302 0-2.723 1.666-3.025 2.12-.605.606-1.362 1.212-1.967 1.818-.908 1.211-2.42 1.817-3.782 2.423-2.42 1.363-12.708 9.542-13.01 10.148-.303 1.06-1.362 1.515-2.269 1.818-.605.302-1.967-1.364-1.967-2.424 0-1.363.303-2.726 1.059-3.938 1.059-1.817 1.815-3.787 3.479-5.301.908-.909 3.177-4.998 3.631-5.756 1.362-2.12 1.967-4.392 2.572-6.664.454-2.121.151-4.393 1.664-6.21.303-.303.454-.606.454-1.06-.151-1.363.454-2.575 1.059-3.787.605-1.06 1.513-2.12 1.361-3.484 0-.605.303-.908.908-.908.454 0 1.059 0 1.21.606.454 1.969 4.085 16.206 4.69 15.903.908-.454-1.967-10.148-1.361-14.389.302-1.666 1.361-2.726 3.479-2.423 2.269.454 3.479-.758 4.992-1.818.908-.757 1.816-1.969 2.723-1.817 1.211.303 1.816 1.817 2.723 2.726.303.303.454.757.606 1.212 1.21 2.726 2.874 4.695 5.9 6.058 2.571 1.06 5.294 2.121 7.715 3.484.756.454 1.361.757 1.664 1.514.151.455.454.758.908.909.756.152 1.059.909 1.361 1.515 1.059 2.12 14.826 51.952 15.582 54.527.303 1.06 1.21 1.817 1.664 2.877 1.816 4.241 11.951 41.653 12.708 43.016.302.454.302 1.514 1.059 1.212.907-.303.454-1.212.302-1.818-.605-2.575-11.043-40.441-12.102-44.682-.757-2.877-14.674-51.951-14.826-54.223 0-.152-.302-.455 0-.606.303-.152.454.151.605.303.606.757 1.059 1.514 1.665 2.272.453.606.605 1.817 1.966 1.514.454-.151.605.758.605 1.212.152 1.969 4.085 18.933 4.387 19.387 1.211 1.818 3.026 3.332 3.329 5.756.454 3.029 1.664 5.604 3.177 8.179.756 1.363 1.512 6.058 1.664 6.361 1.361 1.666 9.077 17.722 10.135 20.145.152.303 2.724 5.604 2.875 8.33 0 .758.454 1.364.605 2.121 1.059 4.089 3.631 13.026 3.782 13.329.303 1.363.756 2.574 2.118 3.332 1.815 1.06 2.723 3.181 4.387 4.544 1.513 1.06 4.841 4.241 5.295 4.241 1.21.757 1.664 1.363 1.361 2.423zm-.151-4.392c-.302.151-.454-.303-.605-.606-.908-1.666-1.967-3.181-2.723-4.847-.908-1.969-1.664-4.09-2.269-6.059-.908-2.423-1.967-4.846-2.875-7.27-.453-1.06-1.512-8.482-2.269-10.602v-.303c.303.151 2.572 8.633 4.539 12.268.756 1.515 1.512 3.03 2.118 4.544.605 1.363.907 2.878 1.512 4.241.606 1.666 1.059 3.332 2.421 4.544.605.606.605 3.029.605 3.181-.151.303-.151.757-.454.909z"/></g><defs><clipPath id="a"><path fill="#fff" d="M0 0h431v440H0z"/></clipPath></defs></svg>