<svg width="424" height="322" viewBox="0 0 424 322" fill="none" xmlns="http://www.w3.org/2000/svg"><g clip-path="url(#a)" fill="#00467F"><path d="M211.579 317.763c-22.76 0-45.519 0-67.436-.847-9.272 0-19.388-.847-28.66-.847-16.016 0-32.875-.848-48.89-.848-5.058 0-10.959-.847-16.017 0-10.115.848-16.858-5.084-24.445-10.168-1.686-1.695-2.529-4.237-4.215-6.779C14.33 286.411 9.272 273.7 4.215 261.837c0-.847 0-1.695-.843-1.695-1.686-4.237.843-8.473-.843-12.71S0 238.958 0 234.721c.843-18.642 1.686-38.131 2.529-56.774.843-23.726 2.529-46.605 4.215-70.331 1.685-25.421 2.528-51.69 4.214-77.11 0-10.17 5.9-19.49 14.33-26.27C29.503.848 33.718-.846 39.618.848c1.686.848 4.215.848 5.9.848 18.546.847 36.247 1.695 54.792 1.695 19.388 0 38.776.847 57.32 1.694 38.776.848 76.708 1.695 115.483 2.542 21.074.848 42.147 0 64.064.848 12.644 0 25.288.847 37.932 1.694h5.901c15.173 0 26.131 7.627 34.561 20.337.843 1.695 1.686 3.39 1.686 5.932-1.686 23.726.842 46.605 1.685 70.332l2.529 66.094c.843 19.49 1.686 38.979 3.372 59.316.843 9.321 0 16.947-5.058 25.421-.843 1.695-2.528 3.39-2.528 5.084-3.372 15.253-10.959 28.811-16.859 42.369-3.372 7.626-8.43 13.558-16.016 16.947h-8.43c-22.759-.847-45.519-.847-67.435-.847-32.875-.848-64.907-1.695-96.938-3.39 0 .848 0 .848 0 0zm156.787-16.1c1.686-.847 1.686-2.542 1.686-4.237h2.529c-1.686 5.085-2.529 9.321-4.215 14.406h-.843v-.848c4.215-4.237 7.586-9.321 7.586-16.1 3.372-.847 4.215-3.389 5.058-5.931.843-3.39-1.686-1.695-2.529-2.542-.843-1.695-.843-3.39-3.372-1.695-3.371 3.389-4.214 7.626-5.057 11.863 0 1.695-.843 3.39-.843 5.084.843 0 0 .848 0 0zm24.445-8.473c.843-1.695 1.686-2.543 1.686-4.237 0-.848 1.686-.848 0-1.695v1.695h-2.529c0-.848-.843-.848-.843-1.695 0 .847-.843.847-.843 1.695-1.686 1.694-1.686 2.542 0 4.237h2.529zm-9.272-2.543c.843-.847 1.686-1.694 2.529-3.389v.847c0 .848-.843 1.695-2.529 2.542 0 .848 0 1.695-.843 1.695v.848c.843-.848.843-1.695.843-2.543zm-317.79-4.236v-2.542c0-.848 0-.848-.842-1.695 0 .847-.843.847-.843 1.695.843 0 .843.847 1.686 2.542 0 .847 0 1.694.843 2.542l.842.847v-1.695c-.843-.847-1.686-.847-1.686-1.694zM137.4 17.795c-.843-2.542-2.529-2.542-5.058-1.695-1.686.848-3.372.848-5.058 1.695-.843-1.695-1.686-4.237-4.214-2.542-2.529 0-5.058 1.695-7.587 3.39 0 0-.843.847 0 1.694 0 .847.843.847 1.686.847 2.529-.847 4.215-.847 6.744-1.694 1.685 3.389 5.057 1.694 7.586 1.694 5.058 2.542 9.272.848 11.801-5.084-1.686 0-4.215.848-5.9 1.695zm17.701 1.695c0-.848.843-2.542.843-3.39-.843-.847-2.528-.847-3.371 0-3.372 1.695-6.744 4.237-10.116 6.78-.843.846-1.686 1.694 0 2.541 0 0 1.686.848 1.686 0 3.372-2.542 7.587-4.237 10.958-5.931 0 1.694-2.528 2.542-1.685 5.084 2.528.847 5.057-1.695 8.429-.848 3.372 3.39 6.743.848 9.272 0-2.529 5.932-6.743 7.627-13.487 5.932-3.372-.847-7.586 0-10.958 0-2.529 0-5.058.847-6.744 0-8.429-2.542-16.858-2.542-25.288-3.39-9.272-1.694-18.545-4.236-26.974-8.473-8.43-5.084-16.859-6.78-24.445-5.932-5.9.848-10.959 0-16.86 0H33.719c-4.215 0-6.744 1.695-8.43 4.237-4.214 4.237-7.586 9.321-8.43 16.1-.842 9.321-.842 18.642-1.685 27.963-.843 15.253-1.686 29.658-2.529 44.911-.843 11.863-2.529 23.726-2.529 35.589 0 13.558-.843 26.269-1.686 39.827-.843 12.71-.843 25.421-1.685 38.131 0 13.558-.843 10.169 8.429 19.49.843.847 2.529 1.694 3.372 2.542 5.057 4.237 10.115 5.931 16.859 5.931 15.172.848 31.188.848 46.361 1.695 22.76.847 45.519.847 67.436 1.695 46.362.847 93.566 1.695 139.928 2.542 25.289.847 49.734.847 75.022 1.695 10.115 0 20.231.847 30.346-1.695 5.901-.847 10.958-3.39 14.33-7.626 3.372-3.39 5.901-7.627 5.058-13.558 0-13.558-.843-26.269-2.529-39.827-.843-6.779-.843-14.405-5.058-20.336-2.529-5.085-4.214-9.322-5.9-14.406-4.215-15.252-6.744-30.505-8.43-46.605-.843-3.389-.843-7.626 0-11.016 0-1.694 0-5.084 2.529-5.084s2.529 2.542 2.529 4.237c.843 5.084.843 10.168 1.686 15.252 1.686 11.016 2.529 22.032 9.272 31.353.843.847.843 2.542 3.372 1.695v-11.016c-.843-22.879-1.686-45.758-2.529-67.79 0-8.473-.843-16.947-.843-24.573 0-3.39-.843-6.78-2.529-9.321-5.9-8.474-14.33-15.253-25.288-16.1-9.272-.848-18.545-.848-27.817-.848-22.76-.847-45.519 0-67.435-.847-32.032-.847-64.907-.847-98.625-1.695-5.9 0-10.958.848-16.016 4.237l-5.057 2.542c0-2.542 3.371-3.39 2.529-5.931-5.058 0-8.43 4.237-12.645 4.237zM368.366 289.8c-3.372.847-3.372 4.237-5.901 5.932v-1.695c0-3.39 4.215-5.084 2.529-8.474-5.058-.847-3.372 5.932-6.743 5.932 0-1.695.842-4.237.842-5.932 0-1.694-.842-2.542-2.528-2.542s-3.372 2.542-5.058 0c-.843-.847-2.529-.847-3.372 0-.843.848-2.529 2.542-3.372.848-3.371-3.39-5.057 0-6.743 1.694-.843.848-1.686 2.542-2.529 3.39v-2.542c0-3.39 0-3.39-3.372-1.695-.843 0-1.686 1.695-2.529.847-1.685-1.694-3.371 0-5.057-1.694-2.529-2.543-4.215-.848-5.901.847-.843.847-1.686 1.695-1.686 2.542 0-1.695 0-3.389-1.686-4.237-1.685 0-1.685.848-2.528 1.695-.843.847-.843 1.695-1.686 2.542-.843-4.237-.843-4.237-4.215-4.237-1.686 0-2.529-1.695-4.215-.847-.843.847-1.686 1.695-3.371 2.542-1.686.847-1.686-3.39-2.529-2.542-2.529 1.695-5.058 0-6.744 2.542s-1.686 0-1.686-.847c-.843-2.543-1.686-2.543-4.214-1.695-5.901 2.542-5.901 1.695-6.744 6.779 0 2.542-.843 5.084-.843 7.626 0 .847 0 1.695 1.686 2.542 4.215 2.542 5.058 1.695 8.429-1.695 0-.847.843-2.542 1.686-.847 1.686 2.542 1.686 2.542 2.529 0 0-1.695.843-3.389 1.686-4.237l.843-.847c.843 2.542-2.529 5.931 0 8.474 3.372 0 6.743.847 10.115 0 2.529 1.694 4.215.847 5.058-1.695l2.529-5.084c0 1.694-.843 3.389-.843 4.236 0 2.543 1.686 2.543 3.372.848.843 0 .843-.848 1.685-.848 0 1.695 0 2.543 1.686 2.543 2.529 0 4.215 0 6.744.847 4.215 1.695 6.743 0 9.272-2.542v5.084c0 .847.843.847.843 1.695.843 0 1.686 0 1.686-.848.843-.847 1.686-3.389 3.372-3.389.843 2.542-.843 5.084-.843 7.626 0 .848.843.848.843 1.695.843 0 1.686 0 1.686-.847 2.529-2.543 2.529-6.779 6.743-8.474 0 2.542-.843 5.931-.843 8.474 1.686 0 2.529 2.542 5.058 1.694 1.686-3.389 3.372-5.931 5.901-9.321.843-1.694 2.528-3.389 4.214-3.389l-5.057 10.168v1.695h1.686c4.214-5.084 10.115-11.863 10.115-20.337 1.686-.847 2.529-.847.843-2.542 0 0-.843 1.695-.843 2.542zm-270.585 1.695c0 3.389-.843 7.626 1.686 11.016 0 .847.843.847 1.686.847s1.686-.847 2.529-1.695c.843-1.694.843-4.237.843-5.931v-12.711c1.686 1.695 1.686 3.39.843 5.932v9.321c0 5.931 1.686 6.779 6.743 7.626 2.529 0 4.215 0 6.744.847 4.215 0 4.215 0 5.9-3.389.843-.847.843-2.542 1.686-4.237 0 .848.843 1.695.843 1.695v2.542c0 1.695.843 2.542 2.529 2.542s1.686-.847 1.686-1.695c.843-.847.843-2.542 2.529-.847 3.372 3.389 5.058 2.542 5.9-.847 0-1.695.843-3.39.843-5.085.843.848 1.686 1.695 3.372 2.543.843.847 1.686 2.542 1.686 3.389 0 1.695 1.686 2.542 3.372 1.695 1.686-.848 2.529.847 3.372 1.694 3.371 1.695 4.214.848 5.057-3.389 0-.847 0-2.542.843-3.389 1.686.847.843 3.389 1.686 4.236l1.686 1.695c0-.847.843-.847.843-1.695.843-.847.843-3.389.843-3.389 2.529 0 2.529 1.695 2.529 3.389 0 .848 0 1.695.843 2.542 0 .848.843.848 1.685.848.843 0 .843-.848 1.686-.848 0-.847 0-1.694.843-1.694 0-.848 0-3.39 1.686-2.542 2.529 0 1.686 2.542 2.529 4.236 0 .848.843.848 1.686.848 1.686-1.695.843-5.084 4.215-6.779 0 1.695 0 3.389.843 5.084 0 .847.843 2.542 1.685 1.695.843 0 1.686-.848 1.686-1.695.843-2.542.843-5.931 1.686-7.626 0 2.542 0 5.084.843 8.473 0 1.695.843 3.39 3.372 3.39 1.686 0 3.372 0 4.215-1.695.843-2.542 1.686-4.237 1.686-6.779 0 1.695.842 4.237 1.685 5.932.843 1.695 1.686 1.695 3.372 1.695.843 0 1.686-.848 1.686-1.695.843-3.39 0-6.779 1.686-9.321 1.686.847 1.686 1.695 1.686 3.389v5.084c0 1.695.843 2.543 2.529 2.543s2.528 0 3.371-1.695c.843-3.39.843-5.932 3.372-9.321 0 1.695.843 3.389.843 5.084 0 5.932 1.686 6.779 7.587 5.932 3.371 0 4.214-.848 5.057-5.085 0-1.694 0-3.389 1.686-4.236 2.529 1.694 0 5.931 3.372 7.626 1.686-5.932 2.529-11.016 4.215-17.795v11.863c0 2.542-.843 5.084 1.686 5.932 3.371.847 2.528-3.39 4.214-4.237 0 0 0-.847.843-.847.843-.848 1.686 0 1.686.847 1.686 1.695 2.529 1.695 3.372 0s.843-3.389 1.686-5.084c1.686-.848 0 5.084 3.371 1.695l.843-.848c0 .848 0 1.695.843 2.542.843 3.39.843 3.39 2.529.848.843-.848 1.686-.848 2.529 0 .843 1.694 2.529 1.694 2.529 0 2.529-6.779 3.372-13.558 2.529-20.337-4.215-.848-7.587-1.695-10.959 1.695-1.685.847-3.371.847-4.214-.848-1.686-3.389-5.058 1.695-6.744-1.695h-2.529c-1.686 2.543-3.371 1.695-5.9 0-.843-.847-1.686 0-2.529.848-1.686 2.542-2.529 5.084-2.529 8.473 0-3.389-.843-5.931-.843-9.321 0-.847-.843-1.694-2.529-1.694-1.686.847-3.371.847-5.057 0-2.529-1.695-3.372 0-4.215 2.542 0 .847 0 1.695-.843 1.695 0 0 0-1.695-.843-1.695-2.529-4.237-5.058-4.237-7.586-.848-.843 1.695-.843 2.543-2.529 0-3.372-4.236-5.901-3.389-7.587.848 0 .847-.843 2.542-.843 4.237 0-2.542 0-4.237-.843-5.085 0-1.694-.843-3.389-3.371-3.389-2.529 0-4.215 0-5.058 2.542 0 .847-.843 2.542-.843 3.39-.843-.848-.843-.848-.843-1.695 0-.848-.843-2.542-.843-2.542-.843-.848-1.686.847-1.686 1.694-1.686 2.543-.843 5.085-1.686 6.779 0-2.542-.843-5.931-.843-8.473 0-.848-.842-.848-.842-1.695-.843 0-1.686.847-2.529 1.695-1.686 3.389-.843 7.626-1.686 11.015-.843-3.389 0-7.626-2.529-11.015-.843-.848-.843-1.695-1.686-1.695-1.686 0-2.529.847-2.529 2.542 0 .847-.843.847-.843 1.695-1.686-.848-.843-3.39-2.529-4.237-5.057 1.695-5.9 1.695-6.743 1.695s-1.686.847-1.686 1.694c-.843 3.39-.843 7.627-.843 12.711-.843-5.084-.843-8.474-1.686-11.863 0-.848-.843-.848-1.686-1.695-.843-.847-1.686 0-2.528.847-2.529 2.543-1.686 6.779-2.529 11.864-.843-5.085 0-9.321-1.686-12.711 0-.847-.843-.847-1.686-.847s-1.686 0-1.686.847c-1.686 1.695-.843 4.237-3.372 5.084 0-1.694-.843-4.237-.843-4.237-3.371 0-1.686 2.543-1.686 4.237 0 .848-.843.848-.843 2.542 0-1.694-.842-3.389-.842-5.084 0-.847-.843-1.695-1.686-1.695s-1.686.848-1.686 1.695c-.843 2.542-.843 4.237-1.686 8.474 0-4.237-.843-6.779-.843-9.321 0-1.695-.843-2.542-2.529-2.542s-2.529 1.694-2.529 2.542c0 1.695 0 2.542-.843 4.237 0 .847.843 2.542-1.686 2.542-1.685-10.169-1.685-10.169-11.801-10.169h-1.686c-5.057 0-5.057 0-7.586 5.932-1.686-.847-.843-4.237-3.372-5.084-2.529 1.694-1.686 4.237-3.372 6.779 0-1.695-.843-2.542-.843-4.237 0-.848-.843-2.542-1.685-1.695-.843 0-1.686.847-1.686 1.695-.843 5.931-.843 11.863-.843 17.795v1.694c0 1.695.843 2.542 2.529 2.542.843 0 1.685-1.694 1.685-2.542.843-3.389 0-6.779 1.686-10.168zm-54.79-37.284c1.685 2.542 3.37 2.542 5.057 2.542 5.9 0 12.644 0 18.544.847 16.016.847 32.032 1.695 48.048 1.695 16.859.847 32.875.847 49.734 1.695 22.759.847 44.676.847 67.435 1.694 37.09 1.695 73.336 1.695 110.426 2.542 7.586 0 15.173.848 22.759.848 9.272 0 19.388-.848 28.66-.848.843 0 1.686 0 1.686-.847.843-.847.843-1.695 1.686-2.542 0 0-.843-.847-1.686-.847-7.586-.848-14.33-1.695-21.917-1.695-23.602-.848-46.361-.848-69.964-1.695-33.717-.847-67.435 0-101.153-1.695-27.817-.847-54.791-.847-82.608-1.694-23.603 0-46.362-.848-69.964-1.695-.843 1.695-3.372 1.695-6.744 1.695zm226.751 44.063c1.685.847.843 4.237 3.371 3.389 1.686 0 1.686-1.694 1.686-3.389.843-4.237 2.529-9.321 1.686-13.558 0-1.695-1.686-2.542-2.529-.847-2.529 4.236-2.529-.848-4.214-.848-4.215 5.084-1.686 11.863-4.215 17.795v1.695c0 .847.843.847.843 1.694.843 0 1.686 0 1.686-.847.843-.847.843-2.542 1.686-5.084zm-191.348-7.627v-3.389c0-2.542.843-5.932-1.686-8.474-1.686-.847-2.53 2.542-2.53 8.474 0 1.695 0 4.237.844 5.932 0 .847.843 1.694.843 1.694 2.529 0 5.058.848 7.586.848 0 0 .843-.848.843-1.695v-12.711c0-.847-.843-.847-1.686-.847-2.529 2.542-.843 6.779-4.214 10.168zm-13.487-22.878c-10.116-.848-18.545-1.695-26.975-2.543h-5.057c-.843 0-2.53 0-2.53 1.695 0 .848.844 1.695 1.687 1.695 6.743-.847 13.487.847 20.23.847 5.058 0 8.43.848 12.645-1.694zm25.288 24.573v-10.168c0-.848 0-2.542-1.686-1.695-.843 0-1.686.847-1.686 1.695-1.686 6.779-1.686 12.71.843 19.489 0 .848.843.848 1.686.848s1.686-.848 1.686-1.695c-.843-2.542-.843-5.932-.843-8.474zm-35.404 5.932c2.53-5.932.843-11.863 0-17.795l-.843-.847c-.843 0-.843.847-.843.847-.843 6.779 0 12.711 1.686 17.795zm5.058-.848c3.372-5.931 2.529-11.863.843-17.794 0 0-.843-.848-1.686-.848v4.237c0 5.084.843 10.169.843 14.405zM107.054 19.49c.843 0 2.529-.848 3.371-1.695 0 0 0-.848.843-1.695-2.528 0-5.057-3.39-7.586-2.542-.843 0-1.686.847-2.529 1.695-.843.847.843 1.695 1.686 1.695.843 1.694 2.529 1.694 4.215 2.542zM48.891 294.884c.843-4.237.843-9.321 0-16.1-1.686 6.779 0 11.016 0 16.1zm57.32-26.268c8.429 1.695 8.429 1.695 12.644 0h-12.644zm94.409-4.237c-4.214-.847-7.586-.847-10.958-.847v.847h10.958zM22.76 279.632c0-.848 0-1.695-.844-1.695 0-.847-.842-.847-1.685-.847 0 .847-.843.847-.843 1.694v1.695c0 .847.843.847 1.686.847.842 0 1.685-.847 1.685-1.694zm126.441-9.321s0 .847 0 0c1.686.847 3.372.847 4.215.847-1.686 0-2.529 0-4.215-.847 0-.848 0 0 0 0zm21.916.847c3.372 0 5.058 1.695 8.43-.847-3.372 0-5.901-.848-8.43.847zm94.41.847c-.843 0-.843 0-1.686.848.843 0 1.686 0 1.686-.848.843.848 1.686.848 1.686 0h-1.686zm-243.61-17.794l-.843.847c0 .847.842 1.695 1.685.847.843 0 .843-.847.843-1.694h-1.686zm49.733 33.894v-.847c-.843.847-.843 1.695 0 .847-.843.848-.843 1.695-.843 1.695s0-.847.843-1.695zm5.9 13.558c0-.847 0-1.694-.842-1.694-.843 0-1.686 0-1.686.847s0 .847.843 1.695c.843.847 1.686 0 1.686-.848zm61.535-30.505l.843-.847c-.842 0-.843 0-1.685-.848h-.843l1.685 1.695zm248.669 27.116c-.843 0-.843 0 0 0-.843.847-.843.847 0 .847v-.847zm-109.583-26.269c-.843.848-.843.848 0 0-.843.848-.843.848 0 0 0 .848 0 .848 0 0 0 .848 0 .848 0 0zM82.608 300.816s-.843.847 0 0c-.843.847 0 1.695 0 2.542l.843-.847c0-.848 0-.848-.843-1.695zm305.146 2.542s0-.847 0 0c-.843-.847-.843-.847 0 0-.843 0 0 0 0 0z"/><path d="M133.185 193.2c6.743-4.237 14.33-8.474 21.073-12.71 1.686-.848 3.372-1.695 4.215-2.542.843-.848 1.686-.848 2.529 0 .843.847 0 1.694-.843 2.542-.843.847-1.686.847-2.529 1.694-5.9 2.542-11.801 5.932-17.702 8.474-1.686 2.542-4.214 2.542-6.743 2.542zm10.115 2.542c7.587-4.236 15.173-8.473 22.76-11.015.843 0 .843 0 1.686.847-5.058 2.542-9.273 5.084-14.33 7.626-2.529.848-5.901 2.542-10.116 2.542zm209.893-93.21c2.529-.848 3.372-.848 5.057-1.695 1.686-.847 3.372 0 4.215 1.695l2.529 5.084c.843 1.695 0 3.389-2.529 3.389-.843 0-1.686 0-2.529-.847-.843 0-1.686-.847-1.686-2.542 0-3.39.001-3.39-5.057-5.084zM183.762 26.269c-3.372 1.694-5.901 4.236-10.116 6.779 2.529-5.085 2.529-5.085 10.116-6.78zm1.685 169.473c2.529-2.542 5.901-4.237 10.116-5.084-4.215 4.237-4.215 4.237-10.116 5.084zm150.887-87.279c-1.686.848-3.372.848-5.901 0 2.529-.847 4.215-.847 5.901 0zm-148.358-77.11s-.843 0-.843-.848v-.847c.843-.847 1.686-.847 2.529-1.695.843-.847 1.686 0 1.686 0 0 .848 0 1.695-.843 1.695-.843 1.695-1.686 1.695-2.529 1.695zm-5.9 156.763c.843-.847.842-1.695 1.685-1.695h1.686l-.843.848c-.843 0-1.685 0-2.528.847zm-21.074-164.39c.843-1.694 2.529-1.694 4.215-2.542-.843 1.695-1.686 2.542-4.215 2.542zm14.33-2.542c-.843 2.542-2.529 1.695-4.215 1.695.843-.847 2.529-1.695 4.215-1.695zm2.529 168.627c.843-1.695 2.529-1.695 4.215-1.695-1.686 0-3.372.847-4.215 1.695zm0 0c-1.686.847-2.529 1.694-4.215 2.542.843-1.695 2.529-2.542 4.215-2.542z"/><path d="M170.274 194.048c0-2.543 2.529-2.543 4.215-2.543-1.686.848-3.372 1.695-4.215 2.543zm0 0c-.842 0-.842 0-1.685.847 0-1.695.843-.847 1.685-.847zm15.173 1.694c-.843 1.695-2.529 1.695-4.214 1.695 1.685-.847 2.528-1.695 4.214-1.695zm-42.147-.847c0 .847 0 .847 0 0-.843.847-.843.847 0 0 0 .847 0 0 0 0zm-10.115-1.695c-.843.848-.843 1.695-1.686 2.542.843-.847 1.686-1.694 1.686-2.542zm42.147-172.016l.843-.847s0 .847-.843.847c.843 0 0 0 0 0zm85.137 271.158s-.843 0 0 0c-.843-.847-.843-1.695-.843-2.542v-.848c.843 0 .843 0 .843.848v2.542zm-115.483 2.542c-.843 0-.843.848 0 0-1.686 0-.843 0 0 0-.843-.847-.843 0 0 0zm76.708 1.695h.843v.847l-.843-.847zm117.169 5.084c0-4.237 1.686-7.626 3.371-11.016l1.686 1.695c-1.686 3.389-2.528 6.779-5.057 9.321zm-5.901-1.695c0-4.236 1.686-6.778 4.215-10.168-.843 3.39-1.686 6.779-4.215 10.168zm17.702-6.779l.843-.847-.843.847c0-.847 0 0 0 0zm7.587-1.694c-.843 1.695-.843 3.389-1.686 5.084.843-2.542.843-4.237 1.686-5.084zm-10.116 5.931c.843-1.695 1.686-2.542 1.686-4.237 0 1.695 0 2.542-1.686 4.237zm14.33-1.694c-.843 1.695-1.686 2.542-2.529 4.237.843-1.695.843-3.39 2.529-4.237zm-14.33 1.694c-.843 1.695-.843 3.39-1.686 5.085.843-1.695 1.686-3.39 1.686-5.085zm-65.749-3.389c-.843 0-.843 0 0 0-.843-.847 0-1.695 0-2.542 0 0 .843 0 .843.847-.843.848-.843 1.695-.843 1.695zm30.346-6.779c-.843 2.542 0 4.237-2.529 5.932.843-1.695.843-4.237 2.529-5.932zm64.063 8.474h-2.529c0-.848.843-.848.843-1.695l1.686 1.695zm1.686-8.474c0 .847 0 .847 0 0-.843.847-.843.847 0 0zm-4.215 8.474l-2.528 2.542c1.685-1.695 2.528-1.695 2.528-2.542zM128.127 16.948c-1.686.847-2.529 1.694-4.215 2.542.843-.848 2.529-1.695 4.215-2.542zm9.273 0c-1.686 1.694-4.215 3.389-5.901 4.236 1.686-1.694 3.372-3.39 5.901-4.236zm255.411 277.089h-2.529V289.8h2.529v4.237zM102.839 122.021c-.843.848-1.686.848-2.529 0v-1.695h1.686c0 .848 0 1.695.843 1.695zm3.372-24.574c-2.529.848-4.215.848-6.744 0 3.372-1.694 3.372-1.694 6.744 0zm10.958 49.995c1.686.848 1.686 2.542 2.529 4.237-1.686-.847-1.686-2.542-2.529-4.237zM84.294 161c0 1.695.839 3.389 0 5.084V161zM51.42 132.189l.843-.847-.843.847zm85.98-11.015h-2.529c1.686-1.695 1.686-1.695 2.529 0zm-87.666-17.795v2.542h-2.53c1.687-.847 1.687-1.694 2.53-2.542z"/></g><defs><clipPath id="a"><path fill="#fff" d="M0 0h424v322H0z"/></clipPath></defs></svg>